<svg width="122" height="145" viewBox="0 0 122 145" fill="none" xmlns="http://www.w3.org/2000/svg">
<g clip-path="url(#clip0)">
<path d="M85.8 114.1H36.9C35.6 114.1 34.6 115.1 34.6 116.4V117.8C34.6 119.1 35.6 120.1 36.9 120.1H58.3V142C58.3 143.4 59.4 144.5 60.8 144.5H61.8C63.2 144.5 64.3 143.4 64.3 142V120.2H85.7C87 120.2 88 119.2 88 117.9V116.5C88.2 115.2 87.1 114.1 85.8 114.1ZM61.4 143.2C60.8 143.2 60.3 142.7 60.3 142.1C60.3 141.5 60.8 141 61.4 141C62 141 62.5 141.5 62.5 142.1C62.5 142.8 62 143.2 61.4 143.2ZM38.2 118.3C37.6 118.3 37.1 117.8 37.1 117.2C37.1 116.6 37.6 116.1 38.2 116.1C38.8 116.1 39.3 116.6 39.3 117.2C39.3 117.8 38.8 118.3 38.2 118.3ZM85.1 118.3C84.5 118.3 84 117.8 84 117.2C84 116.6 84.5 116.1 85.1 116.1C85.7 116.1 86.2 116.6 86.2 117.2C86.2 117.8 85.7 118.3 85.1 118.3Z" fill="#00639C"/>
<path d="M2.20001 72.4L14.6 84.7H50.9L62.5 72.1V49L73.4 38V14.5H71.4V36.7L62.5 45.6V13.7L51 2.29999L49.4 3.89999L60.1 14.6V56.9L51 47.7V25.7H48.5V35.3L39.3 25.2L37.9 26.6L48.6 39.3V49.2L59.9 60.5V71L55.3 76L39.1 59.8L37.6 61.4L46.9 70.7H38.2L27.5 60V48.8H25.1V61.1L37.1 73.5H49.8L53.8 77.5L49.6 82.2H38.8L16.3 59.7V47.5H14.2V60.8L35.9 82.6H27.2L4.00002 59.4L2.20001 61.2L23.7 82.7H16.1L3.70001 70.3L2.20001 72.4Z" fill="#00639C"/>
<path d="M3.1 74.6C4.81208 74.6 6.2 73.2121 6.2 71.5C6.2 69.7879 4.81208 68.4 3.1 68.4C1.38792 68.4 0 69.7879 0 71.5C0 73.2121 1.38792 74.6 3.1 74.6Z" fill="#00639C"/>
<path d="M3.1 63.4C4.81208 63.4 6.2 62.0121 6.2 60.3C6.2 58.5879 4.81208 57.2 3.1 57.2C1.38792 57.2 0 58.5879 0 60.3C0 62.0121 1.38792 63.4 3.1 63.4Z" fill="#00639C"/>
<path d="M15.3 51.6C17.0121 51.6 18.4 50.2121 18.4 48.5C18.4 46.7879 17.0121 45.4 15.3 45.4C13.5879 45.4 12.2 46.7879 12.2 48.5C12.2 50.2121 13.5879 51.6 15.3 51.6Z" fill="#00639C"/>
<path d="M26.4 51.6C28.1121 51.6 29.5 50.2121 29.5 48.5C29.5 46.7879 28.1121 45.4 26.4 45.4C24.6879 45.4 23.3 46.7879 23.3 48.5C23.3 50.2121 24.6879 51.6 26.4 51.6Z" fill="#00639C"/>
<path d="M37.8 63.4C39.5121 63.4 40.9 62.0121 40.9 60.3C40.9 58.5879 39.5121 57.2 37.8 57.2C36.0879 57.2 34.7 58.5879 34.7 60.3C34.7 62.0121 36.0879 63.4 37.8 63.4Z" fill="#00639C"/>
<path d="M38.2 29C39.9121 29 41.3 27.6121 41.3 25.9C41.3 24.1879 39.9121 22.8 38.2 22.8C36.4879 22.8 35.1 24.1879 35.1 25.9C35.1 27.6121 36.4879 29 38.2 29Z" fill="#00639C"/>
<path d="M49.7 29C51.4121 29 52.8 27.6121 52.8 25.9C52.8 24.1879 51.4121 22.8 49.7 22.8C47.9879 22.8 46.6 24.1879 46.6 25.9C46.6 27.6121 47.9879 29 49.7 29Z" fill="#00639C"/>
<path d="M50.6 6.2C52.3121 6.2 53.7 4.81209 53.7 3.1C53.7 1.38792 52.3121 0 50.6 0C48.8879 0 47.5 1.38792 47.5 3.1C47.5 4.81209 48.8879 6.2 50.6 6.2Z" fill="#00639C"/>
<path d="M72.7 17.2C74.4121 17.2 75.8 15.8121 75.8 14.1C75.8 12.3879 74.4121 11 72.7 11C70.9879 11 69.6 12.3879 69.6 14.1C69.6 15.8121 70.9879 17.2 72.7 17.2Z" fill="#00639C"/>
<path d="M84.4 29C86.1121 29 87.5 27.6121 87.5 25.9C87.5 24.1879 86.1121 22.8 84.4 22.8C82.6879 22.8 81.3 24.1879 81.3 25.9C81.3 27.6121 82.6879 29 84.4 29Z" fill="#00639C"/>
<path d="M84.4 64.2C86.1121 64.2 87.5 62.8121 87.5 61.1C87.5 59.3879 86.1121 58 84.4 58C82.6879 58 81.3 59.3879 81.3 61.1C81.3 62.8121 82.6879 64.2 84.4 64.2Z" fill="#00639C"/>
<path d="M27.5 98.5C29.2121 98.5 30.6 97.1121 30.6 95.4C30.6 93.6879 29.2121 92.3 27.5 92.3C25.7879 92.3 24.4 93.6879 24.4 95.4C24.4 97.1121 25.7879 98.5 27.5 98.5Z" fill="#00639C"/>
<path d="M84.4 74.6C86.1121 74.6 87.5 73.2121 87.5 71.5C87.5 69.7879 86.1121 68.4 84.4 68.4C82.6879 68.4 81.3 69.7879 81.3 71.5C81.3 73.2121 82.6879 74.6 84.4 74.6Z" fill="#00639C"/>
<path d="M95.5 51.6C97.2121 51.6 98.6 50.2121 98.6 48.5C98.6 46.7879 97.2121 45.4 95.5 45.4C93.7879 45.4 92.4 46.7879 92.4 48.5C92.4 50.2121 93.7879 51.6 95.5 51.6Z" fill="#00639C"/>
<path d="M107.1 51.5C108.812 51.5 110.2 50.1121 110.2 48.4C110.2 46.6879 108.812 45.3 107.1 45.3C105.388 45.3 104 46.6879 104 48.4C104 50.1121 105.388 51.5 107.1 51.5Z" fill="#00639C"/>
<path d="M118.9 63.4C120.612 63.4 122 62.0121 122 60.3C122 58.5879 120.612 57.2 118.9 57.2C117.188 57.2 115.8 58.5879 115.8 60.3C115.8 62.0121 117.188 63.4 118.9 63.4Z" fill="#00639C"/>
<path d="M15.5 120.4C17.2121 120.4 18.6 119.012 18.6 117.3C18.6 115.588 17.2121 114.2 15.5 114.2C13.7879 114.2 12.4 115.588 12.4 117.3C12.4 119.012 13.7879 120.4 15.5 120.4Z" fill="#00639C"/>
<path d="M14 116.9L25.7 105.5H48.3L83.8 70L85.5 71.7L75.5 81.7H84.4L94.6 71.6V48.5H97V72.6L87.9 81.6H95.4L105.7 71.3V49.5H108.1V69.3L118.1 59.3L119.7 60.9L96.3 84.3H73.4L49.8 108H27.5L16.8 118.3L14 116.9Z" fill="#00639C"/>
<path d="M27.7 94H48.7L71.1 71.2V48.5L83.7 35.9V25.9H85.6V37.4L73.5 49.5V59.6H84V62.1L73.4 62.2V73L50.8 95.6C50.3 96.1 49.7 96.3 49.1 96.3H27.5L27.7 94Z" fill="#00639C"/>
<path d="M72.7 105.5L84.3 93.9H95.5L118.4 71L120 72.7L96.4 96.3H85.1L74.5 106.9L72.7 105.5Z" fill="#00639C"/>
<path d="M84.4 105.4H97.6L107.6 116L105.5 117.6L96.6 107.8H84.4C84.4 107.7 85.2 105.4 84.4 105.4Z" fill="#00639C"/>
<path d="M61.4 109.9C63.1121 109.9 64.5 108.512 64.5 106.8C64.5 105.088 63.1121 103.7 61.4 103.7C59.6879 103.7 58.3 105.088 58.3 106.8C58.3 108.512 59.6879 109.9 61.4 109.9Z" fill="#00639C"/>
<path d="M73.4 97.5C75.1121 97.5 76.5 96.1121 76.5 94.4C76.5 92.6879 75.1121 91.3 73.4 91.3C71.6879 91.3 70.3 92.6879 70.3 94.4C70.3 96.1121 71.6879 97.5 73.4 97.5Z" fill="#00639C"/>
<path d="M72.7 109.9C74.4121 109.9 75.8 108.512 75.8 106.8C75.8 105.088 74.4121 103.7 72.7 103.7C70.9879 103.7 69.6 105.088 69.6 106.8C69.6 108.512 70.9879 109.9 72.7 109.9Z" fill="#00639C"/>
<path d="M118.9 74.6C120.612 74.6 122 73.2121 122 71.5C122 69.7879 120.612 68.4 118.9 68.4C117.188 68.4 115.8 69.7879 115.8 71.5C115.8 73.2121 117.188 74.6 118.9 74.6Z" fill="#00639C"/>
<path d="M107.3 120.3C109.012 120.3 110.4 118.912 110.4 117.2C110.4 115.488 109.012 114.1 107.3 114.1C105.588 114.1 104.2 115.488 104.2 117.2C104.2 118.912 105.588 120.3 107.3 120.3Z" fill="#00639C"/>
<path d="M84.4 109.9C86.1121 109.9 87.5 108.512 87.5 106.8C87.5 105.088 86.1121 103.7 84.4 103.7C82.6879 103.7 81.3 105.088 81.3 106.8C81.3 108.512 82.6879 109.9 84.4 109.9Z" fill="#00639C"/>
<path d="M59.8 106.2L72.6 93.5L74.4 95.3L62 107.8L59.8 106.2Z" fill="#00639C"/>
</g>
<defs>
<clipPath id="clip0">
<rect width="122" height="145" fill="white"/>
</clipPath>
</defs>
</svg>
