<svg width="412" height="145" viewBox="0 0 412 145" fill="none" xmlns="http://www.w3.org/2000/svg">
<g clip-path="url(#clip0)">
<path d="M138.1 18.5H142.1V36.1C142.1 36.3 142.2 36.7 142.3 37.3C142.4 37.9 142.7 38.5 143.2 39.1C143.6 39.7 144.3 40.3 145 40.8C145.8 41.3 146.8 41.5 148.2 41.5C149.5 41.5 150.5 41.3 151.3 40.8C152.1 40.3 152.7 39.8 153.1 39.1C153.5 38.5 153.8 37.9 154 37.3C154.1 36.7 154.2 36.3 154.2 36.1V18.5H158.2V36.1C158.2 36.2 158.2 36.6 158.1 37.1C158 37.6 157.9 38.2 157.6 38.9C157.4 39.6 157 40.3 156.6 41.1C156.2 41.9 155.6 42.6 154.8 43.2C154.1 43.9 153.1 44.4 152.1 44.8C151 45.2 149.7 45.4 148.2 45.4C146.7 45.4 145.4 45.2 144.3 44.8C143.2 44.4 142.3 43.9 141.6 43.3C140.9 42.7 140.3 42 139.8 41.2C139.3 40.4 139 39.7 138.8 39C138.6 38.3 138.4 37.7 138.3 37.1C138.2 36.6 138.2 36.2 138.2 35.9V18.5H138.1Z" fill="#00639C"/>
<path d="M177.9 35.5V18.5H181.9V45.5L165.9 29.1V45.5H161.9V18.5L177.9 35.5Z" fill="#00639C"/>
<path d="M189.8 45.5H185.8V18.5H189.8V45.5Z" fill="#00639C"/>
<path d="M205.6 45.5L193.8 18.5H198.7L205.7 34.4L212.7 18.5H217.6L205.6 45.5Z" fill="#00639C"/>
<path d="M238.1 18.5V22.2H225.5V30.3H235.7V34H225.5V41.6H238.1V45.4H221.5V18.4H238.1V18.5Z" fill="#00639C"/>
<path d="M255.7 45.5L251.5 36.3C251.3 36.3 251 36.3 250.8 36.3C250.6 36.3 250.4 36.3 250.2 36.3H246V45.4H242V18.4H245.9H250.1C250.6 18.4 251.1 18.4 251.8 18.5C252.4 18.5 253.1 18.6 253.8 18.8C254.5 19 255.1 19.2 255.8 19.6C256.4 20 257 20.5 257.5 21.1C258 21.8 258.4 22.6 258.7 23.6C259 24.6 259.2 25.9 259.2 27.4C259.2 28.6 259.1 29.6 258.9 30.5C258.7 31.4 258.4 32.1 258.1 32.8C257.7 33.4 257.3 34 256.9 34.4C256.5 34.8 256 35.2 255.5 35.4L260.2 45.4H255.7V45.5ZM248.6 32.4C249.3 32.4 250.1 32.4 250.9 32.4C251.7 32.4 252.4 32.2 253 31.9C253.6 31.6 254.2 31.1 254.6 30.4C255 29.7 255.2 28.7 255.2 27.4C255.2 26.1 255 25.1 254.6 24.4C254.2 23.7 253.7 23.2 253 22.9C252.4 22.6 251.7 22.4 250.9 22.4C250.1 22.4 249.4 22.3 248.6 22.3H245.9V32.2H248.6V32.4Z" fill="#00639C"/>
<path d="M272.8 18.5C273.8 18.5 274.6 18.6 275.4 18.8C276.2 19 276.8 19.2 277.3 19.4C277.9 19.7 278.5 19.9 278.9 20.2L276.9 23.7C276.5 23.5 276.1 23.3 275.7 23.1C275.3 23 274.9 22.8 274.4 22.7C273.9 22.6 273.4 22.5 272.8 22.5C272.2 22.5 271.6 22.6 271.2 22.8C270.8 23 270.4 23.3 270.1 23.6C269.8 23.9 269.6 24.3 269.5 24.6C269.4 25 269.3 25.3 269.3 25.6C269.3 26.5 269.6 27.2 270.3 27.7C271 28.1 271.8 28.5 272.8 28.8C273.8 29.1 274.9 29.4 276 29.6C277.2 29.9 278.2 30.3 279.2 30.8C280.2 31.3 281 32.1 281.7 33.1C282.4 34.1 282.7 35.4 282.7 37.2C282.7 38.3 282.5 39.4 282 40.4C281.5 41.4 280.9 42.3 280 43C279.1 43.7 278.1 44.3 276.9 44.8C275.7 45.2 274.3 45.5 272.7 45.5C271.4 45.5 270.3 45.4 269.4 45.1C268.5 44.8 267.6 44.5 266.9 44.2C266.2 43.8 265.5 43.5 265 43.1C264.5 42.7 264 42.4 263.6 42.1L265.7 38.6C267.1 39.7 268.5 40.5 269.7 40.9C270.9 41.3 272 41.5 272.8 41.5C273.5 41.5 274.2 41.4 275 41.2C275.7 41 276.4 40.8 276.9 40.4C277.5 40 277.9 39.6 278.3 39.1C278.7 38.6 278.8 37.9 278.8 37.2C278.8 36.4 278.6 35.8 278.2 35.3C277.8 34.8 277.3 34.4 276.7 34.1C276.1 33.8 275.3 33.5 274.5 33.3C273.7 33.1 272.9 32.9 272 32.6C271.2 32.4 270.3 32.1 269.5 31.8C268.7 31.5 268 31.1 267.3 30.5C266.7 30 266.2 29.3 265.8 28.5C265.4 27.7 265.2 26.7 265.2 25.6C265.2 24.2 265.5 23.1 266.1 22.1C266.7 21.2 267.4 20.4 268.2 19.9C269 19.4 269.8 19 270.7 18.7C271.6 18.6 272.3 18.5 272.8 18.5Z" fill="#00639C"/>
<path d="M290.8 45.5H286.8V18.5H290.8V45.5Z" fill="#00639C"/>
<path d="M302.4 22.5H294.8V18.5H313.9V22.5H306.4V45.5H302.4V22.5Z" fill="#00639C"/>
<path d="M328.2 31.6L334.2 18.5H338.8L330.3 37.1V45.5H326.1V37.1L317.6 18.5H322.3L328.2 31.6Z" fill="#00639C"/>
<path d="M377.7 18.5C379.6 18.5 381.3 18.9 383 19.6C384.6 20.3 386.1 21.3 387.3 22.5C388.5 23.7 389.5 25.2 390.2 26.8C390.9 28.4 391.3 30.2 391.3 32.1C391.3 34 390.9 35.7 390.2 37.4C389.5 39 388.5 40.5 387.3 41.7C386.1 42.9 384.6 43.9 383 44.6C381.4 45.3 379.6 45.7 377.7 45.7C375.8 45.7 374.1 45.3 372.4 44.6C370.8 43.9 369.3 42.9 368.1 41.7C366.9 40.5 365.9 39 365.2 37.4C364.5 35.8 364.1 34 364.1 32.1C364.1 30.2 364.5 28.5 365.2 26.8C365.9 25.2 366.9 23.7 368.1 22.5C369.3 21.3 370.8 20.3 372.4 19.6C374.1 18.8 375.8 18.5 377.7 18.5ZM377.7 41C378.9 41 380.1 40.8 381.2 40.3C382.3 39.8 383.3 39.2 384.1 38.4C384.9 37.6 385.6 36.6 386 35.5C386.5 34.4 386.7 33.2 386.7 32C386.7 30.7 386.5 29.6 386 28.5C385.5 27.4 384.9 26.5 384.1 25.6C383.3 24.8 382.3 24.1 381.2 23.7C380.1 23.3 378.9 23 377.7 23C376.4 23 375.3 23.2 374.2 23.7C373.1 24.2 372.1 24.8 371.3 25.6C370.5 26.4 369.8 27.4 369.4 28.5C368.9 29.6 368.7 30.8 368.7 32C368.7 33.3 368.9 34.4 369.4 35.5C369.9 36.6 370.5 37.6 371.3 38.4C372.1 39.2 373.1 39.9 374.2 40.3C375.3 40.8 376.4 41 377.7 41Z" fill="#00639C"/>
<path d="M395.2 45.5V18.5H411.8V22.2H399.1V30.3H409.3V34H399.1V45.3H395.2V45.5Z" fill="#00639C"/>
<path d="M148.7 67.8H137.1V61.8H166.2V67.8H154.7V102.9H148.7V67.8Z" fill="#00639C" stroke="#00639D" stroke-miterlimit="10"/>
<path d="M192.4 61.7C195.2 61.7 197.9 62.2 200.4 63.3C202.9 64.4 205.1 65.8 206.9 67.7C208.8 69.6 210.2 71.7 211.3 74.2C212.4 76.7 212.9 79.4 212.9 82.2C212.9 85 212.4 87.7 211.3 90.2C210.2 92.7 208.8 94.9 206.9 96.7C205 98.6 202.9 100 200.4 101.1C197.9 102.2 195.2 102.7 192.4 102.7C189.6 102.7 186.9 102.2 184.4 101.1C181.9 100 179.7 98.6 177.9 96.7C176 94.8 174.6 92.7 173.5 90.2C172.4 87.7 171.9 85 171.9 82.2C171.9 79.4 172.4 76.7 173.5 74.2C174.6 71.7 176.1 69.5 177.9 67.7C179.8 65.8 181.9 64.4 184.4 63.3C186.8 62.2 189.5 61.7 192.4 61.7ZM192.4 96C194.3 96 196.1 95.6 197.7 94.9C199.4 94.2 200.8 93.2 202.1 92C203.4 90.8 204.3 89.3 205.1 87.6C205.8 85.9 206.2 84.1 206.2 82.2C206.2 80.3 205.8 78.5 205.1 76.8C204.4 75.1 203.4 73.7 202.1 72.4C200.8 71.1 199.4 70.2 197.7 69.4C196 68.7 194.2 68.3 192.4 68.3C190.5 68.3 188.7 68.7 187 69.4C185.3 70.1 183.8 71.1 182.6 72.4C181.3 73.7 180.4 75.1 179.6 76.8C178.9 78.5 178.5 80.3 178.5 82.2C178.5 84.1 178.9 85.9 179.6 87.6C180.3 89.3 181.3 90.7 182.6 92C183.9 93.2 185.3 94.2 187 94.9C188.6 95.7 190.4 96 192.4 96Z" fill="#00639C" stroke="#00639D" stroke-miterlimit="10"/>
<path d="M239.9 102.9L233.5 88.9C233.1 88.9 232.8 89 232.4 89C232 89 231.7 89 231.4 89H225.1V102.9H219.1V61.8H225.1H231.5C232.2 61.8 233.1 61.8 234.1 61.9C235.1 62 236.1 62.1 237.1 62.3C238.1 62.5 239.1 62.9 240.1 63.5C241.1 64.1 242 64.8 242.7 65.8C243.5 66.8 244.1 68.1 244.6 69.7C245.1 71.3 245.3 73.2 245.3 75.4C245.3 77.2 245.2 78.8 244.9 80.1C244.6 81.4 244.2 82.6 243.7 83.6C243.2 84.6 242.6 85.4 241.9 86C241.2 86.6 240.5 87.2 239.7 87.6L246.8 102.9H239.9ZM229 82.9C230.1 82.9 231.3 82.9 232.5 82.8C233.7 82.7 234.8 82.5 235.7 82.1C236.7 81.7 237.5 80.9 238.1 79.9C238.7 78.9 239 77.4 239 75.4C239 73.4 238.7 71.9 238.1 70.9C237.5 69.9 236.7 69.1 235.7 68.7C234.7 68.3 233.7 68 232.5 68C231.3 67.9 230.2 67.9 229.1 67.9H225.1V83H229V82.9Z" fill="#00639C" stroke="#00639D" stroke-miterlimit="10"/>
<path d="M272.7 61.7C275.5 61.7 278.2 62.2 280.7 63.3C283.2 64.4 285.4 65.8 287.2 67.7C289.1 69.6 290.5 71.7 291.6 74.2C292.7 76.7 293.2 79.4 293.2 82.2C293.2 85 292.7 87.7 291.6 90.2C290.5 92.7 289.1 94.9 287.2 96.7C285.3 98.6 283.2 100 280.7 101.1C278.2 102.2 275.5 102.7 272.7 102.7C269.9 102.7 267.2 102.2 264.7 101.1C262.2 100 260 98.6 258.2 96.7C256.3 94.8 254.9 92.7 253.8 90.2C252.7 87.7 252.2 85 252.2 82.2C252.2 79.4 252.7 76.7 253.8 74.2C254.9 71.7 256.4 69.5 258.2 67.7C260.1 65.8 262.2 64.4 264.7 63.3C267.2 62.2 269.8 61.7 272.7 61.7ZM272.7 96C274.6 96 276.4 95.6 278 94.9C279.7 94.2 281.1 93.2 282.4 92C283.7 90.8 284.6 89.3 285.4 87.6C286.1 85.9 286.5 84.1 286.5 82.2C286.5 80.3 286.1 78.5 285.4 76.8C284.7 75.1 283.7 73.7 282.4 72.4C281.1 71.1 279.7 70.2 278 69.4C276.3 68.7 274.5 68.3 272.7 68.3C270.8 68.3 269 68.7 267.3 69.4C265.6 70.1 264.1 71.1 262.9 72.4C261.6 73.7 260.7 75.1 259.9 76.8C259.2 78.5 258.8 80.3 258.8 82.2C258.8 84.1 259.2 85.9 259.9 87.6C260.6 89.3 261.6 90.7 262.9 92C264.2 93.2 265.6 94.2 267.3 94.9C268.9 95.7 270.7 96 272.7 96Z" fill="#00639C" stroke="#00639D" stroke-miterlimit="10"/>
<path d="M323.2 87.7V61.7H329.2V102.8L304.8 77.8V102.8H298.8V61.7L323.2 87.7Z" fill="#00639C" stroke="#00639D" stroke-miterlimit="10"/>
<path d="M346.4 67.8H334.8V61.8H363.9V67.8H352.4V102.9H346.4V67.8Z" fill="#00639C" stroke="#00639D" stroke-miterlimit="10"/>
<path d="M390.1 61.7C392.9 61.7 395.6 62.2 398.1 63.3C400.6 64.4 402.8 65.8 404.6 67.7C406.5 69.6 407.9 71.7 409 74.2C410.1 76.7 410.6 79.4 410.6 82.2C410.6 85 410.1 87.7 409 90.2C407.9 92.7 406.5 94.9 404.6 96.7C402.7 98.6 400.6 100 398.1 101.1C395.6 102.2 392.9 102.7 390.1 102.7C387.3 102.7 384.6 102.2 382.1 101.1C379.6 100 377.4 98.6 375.6 96.7C373.7 94.8 372.3 92.7 371.2 90.2C370.1 87.7 369.6 85 369.6 82.2C369.6 79.4 370.1 76.7 371.2 74.2C372.3 71.7 373.8 69.5 375.6 67.7C377.5 65.8 379.6 64.4 382.1 63.3C384.6 62.2 387.2 61.7 390.1 61.7ZM390.1 96C392 96 393.8 95.6 395.4 94.9C397.1 94.2 398.5 93.2 399.8 92C401.1 90.8 402 89.3 402.8 87.6C403.5 85.9 403.9 84.1 403.9 82.2C403.9 80.3 403.5 78.5 402.8 76.8C402.1 75.1 401.1 73.7 399.8 72.4C398.5 71.1 397.1 70.2 395.4 69.4C393.7 68.7 391.9 68.3 390.1 68.3C388.2 68.3 386.4 68.7 384.7 69.4C383 70.1 381.5 71.1 380.3 72.4C379 73.7 378.1 75.1 377.3 76.8C376.6 78.5 376.2 80.3 376.2 82.2C376.2 84.1 376.6 85.9 377.3 87.6C378 89.3 379 90.7 380.3 92C381.6 93.2 383 94.2 384.7 94.9C386.3 95.7 388.1 96 390.1 96Z" fill="#00639C" stroke="#00639D" stroke-miterlimit="10"/>
<path d="M141.3 138.4C141.3 138.5 141.3 138.5 141.2 138.6C141.1 138.7 141.1 138.7 141 138.7C140.9 138.7 140.8 138.8 140.6 138.8C140.4 138.8 140.2 138.8 140 138.8C139.8 138.8 139.6 138.8 139.4 138.8C139.2 138.8 139.1 138.7 139 138.7C138.9 138.7 138.8 138.6 138.8 138.6C138.8 138.6 138.7 138.5 138.7 138.4V120.8C138.7 120.7 138.7 120.7 138.8 120.6C138.8 120.5 138.9 120.5 139 120.5C139.1 120.5 139.2 120.4 139.4 120.4C139.6 120.4 139.7 120.4 140 120.4C140.2 120.4 140.4 120.4 140.6 120.4C140.8 120.4 140.9 120.5 141 120.5C141.1 120.5 141.2 120.6 141.2 120.6C141.2 120.6 141.3 120.7 141.3 120.8V138.4Z" fill="#00639C" stroke="#00639D" stroke-width="0.25" stroke-miterlimit="10"/>
<path d="M156.4 137.8C156.4 138 156.4 138.1 156.4 138.2C156.4 138.3 156.3 138.4 156.3 138.5C156.3 138.6 156.2 138.6 156.1 138.7C156 138.7 156 138.8 155.9 138.8H147.1C146.9 138.8 146.7 138.7 146.5 138.6C146.3 138.5 146.2 138.2 146.2 137.8V121.5C146.2 121.1 146.3 120.9 146.5 120.7C146.7 120.5 146.9 120.5 147.1 120.5H155.8C155.9 120.5 155.9 120.5 156 120.6C156.1 120.6 156.1 120.7 156.1 120.8C156.1 120.9 156.2 121 156.2 121.1C156.2 121.2 156.2 121.4 156.2 121.6C156.2 121.8 156.2 121.9 156.2 122C156.2 122.1 156.1 122.2 156.1 122.3C156.1 122.4 156 122.4 156 122.5C155.9 122.5 155.9 122.6 155.8 122.6H148.6V128.3H154.7C154.8 128.3 154.8 128.3 154.9 128.4C155 128.4 155 128.5 155.1 128.6C155.1 128.7 155.2 128.8 155.2 128.9C155.2 129 155.2 129.2 155.2 129.4C155.2 129.6 155.2 129.7 155.2 129.8C155.2 129.9 155.2 130 155.1 130.1C155.1 130.2 155 130.2 154.9 130.3C154.8 130.3 154.8 130.3 154.7 130.3H148.6V136.9H155.9C156 136.9 156 136.9 156.1 137C156.2 137 156.2 137.1 156.3 137.2C156.3 137.3 156.4 137.4 156.4 137.5C156.4 137.4 156.4 137.6 156.4 137.8Z" fill="#00639C" stroke="#00639D" stroke-width="0.25" stroke-miterlimit="10"/>
<path d="M170.5 137.8C170.5 138 170.5 138.1 170.5 138.2C170.5 138.3 170.4 138.4 170.4 138.5C170.4 138.6 170.3 138.6 170.2 138.7C170.1 138.7 170.1 138.8 170 138.8H161.2C161 138.8 160.8 138.7 160.6 138.6C160.4 138.5 160.3 138.2 160.3 137.8V121.5C160.3 121.1 160.4 120.9 160.6 120.7C160.8 120.5 161 120.5 161.2 120.5H169.9C170 120.5 170 120.5 170.1 120.6C170.2 120.6 170.2 120.7 170.2 120.8C170.2 120.9 170.3 121 170.3 121.1C170.3 121.2 170.3 121.4 170.3 121.6C170.3 121.8 170.3 121.9 170.3 122C170.3 122.1 170.2 122.2 170.2 122.3C170.2 122.4 170.1 122.4 170.1 122.5C170 122.5 170 122.6 169.9 122.6H162.7V128.3H168.8C168.9 128.3 168.9 128.3 169 128.4C169.1 128.4 169.1 128.5 169.2 128.6C169.2 128.7 169.3 128.8 169.3 128.9C169.3 129 169.3 129.2 169.3 129.4C169.3 129.6 169.3 129.7 169.3 129.8C169.3 129.9 169.3 130 169.2 130.1C169.2 130.2 169.1 130.2 169 130.3C168.9 130.3 168.9 130.3 168.8 130.3H162.7V136.9H170C170.1 136.9 170.1 136.9 170.2 137C170.3 137 170.3 137.1 170.4 137.2C170.4 137.3 170.5 137.4 170.5 137.5C170.5 137.4 170.5 137.6 170.5 137.8Z" fill="#00639C" stroke="#00639D" stroke-width="0.25" stroke-miterlimit="10"/>
<path d="M184.7 137.8C184.7 138 184.7 138.1 184.7 138.2C184.7 138.3 184.6 138.4 184.6 138.5C184.6 138.6 184.5 138.6 184.4 138.7C184.3 138.7 184.3 138.8 184.2 138.8H175.4C175.2 138.8 175 138.7 174.8 138.6C174.6 138.5 174.5 138.2 174.5 137.8V121.5C174.5 121.1 174.6 120.9 174.8 120.7C175 120.5 175.2 120.5 175.4 120.5H184.1C184.2 120.5 184.2 120.5 184.3 120.6C184.4 120.6 184.4 120.7 184.4 120.8C184.4 120.9 184.5 121 184.5 121.1C184.5 121.2 184.5 121.4 184.5 121.6C184.5 121.8 184.5 121.9 184.5 122C184.5 122.1 184.4 122.2 184.4 122.3C184.4 122.4 184.3 122.4 184.3 122.5C184.2 122.5 184.2 122.6 184.1 122.6H176.9V128.3H183C183.1 128.3 183.1 128.3 183.2 128.4C183.3 128.4 183.3 128.5 183.4 128.6C183.4 128.7 183.5 128.8 183.5 128.9C183.5 129 183.5 129.2 183.5 129.4C183.5 129.6 183.5 129.7 183.5 129.8C183.5 129.9 183.5 130 183.4 130.1C183.4 130.2 183.3 130.2 183.2 130.3C183.1 130.3 183.1 130.3 183 130.3H176.9V136.9H184.2C184.3 136.9 184.3 136.9 184.4 137C184.5 137 184.5 137.1 184.6 137.2C184.6 137.3 184.7 137.4 184.7 137.5C184.7 137.4 184.7 137.6 184.7 137.8Z" fill="#00639C" stroke="#00639D" stroke-width="0.25" stroke-miterlimit="10"/>
<path d="M205.1 133.7C205.1 134.6 204.9 135.3 204.6 136C204.3 136.7 203.8 137.2 203.3 137.7C202.7 138.2 202.1 138.5 201.3 138.8C200.5 139 199.7 139.2 198.8 139.2C198.2 139.2 197.6 139.1 197.1 139C196.6 138.9 196.1 138.8 195.7 138.6C195.3 138.4 194.9 138.3 194.7 138.1C194.4 137.9 194.2 137.8 194.1 137.7C194 137.6 193.9 137.4 193.9 137.3C193.8 137.1 193.8 136.9 193.8 136.6C193.8 136.4 193.8 136.2 193.8 136.1C193.8 136 193.8 135.9 193.9 135.8C193.9 135.7 194 135.7 194 135.6C194.1 135.6 194.1 135.6 194.2 135.6C194.3 135.6 194.5 135.7 194.8 135.8C195 136 195.3 136.1 195.7 136.3C196.1 136.5 196.5 136.7 197.1 136.8C197.6 137 198.2 137 198.9 137C199.4 137 199.9 136.9 200.4 136.8C200.8 136.7 201.2 136.5 201.5 136.2C201.8 135.9 202.1 135.6 202.2 135.2C202.4 134.8 202.5 134.4 202.5 133.9C202.5 133.4 202.4 132.9 202.1 132.6C201.8 132.3 201.6 131.9 201.2 131.6C200.8 131.3 200.4 131.1 199.9 130.8C199.4 130.6 198.9 130.3 198.4 130.1C197.9 129.9 197.4 129.6 196.9 129.3C196.4 129 196 128.7 195.6 128.3C195.2 127.9 194.9 127.4 194.7 126.9C194.5 126.4 194.3 125.7 194.3 125C194.3 124.2 194.4 123.6 194.7 123C195 122.4 195.4 121.9 195.9 121.5C196.4 121.1 197 120.8 197.7 120.6C198.4 120.4 199.1 120.3 199.9 120.3C200.3 120.3 200.7 120.3 201.1 120.4C201.5 120.5 201.9 120.6 202.3 120.7C202.7 120.8 203 121 203.3 121.1C203.6 121.2 203.8 121.4 203.9 121.5C204 121.6 204 121.7 204.1 121.7C204.1 121.8 204.2 121.8 204.2 121.9C204.2 122 204.2 122.1 204.2 122.2C204.2 122.3 204.2 122.5 204.2 122.6C204.2 122.8 204.2 122.9 204.2 123.1C204.2 123.2 204.2 123.3 204.1 123.4C204 123.5 204 123.6 204 123.6C203.9 123.6 203.9 123.7 203.8 123.7C203.7 123.7 203.5 123.6 203.3 123.5C203.1 123.4 202.8 123.2 202.5 123.1C202.2 122.9 201.8 122.8 201.4 122.6C201 122.5 200.5 122.4 199.9 122.4C199.4 122.4 198.9 122.5 198.6 122.6C198.2 122.7 197.9 122.9 197.7 123.1C197.5 123.3 197.3 123.6 197.1 123.9C197 124.2 196.9 124.5 196.9 124.9C196.9 125.4 197 125.8 197.3 126.2C197.5 126.6 197.8 126.9 198.2 127.2C198.6 127.5 199 127.7 199.5 128C200 128.2 200.5 128.5 201 128.7C201.5 128.9 202 129.2 202.5 129.5C203 129.8 203.4 130.1 203.8 130.5C204.2 130.9 204.5 131.4 204.7 131.9C204.9 132.3 205.1 132.9 205.1 133.7Z" fill="#00639C" stroke="#00639D" stroke-width="0.25" stroke-miterlimit="10"/>
<path d="M219.8 121.5C219.8 121.7 219.8 121.8 219.8 122C219.8 122.1 219.8 122.2 219.7 122.3C219.7 122.4 219.6 122.4 219.5 122.5C219.4 122.5 219.4 122.6 219.3 122.6H214.1V138.5C214.1 138.6 214.1 138.6 214 138.7C214 138.8 213.9 138.8 213.8 138.8C213.7 138.8 213.6 138.9 213.4 138.9C213.2 138.9 213 138.9 212.8 138.9C212.6 138.9 212.4 138.9 212.2 138.9C212 138.9 211.9 138.8 211.8 138.8C211.7 138.8 211.6 138.7 211.6 138.7C211.6 138.6 211.5 138.6 211.5 138.5V122.6H206.3C206.2 122.6 206.2 122.6 206.1 122.5C206 122.5 206 122.4 206 122.3C206 122.2 205.9 122.1 205.9 122C205.9 121.9 205.9 121.7 205.9 121.5C205.9 121.3 205.9 121.2 205.9 121C205.9 120.9 206 120.8 206 120.7C206 120.6 206.1 120.6 206.1 120.5C206.2 120.5 206.2 120.4 206.3 120.4H219C219.1 120.4 219.1 120.4 219.2 120.5C219.3 120.5 219.3 120.6 219.4 120.7C219.4 120.8 219.5 120.9 219.5 121C219.8 121.2 219.8 121.3 219.8 121.5Z" fill="#00639C" stroke="#00639D" stroke-width="0.25" stroke-miterlimit="10"/>
<path d="M236.3 132C236.3 133.1 236.1 134.1 235.8 135C235.5 135.9 235 136.6 234.4 137.2C233.8 137.8 233.1 138.3 232.2 138.6C231.3 138.9 230.3 139.1 229.2 139.1C228.2 139.1 227.3 139 226.4 138.7C225.6 138.4 224.9 138 224.3 137.4C223.7 136.8 223.2 136.1 222.9 135.3C222.6 134.4 222.4 133.4 222.4 132.3V120.9C222.4 120.8 222.4 120.8 222.5 120.7C222.6 120.6 222.6 120.6 222.7 120.6C222.8 120.6 222.9 120.5 223.1 120.5C223.3 120.5 223.4 120.5 223.7 120.5C223.9 120.5 224.1 120.5 224.3 120.5C224.5 120.5 224.6 120.6 224.7 120.6C224.8 120.6 224.9 120.7 224.9 120.7C224.9 120.8 225 120.8 225 120.9V132C225 132.8 225.1 133.6 225.3 134.2C225.5 134.8 225.8 135.4 226.2 135.8C226.6 136.2 227.1 136.5 227.6 136.7C228.2 136.9 228.8 137 229.5 137C230.2 137 230.8 136.9 231.4 136.7C232 136.5 232.4 136.2 232.8 135.8C233.2 135.4 233.5 134.9 233.7 134.3C233.9 133.7 234 133 234 132.1V120.9C234 120.8 234 120.8 234.1 120.7C234.2 120.6 234.2 120.6 234.3 120.6C234.4 120.6 234.5 120.5 234.7 120.5C234.9 120.5 235.1 120.5 235.3 120.5C235.5 120.5 235.7 120.5 235.9 120.5C236.1 120.5 236.2 120.6 236.3 120.6C236.4 120.6 236.5 120.7 236.5 120.7C236.5 120.8 236.6 120.8 236.6 120.9V132H236.3Z" fill="#00639C" stroke="#00639D" stroke-width="0.25" stroke-miterlimit="10"/>
<path d="M255.2 129.4C255.2 131 255 132.4 254.6 133.6C254.2 134.8 253.6 135.8 252.8 136.5C252 137.3 251.1 137.9 249.9 138.2C248.8 138.6 247.4 138.8 245.9 138.8H242C241.8 138.8 241.6 138.7 241.4 138.6C241.2 138.5 241.1 138.2 241.1 137.8V121.5C241.1 121.1 241.2 120.9 241.4 120.7C241.6 120.5 241.8 120.5 242 120.5H246.1C247.7 120.5 249 120.7 250.1 121.1C251.2 121.5 252.1 122.1 252.9 122.9C253.6 123.7 254.2 124.6 254.6 125.7C255 126.8 255.2 128 255.2 129.4ZM252.6 129.5C252.6 128.5 252.5 127.6 252.2 126.7C251.9 125.8 251.6 125.1 251 124.5C250.5 123.9 249.8 123.4 249 123C248.2 122.7 247.2 122.5 245.9 122.5H243.4V136.8H245.9C247.1 136.8 248.1 136.7 248.9 136.4C249.7 136.1 250.4 135.7 250.9 135.1C251.4 134.5 251.8 133.7 252.1 132.8C252.5 131.8 252.6 130.7 252.6 129.5Z" fill="#00639C" stroke="#00639D" stroke-width="0.25" stroke-miterlimit="10"/>
<path d="M269.1 137.8C269.1 138 269.1 138.1 269.1 138.2C269.1 138.3 269 138.4 269 138.5C269 138.6 268.9 138.6 268.8 138.7C268.7 138.7 268.7 138.8 268.6 138.8H259.8C259.6 138.8 259.4 138.7 259.2 138.6C259 138.5 258.9 138.2 258.9 137.8V121.5C258.9 121.1 259 120.9 259.2 120.7C259.4 120.5 259.6 120.5 259.8 120.5H268.5C268.6 120.5 268.6 120.5 268.7 120.6C268.8 120.6 268.8 120.7 268.8 120.8C268.8 120.9 268.9 121 268.9 121.1C268.9 121.2 268.9 121.4 268.9 121.6C268.9 121.8 268.9 121.9 268.9 122C268.9 122.1 268.8 122.2 268.8 122.3C268.8 122.4 268.7 122.4 268.7 122.5C268.6 122.5 268.6 122.6 268.5 122.6H261.3V128.3H267.4C267.5 128.3 267.5 128.3 267.6 128.4C267.7 128.4 267.7 128.5 267.8 128.6C267.8 128.7 267.9 128.8 267.9 128.9C267.9 129 267.9 129.2 267.9 129.4C267.9 129.6 267.9 129.7 267.9 129.8C267.9 129.9 267.9 130 267.8 130.1C267.8 130.2 267.7 130.2 267.6 130.3C267.5 130.3 267.5 130.3 267.4 130.3H261.3V136.9H268.6C268.7 136.9 268.7 136.9 268.8 137C268.9 137 268.9 137.1 269 137.2C269 137.3 269.1 137.4 269.1 137.5C269.1 137.4 269.1 137.6 269.1 137.8Z" fill="#00639C" stroke="#00639D" stroke-width="0.25" stroke-miterlimit="10"/>
<path d="M286.9 137.8C286.9 138 286.9 138.1 286.8 138.3C286.7 138.4 286.7 138.5 286.6 138.6C286.5 138.7 286.4 138.7 286.3 138.8C286.2 138.8 286 138.9 285.9 138.9H285.1C284.8 138.9 284.6 138.9 284.4 138.8C284.2 138.7 284 138.7 283.9 138.5C283.8 138.3 283.6 138.2 283.4 137.9C283.2 137.7 283 137.4 282.9 137L277.3 126.6C277 126.1 276.7 125.5 276.4 124.9C276.1 124.3 275.8 123.7 275.6 123.2C275.6 123.9 275.6 124.6 275.6 125.3C275.6 126 275.6 126.7 275.6 127.4V138.5C275.6 138.6 275.6 138.6 275.5 138.7C275.4 138.8 275.4 138.8 275.3 138.8C275.2 138.8 275.1 138.9 274.9 138.9C274.7 138.9 274.5 138.9 274.3 138.9C274.1 138.9 273.9 138.9 273.7 138.9C273.5 138.9 273.4 138.8 273.3 138.8C273.2 138.8 273.1 138.7 273.1 138.7C273.1 138.7 273 138.6 273 138.5V121.6C273 121.2 273.1 121 273.3 120.8C273.5 120.6 273.7 120.6 274 120.6H275.2C275.5 120.6 275.7 120.6 275.9 120.7C276.1 120.7 276.3 120.8 276.4 120.9C276.6 121 276.7 121.2 276.8 121.4C276.9 121.6 277.1 121.8 277.2 122.1L281.5 130.1C281.8 130.6 282 131.1 282.3 131.5C282.5 132 282.8 132.4 283 132.9C283.2 133.4 283.5 133.8 283.7 134.2C283.9 134.6 284.1 135.1 284.4 135.5C284.4 134.8 284.4 134 284.4 133.2C284.4 132.4 284.4 131.6 284.4 130.9V121C284.4 120.9 284.4 120.9 284.5 120.8C284.6 120.7 284.6 120.7 284.7 120.7C284.8 120.7 284.9 120.6 285.1 120.6C285.3 120.6 285.5 120.6 285.7 120.6C285.9 120.6 286.1 120.6 286.3 120.6C286.5 120.6 286.6 120.6 286.7 120.7C286.8 120.7 286.9 120.8 286.9 120.8C286.9 120.8 287 120.9 287 121V137.8H286.9Z" fill="#00639C" stroke="#00639D" stroke-width="0.25" stroke-miterlimit="10"/>
<path d="M303.3 121.5C303.3 121.7 303.3 121.8 303.3 122C303.3 122.1 303.3 122.2 303.2 122.3C303.2 122.4 303.1 122.4 303 122.5C302.9 122.5 302.9 122.6 302.8 122.6H297.6V138.5C297.6 138.6 297.6 138.6 297.5 138.7C297.5 138.8 297.4 138.8 297.3 138.8C297.2 138.8 297.1 138.9 296.9 138.9C296.7 138.9 296.5 138.9 296.3 138.9C296.1 138.9 295.9 138.9 295.7 138.9C295.5 138.9 295.4 138.8 295.3 138.8C295.2 138.8 295.1 138.7 295.1 138.7C295.1 138.6 295 138.6 295 138.5V122.6H290.1C290 122.6 290 122.6 289.9 122.5C289.8 122.5 289.8 122.4 289.8 122.3C289.8 122.2 289.7 122.1 289.7 122C289.7 121.9 289.7 121.7 289.7 121.5C289.7 121.3 289.7 121.2 289.7 121C289.7 120.9 289.8 120.8 289.8 120.7C289.8 120.6 289.9 120.6 289.9 120.5C290 120.5 290 120.4 290.1 120.4H302.8C302.9 120.4 302.9 120.4 303 120.5C303.1 120.5 303.1 120.6 303.2 120.7C303.2 120.8 303.3 120.9 303.3 121C303.3 121.2 303.3 121.3 303.3 121.5Z" fill="#00639C" stroke="#00639D" stroke-width="0.25" stroke-miterlimit="10"/>
<path d="M324.6 133.5C324.6 134.1 324.5 134.6 324.4 135.1C324.3 135.6 324 136 323.8 136.4C323.5 136.8 323.2 137.1 322.8 137.4C322.4 137.7 322 137.9 321.5 138.1C321 138.3 320.5 138.4 320 138.5C319.5 138.6 318.9 138.6 318.2 138.6H313.4C313.2 138.6 313 138.5 312.8 138.4C312.6 138.3 312.5 138 312.5 137.6V121.3C312.5 120.9 312.6 120.7 312.8 120.5C313 120.3 313.2 120.3 313.4 120.3H317.6C318.7 120.3 319.6 120.4 320.3 120.6C321 120.8 321.6 121.1 322 121.5C322.5 121.9 322.8 122.4 323.1 123C323.3 123.6 323.5 124.2 323.5 125C323.5 125.4 323.4 125.8 323.3 126.2C323.2 126.6 323 127 322.8 127.3C322.6 127.6 322.3 127.9 322 128.2C321.7 128.5 321.3 128.7 320.9 128.9C321.4 129 321.9 129.2 322.3 129.4C322.7 129.7 323.1 130 323.4 130.4C323.7 130.8 324 131.2 324.2 131.8C324.5 132.4 324.6 132.9 324.6 133.5ZM320.9 125.3C320.9 124.9 320.8 124.5 320.7 124.1C320.6 123.7 320.4 123.4 320.1 123.2C319.8 122.9 319.5 122.8 319.1 122.6C318.7 122.5 318.1 122.4 317.4 122.4H314.9V128.3H317.7C318.3 128.3 318.8 128.2 319.2 128.1C319.6 128 319.9 127.7 320.2 127.4C320.5 127.1 320.6 126.8 320.8 126.4C320.8 126.1 320.9 125.7 320.9 125.3ZM322 133.7C322 133.2 321.9 132.7 321.7 132.3C321.5 131.9 321.3 131.5 320.9 131.3C320.6 131 320.1 130.8 319.6 130.7C319.1 130.6 318.5 130.5 317.7 130.5H314.8V137H318.3C318.9 137 319.3 136.9 319.8 136.8C320.2 136.7 320.6 136.5 320.9 136.2C321.2 135.9 321.5 135.6 321.6 135.2C321.9 134.6 322 134.2 322 133.7Z" fill="#00639C" stroke="#00639D" stroke-width="0.25" stroke-miterlimit="10"/>
<path d="M340.5 138.4C340.5 138.5 340.5 138.5 340.5 138.6C340.5 138.7 340.4 138.7 340.3 138.7C340.2 138.7 340.1 138.8 339.9 138.8C339.7 138.8 339.5 138.8 339.2 138.8C339 138.8 338.8 138.8 338.6 138.8C338.4 138.8 338.3 138.8 338.2 138.7C338.1 138.7 338 138.6 338 138.5C337.9 138.4 337.9 138.3 337.9 138.2L336.2 133.9C336 133.4 335.8 133 335.6 132.5C335.4 132.1 335.1 131.7 334.8 131.4C334.5 131.1 334.2 130.9 333.8 130.7C333.4 130.5 332.9 130.5 332.4 130.5H330.8V138.3C330.8 138.4 330.8 138.4 330.7 138.5C330.7 138.6 330.6 138.6 330.5 138.6C330.4 138.6 330.3 138.7 330.1 138.7C329.9 138.7 329.7 138.7 329.5 138.7C329.3 138.7 329.1 138.7 328.9 138.7C328.7 138.7 328.6 138.6 328.5 138.6C328.4 138.6 328.3 138.5 328.3 138.5C328.3 138.5 328.2 138.4 328.2 138.3V121.3C328.2 120.9 328.3 120.7 328.5 120.5C328.7 120.3 328.9 120.3 329.1 120.3H333C333.5 120.3 333.8 120.3 334.2 120.3C334.5 120.3 334.8 120.3 335 120.4C335.7 120.5 336.3 120.7 336.9 121C337.4 121.3 337.9 121.6 338.3 122C338.7 122.4 338.9 122.9 339.1 123.4C339.3 123.9 339.4 124.5 339.4 125.1C339.4 125.7 339.3 126.3 339.2 126.7C339.1 127.1 338.8 127.6 338.5 128C338.2 128.4 337.8 128.7 337.4 129C337 129.3 336.5 129.5 335.9 129.7C336.2 129.8 336.5 130 336.7 130.2C336.9 130.4 337.2 130.6 337.4 130.9C337.6 131.2 337.8 131.5 338 131.9C338.2 132.3 338.4 132.7 338.6 133.1L340.2 137.1C340.3 137.4 340.4 137.7 340.5 137.8C340.5 138.2 340.5 138.4 340.5 138.4ZM336.8 125.6C336.8 124.9 336.6 124.3 336.3 123.8C336 123.3 335.4 122.9 334.7 122.7C334.5 122.6 334.2 122.6 333.9 122.6C333.6 122.6 333.2 122.6 332.7 122.6H330.6V128.8H333C333.6 128.8 334.2 128.7 334.7 128.6C335.2 128.4 335.6 128.2 335.9 127.9C336.2 127.6 336.4 127.3 336.6 126.9C336.7 126.4 336.8 126 336.8 125.6Z" fill="#00639C" stroke="#00639D" stroke-width="0.25" stroke-miterlimit="10"/>
<path d="M357.7 137.9C357.8 138.1 357.8 138.3 357.8 138.4C357.8 138.5 357.8 138.6 357.7 138.7C357.6 138.8 357.5 138.8 357.3 138.8C357.1 138.8 356.9 138.8 356.6 138.8C356.3 138.8 356.1 138.8 355.9 138.8C355.7 138.8 355.6 138.8 355.5 138.7C355.4 138.6 355.3 138.6 355.3 138.6C355.3 138.5 355.2 138.5 355.2 138.4L353.6 133.9H346.1L344.6 138.3C344.6 138.4 344.5 138.5 344.5 138.5C344.5 138.6 344.4 138.6 344.3 138.7C344.2 138.7 344.1 138.8 343.9 138.8C343.7 138.8 343.5 138.8 343.3 138.8C343 138.8 342.8 138.8 342.6 138.8C342.4 138.8 342.3 138.7 342.2 138.7C342.1 138.6 342.1 138.5 342.1 138.4C342.1 138.3 342.1 138.1 342.2 137.9L348.3 120.9C348.3 120.8 348.4 120.7 348.4 120.6C348.5 120.5 348.6 120.5 348.7 120.4C348.8 120.4 349 120.3 349.2 120.3C349.4 120.3 349.6 120.3 349.9 120.3C350.2 120.3 350.5 120.3 350.7 120.3C350.9 120.3 351.1 120.3 351.2 120.4C351.3 120.4 351.4 120.5 351.5 120.6C351.6 120.7 351.6 120.8 351.7 120.9L357.7 137.9ZM349.8 122.9L346.6 132H353L349.8 122.9Z" fill="#00639C" stroke="#00639D" stroke-width="0.25" stroke-miterlimit="10"/>
<path d="M374.6 137.8C374.6 138 374.6 138.1 374.5 138.3C374.4 138.4 374.4 138.5 374.3 138.6C374.2 138.7 374.1 138.7 374 138.8C373.9 138.8 373.7 138.9 373.6 138.9H372.8C372.5 138.9 372.3 138.9 372.1 138.8C371.9 138.7 371.7 138.7 371.6 138.5C371.5 138.3 371.3 138.2 371.1 137.9C370.9 137.7 370.7 137.4 370.6 137L365 126.6C364.7 126.1 364.4 125.5 364.1 124.9C363.8 124.3 363.5 123.7 363.3 123.2C363.3 123.9 363.3 124.6 363.3 125.3C363.3 126 363.3 126.7 363.3 127.4V138.5C363.3 138.6 363.3 138.6 363.2 138.7C363.1 138.8 363.1 138.8 363 138.8C362.9 138.8 362.8 138.9 362.6 138.9C362.4 138.9 362.2 138.9 362 138.9C361.8 138.9 361.6 138.9 361.4 138.9C361.2 138.9 361.1 138.8 361 138.8C360.9 138.8 360.8 138.7 360.8 138.7C360.8 138.7 360.7 138.6 360.7 138.5V121.6C360.7 121.2 360.8 121 361 120.8C361.2 120.6 361.4 120.6 361.7 120.6H362.9C363.2 120.6 363.4 120.6 363.6 120.7C363.8 120.7 364 120.8 364.1 120.9C364.3 121 364.4 121.2 364.5 121.4C364.6 121.6 364.8 121.8 364.9 122.1L369.2 130.1C369.5 130.6 369.7 131.1 370 131.5C370.2 132 370.5 132.4 370.7 132.9C370.9 133.4 371.2 133.8 371.4 134.2C371.6 134.6 371.8 135.1 372.1 135.5C372.1 134.8 372.1 134 372.1 133.2C372.1 132.4 372.1 131.6 372.1 130.9V121C372.1 120.9 372.1 120.9 372.2 120.8C372.3 120.7 372.3 120.7 372.4 120.7C372.5 120.7 372.6 120.6 372.8 120.6C373 120.6 373.2 120.6 373.4 120.6C373.6 120.6 373.8 120.6 374 120.6C374.2 120.6 374.3 120.6 374.4 120.7C374.5 120.7 374.6 120.8 374.6 120.8C374.6 120.8 374.7 120.9 374.7 121V137.8H374.6Z" fill="#00639C" stroke="#00639D" stroke-width="0.25" stroke-miterlimit="10"/>
<path d="M391.7 136.2C391.7 136.4 391.7 136.5 391.7 136.6C391.7 136.7 391.7 136.8 391.7 136.9C391.7 137 391.6 137.1 391.6 137.1C391.6 137.2 391.5 137.2 391.4 137.3C391.3 137.4 391.1 137.5 390.8 137.7C390.5 137.9 390.1 138.1 389.7 138.3C389.3 138.5 388.7 138.6 388.2 138.8C387.6 138.9 387 139 386.3 139C385.1 139 384 138.8 383.1 138.4C382.2 138 381.3 137.4 380.7 136.6C380 135.8 379.5 134.9 379.1 133.7C378.7 132.5 378.6 131.3 378.6 129.8C378.6 128.3 378.8 126.9 379.2 125.7C379.6 124.5 380.1 123.5 380.9 122.7C381.6 121.9 382.5 121.2 383.4 120.8C384.4 120.4 385.5 120.1 386.7 120.1C387.2 120.1 387.7 120.1 388.2 120.2C388.7 120.3 389.2 120.4 389.6 120.6C390 120.8 390.4 120.9 390.7 121.1C391 121.3 391.3 121.5 391.4 121.6C391.5 121.7 391.6 121.8 391.6 121.9C391.6 122 391.7 122 391.7 122.1C391.7 122.2 391.7 122.3 391.8 122.4C391.8 122.5 391.8 122.7 391.8 122.8C391.8 123 391.8 123.1 391.8 123.3C391.8 123.4 391.8 123.5 391.7 123.6C391.7 123.7 391.6 123.8 391.6 123.8C391.5 123.8 391.5 123.9 391.4 123.9C391.3 123.9 391.1 123.8 390.8 123.6C390.6 123.4 390.3 123.2 389.9 123C389.5 122.8 389.1 122.6 388.5 122.4C388 122.2 387.3 122.1 386.6 122.1C385.8 122.1 385 122.3 384.4 122.6C383.7 122.9 383.2 123.4 382.7 124C382.2 124.6 381.9 125.4 381.6 126.3C381.3 127.2 381.2 128.3 381.2 129.4C381.2 130.6 381.3 131.6 381.6 132.5C381.9 133.4 382.2 134.1 382.7 134.7C383.2 135.3 383.7 135.8 384.4 136.1C385.1 136.4 385.9 136.6 386.7 136.6C387.4 136.6 388.1 136.5 388.6 136.3C389.1 136.1 389.6 135.9 390 135.7C390.4 135.5 390.7 135.3 390.9 135.1C391.1 134.9 391.3 134.8 391.5 134.8C391.6 134.8 391.6 134.8 391.7 134.8C391.7 134.8 391.8 134.9 391.8 135C391.8 135.1 391.8 135.2 391.9 135.3C391.7 135.8 391.7 136 391.7 136.2Z" fill="#00639C" stroke="#00639D" stroke-width="0.25" stroke-miterlimit="10"/>
<path d="M408.2 138.4C408.2 138.5 408.2 138.5 408.1 138.6C408 138.7 408 138.7 407.9 138.7C407.8 138.7 407.7 138.8 407.5 138.8C407.3 138.8 407.2 138.8 406.9 138.8C406.7 138.8 406.5 138.8 406.3 138.8C406.1 138.8 406 138.7 405.9 138.7C405.8 138.7 405.7 138.6 405.7 138.6C405.7 138.5 405.6 138.5 405.6 138.4V130.3H397.3V138.4C397.3 138.5 397.3 138.5 397.2 138.6C397.1 138.7 397.1 138.7 397 138.7C396.9 138.7 396.8 138.8 396.6 138.8C396.4 138.8 396.2 138.8 396 138.8C395.8 138.8 395.6 138.8 395.4 138.8C395.2 138.8 395.1 138.7 395 138.7C394.9 138.7 394.8 138.6 394.8 138.6C394.8 138.6 394.7 138.5 394.7 138.4V120.8C394.7 120.7 394.7 120.7 394.8 120.6C394.9 120.5 394.9 120.5 395 120.5C395.1 120.5 395.2 120.4 395.4 120.4C395.6 120.4 395.8 120.4 396 120.4C396.2 120.4 396.4 120.4 396.6 120.4C396.8 120.4 396.9 120.5 397 120.5C397.1 120.5 397.2 120.6 397.2 120.6C397.2 120.6 397.3 120.7 397.3 120.8V128.1H405.6V120.8C405.6 120.7 405.6 120.7 405.7 120.6C405.7 120.5 405.8 120.5 405.9 120.5C406 120.5 406.1 120.4 406.3 120.4C406.5 120.4 406.6 120.4 406.9 120.4C407.1 120.4 407.3 120.4 407.5 120.4C407.7 120.4 407.8 120.5 407.9 120.5C408 120.5 408.1 120.6 408.1 120.6C408.1 120.6 408.2 120.7 408.2 120.8V138.4Z" fill="#00639C" stroke="#00639D" stroke-width="0.25" stroke-miterlimit="10"/>
<path d="M85.8 114.1H36.9C35.6 114.1 34.6 115.1 34.6 116.4V117.8C34.6 119.1 35.6 120.1 36.9 120.1H58.3V142C58.3 143.4 59.4 144.5 60.8 144.5H61.8C63.2 144.5 64.3 143.4 64.3 142V120.2H85.7C87 120.2 88 119.2 88 117.9V116.5C88.2 115.2 87.1 114.1 85.8 114.1ZM61.4 143.2C60.8 143.2 60.3 142.7 60.3 142.1C60.3 141.5 60.8 141 61.4 141C62 141 62.5 141.5 62.5 142.1C62.5 142.8 62 143.2 61.4 143.2ZM38.2 118.3C37.6 118.3 37.1 117.8 37.1 117.2C37.1 116.6 37.6 116.1 38.2 116.1C38.8 116.1 39.3 116.6 39.3 117.2C39.3 117.8 38.8 118.3 38.2 118.3ZM85.1 118.3C84.5 118.3 84 117.8 84 117.2C84 116.6 84.5 116.1 85.1 116.1C85.7 116.1 86.2 116.6 86.2 117.2C86.2 117.8 85.7 118.3 85.1 118.3Z" fill="#00639C"/>
<path d="M2.19995 72.4L14.6 84.7H50.9L62.4999 72.1V49L73.4 38V14.5H71.4V36.7L62.4999 45.6V13.7L51 2.29999L49.4 3.89999L60.1 14.6V56.9L51 47.7V25.7H48.5V35.3L39.2999 25.2L37.9 26.6L48.6 39.3V49.2L59.9 60.5V71L55.2999 76L39.1 59.8L37.6 61.4L46.9 70.7H38.2L27.5 60V48.8H25.1V61.1L37.1 73.5H49.7999L53.7999 77.5L49.6 82.2H38.7999L16.2999 59.7V47.5H14.2V60.8L35.9 82.6H27.2L3.99995 59.4L2.19995 61.2L23.7 82.7H16.1L3.69995 70.3L2.19995 72.4Z" fill="#00639C"/>
<path d="M3.1 74.6C4.81208 74.6 6.2 73.2121 6.2 71.5C6.2 69.7879 4.81208 68.4 3.1 68.4C1.38792 68.4 0 69.7879 0 71.5C0 73.2121 1.38792 74.6 3.1 74.6Z" fill="#00639C"/>
<path d="M3.1 63.4C4.81208 63.4 6.2 62.0121 6.2 60.3C6.2 58.5879 4.81208 57.2 3.1 57.2C1.38792 57.2 0 58.5879 0 60.3C0 62.0121 1.38792 63.4 3.1 63.4Z" fill="#00639C"/>
<path d="M15.2999 51.6C17.012 51.6 18.4 50.2121 18.4 48.5C18.4 46.7879 17.012 45.4 15.2999 45.4C13.5879 45.4 12.2 46.7879 12.2 48.5C12.2 50.2121 13.5879 51.6 15.2999 51.6Z" fill="#00639C"/>
<path d="M26.4001 51.6C28.1121 51.6 29.5001 50.2121 29.5001 48.5C29.5001 46.7879 28.1121 45.4 26.4001 45.4C24.688 45.4 23.3 46.7879 23.3 48.5C23.3 50.2121 24.688 51.6 26.4001 51.6Z" fill="#00639C"/>
<path d="M37.7999 63.4C39.512 63.4 40.9 62.0121 40.9 60.3C40.9 58.5879 39.512 57.2 37.7999 57.2C36.0879 57.2 34.7 58.5879 34.7 60.3C34.7 62.0121 36.0879 63.4 37.7999 63.4Z" fill="#00639C"/>
<path d="M38.2 29C39.9121 29 41.3 27.6121 41.3 25.9C41.3 24.1879 39.9121 22.8 38.2 22.8C36.4879 22.8 35.1 24.1879 35.1 25.9C35.1 27.6121 36.4879 29 38.2 29Z" fill="#00639C"/>
<path d="M49.7 29C51.4121 29 52.8 27.6121 52.8 25.9C52.8 24.1879 51.4121 22.8 49.7 22.8C47.9879 22.8 46.6 24.1879 46.6 25.9C46.6 27.6121 47.9879 29 49.7 29Z" fill="#00639C"/>
<path d="M50.6 6.2C52.3121 6.2 53.7 4.81209 53.7 3.1C53.7 1.38792 52.3121 0 50.6 0C48.8879 0 47.5 1.38792 47.5 3.1C47.5 4.81209 48.8879 6.2 50.6 6.2Z" fill="#00639C"/>
<path d="M72.7 17.2C74.4121 17.2 75.8 15.8121 75.8 14.1C75.8 12.3879 74.4121 11 72.7 11C70.9879 11 69.6 12.3879 69.6 14.1C69.6 15.8121 70.9879 17.2 72.7 17.2Z" fill="#00639C"/>
<path d="M84.4 29C86.1121 29 87.5 27.6121 87.5 25.9C87.5 24.1879 86.1121 22.8 84.4 22.8C82.6879 22.8 81.3 24.1879 81.3 25.9C81.3 27.6121 82.6879 29 84.4 29Z" fill="#00639C"/>
<path d="M84.4 64.2C86.1121 64.2 87.5 62.8121 87.5 61.1C87.5 59.3879 86.1121 58 84.4 58C82.6879 58 81.3 59.3879 81.3 61.1C81.3 62.8121 82.6879 64.2 84.4 64.2Z" fill="#00639C"/>
<path d="M27.5 98.5C29.2121 98.5 30.6 97.1121 30.6 95.4C30.6 93.6879 29.2121 92.3 27.5 92.3C25.7879 92.3 24.4 93.6879 24.4 95.4C24.4 97.1121 25.7879 98.5 27.5 98.5Z" fill="#00639C"/>
<path d="M84.4 74.6C86.1121 74.6 87.5 73.2121 87.5 71.5C87.5 69.7879 86.1121 68.4 84.4 68.4C82.6879 68.4 81.3 69.7879 81.3 71.5C81.3 73.2121 82.6879 74.6 84.4 74.6Z" fill="#00639C"/>
<path d="M95.5 51.6C97.2121 51.6 98.6 50.2121 98.6 48.5C98.6 46.7879 97.2121 45.4 95.5 45.4C93.7879 45.4 92.4 46.7879 92.4 48.5C92.4 50.2121 93.7879 51.6 95.5 51.6Z" fill="#00639C"/>
<path d="M107.1 51.5C108.812 51.5 110.2 50.1121 110.2 48.4C110.2 46.6879 108.812 45.3 107.1 45.3C105.388 45.3 104 46.6879 104 48.4C104 50.1121 105.388 51.5 107.1 51.5Z" fill="#00639C"/>
<path d="M118.9 63.4C120.612 63.4 122 62.0121 122 60.3C122 58.5879 120.612 57.2 118.9 57.2C117.188 57.2 115.8 58.5879 115.8 60.3C115.8 62.0121 117.188 63.4 118.9 63.4Z" fill="#00639C"/>
<path d="M15.5 120.4C17.2121 120.4 18.6 119.012 18.6 117.3C18.6 115.588 17.2121 114.2 15.5 114.2C13.7879 114.2 12.4 115.588 12.4 117.3C12.4 119.012 13.7879 120.4 15.5 120.4Z" fill="#00639C"/>
<path d="M14 116.9L25.7 105.5H48.3L83.8 70L85.5 71.7L75.5 81.7H84.4L94.6 71.6V48.5H97V72.6L87.9 81.6H95.4L105.7 71.3V49.5H108.1V69.3L118.1 59.3L119.7 60.9L96.3 84.3H73.4L49.8 108H27.5L16.8 118.3L14 116.9Z" fill="#00639C"/>
<path d="M27.7 94H48.7L71.1 71.2V48.5L83.7 35.9V25.9H85.6V37.4L73.5 49.5V59.6H84V62.1L73.4 62.2V73L50.8 95.6C50.3 96.1 49.7 96.3 49.1 96.3H27.5L27.7 94Z" fill="#00639C"/>
<path d="M72.7 105.5L84.2999 93.9H95.4999L118.4 71L120 72.7L96.3999 96.3H85.0999L74.4999 106.9L72.7 105.5Z" fill="#00639C"/>
<path d="M84.4 105.4H97.6L107.6 116L105.5 117.6L96.6 107.8H84.4C84.4 107.7 85.2 105.4 84.4 105.4Z" fill="#00639C"/>
<path d="M61.4001 109.9C63.1121 109.9 64.5 108.512 64.5 106.8C64.5 105.088 63.1121 103.7 61.4001 103.7C59.688 103.7 58.3 105.088 58.3 106.8C58.3 108.512 59.688 109.9 61.4001 109.9Z" fill="#00639C"/>
<path d="M73.4001 97.5C75.1121 97.5 76.5 96.1121 76.5 94.4C76.5 92.6879 75.1121 91.3 73.4001 91.3C71.688 91.3 70.3 92.6879 70.3 94.4C70.3 96.1121 71.688 97.5 73.4001 97.5Z" fill="#00639C"/>
<path d="M72.7 109.9C74.4121 109.9 75.8 108.512 75.8 106.8C75.8 105.088 74.4121 103.7 72.7 103.7C70.9879 103.7 69.6 105.088 69.6 106.8C69.6 108.512 70.9879 109.9 72.7 109.9Z" fill="#00639C"/>
<path d="M118.9 74.6C120.612 74.6 122 73.2121 122 71.5C122 69.7879 120.612 68.4 118.9 68.4C117.188 68.4 115.8 69.7879 115.8 71.5C115.8 73.2121 117.188 74.6 118.9 74.6Z" fill="#00639C"/>
<path d="M107.3 120.3C109.012 120.3 110.4 118.912 110.4 117.2C110.4 115.488 109.012 114.1 107.3 114.1C105.588 114.1 104.2 115.488 104.2 117.2C104.2 118.912 105.588 120.3 107.3 120.3Z" fill="#00639C"/>
<path d="M84.4 109.9C86.1121 109.9 87.5 108.512 87.5 106.8C87.5 105.088 86.1121 103.7 84.4 103.7C82.6879 103.7 81.3 105.088 81.3 106.8C81.3 108.512 82.6879 109.9 84.4 109.9Z" fill="#00639C"/>
<path d="M59.8 106.2L72.6001 93.5L74.4001 95.3L62 107.8L59.8 106.2Z" fill="#00639C"/>
</g>
<defs>
<clipPath id="clip0">
<rect width="412" height="145" fill="white"/>
</clipPath>
</defs>
</svg>
