<svg width="70" height="70" viewBox="0 0 70 70" fill="none" xmlns="http://www.w3.org/2000/svg">
<circle cx="35" cy="35" r="35" fill="white"/>
<path d="M45.0952 53.0007H24.5235C23.9766 53.0007 23.5559 53.4214 23.5559 53.9683V54.5572C23.5559 55.1041 23.9766 55.5248 24.5235 55.5248H33.5262V64.7379C33.5262 65.3269 33.989 65.7896 34.5779 65.7896H34.9986C35.5876 65.7896 36.0504 65.3269 36.0504 64.7379V55.5669H45.0531C45.6 55.5669 46.0207 55.1462 46.0207 54.5993V54.0103C46.1048 53.4634 45.6421 53.0007 45.0952 53.0007ZM34.8304 65.2427C34.5779 65.2427 34.3676 65.0324 34.3676 64.78C34.3676 64.5276 34.5779 64.3172 34.8304 64.3172C35.0828 64.3172 35.2931 64.5276 35.2931 64.78C35.2931 65.0745 35.0828 65.2427 34.8304 65.2427ZM25.0704 54.7676C24.8179 54.7676 24.6076 54.5572 24.6076 54.3048C24.6076 54.0524 24.8179 53.8421 25.0704 53.8421C25.3228 53.8421 25.5331 54.0524 25.5331 54.3048C25.5331 54.5572 25.3228 54.7676 25.0704 54.7676ZM44.8007 54.7676C44.5483 54.7676 44.3379 54.5572 44.3379 54.3048C44.3379 54.0524 44.5483 53.8421 44.8007 53.8421C45.0531 53.8421 45.2635 54.0524 45.2635 54.3048C45.2635 54.5572 45.0531 54.7676 44.8007 54.7676Z" fill="#00639C"/>
<path d="M9.92551 35.4579L15.1421 40.6324H30.4131L35.2931 35.3317V25.6138L39.8786 20.9862V11.1H39.0372V20.4393L35.2931 24.1835V10.7635L30.4552 5.96759L29.7821 6.64069L34.2834 11.1421V28.9372L30.4552 25.0669V15.8117H29.4034V19.8503L25.5331 15.6014L24.9441 16.1904L29.4455 21.5331V25.6979L34.1993 30.4517V34.869L32.2641 36.9724L25.449 30.1572L24.8179 30.8303L28.7303 34.7428H25.0703L20.569 30.2414V25.5297H19.5593V30.7041L24.6076 35.9207H29.9503L31.6331 37.6035L29.8662 39.5807H25.3227L15.8572 30.1152V24.9828H14.9738V30.5779L24.1028 39.749H20.4427L10.6827 29.989L9.92551 30.7462L18.9703 39.791H15.7731L10.5565 34.5745L9.92551 35.4579Z" fill="#00639C"/>
<path d="M10.3041 36.3835C11.0244 36.3835 11.6083 35.7996 11.6083 35.0793C11.6083 34.3591 11.0244 33.7752 10.3041 33.7752C9.58388 33.7752 9 34.3591 9 35.0793C9 35.7996 9.58388 36.3835 10.3041 36.3835Z" fill="#00639C"/>
<path d="M10.3041 31.6718C11.0244 31.6718 11.6083 31.0879 11.6083 30.3676C11.6083 29.6474 11.0244 29.0635 10.3041 29.0635C9.58388 29.0635 9 29.6474 9 30.3676C9 31.0879 9.58388 31.6718 10.3041 31.6718Z" fill="#00639C"/>
<path d="M15.4366 26.7076C16.1568 26.7076 16.7407 26.1237 16.7407 25.4034C16.7407 24.6832 16.1568 24.0993 15.4366 24.0993C14.7163 24.0993 14.1324 24.6832 14.1324 25.4034C14.1324 26.1237 14.7163 26.7076 15.4366 26.7076Z" fill="#00639C"/>
<path d="M20.1062 26.7076C20.8265 26.7076 21.4103 26.1237 21.4103 25.4034C21.4103 24.6832 20.8265 24.0993 20.1062 24.0993C19.3859 24.0993 18.8021 24.6832 18.8021 25.4034C18.8021 26.1237 19.3859 26.7076 20.1062 26.7076Z" fill="#00639C"/>
<path d="M24.9021 31.6718C25.6223 31.6718 26.2062 31.0879 26.2062 30.3676C26.2062 29.6474 25.6223 29.0635 24.9021 29.0635C24.1818 29.0635 23.5979 29.6474 23.5979 30.3676C23.5979 31.0879 24.1818 31.6718 24.9021 31.6718Z" fill="#00639C"/>
<path d="M25.0703 17.2C25.7906 17.2 26.3745 16.6161 26.3745 15.8959C26.3745 15.1756 25.7906 14.5917 25.0703 14.5917C24.3501 14.5917 23.7662 15.1756 23.7662 15.8959C23.7662 16.6161 24.3501 17.2 25.0703 17.2Z" fill="#00639C"/>
<path d="M29.9083 17.2C30.6285 17.2 31.2124 16.6161 31.2124 15.8959C31.2124 15.1756 30.6285 14.5917 29.9083 14.5917C29.188 14.5917 28.6041 15.1756 28.6041 15.8959C28.6041 16.6161 29.188 17.2 29.9083 17.2Z" fill="#00639C"/>
<path d="M30.2869 7.60828C31.0072 7.60828 31.591 7.02439 31.591 6.30414C31.591 5.58388 31.0072 5 30.2869 5C29.5666 5 28.9828 5.58388 28.9828 6.30414C28.9828 7.02439 29.5666 7.60828 30.2869 7.60828Z" fill="#00639C"/>
<path d="M39.5841 12.2358C40.3044 12.2358 40.8883 11.652 40.8883 10.9317C40.8883 10.2114 40.3044 9.62756 39.5841 9.62756C38.8639 9.62756 38.28 10.2114 38.28 10.9317C38.28 11.652 38.8639 12.2358 39.5841 12.2358Z" fill="#00639C"/>
<path d="M44.5062 17.2C45.2265 17.2 45.8103 16.6161 45.8103 15.8959C45.8103 15.1756 45.2265 14.5917 44.5062 14.5917C43.7859 14.5917 43.2021 15.1756 43.2021 15.8959C43.2021 16.6161 43.7859 17.2 44.5062 17.2Z" fill="#00639C"/>
<path d="M44.5062 32.0083C45.2265 32.0083 45.8103 31.4244 45.8103 30.7042C45.8103 29.9839 45.2265 29.4 44.5062 29.4C43.7859 29.4 43.2021 29.9839 43.2021 30.7042C43.2021 31.4244 43.7859 32.0083 44.5062 32.0083Z" fill="#00639C"/>
<path d="M20.569 46.4379C21.2892 46.4379 21.8731 45.854 21.8731 45.1338C21.8731 44.4135 21.2892 43.8297 20.569 43.8297C19.8487 43.8297 19.2648 44.4135 19.2648 45.1338C19.2648 45.854 19.8487 46.4379 20.569 46.4379Z" fill="#00639C"/>
<path d="M44.5062 36.3835C45.2265 36.3835 45.8103 35.7996 45.8103 35.0793C45.8103 34.3591 45.2265 33.7752 44.5062 33.7752C43.7859 33.7752 43.2021 34.3591 43.2021 35.0793C43.2021 35.7996 43.7859 36.3835 44.5062 36.3835Z" fill="#00639C"/>
<path d="M49.1758 26.7076C49.8961 26.7076 50.48 26.1237 50.48 25.4034C50.48 24.6832 49.8961 24.0993 49.1758 24.0993C48.4556 24.0993 47.8717 24.6832 47.8717 25.4034C47.8717 26.1237 48.4556 26.7076 49.1758 26.7076Z" fill="#00639C"/>
<path d="M54.0558 26.6655C54.7761 26.6655 55.36 26.0816 55.36 25.3614C55.36 24.6411 54.7761 24.0573 54.0558 24.0573C53.3356 24.0573 52.7517 24.6411 52.7517 25.3614C52.7517 26.0816 53.3356 26.6655 54.0558 26.6655Z" fill="#00639C"/>
<path d="M59.02 31.6718C59.7402 31.6718 60.3241 31.0879 60.3241 30.3676C60.3241 29.6474 59.7402 29.0635 59.02 29.0635C58.2997 29.0635 57.7159 29.6474 57.7159 30.3676C57.7159 31.0879 58.2997 31.6718 59.02 31.6718Z" fill="#00639C"/>
<path d="M15.5207 55.6511C16.2409 55.6511 16.8248 55.0672 16.8248 54.3469C16.8248 53.6267 16.2409 53.0428 15.5207 53.0428C14.8004 53.0428 14.2166 53.6267 14.2166 54.3469C14.2166 55.0672 14.8004 55.6511 15.5207 55.6511Z" fill="#00639C"/>
<path d="M14.8896 54.1786L19.8117 49.3828H29.3193L44.2538 34.4483L44.969 35.1634L40.7621 39.3703H44.5062L48.7972 35.1214V25.4034H49.8069V35.5421L45.9786 39.3283H49.1338L53.4669 34.9952V25.8241H54.4765V34.1538L58.6834 29.9469L59.3565 30.62L49.5124 40.4641H39.8786L29.9503 50.4345H20.569L16.0676 54.7676L14.8896 54.1786Z" fill="#00639C"/>
<path d="M20.6531 44.5448H29.4876L38.911 34.9531V25.4035L44.2117 20.1028V15.8959H45.011V20.7338L39.9207 25.8242V30.0731H44.3379V31.1248L39.8786 31.1669V35.7104L30.371 45.2179C30.1607 45.4283 29.9083 45.5124 29.6559 45.5124H20.569L20.6531 44.5448Z" fill="#00639C"/>
<path d="M39.5841 49.3828L44.4641 44.5027H49.1759L58.8097 34.869L59.4828 35.5841L49.5545 45.5124H44.8007L40.3414 49.9717L39.5841 49.3828Z" fill="#00639C"/>
<path d="M44.5062 49.3407H50.0593L54.2662 53.8L53.3827 54.4731L49.6386 50.3504H44.5062C44.5062 50.3083 44.8427 49.3407 44.5062 49.3407Z" fill="#00639C"/>
<path d="M34.8304 51.2338C35.5506 51.2338 36.1345 50.6499 36.1345 49.9297C36.1345 49.2094 35.5506 48.6255 34.8304 48.6255C34.1101 48.6255 33.5262 49.2094 33.5262 49.9297C33.5262 50.6499 34.1101 51.2338 34.8304 51.2338Z" fill="#00639C"/>
<path d="M39.8786 46.0172C40.5989 46.0172 41.1827 45.4333 41.1827 44.7131C41.1827 43.9928 40.5989 43.4089 39.8786 43.4089C39.1583 43.4089 38.5745 43.9928 38.5745 44.7131C38.5745 45.4333 39.1583 46.0172 39.8786 46.0172Z" fill="#00639C"/>
<path d="M39.5841 51.2338C40.3044 51.2338 40.8883 50.6499 40.8883 49.9297C40.8883 49.2094 40.3044 48.6255 39.5841 48.6255C38.8639 48.6255 38.28 49.2094 38.28 49.9297C38.28 50.6499 38.8639 51.2338 39.5841 51.2338Z" fill="#00639C"/>
<path d="M59.02 36.3835C59.7402 36.3835 60.3241 35.7996 60.3241 35.0793C60.3241 34.3591 59.7402 33.7752 59.02 33.7752C58.2997 33.7752 57.7159 34.3591 57.7159 35.0793C57.7159 35.7996 58.2997 36.3835 59.02 36.3835Z" fill="#00639C"/>
<path d="M54.14 55.609C54.8603 55.609 55.4442 55.0251 55.4442 54.3048C55.4442 53.5846 54.8603 53.0007 54.14 53.0007C53.4198 53.0007 52.8359 53.5846 52.8359 54.3048C52.8359 55.0251 53.4198 55.609 54.14 55.609Z" fill="#00639C"/>
<path d="M44.5062 51.2338C45.2265 51.2338 45.8103 50.6499 45.8103 49.9297C45.8103 49.2094 45.2265 48.6255 44.5062 48.6255C43.7859 48.6255 43.2021 49.2094 43.2021 49.9297C43.2021 50.6499 43.7859 51.2338 44.5062 51.2338Z" fill="#00639C"/>
<path d="M34.1572 49.6772L39.5421 44.3345L40.2993 45.0917L35.0827 50.3503L34.1572 49.6772Z" fill="#00639C"/>
</svg>
