<svg width="802" height="200" viewBox="0 0 802 200" fill="none" xmlns="http://www.w3.org/2000/svg">
<g clip-path="url(#clip0)">
<path d="M64.0118 27.2496C79.2051 -0.0727806 117.903 -0.0727959 133.096 27.2496C133.096 27.2496 134.517 29.579 135.255 31.1597C141.564 44.6709 135.194 53.8973 128.453 68.7423C125.008 76.3271 120.253 83.3705 115.029 90.5087C113.651 92.3916 112.229 94.296 110.791 96.2209C106.877 101.462 102.85 106.853 99.3044 112.369C89.3963 127.784 82.4899 145.267 88.445 168.562C91.3553 179.946 96.2986 187.827 101.758 193.242H39.7419C9.34982 193.242 -9.76181 159.918 5.19971 133.012L64.0118 27.2496Z" fill="#6A4CFF"/>
<path d="M175.453 188.877C170.123 191.65 164.015 193.245 157.366 193.245H125.146C121.891 193.245 118.594 192.801 115.761 191.198C109.84 187.847 102.469 180.936 98.7078 166.223C93.6348 146.379 99.2746 131.635 108.329 117.549C111.672 112.349 115.381 107.382 119.222 102.239C120.704 100.255 122.206 98.2443 123.714 96.184C129.034 88.9133 134.282 81.2069 138.155 72.678C141.984 64.2464 144.134 56.2635 145.199 49.0195L191.907 133.016C203.128 153.195 195.184 176.984 177.689 187.618C176.96 188.061 176.215 188.481 175.453 188.877Z" fill="#4CC4FF"/>
<path d="M328.187 154H350.362L310.448 49.1887H286.795L246.585 154H268.168L276.89 130.052H319.465L328.187 154ZM298.178 71.8067L312.665 111.425H283.69L298.178 71.8067ZM381.95 154V81.2678H362.289V154H381.95ZM359.923 57.4672C359.923 63.9717 365.393 69.4414 372.045 69.4414C378.846 69.4414 384.167 63.9717 384.167 57.4672C384.167 50.667 378.846 45.1973 372.045 45.1973C365.393 45.1973 359.923 50.667 359.923 57.4672ZM447.349 80.9722C445.87 80.8243 444.392 80.6765 442.766 80.6765C436.557 80.6765 426.505 82.4505 422.07 92.0594V81.2678H403V154H422.661V120.738C422.661 105.068 431.383 100.19 441.435 100.19C443.209 100.19 445.131 100.338 447.349 100.781V80.9722ZM480.84 154V111.425C480.84 103.442 485.866 97.0856 494.441 97.0856C503.31 97.0856 507.302 102.999 507.302 110.834V154H526.815V111.425C526.815 103.59 531.842 97.0856 540.268 97.0856C549.286 97.0856 553.129 102.999 553.129 110.834V154H572.199V106.842C572.199 87.3288 559.338 79.1982 545.885 79.1982C536.276 79.1982 528.589 82.4505 522.824 91.3203C519.128 83.4853 511.145 79.1982 501.241 79.1982C493.258 79.1982 483.945 83.0418 479.953 90.1376V81.2678H461.179V154H480.84ZM606.458 109.355C606.901 102.703 612.519 95.016 622.719 95.016C633.954 95.016 638.685 102.112 638.98 109.355H606.458ZM640.902 128.278C638.537 134.782 633.511 139.365 624.345 139.365C614.588 139.365 606.458 132.417 606.014 122.808H658.05C658.05 122.512 658.346 119.556 658.346 116.747C658.346 93.3899 644.893 79.0504 622.423 79.0504C603.797 79.0504 586.648 94.129 586.648 117.338C586.648 141.878 604.24 156.217 624.197 156.217C642.085 156.217 653.615 145.722 657.311 133.156L640.902 128.278ZM688.168 109.355C688.612 102.703 694.229 95.016 704.43 95.016C715.665 95.016 720.395 102.112 720.691 109.355H688.168ZM722.613 128.278C720.248 134.782 715.221 139.365 706.056 139.365C696.299 139.365 688.168 132.417 687.725 122.808H739.761C739.761 122.512 740.057 119.556 740.057 116.747C740.057 93.3899 726.604 79.0504 704.134 79.0504C685.507 79.0504 668.359 94.129 668.359 117.338C668.359 141.878 685.951 156.217 705.908 156.217C723.795 156.217 735.326 145.722 739.022 133.156L722.613 128.278ZM779.784 59.5368H762.044V69.7371C762.044 76.2416 758.496 81.2678 750.809 81.2678H747.113V98.7118H760.27V132.565C760.27 146.608 769.14 155.035 783.332 155.035C789.097 155.035 792.645 154 794.419 153.261V137C793.384 137.295 790.723 137.591 788.358 137.591C782.74 137.591 779.784 135.521 779.784 129.165V98.7118H794.419V81.2678H779.784V59.5368Z" fill="#252A30"/>
</g>
<defs>
<clipPath id="clip0">
<rect width="802" height="200" fill="white"/>
</clipPath>
</defs>
</svg>
