<?xml version="1.0" encoding="UTF-8"?>
<svg xmlns="http://www.w3.org/2000/svg" xmlns:xlink="http://www.w3.org/1999/xlink" width="360px" height="180px" viewBox="0 0 360 180" version="1.1">
<g id="surface1">
<path style=" stroke:none;fill-rule:evenodd;fill:rgb(100%,60%,0%);fill-opacity:1;" d="M 216.113281 122.109375 C 198.714844 134.957031 173.410156 141.820312 151.65625 141.820312 C 121.152344 141.820312 93.6875 130.539062 72.910156 111.769531 C 71.28125 110.296875 72.742188 108.285156 74.699219 109.429688 C 97.121094 122.480469 124.84375 130.324219 153.480469 130.324219 C 172.792969 130.324219 194.039062 126.328125 213.574219 118.039062 C 216.527344 116.785156 218.992188 119.96875 216.109375 122.113281 M 223.363281 113.820312 C 221.140625 110.96875 208.660156 112.476562 203.015625 113.140625 C 201.304688 113.351562 201.046875 111.859375 202.585938 110.789062 C 212.542969 103.777344 228.894531 105.800781 230.804688 108.148438 C 232.714844 110.5 230.308594 126.898438 220.945312 134.722656 C 219.507812 135.925781 218.140625 135.285156 218.777344 133.691406 C 220.878906 128.441406 225.59375 116.675781 223.363281 113.816406 "/>
<path style=" stroke:none;fill-rule:evenodd;fill:rgb(13.333333%,12.156863%,12.156863%);fill-opacity:1;" d="M 203.410156 61.28125 L 203.410156 54.464844 C 203.394531 54.003906 203.574219 53.558594 203.902344 53.230469 C 204.226562 52.90625 204.671875 52.726562 205.132812 52.738281 L 235.648438 52.738281 C 236.628906 52.738281 237.414062 53.445312 237.414062 54.464844 L 237.414062 60.300781 C 237.402344 61.277344 236.574219 62.558594 235.117188 64.585938 L 219.304688 87.160156 C 225.1875 87.019531 231.382812 87.894531 236.710938 90.898438 C 237.910156 91.574219 238.210938 92.566406 238.332031 93.550781 L 238.332031 100.824219 C 238.332031 101.8125 237.234375 102.976562 236.082031 102.378906 C 226.691406 97.457031 214.222656 96.917969 203.839844 102.429688 C 202.78125 103.003906 201.671875 101.851562 201.671875 100.863281 L 201.671875 93.953125 C 201.671875 92.84375 201.683594 90.953125 202.792969 89.265625 L 221.113281 62.992188 L 205.199219 62.992188 C 204.222656 62.992188 203.4375 62.300781 203.4375 61.28125 M 92.082031 103.816406 L 82.800781 103.816406 C 81.910156 103.75 81.210938 103.082031 81.140625 102.234375 L 81.140625 54.582031 C 81.140625 53.628906 81.9375 52.871094 82.929688 52.871094 L 91.585938 52.871094 C 92.488281 52.910156 93.207031 53.605469 93.273438 54.460938 L 93.273438 60.691406 L 93.445312 60.691406 C 95.703125 54.667969 99.949219 51.859375 105.664062 51.859375 C 111.476562 51.859375 115.105469 54.667969 117.71875 60.691406 C 119.96875 54.667969 125.070312 51.859375 130.546875 51.859375 C 134.4375 51.859375 138.691406 53.464844 141.289062 57.070312 C 144.230469 61.078125 143.632812 66.90625 143.632812 72.011719 L 143.609375 102.089844 C 143.609375 103.042969 142.8125 103.816406 141.820312 103.816406 L 132.523438 103.816406 C 131.621094 103.75 130.851562 103.003906 130.851562 102.089844 L 130.851562 76.800781 C 130.851562 74.789062 131.03125 69.773438 130.589844 67.867188 C 129.898438 64.671875 127.820312 63.769531 125.128906 63.769531 C 122.878906 63.769531 120.535156 65.269531 119.578125 67.675781 C 118.625 70.078125 118.71875 74.101562 118.71875 76.804688 L 118.71875 102.0625 C 118.71875 103.015625 117.921875 103.789062 116.929688 103.789062 L 107.632812 103.789062 C 106.691406 103.722656 105.960938 102.976562 105.960938 102.0625 L 105.949219 76.804688 C 105.949219 71.488281 106.824219 63.664062 100.226562 63.664062 C 93.554688 63.664062 93.816406 71.289062 93.816406 76.804688 L 93.816406 102.0625 C 93.816406 103.015625 93.019531 103.789062 92.027344 103.789062 M 263.6875 51.898438 C 277.464844 51.898438 284.921875 63.730469 284.921875 78.773438 C 284.921875 93.308594 276.679688 104.839844 263.6875 104.839844 C 250.1875 104.839844 242.792969 93.007812 242.792969 78.265625 C 242.792969 63.429688 250.25 51.863281 263.6875 51.863281 M 263.765625 61.59375 C 256.925781 61.59375 256.492188 70.917969 256.492188 76.726562 C 256.492188 82.539062 256.402344 94.984375 263.683594 94.984375 C 270.878906 94.984375 271.222656 84.953125 271.222656 78.84375 C 271.222656 74.824219 271.050781 70.015625 269.839844 66.199219 C 268.796875 62.882812 266.722656 61.589844 263.769531 61.589844 M 302.789062 103.816406 L 293.542969 103.816406 C 292.644531 103.75 291.871094 103.003906 291.871094 102.089844 L 291.859375 54.425781 C 291.9375 53.550781 292.710938 52.871094 293.648438 52.871094 L 302.257812 52.871094 C 303.070312 52.910156 303.734375 53.460938 303.917969 54.203125 L 303.917969 61.492188 L 304.089844 61.492188 C 306.6875 54.976562 310.328125 51.871094 316.742188 51.871094 C 320.941406 51.871094 324.96875 53.371094 327.582031 57.484375 C 329.980469 61.296875 329.980469 67.710938 329.980469 72.320312 L 329.980469 102.320312 C 329.878906 103.160156 329.105469 103.820312 328.195312 103.820312 L 318.898438 103.820312 C 318.050781 103.753906 317.347656 103.132812 317.257812 102.320312 L 317.257812 76.441406 C 317.257812 71.230469 317.855469 63.601562 311.445312 63.601562 C 309.1875 63.601562 307.109375 65.113281 306.046875 67.410156 C 304.738281 70.320312 304.570312 73.222656 304.570312 76.433594 L 304.570312 102.097656 C 304.558594 103.050781 303.746094 103.820312 302.753906 103.820312 M 179.078125 81.019531 C 179.078125 84.640625 179.167969 87.621094 177.339844 90.867188 C 175.863281 93.476562 173.515625 95.085938 170.914062 95.085938 C 167.347656 95.085938 165.257812 92.371094 165.257812 88.359375 C 165.257812 80.445312 172.351562 79.007812 179.074219 79.007812 L 179.074219 81.019531 M 188.433594 103.648438 C 187.816406 104.199219 186.933594 104.238281 186.242188 103.871094 C 183.160156 101.3125 182.601562 100.121094 180.914062 97.683594 C 175.820312 102.878906 172.207031 104.433594 165.609375 104.433594 C 157.789062 104.433594 151.714844 99.613281 151.714844 89.964844 C 151.714844 82.429688 155.785156 77.296875 161.613281 74.789062 C 166.652344 72.570312 173.691406 72.179688 179.074219 71.566406 L 179.074219 70.363281 C 179.074219 68.15625 179.242188 65.546875 177.933594 63.640625 C 176.8125 61.929688 174.640625 61.222656 172.722656 61.222656 C 169.183594 61.222656 166.03125 63.039062 165.265625 66.804688 C 165.109375 67.644531 164.492188 68.464844 163.644531 68.503906 L 154.644531 67.535156 C 153.886719 67.363281 153.039062 66.757812 153.265625 65.585938 C 155.328125 54.664062 165.203125 51.378906 174.023438 51.378906 C 178.542969 51.378906 184.445312 52.578125 188.011719 55.996094 C 192.527344 60.214844 192.097656 65.84375 192.097656 71.96875 L 192.097656 86.4375 C 192.097656 90.789062 193.894531 92.695312 195.597656 95.050781 C 196.183594 95.890625 196.316406 96.890625 195.558594 97.519531 L 188.460938 103.710938 L 188.449219 103.679688 M 57.359375 81.050781 C 57.359375 84.667969 57.449219 87.652344 55.621094 90.898438 C 54.144531 93.507812 51.808594 95.113281 49.195312 95.113281 C 45.628906 95.113281 43.554688 92.398438 43.554688 88.390625 C 43.554688 80.476562 50.644531 79.039062 57.355469 79.039062 L 57.355469 81.046875 M 66.714844 103.679688 C 66.097656 104.230469 65.214844 104.269531 64.523438 103.902344 C 61.441406 101.34375 60.925781 100.152344 59.195312 97.714844 C 54.101562 102.910156 50.496094 104.464844 43.890625 104.464844 C 36.085938 104.464844 30 99.648438 30 90 C 30 82.464844 34.085938 77.335938 39.898438 74.824219 C 44.941406 72.605469 51.976562 72.214844 57.359375 71.601562 L 57.359375 70.402344 C 57.359375 68.191406 57.53125 65.582031 56.238281 63.675781 C 55.097656 61.964844 52.9375 61.261719 51.027344 61.261719 C 47.488281 61.261719 44.328125 63.074219 43.527344 66.839844 C 43.371094 67.679688 42.757812 68.5 41.921875 68.539062 L 32.910156 67.570312 C 32.152344 67.402344 31.320312 66.792969 31.53125 65.621094 C 33.605469 54.703125 43.46875 51.414062 52.289062 51.414062 C 56.808594 51.414062 62.710938 52.613281 66.277344 56.035156 C 70.792969 60.253906 70.363281 65.878906 70.363281 72.007812 L 70.363281 86.476562 C 70.363281 90.824219 72.160156 92.730469 73.863281 95.085938 C 74.464844 95.925781 74.59375 96.925781 73.832031 97.554688 L 66.753906 103.710938 L 66.722656 103.679688 "/>
</g>
</svg>
