<svg width="800" height="191" viewBox="0 0 800 191" fill="none" xmlns="http://www.w3.org/2000/svg">
<g clip-path="url(#clip0)">
<path d="M187.888 178.122H143.52L129.947 145.384H56.003L43.637 178.122H0L66.667 12.776H114.428L187.888 178.122ZM91.155 52.286L66.912 116.53H117.825L91.155 52.286Z" fill="black"/>
<path d="M349.056 12.776H384.936V178.122H343.717V74.842L299.109 126.719H292.808L248.203 74.842V178.12H206.984V12.776H242.864L295.956 74.112L349.056 12.776Z" fill="black"/>
<path d="M489.375 12.776C549.739 12.776 580.766 50.349 580.766 95.685C580.766 143.202 550.708 178.122 484.766 178.122H416.397V12.776H489.375ZM457.613 147.817H484.519C525.976 147.817 538.342 119.688 538.342 95.44C538.342 67.072 523.066 43.077 484.034 43.077H457.612V147.817H457.613Z" fill="black"/>
<path d="M662.769 51.981L610.797 0H800V189.21L748.028 137.235V51.981H662.769Z" fill="black"/>
<path d="M662.708 62.397L609.2 115.903V190.802H684.089L737.594 137.296H662.708V62.397Z" fill="black"/>
</g>
<defs>
<clipPath id="clip0">
<rect width="800" height="190.803" fill="white"/>
</clipPath>
</defs>
</svg>
