<svg width="532" height="214" viewBox="0 0 532 214" fill="none" xmlns="http://www.w3.org/2000/svg">
<g clip-path="url(#clip0)">
<mask id="mask0" mask-type="alpha" maskUnits="userSpaceOnUse" x="0" y="184" width="24" height="30">
<path fill-rule="evenodd" clip-rule="evenodd" d="M0 184.773H23.361V213.282H0V184.773Z" fill="white"/>
</mask>
<g mask="url(#mask0)">
<path fill-rule="evenodd" clip-rule="evenodd" d="M11.8828 190.599L7.95282 202.722H15.4828L11.8828 190.599ZM18.6118 213.282L16.5568 206.439H6.70182L4.51182 213.282H-0.180176L9.47982 184.773H14.2678L23.3608 213.282H18.6118Z" fill="#1A1919"/>
</g>
<path fill-rule="evenodd" clip-rule="evenodd" d="M42.369 213.282V200.904H30.753V213.282H26.355V184.773H30.753V197.19H42.369V184.773H46.767V213.282H42.369Z" fill="#1A1919"/>
<path fill-rule="evenodd" clip-rule="evenodd" d="M52.3379 213.282V184.773H69.6419V188.487H56.7389V197.19H66.2399V200.904H56.7389V209.565H69.6419V213.282H52.3379Z" fill="#1A1919"/>
<path fill-rule="evenodd" clip-rule="evenodd" d="M83.2921 190.599L79.3621 202.722H86.8891L83.2921 190.599ZM90.0181 213.282L87.9631 206.439H78.1111L75.9211 213.282H71.2261L80.8861 184.773H85.6771L94.7671 213.282H90.0181Z" fill="#1A1919"/>
<mask id="mask1" mask-type="alpha" maskUnits="userSpaceOnUse" x="97" y="184" width="58" height="30">
<path fill-rule="evenodd" clip-rule="evenodd" d="M97.7578 184.539H154.89V213.336H97.7578V184.539Z" fill="white"/>
</mask>
<g mask="url(#mask1)">
<path fill-rule="evenodd" clip-rule="evenodd" d="M109.179 209.565C110.064 209.565 110.781 209.445 111.327 209.205C111.876 208.965 112.32 208.602 112.659 208.119C112.854 207.858 113.016 207.546 113.148 207.18C113.277 206.817 113.388 206.301 113.481 205.635C113.571 204.972 113.634 204.111 113.676 203.055C113.715 201.999 113.733 200.658 113.733 199.029C113.733 197.397 113.715 196.056 113.676 195C113.634 193.944 113.571 193.083 113.481 192.42C113.388 191.754 113.277 191.238 113.148 190.875C113.016 190.509 112.854 190.197 112.659 189.936C112.32 189.453 111.876 189.093 111.327 188.85C110.781 188.61 110.064 188.487 109.179 188.487H102.159V209.565H109.179ZM97.7578 213.282V184.773H109.101C109.893 184.773 110.622 184.83 111.279 184.941C111.939 185.052 112.539 185.211 113.079 185.418C113.619 185.628 114.111 185.874 114.555 186.162C114.999 186.45 115.41 186.774 115.788 187.14C116.256 187.596 116.649 188.16 116.97 188.832C117.288 189.501 117.543 190.317 117.732 191.274C117.921 192.234 118.059 193.35 118.143 194.628C118.227 195.906 118.269 197.373 118.269 199.029C118.269 200.682 118.227 202.149 118.143 203.427C118.059 204.705 117.921 205.821 117.732 206.781C117.543 207.738 117.288 208.557 116.97 209.235C116.649 209.913 116.256 210.471 115.788 210.915C115.41 211.281 114.999 211.608 114.555 211.902C114.111 212.196 113.619 212.445 113.079 212.646C112.539 212.847 111.939 213.003 111.279 213.114C110.622 213.225 109.893 213.282 109.101 213.282H97.7578Z" fill="#1A1919"/>
<path fill-rule="evenodd" clip-rule="evenodd" d="M149.202 207.963C149.397 207.702 149.571 207.387 149.721 207.015C149.871 206.643 149.991 206.127 150.081 205.47C150.174 204.813 150.243 203.967 150.288 202.938C150.333 201.909 150.357 200.604 150.357 199.029C150.357 197.451 150.333 196.143 150.288 195.108C150.243 194.07 150.174 193.227 150.081 192.576C149.991 191.922 149.871 191.412 149.721 191.04C149.571 190.668 149.397 190.353 149.202 190.092C148.746 189.492 148.113 189.036 147.306 188.724C146.496 188.409 145.395 188.253 144 188.253C142.593 188.253 141.489 188.409 140.688 188.724C139.884 189.036 139.257 189.492 138.801 190.092C138.603 190.353 138.432 190.668 138.282 191.04C138.132 191.412 138.009 191.922 137.91 192.576C137.814 193.227 137.742 194.07 137.694 195.108C137.649 196.143 137.628 197.451 137.628 199.029C137.628 200.604 137.649 201.909 137.694 202.938C137.742 203.967 137.814 204.813 137.91 205.47C138.009 206.127 138.132 206.643 138.282 207.015C138.432 207.387 138.603 207.702 138.801 207.963C139.257 208.563 139.884 209.019 140.688 209.331C141.489 209.643 142.593 209.802 144 209.802C145.395 209.802 146.496 209.643 147.306 209.331C148.113 209.019 148.746 208.563 149.202 207.963ZM152.448 210.915C152.058 211.32 151.611 211.68 151.107 212.001C150.606 212.319 150.018 212.595 149.349 212.823C148.677 213.051 147.9 213.222 147.021 213.339C146.142 213.456 145.134 213.516 144 213.516C142.854 213.516 141.843 213.456 140.97 213.339C140.097 213.222 139.323 213.051 138.654 212.823C137.982 212.595 137.394 212.319 136.893 212.001C136.392 211.68 135.945 211.32 135.555 210.915C135.099 210.459 134.715 209.892 134.409 209.214C134.103 208.536 133.854 207.717 133.656 206.76C133.461 205.803 133.32 204.687 133.236 203.418C133.152 202.146 133.11 200.682 133.11 199.029C133.11 197.373 133.152 195.909 133.236 194.637C133.32 193.368 133.461 192.252 133.656 191.295C133.854 190.335 134.103 189.519 134.409 188.841C134.715 188.163 135.099 187.596 135.555 187.14C135.945 186.735 136.392 186.375 136.893 186.054C137.394 185.736 137.982 185.466 138.654 185.244C139.323 185.022 140.097 184.848 140.97 184.725C141.843 184.602 142.854 184.539 144 184.539C145.134 184.539 146.142 184.602 147.021 184.725C147.9 184.848 148.677 185.022 149.349 185.244C150.018 185.466 150.606 185.736 151.107 186.054C151.611 186.375 152.058 186.735 152.448 187.14C152.889 187.596 153.267 188.163 153.582 188.841C153.894 189.519 154.149 190.335 154.344 191.295C154.539 192.252 154.68 193.368 154.764 194.637C154.848 195.909 154.89 197.373 154.89 199.029C154.89 200.682 154.848 202.146 154.764 203.418C154.68 204.687 154.539 205.803 154.344 206.76C154.149 207.717 153.894 208.536 153.582 209.214C153.267 209.892 152.889 210.459 152.448 210.915Z" fill="#1A1919"/>
</g>
<path fill-rule="evenodd" clip-rule="evenodd" d="M160.092 213.282V184.773H177.396V188.487H164.493V197.19H173.994V200.904H164.493V213.282H160.092Z" fill="#1A1919"/>
<path fill-rule="evenodd" clip-rule="evenodd" d="M210.951 213.282L206.1 196.467L201.018 213.282H196.248L188.877 184.773H193.527L198.69 207.24L204.066 190.053H208.35L213.315 206.985L218.751 184.773H223.404L215.622 213.282H210.951Z" fill="#1A1919"/>
<path fill-rule="evenodd" clip-rule="evenodd" d="M242.643 213.282V200.904H231.03V213.282H226.632V184.773H231.03V197.19H242.643V184.773H247.044V213.282H242.643Z" fill="#1A1919"/>
<path fill-rule="evenodd" clip-rule="evenodd" d="M262.119 190.599L258.189 202.722H265.716L262.119 190.599ZM268.845 213.282L266.79 206.439H256.938L254.748 213.282H250.053L259.713 184.773H264.504L273.594 213.282H268.845Z" fill="#1A1919"/>
<path fill-rule="evenodd" clip-rule="evenodd" d="M279.189 213.282V188.487H271.935V184.773H290.841V188.487H283.587V213.282H279.189Z" fill="#1A1919"/>
<mask id="mask2" mask-type="alpha" maskUnits="userSpaceOnUse" x="293" y="184" width="136" height="30">
<path fill-rule="evenodd" clip-rule="evenodd" d="M293.385 184.539H428.493V213.336H293.385V184.539Z" fill="white"/>
</mask>
<g mask="url(#mask2)">
<path fill-rule="evenodd" clip-rule="evenodd" d="M293.385 192.261C293.814 192.237 294.162 192.177 294.429 192.087C294.696 191.994 294.906 191.856 295.056 191.667C295.203 191.478 295.305 191.226 295.359 190.914C295.41 190.599 295.437 190.209 295.437 189.741V188.898H293.598V184.773H297.507V189.291C297.507 190.098 297.447 190.773 297.324 191.313C297.201 191.856 296.997 192.3 296.718 192.654C296.436 193.005 296.073 193.287 295.623 193.494C295.173 193.701 294.615 193.866 293.952 193.983L293.385 192.261Z" fill="#1A1919"/>
<path fill-rule="evenodd" clip-rule="evenodd" d="M315.945 191.772C315.921 191.394 315.852 190.998 315.741 190.581C315.633 190.164 315.399 189.783 315.048 189.438C314.694 189.093 314.181 188.808 313.503 188.586C312.825 188.364 311.892 188.253 310.707 188.253C308.856 188.253 307.44 188.574 306.453 189.213C305.469 189.852 304.977 190.869 304.977 192.261C304.977 192.978 305.151 193.551 305.496 193.974C305.841 194.397 306.309 194.73 306.894 194.97C307.482 195.213 308.157 195.39 308.928 195.507C309.696 195.624 310.506 195.729 311.352 195.822C312.015 195.9 312.714 195.996 313.446 196.113C314.175 196.233 314.886 196.401 315.585 196.623C316.281 196.845 316.947 197.139 317.58 197.502C318.21 197.868 318.765 198.342 319.242 198.93C319.716 199.515 320.094 200.232 320.376 201.081C320.655 201.927 320.796 202.938 320.796 204.111C320.796 205.65 320.559 207.006 320.082 208.179C319.608 209.352 318.927 210.333 318.039 211.122C317.151 211.908 316.074 212.505 314.805 212.91C313.533 213.312 312.102 213.516 310.512 213.516C308.895 213.516 307.527 213.318 306.405 212.919C305.283 212.523 304.356 212.019 303.621 211.413C302.883 210.807 302.307 210.144 301.887 209.421C301.47 208.695 301.164 207.999 300.969 207.327C300.774 206.655 300.654 206.064 300.609 205.548C300.564 205.035 300.54 204.684 300.54 204.501H304.899C304.899 205.128 304.992 205.752 305.175 206.379C305.355 207.006 305.661 207.573 306.093 208.08C306.522 208.59 307.095 209.001 307.815 209.322C308.529 209.64 309.429 209.802 310.512 209.802C311.397 209.802 312.195 209.691 312.906 209.469C313.617 209.247 314.223 208.914 314.724 208.47C315.228 208.029 315.612 207.474 315.879 206.808C316.146 206.145 316.278 205.374 316.278 204.501C316.278 203.589 316.125 202.866 315.81 202.332C315.498 201.798 315.033 201.381 314.421 201.081C313.809 200.781 313.044 200.553 312.126 200.397C311.205 200.241 310.134 200.076 308.907 199.908C307.851 199.752 306.825 199.548 305.829 199.302C304.83 199.053 303.945 198.675 303.171 198.168C302.394 197.658 301.767 196.977 301.293 196.125C300.816 195.27 300.579 194.166 300.579 192.81C300.579 192.537 300.609 192.138 300.666 191.616C300.726 191.097 300.861 190.53 301.077 189.915C301.293 189.303 301.608 188.679 302.025 188.04C302.442 187.401 303.015 186.825 303.747 186.309C304.476 185.793 305.385 185.37 306.474 185.037C307.563 184.704 308.883 184.539 310.434 184.539C311.775 184.539 312.897 184.611 313.797 184.755C314.694 184.899 315.444 185.091 316.044 185.331C316.644 185.571 317.127 185.844 317.493 186.141C317.856 186.441 318.183 186.75 318.468 187.062C319.095 187.725 319.542 188.466 319.809 189.282C320.076 190.095 320.208 190.926 320.208 191.772H315.945Z" fill="#1A1919"/>
<path fill-rule="evenodd" clip-rule="evenodd" d="M344.904 199.398C345.477 199.398 346.077 199.308 346.704 199.125C347.328 198.942 347.901 198.642 348.423 198.225C348.945 197.805 349.377 197.247 349.713 196.548C350.055 195.849 350.223 194.985 350.223 193.953C350.223 193.209 350.121 192.507 349.92 191.847C349.716 191.187 349.425 190.608 349.041 190.104C348.654 189.603 348.183 189.207 347.622 188.919C347.061 188.631 346.422 188.487 345.705 188.487H339.762V199.398H344.904ZM335.364 213.282V184.773H346.254C347.583 184.773 348.771 184.989 349.821 185.418C350.871 185.85 351.759 186.465 352.491 187.266C353.22 188.067 353.778 189.033 354.162 190.161C354.546 191.289 354.741 192.549 354.741 193.944C354.741 195.339 354.525 196.599 354.093 197.727C353.664 198.855 353.07 199.815 352.317 200.61C351.558 201.405 350.664 202.023 349.626 202.458C348.591 202.896 347.466 203.115 346.254 203.115H339.762V213.282H335.364Z" fill="#1A1919"/>
<path fill-rule="evenodd" clip-rule="evenodd" d="M374.526 207.963C374.724 207.702 374.895 207.387 375.045 207.015C375.195 206.643 375.315 206.127 375.408 205.47C375.498 204.813 375.567 203.967 375.612 202.938C375.657 201.909 375.681 200.604 375.681 199.029C375.681 197.451 375.657 196.143 375.612 195.108C375.567 194.07 375.498 193.227 375.408 192.576C375.315 191.922 375.195 191.412 375.045 191.04C374.895 190.668 374.724 190.353 374.526 190.092C374.07 189.492 373.44 189.036 372.63 188.724C371.82 188.409 370.722 188.253 369.324 188.253C367.917 188.253 366.813 188.409 366.012 188.724C365.211 189.036 364.581 189.492 364.125 190.092C363.93 190.353 363.756 190.668 363.606 191.04C363.456 191.412 363.333 191.922 363.237 192.576C363.138 193.227 363.066 194.07 363.021 195.108C362.976 196.143 362.952 197.451 362.952 199.029C362.952 200.604 362.976 201.909 363.021 202.938C363.066 203.967 363.138 204.813 363.237 205.47C363.333 206.127 363.456 206.643 363.606 207.015C363.756 207.387 363.93 207.702 364.125 207.963C364.581 208.563 365.211 209.019 366.012 209.331C366.813 209.643 367.917 209.802 369.324 209.802C370.722 209.802 371.82 209.643 372.63 209.331C373.44 209.019 374.07 208.563 374.526 207.963ZM377.772 210.915C377.382 211.32 376.935 211.68 376.434 212.001C375.933 212.319 375.345 212.595 374.673 212.823C374.004 213.051 373.227 213.222 372.348 213.339C371.466 213.456 370.461 213.516 369.324 213.516C368.178 213.516 367.17 213.456 366.297 213.339C365.421 213.222 364.65 213.051 363.978 212.823C363.306 212.595 362.721 212.319 362.22 212.001C361.716 211.68 361.269 211.32 360.879 210.915C360.423 210.459 360.042 209.892 359.736 209.214C359.43 208.536 359.178 207.717 358.983 206.76C358.788 205.803 358.647 204.687 358.563 203.418C358.476 202.146 358.437 200.682 358.437 199.029C358.437 197.373 358.476 195.909 358.563 194.637C358.647 193.368 358.788 192.252 358.983 191.295C359.178 190.335 359.43 189.519 359.736 188.841C360.042 188.163 360.423 187.596 360.879 187.14C361.269 186.735 361.716 186.375 362.22 186.054C362.721 185.736 363.306 185.466 363.978 185.244C364.65 185.022 365.421 184.848 366.297 184.725C367.17 184.602 368.178 184.539 369.324 184.539C370.461 184.539 371.466 184.602 372.348 184.725C373.227 184.848 374.004 185.022 374.673 185.244C375.345 185.466 375.933 185.736 376.434 186.054C376.935 186.375 377.382 186.735 377.772 187.14C378.216 187.596 378.594 188.163 378.906 188.841C379.221 189.519 379.473 190.335 379.671 191.295C379.866 192.252 380.007 193.368 380.091 194.637C380.175 195.909 380.217 197.373 380.217 199.029C380.217 200.682 380.175 202.146 380.091 203.418C380.007 204.687 379.866 205.803 379.671 206.76C379.473 207.717 379.221 208.536 378.906 209.214C378.594 209.892 378.216 210.459 377.772 210.915Z" fill="#1A1919"/>
<path fill-rule="evenodd" clip-rule="evenodd" d="M399.825 191.772C399.801 191.394 399.732 190.998 399.621 190.581C399.51 190.164 399.279 189.783 398.928 189.438C398.574 189.093 398.061 188.808 397.383 188.586C396.705 188.364 395.772 188.253 394.587 188.253C392.736 188.253 391.32 188.574 390.333 189.213C389.349 189.852 388.857 190.869 388.857 192.261C388.857 192.978 389.031 193.551 389.376 193.974C389.721 194.397 390.189 194.73 390.774 194.97C391.362 195.213 392.037 195.39 392.808 195.507C393.576 195.624 394.383 195.729 395.232 195.822C395.895 195.9 396.594 195.996 397.323 196.113C398.055 196.233 398.766 196.401 399.465 196.623C400.161 196.845 400.827 197.139 401.46 197.502C402.09 197.868 402.645 198.342 403.122 198.93C403.596 199.515 403.974 200.232 404.256 201.081C404.535 201.927 404.676 202.938 404.676 204.111C404.676 205.65 404.439 207.006 403.962 208.179C403.488 209.352 402.807 210.333 401.919 211.122C401.031 211.908 399.954 212.505 398.685 212.91C397.413 213.312 395.982 213.516 394.392 213.516C392.775 213.516 391.407 213.318 390.285 212.919C389.163 212.523 388.236 212.019 387.501 211.413C386.763 210.807 386.187 210.144 385.767 209.421C385.35 208.695 385.044 207.999 384.849 207.327C384.654 206.655 384.534 206.064 384.489 205.548C384.444 205.035 384.42 204.684 384.42 204.501H388.779C388.779 205.128 388.872 205.752 389.055 206.379C389.235 207.006 389.541 207.573 389.973 208.08C390.402 208.59 390.975 209.001 391.695 209.322C392.409 209.64 393.309 209.802 394.392 209.802C395.277 209.802 396.075 209.691 396.786 209.469C397.497 209.247 398.103 208.914 398.604 208.47C399.108 208.029 399.492 207.474 399.759 206.808C400.026 206.145 400.158 205.374 400.158 204.501C400.158 203.589 400.005 202.866 399.69 202.332C399.378 201.798 398.913 201.381 398.301 201.081C397.689 200.781 396.924 200.553 396.006 200.397C395.085 200.241 394.011 200.076 392.787 199.908C391.731 199.752 390.705 199.548 389.709 199.302C388.71 199.053 387.825 198.675 387.051 198.168C386.274 197.658 385.647 196.977 385.173 196.125C384.696 195.27 384.459 194.166 384.459 192.81C384.459 192.537 384.489 192.138 384.546 191.616C384.606 191.097 384.741 190.53 384.957 189.915C385.173 189.303 385.488 188.679 385.905 188.04C386.322 187.401 386.895 186.825 387.627 186.309C388.356 185.793 389.265 185.37 390.354 185.037C391.443 184.704 392.76 184.539 394.314 184.539C395.655 184.539 396.777 184.611 397.677 184.755C398.574 184.899 399.324 185.091 399.924 185.331C400.524 185.571 401.007 185.844 401.373 186.141C401.736 186.441 402.063 186.75 402.348 187.062C402.975 187.725 403.422 188.466 403.689 189.282C403.956 190.095 404.088 190.926 404.088 191.772H399.825Z" fill="#1A1919"/>
<path fill-rule="evenodd" clip-rule="evenodd" d="M423.642 191.772C423.615 191.394 423.549 190.998 423.438 190.581C423.327 190.164 423.096 189.783 422.742 189.438C422.391 189.093 421.875 188.808 421.197 188.586C420.519 188.364 419.589 188.253 418.401 188.253C416.55 188.253 415.134 188.574 414.15 189.213C413.166 189.852 412.674 190.869 412.674 192.261C412.674 192.978 412.845 193.551 413.193 193.974C413.538 194.397 414.003 194.73 414.588 194.97C415.176 195.213 415.854 195.39 416.622 195.507C417.39 195.624 418.2 195.729 419.049 195.822C419.712 195.9 420.408 195.996 421.14 196.113C421.869 196.233 422.583 196.401 423.279 196.623C423.978 196.845 424.641 197.139 425.274 197.502C425.907 197.868 426.462 198.342 426.936 198.93C427.413 199.515 427.791 200.232 428.07 201.081C428.352 201.927 428.493 202.938 428.493 204.111C428.493 205.65 428.253 207.006 427.776 208.179C427.302 209.352 426.621 210.333 425.736 211.122C424.848 211.908 423.768 212.505 422.499 212.91C421.227 213.312 419.796 213.516 418.206 213.516C416.589 213.516 415.221 213.318 414.102 212.919C412.98 212.523 412.05 212.019 411.315 211.413C410.577 210.807 410.001 210.144 409.584 209.421C409.167 208.695 408.861 207.999 408.666 207.327C408.468 206.655 408.348 206.064 408.303 205.548C408.258 205.035 408.234 204.684 408.234 204.501H412.596C412.596 205.128 412.686 205.752 412.869 206.379C413.052 207.006 413.358 207.573 413.787 208.08C414.219 208.59 414.792 209.001 415.509 209.322C416.226 209.64 417.126 209.802 418.206 209.802C419.094 209.802 419.892 209.691 420.603 209.469C421.314 209.247 421.917 208.914 422.421 208.47C422.922 208.029 423.306 207.474 423.573 206.808C423.84 206.145 423.975 205.374 423.975 204.501C423.975 203.589 423.819 202.866 423.507 202.332C423.192 201.798 422.73 201.381 422.118 201.081C421.506 200.781 420.738 200.553 419.82 200.397C418.902 200.241 417.828 200.076 416.604 199.908C415.548 199.752 414.522 199.548 413.523 199.302C412.527 199.053 411.639 198.675 410.865 198.168C410.088 197.658 409.464 196.977 408.987 196.125C408.51 195.27 408.273 194.166 408.273 192.81C408.273 192.537 408.303 192.138 408.363 191.616C408.42 191.097 408.558 190.53 408.771 189.915C408.987 189.303 409.305 188.679 409.722 188.04C410.136 187.401 410.712 186.825 411.441 186.309C412.173 185.793 413.079 185.37 414.168 185.037C415.257 184.704 416.577 184.539 418.128 184.539C419.472 184.539 420.591 184.611 421.491 184.755C422.391 184.899 423.141 185.091 423.741 185.331C424.338 185.571 424.821 185.844 425.187 186.141C425.553 186.441 425.877 186.75 426.165 187.062C426.789 187.725 427.236 188.466 427.506 189.282C427.77 190.095 427.905 190.926 427.905 191.772H423.642Z" fill="#1A1919"/>
</g>
<path fill-rule="evenodd" clip-rule="evenodd" d="M433.125 213.282H437.526V184.773H433.125V213.282Z" fill="#1A1919"/>
<path fill-rule="evenodd" clip-rule="evenodd" d="M454.674 209.565C455.349 209.565 455.949 209.43 456.471 209.157C456.993 208.881 457.431 208.53 457.782 208.101C458.133 207.669 458.397 207.195 458.571 206.673C458.751 206.151 458.838 205.644 458.838 205.146C458.838 204.483 458.742 203.889 458.553 203.367C458.364 202.848 458.097 202.404 457.752 202.038C457.407 201.675 456.993 201.393 456.51 201.198C456.027 201.003 455.493 200.904 454.908 200.904H447.573V209.565H454.674ZM453.714 197.19C454.575 197.19 455.304 197.046 455.904 196.758C456.504 196.473 456.99 196.113 457.362 195.684C457.731 195.255 458.004 194.787 458.172 194.286C458.34 193.785 458.427 193.326 458.427 192.906C458.427 191.355 457.986 190.233 457.107 189.534C456.228 188.838 454.959 188.487 453.303 188.487H447.573V197.19H453.714ZM443.175 213.282V184.773H454.752C456.003 184.773 457.071 184.929 457.956 185.244C458.844 185.556 459.594 185.952 460.206 186.435C460.818 186.918 461.304 187.455 461.661 188.049C462.021 188.643 462.297 189.219 462.495 189.78C462.69 190.341 462.816 190.848 462.876 191.304C462.933 191.76 462.963 192.093 462.963 192.3C462.963 192.798 462.915 193.332 462.816 193.905C462.717 194.478 462.534 195.051 462.267 195.624C462.003 196.2 461.64 196.749 461.184 197.277C460.728 197.805 460.146 198.264 459.444 198.657C460.734 199.269 461.706 200.118 462.366 201.207C463.023 202.296 463.353 203.544 463.353 204.951C463.353 205.266 463.326 205.689 463.275 206.223C463.224 206.757 463.098 207.33 462.903 207.942C462.708 208.557 462.426 209.181 462.054 209.82C461.682 210.459 461.178 211.032 460.539 211.542C459.9 212.049 459.108 212.466 458.163 212.793C457.218 213.117 456.081 213.282 454.752 213.282H443.175Z" fill="#1A1919"/>
<path fill-rule="evenodd" clip-rule="evenodd" d="M467.91 213.282V184.773H472.308V209.565H483.414V213.282H467.91Z" fill="#1A1919"/>
<path fill-rule="evenodd" clip-rule="evenodd" d="M486.876 213.282V184.773H504.18V188.487H491.274V197.19H500.778V200.904H491.274V209.565H504.18V213.282H486.876Z" fill="#1A1919"/>
<path fill-rule="evenodd" clip-rule="evenodd" d="M511.758 198.438V186.528H508.275V184.743H517.359V186.528H513.873V198.438H511.758Z" fill="#1A1919"/>
<mask id="mask3" mask-type="alpha" maskUnits="userSpaceOnUse" x="1" y="0" width="531" height="199">
<path fill-rule="evenodd" clip-rule="evenodd" d="M1.36523 0H531.291V198.438H1.36523V0Z" fill="white"/>
</mask>
<g mask="url(#mask3)">
<path fill-rule="evenodd" clip-rule="evenodd" d="M529.29 198.438V188.415L525.927 195.357H524.226L520.959 188.511V198.438H518.958V184.743H521.307L525.138 192.783L528.981 184.743H531.291V198.438H529.29Z" fill="#1A1919"/>
<path fill-rule="evenodd" clip-rule="evenodd" d="M1.36523 142.461H141.573V1.49701H1.36523V142.461ZM30.2192 23.439V124.575L118.134 72.882L30.2192 23.439ZM188.763 140.964H164.568V78.141H188.91C206.946 78.141 217.764 92.415 217.764 110.598C217.764 128.787 208.152 140.964 188.763 140.964ZM210.252 63.87L205.449 49.893H182.301L178.089 63.87H165.468L186.657 0.900015H199.431L223.176 63.87H210.252ZM187.71 88.815H177.792V131.19H188.466C202.59 131.19 204.696 119.166 204.543 110.001C204.543 102.786 201.087 88.815 187.71 88.815ZM201.087 37.266L193.122 14.124L186.063 37.119L185.604 41.019H201.24C201.24 38.922 201.39 38.472 201.087 37.266ZM222.282 140.964V78.141H268.566V88.662H234.894V102.036H264.651V113.46H235.047V130.29H269.619V140.964H222.282ZM265.857 63.87L238.206 21.336V63.87H225.585V0.900015H238.509L265.101 42.828V0.900015H277.728V63.87H265.857ZM305.379 140.811H293.355L272.625 81.45V78.141H285.237L299.367 124.125L313.194 78.291H325.515V81.597L305.379 140.811ZM325.371 63.87L320.556 49.893H297.414L293.211 63.87H280.584L301.773 0.900015H314.55L338.289 63.87H325.371ZM316.347 37.563L308.385 13.827L300.414 37.563V41.019H316.65C316.65 38.922 316.65 38.616 316.347 37.563ZM329.424 140.811H342.798V78.291H329.424V140.811ZM340.992 63.87V0.900015H353.472V53.196H381.567V63.87H340.992ZM376.011 142.461C341.601 143.214 335.58 76.788 376.158 77.238C398.703 77.238 402.609 96.024 403.509 98.88H391.035C389.082 94.977 383.97 87.462 377.667 87.006C355.425 85.509 355.425 132.543 377.667 132.543C388.335 132.543 390.891 121.875 391.485 120.675H403.662C403.662 120.822 402.153 142.164 376.011 142.461ZM410.574 64.917C370.146 64.917 371.655 -0.302985 411.024 1.49031e-05C449.046 0.300015 450.099 64.917 410.574 64.917ZM410.124 54.402C433.413 54.549 433.413 10.965 410.574 10.668C387.885 10.515 387.129 54.249 410.124 54.402ZM405.915 140.964V78.141H450.543V89.568H417.939V102.486H446.787V113.757H418.083V130.29H452.052V140.964H405.915ZM490.674 62.361V56.355C489.324 57.555 483.306 65.22 472.035 64.917C433.572 64.017 433.413 0.900015 473.844 0.147015C483.603 0.147015 491.721 6.31202 494.88 10.668C498.639 15.627 498.939 19.839 499.089 20.892H488.418C486.012 16.977 482.253 10.371 473.394 10.371C449.946 10.071 448.449 54.402 473.241 54.846C484.212 55.143 489.768 43.728 489.768 43.584V40.272H474.744V30.504H500.586V62.361H490.674ZM478.947 142.614C452.349 142.614 452.649 122.172 452.649 122.172H464.673C464.673 122.172 463.767 132.093 477.153 132.993C480.459 133.143 491.277 131.793 491.277 124.278C491.277 115.563 480.3 116.007 473.394 114.06C466.473 112.254 453.402 109.248 453.402 97.077C453.402 86.409 462.117 77.238 478.947 77.238C501.495 77.391 501.342 94.827 501.495 95.88H489.927C489.165 93.318 488.418 87.159 478.353 86.859C473.394 86.859 465.876 88.515 465.876 94.368C465.876 101.739 474.288 102.786 483.159 104.136C496.536 106.698 504.201 110.757 503.745 123.072C503.448 133.893 493.827 142.614 478.947 142.614Z" fill="#1A1919"/>
</g>
</g>
<defs>
<clipPath id="clip0">
<rect width="531.291" height="213.336" fill="white"/>
</clipPath>
</defs>
</svg>
