<svg width="1258" height="218" viewBox="0 0 1258 218" fill="none" xmlns="http://www.w3.org/2000/svg">
<path fill-rule="evenodd" clip-rule="evenodd" d="M35.7764 193.866C55.5351 193.866 71.5527 177.831 71.5527 158.052C71.5527 138.272 55.5351 122.237 35.7764 122.237C16.0176 122.237 0 138.272 0 158.052C0 177.831 16.0176 193.866 35.7764 193.866Z" fill="#ED74B9"/>
<path fill-rule="evenodd" clip-rule="evenodd" d="M95.3196 0L173.838 121.63C178.726 129.202 181.327 138.027 181.327 147.044C181.327 172.903 160.386 193.867 134.552 193.867L75.377 105.587C60.5016 83.3948 60.2365 54.4724 74.7027 32.0113L95.3196 0Z" fill="#8664F6"/>
<path fill-rule="evenodd" clip-rule="evenodd" d="M783.616 76.4527H750.855V115.405C750.855 135.887 769.056 134.129 788.135 129.605L790.896 161.772C782.109 165.039 768.93 167.3 758.888 167.3C731.274 167.3 711.316 153.981 711.316 121.813V76.4527H692.111V44.1596H711.316V5.45801H749.599V44.1596H783.616V76.4527ZM378.899 164.788H417.183V44.1596H378.899L377.644 56.8506C370.74 48.4318 359.067 41.6465 342.122 41.6465C309.988 41.6465 286.39 68.5364 286.39 104.599C286.39 140.662 309.988 167.3 342.122 167.3C359.067 167.3 370.74 160.641 377.644 152.097L378.899 164.788ZM325.553 104.599C325.553 88.2642 336.222 76.8297 351.535 76.8297C366.849 76.9553 377.518 88.2642 377.518 104.599C377.518 120.934 366.849 132.369 351.535 132.369C336.222 132.369 325.553 120.934 325.553 104.599ZM494.599 60.6203C500.249 48.6831 512.172 41.6465 526.105 41.6465C530.876 41.6465 535.771 42.526 540.792 44.1596L538.406 78.7145C533.386 76.9553 528.24 76.0757 523.219 76.0757C508.282 76.0757 495.605 84.2432 495.605 106.735V164.788H456.065V44.1596H493.345L494.599 60.6203ZM627.247 41.6465C589.966 41.6465 560.595 63.2589 560.595 104.725C560.595 141.667 589.214 167.3 627.748 167.3C643.564 167.3 654.485 164.034 668.418 157.375L664.526 122.693C653.229 128.096 645.196 130.987 632.141 130.987C614.318 130.987 600.134 121.94 600.134 104.474C600.134 84.1176 616.2 77.4579 634.276 77.4579C644.442 77.4579 655.238 79.7197 664.024 83.3636L666.911 49.6883C652.099 43.5313 641.054 41.6465 627.247 41.6465ZM810.448 44.1596L858.899 164.913C855.385 177.227 846.222 183.385 835.427 183.385C830.908 183.385 826.138 182.253 821.369 180.118L815.971 211.28C824.381 215.426 833.293 217.563 841.954 217.563C864.171 217.563 883.501 206.504 893.166 182.505L949.024 44.1596H904.841L879.987 124.83L854.506 44.1596H810.448ZM1017.53 215.049H977.989V44.1596H1015.14L1016.4 56.8506C1023.43 48.0548 1034.72 41.6465 1052.93 41.6465C1086.94 41.6465 1109.16 68.5364 1109.16 104.725C1109.16 140.662 1086.94 167.3 1052.93 167.3C1037.99 167.3 1024.68 162.777 1017.53 155.866V215.049ZM1017.03 104.474C1017.03 88.2642 1027.95 77.0809 1042.76 77.0809C1057.95 77.0809 1069.37 87.7616 1069.37 104.474C1069.37 120.558 1057.82 131.867 1042.76 131.867C1027.95 131.867 1017.03 120.558 1017.03 104.474ZM1176.28 91.4056H1221.22C1221.22 81.9815 1213.31 73.06 1200.01 73.06C1185.44 73.06 1177.29 81.4789 1176.28 91.4056ZM1254.11 156.495L1248.71 126.84C1241.05 130.484 1225.24 133.877 1209.29 133.877C1193.1 133.877 1178.17 128.599 1176.16 114.652H1256.49C1265.28 64.6412 1234.27 41.6465 1199.38 41.6465C1163.86 41.6465 1137.62 66.526 1137.62 104.474C1137.62 142.422 1164.36 167.3 1209.04 167.3C1227.5 167.3 1244.69 161.897 1254.11 156.495Z" fill="#252A30"/>
</svg>
