<svg width="328" height="88" viewBox="0 0 328 88" fill="none" xmlns="http://www.w3.org/2000/svg">
<path d="M0.826172 88.0002H2.72217V80.7042C2.72217 79.7922 2.69817 78.9042 2.57817 77.9922C2.98617 78.6882 3.46617 79.0482 3.82617 79.3842L13.3542 88.0002H14.5062V75.6162H12.6102V82.4082C12.6102 83.2962 12.6102 84.3042 12.8022 85.4562C12.2982 84.8082 11.8182 84.2802 11.3862 83.8962L2.12217 75.6162H0.826172V88.0002Z" fill="#686868"/>
<path d="M39.4155 88.0002H51.4395V86.2962H41.4795V82.3602H47.5035V80.7282H41.4795V77.2722H51.3435V75.6162H39.4155V88.0002Z" fill="#686868"/>
<path d="M79.6409 77.2962H85.3289V75.6162H71.9129V77.2962H77.5769V88.0002H79.6409V77.2962Z" fill="#686868"/>
<path d="M109.33 88.0002H110.962L114.514 78.6402L117.946 88.0002H119.482L123.97 75.6162H122.122L118.738 85.4562L115.21 75.6162H113.938L110.29 85.4562L106.93 75.6162H104.842L109.33 88.0002Z" fill="#686868"/>
<path d="M146.273 78.5442V85.0722C146.273 87.3762 146.969 88.0002 149.177 88.0002H157.745C159.977 88.0002 160.625 87.3522 160.625 85.0722V78.5442C160.625 76.2642 159.977 75.6162 157.745 75.6162H149.177C146.969 75.6162 146.273 76.2402 146.273 78.5442ZM148.337 86.2722V77.2962H158.585V86.2722H148.337Z" fill="#686868"/>
<path d="M185.382 88.0002H187.446V83.1762H191.094L196.134 88.0002H199.206L193.542 83.1762H195.366C197.166 83.1762 197.982 82.5042 197.982 80.7762V78.0162C197.982 76.2882 197.166 75.6162 195.366 75.6162H185.382V88.0002ZM194.55 77.2242C195.462 77.2242 195.894 77.4642 195.894 78.4962V80.2962C195.894 81.3522 195.462 81.5682 194.55 81.5682H187.446V77.2242H194.55Z" fill="#686868"/>
<path d="M222.144 88.0002H224.208V82.4322L232.488 88.0002H235.944L225.984 81.5442L234.96 75.6162H231.936L224.208 80.9202V75.6162H222.144V88.0002Z" fill="#686868"/>
<path d="M268.668 77.2962V79.0962L270.444 78.5922V78.3282C270.444 76.1922 269.604 75.6162 267.54 75.6162H260.94C258.732 75.6162 258.06 76.2402 258.06 78.5442V79.6242C258.06 81.9282 258.732 82.5522 260.94 82.5522H268.716V86.2722H259.5V84.2802L257.58 84.7362V85.0722C257.58 87.3522 258.252 88.0002 260.484 88.0002H267.708C269.94 88.0002 270.588 87.3522 270.588 85.0722V83.6802C270.588 81.4482 269.964 80.7522 267.708 80.7522H259.908V77.2962H268.668Z" fill="#686868"/>
<path d="M0 59.9996H32.725C40.8 59.9996 44.88 57.2797 44.88 51.4146V45.8047C44.88 40.7897 42.245 37.8147 37.315 37.2197C43.435 36.4547 44.625 33.3946 44.625 29.7396V24.6397C44.625 18.5196 41.735 16.1396 35.36 16.1396H0V59.9996ZM37.145 30.2496C37.145 33.3096 35.785 34.1597 32.64 34.1597H7.31V22.0046H32.64C35.785 22.0046 37.145 22.6846 37.145 25.8296V30.2496ZM37.485 48.7796C37.485 52.7746 36.295 53.9647 32.64 53.9647H7.31V39.8547H32.64C36.21 39.8547 37.485 41.0447 37.485 45.1247V48.7796Z" fill="#004C94"/>
<path d="M65.0781 59.9996H105.623V53.8797H72.3881V16.1396H65.0781V59.9996Z" fill="#004C94"/>
<path d="M127.61 59.9996V24.0447H119.61V59.9996H127.61Z" fill="#004C94"/>
<path d="M149.77 59.9996H156.485V34.1597C156.485 30.9297 156.485 25.5 156.485 25.5L194.14 59.9996H198.22V16.1396H191.505V49.5L154.36 16.1396H149.77V59.9996Z" fill="#004C94"/>
<path d="M220.395 26.5096V49.6297C220.395 57.7897 222.86 59.9996 230.68 59.9996H249.55L254.225 70.7096H261.195L256.01 59.9996H261.025C268.93 59.9996 271.225 57.7047 271.225 49.6297V26.5096C271.225 18.4346 268.93 16.1396 261.025 16.1396H230.68C222.86 16.1396 220.395 18.3497 220.395 26.5096ZM253.12 53.8797L250.145 47.8447L245.017 50L246.745 53.8797H227.705V22.0896H264V53.8797H253.12Z" fill="#004C94"/>
<circle cx="123.61" cy="18.5" r="4" fill="#D31F4E"/>
<circle cx="244.61" cy="43.5" r="4" fill="#D31F4E"/>
<path d="M307.61 4C307.61 4 324.61 18 324.61 44C324.61 70 307.61 84 307.61 84" stroke="#D31F4E" stroke-width="6" stroke-linecap="round"/>
<path d="M294.61 17C294.61 17 305.61 26.45 305.61 44C305.61 61.55 294.61 71 294.61 71" stroke="#D31F4E" stroke-width="6" stroke-linecap="round"/>
<path d="M281 29C281 29 287.111 34.25 287.111 44C287.111 53.75 281 59 281 59" stroke="#D31F4E" stroke-width="6" stroke-linecap="round"/>
<path d="M141.65 5.60376V6.73169C140.898 7.14185 140.03 7.34692 139.045 7.34692C138.245 7.34692 137.567 7.18628 137.01 6.86499C136.453 6.5437 136.012 6.10107 135.687 5.53711C135.362 4.97314 135.2 4.36304 135.2 3.70679C135.2 2.66431 135.571 1.7876 136.312 1.07666C137.058 0.365723 137.975 0.0102539 139.066 0.0102539C139.818 0.0102539 140.653 0.206787 141.573 0.599854V1.70215C140.735 1.22363 139.917 0.984375 139.117 0.984375C138.297 0.984375 137.615 1.24414 137.071 1.76367C136.531 2.27979 136.261 2.92749 136.261 3.70679C136.261 4.49292 136.528 5.13892 137.061 5.64478C137.594 6.15063 138.276 6.40356 139.107 6.40356C139.975 6.40356 140.823 6.13696 141.65 5.60376Z" fill="black"/>
<path d="M149.42 0C150.528 0 151.449 0.350342 152.184 1.05103C152.922 1.75171 153.291 2.63013 153.291 3.68628C153.291 4.74243 152.919 5.61743 152.174 6.31128C151.432 7.00171 150.495 7.34692 149.364 7.34692C148.284 7.34692 147.383 7.00171 146.662 6.31128C145.944 5.61743 145.586 4.74927 145.586 3.70679C145.586 2.63696 145.948 1.75171 146.672 1.05103C147.397 0.350342 148.313 0 149.42 0ZM149.461 0.974121C148.641 0.974121 147.966 1.23047 147.436 1.74316C146.91 2.25586 146.647 2.9104 146.647 3.70679C146.647 4.47925 146.912 5.12183 147.441 5.63452C147.971 6.14722 148.634 6.40356 149.431 6.40356C150.231 6.40356 150.897 6.14209 151.43 5.61914C151.967 5.09619 152.235 4.44507 152.235 3.66577C152.235 2.90698 151.967 2.26953 151.43 1.75342C150.897 1.23389 150.241 0.974121 149.461 0.974121Z" fill="black"/>
<path d="M163.241 0.102539H164.195V7.26489H163.164V1.69189L160.96 4.46045H160.77L158.545 1.69189V7.26489H157.519V0.102539H158.483L160.867 3.04541L163.241 0.102539Z" fill="black"/>
<path d="M168.679 7.26489V0.0922852H170.95C171.634 0.0922852 172.179 0.276855 172.586 0.645996C172.993 1.01514 173.196 1.51074 173.196 2.13281C173.196 2.5498 173.092 2.91895 172.883 3.24023C172.675 3.56152 172.389 3.79565 172.027 3.94263C171.665 4.08618 171.145 4.15796 170.468 4.15796H169.71V7.26489H168.679ZM170.771 1.00488H169.71V3.24536H170.832C171.249 3.24536 171.571 3.14795 171.796 2.95312C172.022 2.75488 172.135 2.4729 172.135 2.10718C172.135 1.37231 171.68 1.00488 170.771 1.00488Z" fill="black"/>
<path d="M180.598 0C181.705 0 182.626 0.350342 183.361 1.05103C184.099 1.75171 184.469 2.63013 184.469 3.68628C184.469 4.74243 184.096 5.61743 183.351 6.31128C182.609 7.00171 181.673 7.34692 180.541 7.34692C179.461 7.34692 178.561 7.00171 177.839 6.31128C177.122 5.61743 176.763 4.74927 176.763 3.70679C176.763 2.63696 177.125 1.75171 177.85 1.05103C178.574 0.350342 179.49 0 180.598 0ZM180.639 0.974121C179.818 0.974121 179.143 1.23047 178.614 1.74316C178.087 2.25586 177.824 2.9104 177.824 3.70679C177.824 4.47925 178.089 5.12183 178.619 5.63452C179.148 6.14722 179.812 6.40356 180.608 6.40356C181.408 6.40356 182.074 6.14209 182.607 5.61914C183.144 5.09619 183.412 4.44507 183.412 3.66577C183.412 2.90698 183.144 2.26953 182.607 1.75342C182.074 1.23389 181.418 0.974121 180.639 0.974121Z" fill="black"/>
<path d="M194.408 0.102539H195.382V7.26489H194.5L189.712 1.75342V7.26489H188.748V0.102539H189.578L194.408 5.66016V0.102539Z" fill="black"/>
<path d="M199.913 0.102539H203.973V1.01514H200.938V3.19922H203.871V4.11694H200.938V6.34204H204.071V7.25464H199.913V0.102539Z" fill="black"/>
<path d="M213.846 0.102539H214.82V7.26489H213.938L209.15 1.75342V7.26489H208.186V0.102539H209.017L213.846 5.66016V0.102539Z" fill="black"/>
<path d="M218.741 0.0922852H224.724V1.00488H222.227V7.26489H221.197V1.00488H218.741V0.0922852Z" fill="black"/>
<path d="M230.464 4.2605L229.685 3.78882C229.196 3.49146 228.848 3.19922 228.639 2.91211C228.434 2.62158 228.332 2.28833 228.332 1.91235C228.332 1.34839 228.526 0.890381 228.916 0.53833C229.309 0.186279 229.818 0.0102539 230.444 0.0102539C231.042 0.0102539 231.591 0.177734 232.09 0.512695V1.67651C231.574 1.18091 231.018 0.933105 230.423 0.933105C230.089 0.933105 229.813 1.01172 229.598 1.16895C229.383 1.32275 229.275 1.521 229.275 1.76367C229.275 1.979 229.354 2.18066 229.511 2.36865C229.668 2.55664 229.923 2.75317 230.275 2.95825L231.059 3.41968C231.934 3.93921 232.372 4.60229 232.372 5.40894C232.372 5.98315 232.179 6.44971 231.792 6.80859C231.41 7.16748 230.911 7.34692 230.295 7.34692C229.588 7.34692 228.943 7.12988 228.362 6.6958V5.39355C228.916 6.09424 229.557 6.44458 230.285 6.44458C230.606 6.44458 230.873 6.35571 231.085 6.17798C231.3 5.99683 231.408 5.77124 231.408 5.50122C231.408 5.06372 231.093 4.65015 230.464 4.2605Z" fill="black"/>
<path d="M6.94971 5.60376V6.73169C6.19775 7.14185 5.32959 7.34692 4.34521 7.34692C3.54541 7.34692 2.86694 7.18628 2.30981 6.86499C1.75269 6.5437 1.31177 6.10107 0.987061 5.53711C0.662354 4.97314 0.5 4.36304 0.5 3.70679C0.5 2.66431 0.87085 1.7876 1.61255 1.07666C2.35767 0.365723 3.27539 0.0102539 4.36572 0.0102539C5.11768 0.0102539 5.95337 0.206787 6.8728 0.599854V1.70215C6.0354 1.22363 5.2168 0.984375 4.41699 0.984375C3.59668 0.984375 2.91479 1.24414 2.37134 1.76367C1.8313 2.27979 1.56128 2.92749 1.56128 3.70679C1.56128 4.49292 1.82788 5.13892 2.36108 5.64478C2.89429 6.15063 3.57617 6.40356 4.40674 6.40356C5.2749 6.40356 6.12256 6.13696 6.94971 5.60376Z" fill="black"/>
<path d="M14.7205 0C15.8279 0 16.7491 0.350342 17.484 1.05103C18.2222 1.75171 18.5914 2.63013 18.5914 3.68628C18.5914 4.74243 18.2188 5.61743 17.4737 6.31128C16.732 7.00171 15.7955 7.34692 14.6641 7.34692C13.5841 7.34692 12.6834 7.00171 11.9622 6.31128C11.2445 5.61743 10.8856 4.74927 10.8856 3.70679C10.8856 2.63696 11.2479 1.75171 11.9725 1.05103C12.6971 0.350342 13.6131 0 14.7205 0ZM14.7615 0.974121C13.9412 0.974121 13.2662 1.23047 12.7364 1.74316C12.21 2.25586 11.9468 2.9104 11.9468 3.70679C11.9468 4.47925 12.2117 5.12183 12.7415 5.63452C13.2713 6.14722 13.9344 6.40356 14.7308 6.40356C15.5306 6.40356 16.1971 6.14209 16.7303 5.61914C17.2669 5.09619 17.5352 4.44507 17.5352 3.66577C17.5352 2.90698 17.2669 2.26953 16.7303 1.75342C16.1971 1.23389 15.5408 0.974121 14.7615 0.974121Z" fill="black"/>
<path d="M66.8637 0.102539H67.8891V7.26489H66.8637V0.102539Z" fill="black"/>
<path d="M78.6438 5.60376V6.73169C77.8918 7.14185 77.0237 7.34692 76.0393 7.34692C75.2395 7.34692 74.561 7.18628 74.0039 6.86499C73.4468 6.5437 73.0059 6.10107 72.6811 5.53711C72.3564 4.97314 72.1941 4.36304 72.1941 3.70679C72.1941 2.66431 72.5649 1.7876 73.3066 1.07666C74.0518 0.365723 74.9695 0.0102539 76.0598 0.0102539C76.8118 0.0102539 77.6475 0.206787 78.5669 0.599854V1.70215C77.7295 1.22363 76.9109 0.984375 76.1111 0.984375C75.2908 0.984375 74.6089 1.24414 74.0654 1.76367C73.5254 2.27979 73.2554 2.92749 73.2554 3.70679C73.2554 4.49292 73.522 5.13892 74.0552 5.64478C74.5884 6.15063 75.2703 6.40356 76.1008 6.40356C76.969 6.40356 77.8166 6.13696 78.6438 5.60376Z" fill="black"/>
<path d="M61.5974 0.102539H62.5715V7.26489H61.6897L56.9011 1.75342V7.26489H55.9373V0.102539H56.7678L61.5974 5.66016V0.102539Z" fill="black"/>
<path d="M28.6589 0.102539H29.6125V7.26489H28.582V1.69189L26.3774 4.46045H26.1877L23.9626 1.69189V7.26489H22.9373V0.102539H23.9011L26.2852 3.04541L28.6589 0.102539Z" fill="black"/>
<path d="M39.8088 0.102539H40.7625V7.26489H39.7319V1.69189L37.5273 4.46045H37.3376L35.1125 1.69189V7.26489H34.0872V0.102539H35.051L37.4351 3.04541L39.8088 0.102539Z" fill="black"/>
<path d="M50.3193 0.102539H51.3499V4.16821C51.3499 4.71851 51.3088 5.13379 51.2268 5.41406C51.1482 5.69434 51.0491 5.92847 50.9294 6.11646C50.8132 6.30103 50.6697 6.4668 50.4988 6.61377C49.9314 7.10254 49.1897 7.34692 48.2737 7.34692C47.3406 7.34692 46.592 7.10425 46.0281 6.6189C45.8572 6.46851 45.7119 6.30103 45.5923 6.11646C45.4761 5.92847 45.3787 5.69946 45.3 5.42944C45.2249 5.15942 45.1873 4.7356 45.1873 4.15796V0.102539H46.2178V4.16821C46.2178 4.84155 46.2947 5.30981 46.4485 5.573C46.6023 5.83618 46.8364 6.0481 47.1509 6.20874C47.4653 6.36597 47.8362 6.44458 48.2634 6.44458C48.8718 6.44458 49.3674 6.28564 49.7502 5.96777C49.9519 5.79688 50.0972 5.59521 50.186 5.36279C50.2749 5.13037 50.3193 4.73218 50.3193 4.16821V0.102539Z" fill="black"/>
<path d="M85.4133 0.0615234H86.1362L89.3406 7.26489H88.2896L87.3359 5.14233H84.2905L83.3882 7.26489H82.3372L85.4133 0.0615234ZM86.9155 4.22974L85.762 1.6355L84.6904 4.22974H86.9155Z" fill="black"/>
<path d="M91.2834 0.0927734H97.2666V1.00537H94.7698V7.26538H93.7393V1.00537H91.2834V0.0927734Z" fill="black"/>
<path d="M101.243 0.102539H102.269V7.26489H101.243V0.102539Z" fill="black"/>
<path d="M110.368 0C111.475 0 112.396 0.350342 113.131 1.05103C113.869 1.75171 114.239 2.63013 114.239 3.68628C114.239 4.74243 113.866 5.61743 113.121 6.31128C112.379 7.00171 111.443 7.34692 110.311 7.34692C109.231 7.34692 108.331 7.00171 107.609 6.31128C106.892 5.61743 106.533 4.74927 106.533 3.70679C106.533 2.63696 106.895 1.75171 107.62 1.05103C108.344 0.350342 109.26 0 110.368 0ZM110.409 0.974121C109.588 0.974121 108.913 1.23047 108.384 1.74316C107.857 2.25586 107.594 2.9104 107.594 3.70679C107.594 4.47925 107.859 5.12183 108.389 5.63452C108.918 6.14722 109.582 6.40356 110.378 6.40356C111.178 6.40356 111.844 6.14209 112.377 5.61914C112.914 5.09619 113.182 4.44507 113.182 3.66577C113.182 2.90698 112.914 2.26953 112.377 1.75342C111.844 1.23389 111.188 0.974121 110.409 0.974121Z" fill="black"/>
<path d="M124.178 0.102539H125.152V7.26489H124.27L119.482 1.75342V7.26489H118.518V0.102539H119.348L124.178 5.66016V0.102539Z" fill="black"/>
<path d="M241.687 0.102051H242.712V7.2644H241.687V0.102051Z" fill="black"/>
<path d="M253.038 0.102051H254.012V7.2644H253.13L248.341 1.75293V7.2644H247.378V0.102051H248.208L253.038 5.65967V0.102051Z" fill="black"/>
<path d="M264.768 5.60327V6.7312C264.016 7.14136 263.148 7.34644 262.163 7.34644C261.363 7.34644 260.685 7.18579 260.128 6.8645C259.571 6.54321 259.13 6.10059 258.805 5.53662C258.48 4.97266 258.318 4.36255 258.318 3.7063C258.318 2.66382 258.689 1.78711 259.431 1.07617C260.176 0.365234 261.093 0.00976562 262.184 0.00976562C262.936 0.00976562 263.771 0.206299 264.691 0.599365V1.70166C263.853 1.22314 263.035 0.983887 262.235 0.983887C261.415 0.983887 260.733 1.24365 260.189 1.76318C259.649 2.2793 259.379 2.927 259.379 3.7063C259.379 4.49243 259.646 5.13843 260.179 5.64429C260.712 6.15015 261.394 6.40308 262.225 6.40308C263.093 6.40308 263.941 6.13647 264.768 5.60327Z" fill="black"/>
<path d="M269.428 6.12109C269.602 6.12109 269.751 6.18091 269.874 6.30054C269.997 6.42017 270.058 6.56714 270.058 6.74146C270.058 6.91235 269.997 7.05591 269.874 7.17212C269.754 7.28833 269.605 7.34644 269.428 7.34644C269.253 7.34644 269.106 7.28833 268.987 7.17212C268.867 7.05591 268.807 6.91235 268.807 6.74146C268.807 6.56714 268.867 6.42017 268.987 6.30054C269.106 6.18091 269.253 6.12109 269.428 6.12109Z" fill="black"/>
</svg>
