<svg id="Layer_1" data-name="Layer 1" xmlns="http://www.w3.org/2000/svg" viewBox="0 0 759.10695 200.16106"><defs><style>.cls-1{font-size:36.58606px;font-family:Cera-RegularItalic, Cera;font-style:italic;}.cls-2{letter-spacing:-0.01em;}.cls-3{letter-spacing:-0.01001em;}.cls-4{letter-spacing:-0.03002em;}.cls-5{letter-spacing:-0.04999em;}.cls-6{letter-spacing:-0.00001em;}.cls-7{letter-spacing:-0.00499em;}.cls-8{fill:none;}</style></defs><title>Untitled-2</title><text class="cls-1" transform="translate(22.64233 179.46387)">C<tspan class="cls-2" x="26.12207" y="0">r</tspan><tspan x="39.00049" y="0">ea</tspan><tspan class="cls-3" x="82.75684" y="0">t</tspan><tspan x="96.25684" y="0">ors o</tspan><tspan class="cls-4" x="181.20947" y="0">f</tspan><tspan class="cls-5" x="191.19678" y="0"> </tspan><tspan class="cls-6" x="199.61182" y="0">WiFi </tspan><tspan class="cls-7" x="285.69678" y="0">M</tspan><tspan x="314.37988" y="0">otion</tspan></text><text class="cls-1" transform="translate(425.37671 167.28076) scale(0.583)">™</text><path d="M73.16286,52.85063A34.57226,34.57226,0,0,1,86.31039,65.99819l-11.129,7.85511q-7.63818-12.1113-20.62-12.11053-10.14606,0-16.6946,6.6552-6.54529,6.65449-6.54565,17.12987,0,10.36653,6.54565,16.9677,6.54747,6.59716,16.6946,6.59969,12.98144,0,20.62-12.11123l11.129,7.85511a33.6946,33.6946,0,0,1-13.09277,13.14681,37.47632,37.47632,0,0,1-18.765,4.74691,37.91772,37.91772,0,0,1-22.88929-7.09263A39.86613,39.86613,0,0,1,27.23,111.9865,35.55073,35.55073,0,0,1,16.1558,85.41828,35.45833,35.45833,0,0,1,27.2848,58.8508q11.12647-10.746,27.27662-10.74637a36.94883,36.94883,0,0,1,18.60144,4.7462"/><rect class="cls-8" x="16.24221" y="17.31826" width="720.56322" height="156.36456"/><path d="M158.09294,58.85093A35.29569,35.29569,0,0,1,169.33076,85.4177a35.29169,35.29169,0,0,1-11.23782,26.56752,37.87624,37.87624,0,0,1-27.1678,10.74924,37.49711,37.49711,0,0,1-27.05683-10.74924,35.45732,35.45732,0,0,1-11.129-26.56752,35.46134,35.46134,0,0,1,11.129-26.56677,37.501,37.501,0,0,1,27.05683-10.747,37.88019,37.88019,0,0,1,27.1678,10.747m-43.64186,9.54933q-6.54642,6.65343-6.5464,17.01744,0,10.47467,6.49162,17.07727,6.49126,6.60047,16.63838,6.60044a22.32941,22.32941,0,0,0,16.53027-6.656q6.59829-6.6566,6.60044-17.02176,0-10.36328-6.60044-17.01744a23.91729,23.91729,0,0,0-33.11387,0"/><path d="M246.46171,63.70688l-10.47252,8.61974Q228.3478,61.74383,215.91258,61.741q-10.36546,0-16.74861,6.6581-6.38319,6.6545-6.38209,17.0196,0,10.58272,6.60043,17.34747,6.60152,6.76587,17.40157,6.76476,12.55011,0,18.98406-8.94686v-5.8906H215.91258v-12.767h34.58621v21.27648a37.86765,37.86765,0,0,1-14.021,14.13049,39.14545,39.14545,0,0,1-20.349,5.39912q-16.25467,0-27.384-10.74633a35.4566,35.4566,0,0,1-11.1283-26.56748,35.45508,35.45508,0,0,1,11.1283-26.56681q11.12974-10.747,27.384-10.747,19.42293,0,30.3329,15.60206"/><polygon points="319.986 121.425 279.533 78.219 279.533 121.423 264.803 121.423 264.803 49.129 270.571 49.129 311.39 92.291 311.39 49.414 326.121 49.414 326.121 121.423 319.986 121.425"/><rect x="343.91833" y="49.41457" width="14.72794" height="72.00953"/><polygon points="432.288 62.726 409.157 62.726 409.157 121.423 394.429 121.423 394.429 62.726 371.408 62.726 371.408 49.415 432.288 49.415 432.288 62.726"/><rect x="445.4832" y="49.41457" width="14.7301" height="72.00953"/><polygon points="504.148 121.422 472.539 49.415 489.231 49.415 507.233 93.057 525.127 49.415 541.712 49.415 510.207 121.424 504.148 121.422"/><polygon points="599.36 62.726 565.646 62.726 565.646 77.345 590.414 77.345 590.414 89.894 565.646 89.894 565.646 108.112 600.669 108.112 600.669 121.423 550.918 121.423 550.918 49.415 599.36 49.415 599.36 62.726"/><path d="M672.17605,32.36276a31.65808,31.65808,0,0,0-7.36362-8.567,29.07955,29.07955,0,0,0-18.67568-6.3612,29.64838,29.64838,0,0,0-20.29205,8.30692,30.03011,30.03011,0,0,0-8.55491,15.97685l-.00211.00431h11.40215a18.14764,18.14764,0,0,1,5.03875-7.99344A18.521,18.521,0,0,1,644.90807,28.913c.53688-.04755,1.05934-.06844,1.56807-.06844a17.193,17.193,0,0,1,11.81147,4.77791,21.47459,21.47459,0,0,1,2.90925,3.29479c.32.449.56.82371.71784,1.08243.07777.129.13829.23061.17506.29835l.05692.09945.19459.37114L672.37636,32.7Z"/><path d="M736.78044,41.71261a32.24048,32.24048,0,0,0-3.617-9.80879A29.56145,29.56145,0,0,0,713.44,17.86772h-.00211l-.00149-.00145a25.60636,25.60636,0,0,0-5.15839-.5484c-.10451,0-.2004.0036-.29188.0036-.06193,0-.13618-.0036-.219-.0036a30.10189,30.10189,0,0,0-6.78636.774c-7.00329,1.56019-12.18262,5.353-16.51232,9.94136-4.32962,4.592-7.82916,9.9839-11.50736,14.8043-.14269.18161-.28388.36107-.42657.53618-6.77994,8.44024-8.31132,10.40909-11.903,14.95926a25.57546,25.57546,0,0,1-5.62691,4.66043,19.07478,19.07478,0,0,1-8.94471,2.15694,18.263,18.263,0,0,1-12.31228-5.15769,19.87517,19.87517,0,0,1-3.25586-4.25185c-.20691-.36824-.38988-.72136-.5528-1.05287a13.9715,13.9715,0,0,1-.92958-2.43365H617.29727l.0015.01007a32.25417,32.25417,0,0,0,3.61838,9.80809,29.56024,29.56024,0,0,0,19.7227,14.039h.00361a25.59862,25.59862,0,0,0,5.15628.54845c.10521,0,.2018-.0022.29329-.00436.06272.00216.13547.00436.21913.00436a30.1021,30.1021,0,0,0,6.78636-.77326c7.0025-1.56169,12.18112-5.35227,16.51083-9.94281,4.331-4.59058,7.83056-9.98389,11.50947-14.805.142-.18091.284-.35891.42516-.53617,6.77994-8.43738,8.31273-10.4069,11.90375-14.95781a25.48374,25.48374,0,0,1,5.62683-4.659,19.05886,19.05886,0,0,1,8.9425-2.15835,18.24535,18.24535,0,0,1,12.31308,5.15913,19.96456,19.96456,0,0,1,3.25735,4.249q.31128.55671.55492,1.05718a14.01464,14.01464,0,0,1,.92527,2.42933h11.71488Zm-12.638-2.42h0l.00211.0022Z"/><path d="M725.42747,52.25459a18.22646,18.22646,0,0,1-5.07772,8.10446,18.51754,18.51754,0,0,1-11.18019,4.81684c-.53618.04684-1.05793.06774-1.56666.06774a17.1862,17.1862,0,0,1-11.81218-4.77647,21.65189,21.65189,0,0,1-2.90855-3.29628c-.32-.44895-.56-.8208-.71783-1.08242-.07856-.12827-.13759-.22987-.17577-.29836l-.0548-.0987-.1975-.37114L681.702,61.38887l.201.33723a31.65186,31.65186,0,0,0,7.36292,8.56639,29.07046,29.07046,0,0,0,18.67709,6.3612,29.63138,29.63138,0,0,0,20.29134-8.307,30.05011,30.05011,0,0,0,8.55632-15.97681l.01513-.11533Z"/></svg>