<svg width="967" height="196" viewBox="0 0 967 196" fill="none" xmlns="http://www.w3.org/2000/svg">
<g clip-path="url(#clip0)">
<path d="M461.265 125.791C459.47 125.385 456.736 129.13 454.428 131.001C454.195 131.19 453.98 131.401 453.748 131.594C437.231 145.276 413.569 143.728 399.248 127.873C390.048 117.689 387.317 105.383 389.088 92.1732C391.105 77.1272 398.788 65.6613 413.08 59.6893C427.318 53.7393 440.389 56.7182 452.364 66.0892C455.03 68.1752 457.186 72.6182 460.253 71.9952C463.068 71.4232 465.029 67.3013 467.69 65.1443C470.971 62.4843 470.23 60.7193 467.49 58.0743C456.776 47.713 442.408 41.9946 427.505 42.1597C412.601 42.3249 398.364 48.3603 387.882 58.9564C371.852 75.1664 367.246 99.9862 376.237 121.704C384.837 142.475 404.518 155.331 427.724 155.334C444.818 155.334 458.683 149.174 469.624 136.763C470.673 135.573 471.792 134.573 470.138 133.024C467.309 130.369 464.841 126.6 461.265 125.791Z" fill="#5BBC76"/>
<path d="M113.721 162.097C95.3315 160.191 80.0686 151.957 67.1486 138.928C61.3966 133.128 57.1896 126.318 53.5116 119.034C46.4686 126.134 44.9395 136.634 50.0765 147.187C57.8585 163.179 71.2765 172.503 88.3975 175.487C98.5555 177.259 108.439 174.887 115.461 165.854C117.769 162.887 116.967 162.434 113.721 162.097Z" fill="#5BBC76"/>
<path d="M75.6342 183.115C68.9057 182.231 62.5696 179.443 57.3723 175.079C53.2502 171.771 50.5912 167.244 47.2362 161.566C44.6782 170.993 44.0093 178.825 47.5453 186.672C49.4383 190.872 52.5202 192.761 57.0142 192.859C64.2222 193.016 70.4882 190.359 76.3542 186.526C77.2372 185.949 78.9353 185.626 78.4313 184.077C78.0553 182.926 76.6382 183.236 75.6342 183.115Z" fill="#5BBC76"/>
<path d="M183.118 82.5953C179.998 78.3183 180.602 75.4724 185.401 73.2283C194.643 68.9073 199.06 61.4652 199.612 51.5062C199.895 43.0552 195.763 36.7123 189.678 31.6353C187.292 29.6431 185.595 26.9485 184.829 23.9354C180.711 10.2594 172.55 4.49023 158.282 5.53523C154.463 5.82516 150.64 5.02193 147.261 3.21931C130.207 -5.23569 112.968 4.87024 111.754 23.8472C111.493 27.9262 108.415 30.0884 104.391 29.0084C85.9052 24.0474 67.2712 23.3502 48.6592 27.8892C33.4932 31.5892 19.0262 36.8792 8.01519 48.8592C-3.69381 61.6002 -2.51382 78.9734 11.1602 89.5814C23.7242 99.3264 38.5732 102.058 53.9602 102.63C56.9132 102.74 58.4602 103.311 59.4602 106.36C67.5602 131.045 101.23 154.107 126.909 152.489C130.387 152.27 131.768 153.553 133.079 156.635C139.126 170.844 147.322 183.472 161.071 191.523C175.34 199.878 191.432 195.132 198.971 180.461C204.652 169.413 205.571 157.578 205.171 145.41C204.391 122.117 196.77 101.308 183.118 82.5953ZM175.51 39.4093C178.557 39.4761 181.456 40.7344 183.586 42.9141C185.716 45.0939 186.907 48.0214 186.903 51.0689C186.899 54.1164 185.701 57.0412 183.566 59.2156C181.431 61.3901 178.528 62.641 175.481 62.7003C172.383 62.6332 169.427 61.3828 167.221 59.2056C165.015 57.0285 163.726 54.0897 163.618 50.9923C163.678 47.8853 164.96 44.9271 167.186 42.7589C169.412 40.5906 172.403 39.3871 175.51 39.4093ZM40.6602 86.4613C34.5727 85.3114 28.8457 82.7311 23.9512 78.9332C15.9822 72.5832 15.4952 63.0653 22.6152 55.8043C28.0492 50.2633 34.8462 47.1494 42.1012 44.9464C53.738 41.3228 65.8543 39.473 78.0422 39.4593C85.8132 39.3363 94.2662 40.3394 102.254 43.9464C104.889 45.0595 107.312 46.6196 109.416 48.5582C116.844 55.7012 116.748 64.3582 109.116 71.3392C102.74 77.1772 94.9732 80.4212 86.8652 82.8392C71.7482 87.3412 56.4112 89.7363 40.6602 86.4613ZM120.551 125.024C107.6 120.103 96.034 112.118 86.8422 101.752C85.4292 100.163 85.6262 99.1432 87.7562 98.6722C94.3149 97.104 100.685 94.8322 106.756 91.8963C109.921 90.4353 122.983 99.7484 122.984 103.259C122.984 105.659 122.984 108.057 122.984 110.453C122.674 114.494 122.858 118.557 123.531 122.553C123.969 125.123 122.917 125.938 120.551 125.024ZM124.423 24.4532C124.38 22.9057 124.646 21.3654 125.206 19.9219C125.765 18.4785 126.607 17.161 127.681 16.0465C128.756 14.9319 130.041 14.0426 131.463 13.4307C132.885 12.8189 134.415 12.4966 135.963 12.4827C137.511 12.4689 139.046 12.7637 140.479 13.3499C141.912 13.9362 143.214 14.8022 144.308 15.8973C145.402 16.9923 146.267 18.2944 146.852 19.7276C147.438 21.1608 147.731 22.6962 147.716 24.2442C147.827 30.2362 142.424 35.7992 136.374 35.9222C134.836 35.9546 133.307 35.6836 131.874 35.1246C130.441 34.5656 129.132 33.7298 128.022 32.6646C126.912 31.5995 126.023 30.326 125.405 28.9171C124.788 27.5081 124.454 25.9912 124.423 24.4532ZM189.523 157.058C189.194 161.577 187.908 165.975 185.749 169.958C181.849 177.211 175.392 179.372 167.864 175.926C162.244 173.353 157.944 169.156 154.364 164.246C142.659 148.18 138.976 129.654 137.964 110.346C137.642 104.301 138.644 98.2575 140.9 92.6392C144.805 83.1592 153.1 80.0842 162.259 84.7672C167.768 87.6595 172.317 92.0924 175.35 97.5252C186.036 115.91 191.097 135.722 189.525 157.058H189.523Z" fill="#5BBC76"/>
<path d="M682.932 43.1623C663.706 39.7123 648.144 46.5985 636.111 61.8325C635.39 62.7455 635.044 64.4093 632.936 64.1113V10.0053C632.936 -0.0076828 632.936 -0.00756596 622.702 0.000434037C616.702 0.000434037 616.702 0.000394821 616.702 6.21039C616.702 51.1844 616.702 96.158 616.702 141.131C616.702 153.561 616.702 153.466 629.202 153.088C632.226 152.997 633.089 151.902 632.985 149.055C632.811 144.305 632.938 139.545 632.938 134.229C635.332 135.217 636.011 136.623 636.954 137.763C655.124 159.717 688.986 161.711 709.077 141.463C727.399 122.998 730.439 100.691 722.404 76.8034C716.084 58.0254 702.396 46.6553 682.932 43.1623ZM687.402 137.188C667.543 146.397 644.002 136.63 635.902 116.242C628.239 96.9764 633.695 75.7784 649.248 64.3884C672.135 47.6254 703 60.4374 708.535 89.0434C709.16 92.2724 709.358 95.5833 709.705 98.4433C708.891 115.551 703.555 129.697 687.402 137.188Z" fill="#5BBC76"/>
<path d="M811.232 44.2704C791.941 38.8554 774.37 42.8383 760.245 57.4943C746.445 71.8163 742.416 89.5334 745.08 108.801C747.19 124.066 754.367 136.732 767.113 145.682C789.998 161.749 822.192 158.082 841.213 137.603C842.923 135.763 843.26 134.703 841.043 133.039C838.409 131.063 836.338 127.373 833.552 126.825C830.507 126.225 828.487 130.425 825.92 132.403C801.344 151.303 767.545 139.419 761.588 109.83C760.888 106.368 761.419 105.374 765.052 105.43C777.84 105.614 790.632 105.502 803.422 105.502C816.513 105.502 829.606 105.388 842.694 105.578C846.125 105.627 847.03 104.538 847.008 101.214C847.1 94.8964 846.448 88.5899 845.065 82.4244C840.491 63.7894 830.391 49.6464 811.232 44.2704ZM825.603 92.5482C815.387 92.4182 805.168 92.5023 794.95 92.5043C784.732 92.5063 774.514 92.4812 764.296 92.5272C762.243 92.5362 760.605 92.3714 761.173 89.6464C764.073 75.7114 770.35 64.1612 784.239 58.4752C800.557 51.7952 818.517 59.3292 825.97 75.7042C827.618 79.5716 828.867 83.5969 829.699 87.7174C830.512 91.2814 829.222 92.5942 825.603 92.5482Z" fill="#5BBC76"/>
<path d="M963.942 80.0864C952.08 37.9764 910.468 35.4266 888.475 50.0816C865.33 65.5036 856.782 98.8274 869.246 124.931C879.846 147.131 901.23 158.309 927.469 154.905C940.515 153.213 951.304 147.15 960.417 137.771C962.401 135.729 962.458 134.407 960.203 132.798C959.229 132.098 958.403 131.212 957.488 130.425C952.582 126.176 952.58 126.177 947.809 130.318C923.072 151.792 887.409 140.867 880.924 109.906C880.21 106.498 880.806 105.38 884.454 105.43C897.391 105.605 910.332 105.499 923.272 105.498C936.212 105.497 949.152 105.419 962.09 105.554C965.146 105.586 966.35 104.792 966.306 101.524C966.21 94.2814 965.921 87.1105 963.942 80.0864ZM945.642 92.5325C935.26 92.4555 924.876 92.5034 914.494 92.5064C904.412 92.5064 894.33 92.5224 884.248 92.4964C882.362 92.4964 879.924 92.9966 880.516 89.6966C883.278 74.3086 892.239 60.7814 908.284 56.9444C922.384 53.5714 936.424 59.9045 943.59 72.5965C946.252 77.4909 948.141 82.7672 949.19 88.2385C949.908 91.6355 948.791 92.5555 945.645 92.5325H945.642Z" fill="#5BBC76"/>
<path d="M271.542 54.3313C256.886 67.6453 251.255 84.4841 252.67 103.838C254.284 125.93 264.597 142.924 285.357 151.173C306.688 159.651 327.3 156.812 345.219 141.396C351.894 135.654 351.755 135.496 345.419 129.756C344.935 129.398 344.485 128.997 344.075 128.556C342.157 126.018 340.475 126.176 338.356 128.527C336.581 130.368 334.607 132.006 332.47 133.41C310.382 148.939 276.225 141.973 269.554 109.891C268.841 106.463 269.391 105.377 273.042 105.426C285.971 105.6 298.905 105.494 311.837 105.494C324.769 105.494 337.702 105.394 350.637 105.56C353.988 105.602 355.097 104.537 355.072 101.195C355.155 93.5212 354.152 85.8739 352.091 78.4812C339.635 36.4812 293.776 34.1353 271.542 54.3313ZM334.396 92.5671C324.319 92.4051 314.238 92.5093 304.158 92.5093C294.229 92.5093 284.299 92.5232 274.37 92.5022C268.605 92.4902 268.394 92.3102 269.887 86.5762C273.887 71.1912 282.312 59.8422 298.81 56.6812C312.91 53.9812 326.349 60.8993 333.01 73.7813C335.223 78.3938 336.852 83.2649 337.857 88.2813C338.591 91.4673 337.796 92.6211 334.396 92.5671Z" fill="#5BBC76"/>
<path d="M541.247 42.3236C508.922 42.2986 484.09 66.8576 484.036 98.9046C483.982 130.952 508.198 155.325 540.109 155.335C572.695 155.345 597.324 130.898 597.42 98.4476C597.48 91.0564 596.068 83.7272 593.266 76.8875C590.464 70.0479 586.327 63.8347 581.099 58.6104C575.87 53.3861 569.653 49.2553 562.811 46.459C555.969 43.6628 548.638 42.2569 541.247 42.3236ZM555.571 138.072C531.99 147.199 507.056 133.228 501.9 108.007C501.255 105.108 500.977 102.138 501.075 99.1695C501.156 73.9945 518.795 56.0544 542.169 56.8074C561.708 57.4364 578.515 74.1006 580.32 94.6356C582.033 114.121 572.012 131.709 555.571 138.072Z" fill="#5BBC76"/>
</g>
<defs>
<clipPath id="clip0">
<rect width="966.308" height="195.629" fill="white"/>
</clipPath>
</defs>
</svg>
