<svg width="272" height="92" viewBox="0 0 272 92" fill="none" xmlns="http://www.w3.org/2000/svg">
<path d="M115.75 47.18C115.75 59.95 105.76 69.36 93.5 69.36C81.24 69.36 71.25 59.95 71.25 47.18C71.25 34.32 81.24 25 93.5 25C105.76 25 115.75 34.32 115.75 47.18ZM106.01 47.18C106.01 39.2 100.22 33.74 93.5 33.74C86.78 33.74 80.99 39.2 80.99 47.18C80.99 55.08 86.78 60.62 93.5 60.62C100.22 60.62 106.01 55.07 106.01 47.18Z" fill="#EA4335"/>
<path d="M163.75 47.18C163.75 59.95 153.76 69.36 141.5 69.36C129.24 69.36 119.25 59.95 119.25 47.18C119.25 34.33 129.24 25 141.5 25C153.76 25 163.75 34.32 163.75 47.18ZM154.01 47.18C154.01 39.2 148.22 33.74 141.5 33.74C134.78 33.74 128.99 39.2 128.99 47.18C128.99 55.08 134.78 60.62 141.5 60.62C148.22 60.62 154.01 55.07 154.01 47.18Z" fill="#FBBC05"/>
<path d="M209.75 26.34V66.16C209.75 82.54 200.09 89.23 188.67 89.23C177.92 89.23 171.45 82.04 169.01 76.16L177.49 72.63C179 76.24 182.7 80.5 188.66 80.5C195.97 80.5 200.5 75.99 200.5 67.5V64.31H200.16C197.98 67 193.78 69.35 188.48 69.35C177.39 69.35 167.23 59.69 167.23 47.26C167.23 34.74 177.39 25 188.48 25C193.77 25 197.97 27.35 200.16 29.96H200.5V26.35H209.75V26.34ZM201.19 47.26C201.19 39.45 195.98 33.74 189.35 33.74C182.63 33.74 177 39.45 177 47.26C177 54.99 182.63 60.62 189.35 60.62C195.98 60.62 201.19 54.99 201.19 47.26Z" fill="#4285F4"/>
<path d="M225 3V68H215.5V3H225Z" fill="#34A853"/>
<path d="M262.02 54.4802L269.58 59.5202C267.14 63.1302 261.26 69.3502 251.1 69.3502C238.5 69.3502 229.09 59.6102 229.09 47.1702C229.09 33.9802 238.58 24.9902 250.01 24.9902C261.52 24.9902 267.15 34.1502 268.99 39.1002L270 41.6202L240.35 53.9002C242.62 58.3502 246.15 60.6202 251.1 60.6202C256.06 60.6202 259.5 58.1802 262.02 54.4802ZM238.75 46.5002L258.57 38.2702C257.48 35.5002 254.2 33.5702 250.34 33.5702C245.39 33.5702 238.5 37.9402 238.75 46.5002V46.5002Z" fill="#EA4335"/>
<path d="M35.2904 41.4097V31.9997H67.0004C67.3104 33.6397 67.4704 35.5797 67.4704 37.6797C67.4704 44.7397 65.5404 53.4697 59.3204 59.6897C53.2704 65.9897 45.5403 69.3497 35.3004 69.3497C16.3204 69.3497 0.360352 53.8897 0.360352 34.9097C0.360352 15.9297 16.3204 0.469727 35.3004 0.469727C45.8004 0.469727 53.2804 4.58973 58.9004 9.95973L52.2603 16.5997C48.2303 12.8197 42.7704 9.87973 35.2904 9.87973C21.4304 9.87973 10.5904 21.0497 10.5904 34.9097C10.5904 48.7697 21.4304 59.9397 35.2904 59.9397C44.2804 59.9397 49.4004 56.3297 52.6804 53.0497C55.3404 50.3897 57.0903 46.5897 57.7803 41.3997L35.2904 41.4097V41.4097Z" fill="#4285F4"/>
</svg>
