<svg width="434" height="434" viewBox="0 0 434 434" fill="none" xmlns="http://www.w3.org/2000/svg">
<path d="M216.85 432.851C214.703 432.851 212.565 432.812 210.431 432.75L254.574 311.432H315.324C325.987 311.432 337.692 303.235 341.339 293.22L389.231 161.674C397.066 140.137 384.73 122.517 361.813 122.517H277.534L206.819 316.833H206.793L166.704 426.986C71.594 404.375 0.849998 318.878 0.849998 216.851C0.849998 117.765 67.571 34.271 158.533 8.82398L117.168 122.517H117.156L48.389 311.432L94.167 311.436L152.648 150.905H187.052L128.571 311.436L174.332 311.444L228.83 161.674C236.67 140.137 224.333 122.517 201.437 122.517H162.956L207.142 1.07698C210.363 0.933976 213.596 0.849976 216.85 0.849976C336.144 0.849976 432.85 97.556 432.85 216.851C432.85 336.143 336.144 432.851 216.85 432.851ZM347.542 150.79H313.147L264.98 282.948H299.376L347.542 150.79Z" fill="#0095D5"/>
</svg>
