<svg width="415" height="422" viewBox="0 0 415 422" fill="none" xmlns="http://www.w3.org/2000/svg">
<path fill-rule="evenodd" clip-rule="evenodd" d="M62.6531 351.613V420.43H48.6711V392.472H17.0992V420.43H3.11719V351.613H17.0992V379.371H48.667V351.613H62.6531Z" fill="#212326"/>
<path fill-rule="evenodd" clip-rule="evenodd" d="M127.394 351.613H141.376V390.449C141.376 410.153 130.511 421.459 111.549 421.459C92.7901 421.459 82.0073 410.352 82.0073 390.988V351.666H95.9893V390.531C95.9893 402.008 101.595 408.149 111.745 408.149C121.841 408.149 127.386 402.18 127.386 390.988V351.613H127.394Z" fill="#212326"/>
<path fill-rule="evenodd" clip-rule="evenodd" d="M168.602 407.068L169.002 406.068H200.541L206.723 420.374H221.392L191.307 352.009L191.05 351.609H178.812L148.47 420.374H162.738L168.602 407.068ZM174.89 392.077H174.861L184.753 369.032L194.707 392.077H194.678L195.336 393.677H174.203L174.89 392.077Z" fill="#212326"/>
<path fill-rule="evenodd" clip-rule="evenodd" d="M304.228 351.67H318.725L294.765 420.431H283.1L267.431 375.254L251.757 420.431H240.178L216.185 351.666H231.054L246.266 398.928L261.906 351.613H273.314L288.959 398.928L304.228 351.67Z" fill="#212326"/>
<path fill-rule="evenodd" clip-rule="evenodd" d="M343.776 407.839H382.008V420.373H329.995V351.67H380.697V364.205H343.781V378.281H369.203V390.816H343.781V407.839H343.776Z" fill="#212326"/>
<path fill-rule="evenodd" clip-rule="evenodd" d="M398.678 351.613H412.489V420.321H398.678V351.613Z" fill="#212326"/>
<path fill-rule="evenodd" clip-rule="evenodd" d="M63.5406 55.0262C63.5406 55.0262 31.4008 85.4691 29.7705 117.764V122.848C29.7705 123.191 29.7991 123.534 29.8277 123.877C31.2006 149.95 50.8457 165.397 50.8457 165.397C82.4993 196.179 159.139 235.076 176.953 243.898C177.182 243.983 178.126 244.297 178.67 243.612C178.67 243.612 178.927 243.383 179.07 243.012V242.241C179.041 242.184 179.013 242.127 179.013 242.07C130.256 135.669 63.5406 55.0262 63.5406 55.0262Z" fill="#EC1C24"/>
<path fill-rule="evenodd" clip-rule="evenodd" d="M98.9976 311.092C115.754 306.922 153.671 280.51 166.199 271.57L166.17 271.542C167.143 270.656 166.799 269.942 166.799 269.942C166.485 268.8 165.169 268.8 165.169 268.8V268.771L37.6025 273.227C51.4129 297.839 74.719 316.971 98.9976 311.092Z" fill="#EC1C24"/>
<path fill-rule="evenodd" clip-rule="evenodd" d="M47.3272 254.09C59.5359 259.089 71.7487 259.432 71.7487 259.432C73.6364 259.774 147.612 259.46 167.429 259.374C168.258 259.374 168.744 258.518 168.744 258.518C168.773 258.432 168.83 258.346 168.859 258.261V257.461C168.687 256.975 168.258 256.632 168.258 256.632V256.604C112.236 218.853 3.63238 160.914 3.63238 160.914C1.02965 168.911 0.0572029 176.533 0 183.388V184.616C0.143007 203.206 7.06455 216.026 7.06455 216.026C20.9036 245.24 47.3272 254.09 47.3272 254.09Z" fill="#EC1C24"/>
<path fill-rule="evenodd" clip-rule="evenodd" d="M193.733 232.906C194.591 233.762 195.249 233.448 195.249 233.448C196.438 233.105 196.454 232.028 196.45 231.869C214.837 48.5715 177.177 0 177.177 0C171.628 0.485551 156.645 3.91297 156.645 3.91297C122.875 12.6203 114.895 43.2345 114.895 43.2345C113.265 48.3185 112.493 53.5412 112.292 58.4824V65.5086C112.75 75.8725 115.067 83.6413 115.067 83.6413C126.336 133.584 181.81 215.654 193.733 232.906Z" fill="#EC1C24"/>
<path fill-rule="evenodd" clip-rule="evenodd" d="M218.441 231.992H218.469C218.612 233.163 219.442 233.391 219.442 233.391C220.672 233.877 221.301 232.706 221.301 232.706C233.538 215.03 288.674 133.388 299.91 83.6413C299.91 83.6413 306.002 59.5392 300.11 43.2345C300.11 43.2345 291.759 12.1388 257.96 3.91297C257.96 3.91297 248.207 1.45665 237.857 0C237.857 0 200.054 48.6041 218.441 231.992Z" fill="#EC1C24"/>
<path fill-rule="evenodd" clip-rule="evenodd" d="M377.375 273.284L249.637 268.857V268.885C249.637 268.885 248.521 269.028 248.207 269.856C248.207 269.856 247.921 271.027 248.693 271.599H248.664C260.873 280.367 297.908 306.179 315.751 311.206C315.751 311.206 318.497 312.148 323.101 312.291H325.561C337.484 311.92 358.387 305.865 377.375 273.284Z" fill="#EC1C24"/>
<path fill-rule="evenodd" clip-rule="evenodd" d="M236.199 241.584H236.227C236.227 241.584 235.627 242.812 236.571 243.612C236.571 243.612 236.857 243.812 237.257 243.898H237.886C238.029 243.869 238.144 243.812 238.287 243.726C256.588 234.672 332.622 196.036 364.109 165.397C364.109 165.397 384.068 149.378 385.098 123.705C387.415 88.0437 351.479 55.0385 351.471 55.0262C351.463 55.0385 284.923 135.42 236.199 241.584Z" fill="#EC1C24"/>
<path fill-rule="evenodd" clip-rule="evenodd" d="M246.81 256.518L246.839 256.547C246.839 256.547 245.809 257.204 246.181 258.375C246.181 258.375 246.724 259.346 247.497 259.346V259.374C267.571 259.403 343.548 259.489 345.465 259.117C345.465 259.117 355.275 258.746 367.427 254.09C367.427 254.09 394.479 245.493 408.49 214.855C408.49 214.855 421.013 189.838 411.322 160.628C411.232 160.677 302.861 218.784 246.81 256.518Z" fill="#EC1C24"/>
</svg>
