<?xml version="1.0" encoding="UTF-8"?>
<svg width="425px" height="159px" viewBox="0 0 425 159" version="1.1" xmlns="http://www.w3.org/2000/svg" xmlns:xlink="http://www.w3.org/1999/xlink">
    <!-- Generator: Sketch 52.6 (67491) - http://www.bohemiancoding.com/sketch -->
    <title>IBM_logo_blue60_CMYK</title>
    <desc>Created with Sketch.</desc>
    <g id="IBM_logo_blue60_CMYK" stroke="none" stroke-width="1" fill="none" fill-rule="evenodd">
        <path d="M416.59,150.178 C417.262,150.178 417.639,149.884 417.639,149.254 L417.639,148.624 C417.639,147.994 417.262,147.7 416.59,147.7 L414.993,147.7 L414.993,150.178 L416.59,150.178 Z M414.993,154.799 L412.85,154.799 L412.85,146.02 L416.842,146.02 C418.816,146.02 419.824,147.196 419.824,148.792 C419.824,150.178 419.194,151.061 418.227,151.439 L420.202,154.799 L417.849,154.799 L416.212,151.775 L414.993,151.775 L414.993,154.799 Z M422.68,150.893 L422.68,149.8 C422.68,146.272 419.908,143.499 416.254,143.499 C412.598,143.499 409.826,146.272 409.826,149.8 L409.826,150.893 C409.826,154.421 412.598,157.194 416.254,157.194 C419.908,157.194 422.68,154.421 422.68,150.893 Z M407.852,150.346 C407.852,145.432 411.591,141.693 416.254,141.693 C420.916,141.693 424.655,145.432 424.655,150.346 C424.655,155.261 420.916,159 416.254,159 C411.591,159 407.852,155.261 407.852,150.346 Z M286.826,11.551 L283,0.551 L220,0.551 L220.001,11.551 L286.826,11.551 Z M294.129,32.551 L290.303,21.551 L220,21.551 L220.001,32.551 L294.129,32.551 Z M341.001,158.551 L396.001,158.551 L396.001,147.551 L341.001,147.551 L341.001,158.551 Z M341.001,137.551 L396.001,137.551 L396.001,126.551 L341.001,126.551 L341.001,137.551 Z M341.001,116.551 L374.001,116.551 L374.001,105.551 L341.001,105.551 L341.001,116.551 Z M341.001,95.551 L374.001,95.551 L374.001,84.551 L341.001,84.551 L341.001,95.551 Z M341.001,74.551 L374.001,74.551 L374.001,63.551 L311.093,63.551 L308.001,72.442 L304.908,63.551 L242,63.551 L242,74.551 L275.001,74.551 L275.001,64.442 L278.549,74.551 L337.452,74.551 L341.001,64.443 L341.001,74.551 Z M374.001,42.551 L318.395,42.551 L314.57,53.551 L374.001,53.551 L374.001,42.551 Z M242,95.551 L275.001,95.551 L275.001,84.551 L242,84.551 L242,95.551 Z M242,116.551 L275.001,116.551 L275.001,105.551 L242,105.551 L242,116.551 Z M220,137.551 L275.001,137.551 L275.001,126.551 L220,126.551 L220,137.551 Z M220,158.551 L275.001,158.551 L275.001,147.551 L220,147.551 L220,158.551 Z M333,0.551 L329.176,11.551 L396.001,11.551 L396.001,0.551 L333,0.551 Z M321.873,32.551 L396.001,32.551 L396.001,21.551 L325.698,21.551 L321.873,32.551 Z M242,53.551 L301.43,53.551 L297.605,42.551 L242,42.551 L242,53.551 Z M285.922,95.551 L330.08,95.551 L333.941,84.551 L282.06,84.551 L285.922,95.551 Z M293.294,116.551 L322.707,116.551 L326.569,105.551 L289.432,105.551 L293.294,116.551 Z M300.666,137.551 L315.335,137.551 L319.196,126.551 L296.804,126.551 L300.666,137.551 Z M307.983,158.551 L311.824,147.551 L304.177,147.551 L307.983,158.551 Z M88,158.551 L169,158.551 C180,158.551 189.864,154.382 197.334,147.551 L88,147.551 L88,158.551 Z M174,105.551 L174,116.551 L211,116.551 C211,112.742 210.479,109.058 209.529,105.551 L174,105.551 Z M110,116.551 L143,116.551 L143,105.551 L110,105.551 L110,116.551 Z M174,53.551 L209.529,53.551 C210.479,50.043 211,46.359 211,42.551 L174,42.551 L174,53.551 Z M110,53.551 L143,53.551 L143,42.551 L110,42.551 L110,53.551 Z M169,0.551 L88,0.551 L88,11.551 L197.333,11.551 C189.864,4.72 179.92,0.551 169,0.551 Z M205.367,21.551 L88,21.551 L88,32.551 L209.793,32.551 C208.837,28.64 207.332,24.947 205.367,21.551 Z M110,63.551 L110,74.551 L196.179,74.551 C199.833,71.445 202.938,67.725 205.355,63.551 L110,63.551 Z M196.179,84.551 L110,84.551 L110,95.551 L205.355,95.551 C202.938,91.377 199.833,87.656 196.179,84.551 Z M88,137.551 L205.367,137.551 C207.332,134.155 208.837,130.462 209.793,126.551 L88,126.551 L88,137.551 Z M0,11.551 L77.001,11.551 L77.001,0.551 L0,0.551 L0,11.551 Z M0,32.551 L77.001,32.551 L77.001,21.551 L0,21.551 L0,32.551 Z M22,53.551 L55,53.551 L55,42.551 L22,42.551 L22,53.551 Z M22,74.551 L55,74.551 L55,63.551 L22,63.551 L22,74.551 Z M22,95.551 L55,95.551 L55,84.551 L22,84.551 L22,95.551 Z M22,116.551 L55,116.551 L55,105.551 L22,105.551 L22,116.551 Z M0,137.551 L77.001,137.551 L77.001,126.551 L0,126.551 L0,137.551 Z M0,158.551 L77.001,158.551 L77.001,147.551 L0,147.551 L0,158.551 Z" id="Fill-1" fill="#43619E"></path>
    </g>
</svg>