<svg width="100" height="54" viewBox="0 0 100 54" fill="none" xmlns="http://www.w3.org/2000/svg">
<rect width="100" height="54" fill="white"/>
<path d="M21 52H18V40.3672H21V52Z" fill="#006699"/>
<path d="M31.6328 52H23.2188V40.3672H31.6328V42.6172H26.2031V44.625H31.2422V46.875H26.2031V49.75H31.6328V52Z" fill="#006699"/>
<path d="M42.5703 52H34.1562V40.3672H42.5703V42.6172H37.1406V44.625H42.1797V46.875H37.1406V49.75H42.5703V52Z" fill="#006699"/>
<path d="M53.5078 52H45.0938V40.3672H53.5078V42.6172H48.0781V44.625H53.1172V46.875H48.0781V49.75H53.5078V52Z" fill="#006699"/>
<path d="M0.419922 21.19C0.419922 21.19 1.25992 22.12 2.75992 22.12C4.15992 22.12 4.99992 21.22 4.99992 20.13C4.99992 17.84 1.57992 18.23 1.57992 16.77C1.57992 16.21 2.10992 15.74 2.85992 15.74C3.75992 15.74 4.40992 16.35 4.40992 16.35L4.85992 15.53C4.85992 15.53 4.16992 14.82 2.85992 14.82C1.52992 14.82 0.579922 15.69 0.579922 16.79C0.579922 18.96 3.99992 18.63 3.99992 20.16C3.99992 20.83 3.43992 21.2 2.77992 21.2C1.72992 21.2 0.979922 20.44 0.979922 20.44L0.419922 21.19Z" fill="#006699"/>
<path d="M5.56891 19.47C5.56891 20.97 6.65891 22.12 8.24891 22.12C9.45891 22.12 10.2089 21.4 10.2089 21.4L9.80891 20.69C9.80891 20.69 9.17891 21.28 8.30891 21.28C7.40891 21.28 6.61891 20.72 6.56891 19.61H10.2589C10.2589 19.61 10.2889 19.32 10.2889 19.19C10.2889 17.88 9.52891 16.82 8.09891 16.82C6.65891 16.82 5.56891 17.86 5.56891 19.47ZM6.59891 18.88C6.73891 18.05 7.33891 17.59 8.07891 17.59C8.72891 17.59 9.26891 18.01 9.29891 18.88H6.59891Z" fill="#006699"/>
<path d="M10.8058 19.47C10.8058 20.99 11.9258 22.12 13.5158 22.12C14.8358 22.12 15.5358 21.31 15.5358 21.31L15.1458 20.6C15.1458 20.6 14.5258 21.28 13.5858 21.28C12.5358 21.28 11.7958 20.49 11.7958 19.46C11.7958 18.42 12.5358 17.66 13.5558 17.66C14.4158 17.66 14.9558 18.24 14.9558 18.24L15.4158 17.56C15.4158 17.56 14.7858 16.82 13.5158 16.82C11.9258 16.82 10.8058 17.97 10.8058 19.47Z" fill="#006699"/>
<path d="M16.5445 20.15C16.5445 21.84 17.8345 22.04 18.4845 22.04C18.6845 22.04 18.8245 22.02 18.8245 22.02V21.16C18.8245 21.16 18.7345 21.18 18.5945 21.18C18.2245 21.18 17.5145 21.05 17.5145 20.04V17.79H18.7345V17.01H17.5145V15.55H16.5745V17.01H15.8845V17.79H16.5445V20.15Z" fill="#006699"/>
<path d="M19.6085 15.93H20.5885V14.94H19.6085V15.93ZM19.6185 22H20.5885V16.94H19.6185V22Z" fill="#006699"/>
<path d="M21.4387 19.46C21.4387 21 22.6588 22.12 24.1688 22.12C25.6788 22.12 26.8988 21 26.8988 19.46C26.8988 17.93 25.6788 16.82 24.1688 16.82C22.6588 16.82 21.4387 17.93 21.4387 19.46ZM22.4288 19.46C22.4288 18.41 23.2188 17.66 24.1688 17.66C25.1288 17.66 25.9088 18.41 25.9088 19.46C25.9088 20.52 25.1288 21.28 24.1688 21.28C23.2188 21.28 22.4288 20.52 22.4288 19.46Z" fill="#006699"/>
<path d="M27.749 22H28.719V19.63C28.719 19.38 28.739 19.15 28.799 18.95C29.009 18.22 29.629 17.71 30.399 17.71C31.209 17.71 31.359 18.27 31.359 18.98V22H32.329V18.76C32.329 17.47 31.779 16.82 30.589 16.82C29.489 16.82 28.889 17.54 28.689 17.98H28.669C28.669 17.98 28.689 17.81 28.689 17.61V16.94H27.749V22Z" fill="#006699"/>
<path d="M0.410156 30.97C0.410156 32.47 1.50016 33.62 3.09016 33.62C4.30016 33.62 5.05016 32.9 5.05016 32.9L4.65016 32.19C4.65016 32.19 4.02016 32.78 3.15016 32.78C2.25016 32.78 1.46016 32.22 1.41016 31.11H5.10016C5.10016 31.11 5.13016 30.82 5.13016 30.69C5.13016 29.38 4.37016 28.32 2.94016 28.32C1.50016 28.32 0.410156 29.36 0.410156 30.97ZM1.44016 30.38C1.58016 29.55 2.18016 29.09 2.92016 29.09C3.57016 29.09 4.11016 29.51 4.14016 30.38H1.44016Z" fill="#006699"/>
<path d="M5.59703 32.88C5.59703 32.88 6.27703 33.62 7.51703 33.62C8.62703 33.62 9.34703 32.99 9.34703 32.15C9.34703 30.49 6.74703 30.69 6.74703 29.78C6.74703 29.34 7.15703 29.16 7.57703 29.16C8.37703 29.16 8.82703 29.61 8.82703 29.61L9.21703 28.88C9.21703 28.88 8.69703 28.32 7.58703 28.32C6.57703 28.32 5.75703 28.84 5.75703 29.76C5.75703 31.41 8.35703 31.22 8.35703 32.15C8.35703 32.56 7.93703 32.78 7.51703 32.78C6.63703 32.78 6.06703 32.19 6.06703 32.19L5.59703 32.88Z" fill="#006699"/>
<path d="M10.3995 31.65C10.3995 33.34 11.6895 33.54 12.3395 33.54C12.5395 33.54 12.6795 33.52 12.6795 33.52V32.66C12.6795 32.66 12.5895 32.68 12.4495 32.68C12.0795 32.68 11.3695 32.55 11.3695 31.54V29.29H12.5895V28.51H11.3695V27.05H10.4295V28.51H9.73945V29.29H10.3995V31.65Z" fill="#006699"/>
<path d="M13.4734 33.5H14.4934V32.47H13.4734V33.5Z" fill="#006699"/>
<path d="M17.7809 33.5H21.8409V32.64H20.3009V26.44H19.4209L17.7309 28.08L18.3309 28.7L18.9909 28.05C19.2509 27.8 19.3309 27.64 19.3309 27.64H19.3509C19.3509 27.64 19.3409 27.86 19.3409 28.08V32.64H17.7809V33.5Z" fill="#006699"/>
<path d="M24.0334 33.62C26.2234 33.62 27.2134 31.46 27.2134 29.65C27.2134 27.63 26.0734 26.32 24.5734 26.32C23.2534 26.32 22.3034 27.29 22.3034 28.68C22.3034 29.99 23.1934 31 24.5334 31C25.1534 31 25.8034 30.74 26.0934 30.34H26.1134C25.9634 31.51 25.2934 32.71 23.9934 32.71C23.4334 32.71 22.9834 32.47 22.9834 32.47L22.6634 33.33C22.6634 33.33 23.1934 33.62 24.0334 33.62ZM24.7334 30.17C23.8234 30.17 23.2834 29.54 23.2834 28.68C23.2834 27.86 23.7634 27.23 24.5834 27.23C25.4834 27.23 26.1734 28.26 26.1734 29.18C26.1734 29.68 25.5334 30.17 24.7334 30.17Z" fill="#006699"/>
<path d="M30.6198 33.62C32.5098 33.62 33.1198 32 33.1198 29.96C33.1198 27.93 32.5098 26.32 30.6198 26.32C28.7398 26.32 28.1298 27.93 28.1298 29.96C28.1298 32 28.7398 33.62 30.6198 33.62ZM30.6198 32.71C29.4698 32.71 29.1398 31.5 29.1398 29.96C29.1398 28.43 29.4698 27.23 30.6198 27.23C31.7798 27.23 32.1098 28.43 32.1098 29.96C32.1098 31.5 31.7798 32.71 30.6198 32.71Z" fill="#006699"/>
<path d="M33.8498 32.66C33.8498 32.66 34.6998 33.62 36.1398 33.62C37.5898 33.62 38.5398 32.56 38.5398 31.35C38.5398 29.98 37.3998 29.38 36.4698 29.28L38.3898 27.07V26.44H34.1698V27.3H36.5598C36.9498 27.3 37.1598 27.27 37.1598 27.27V27.29C37.1598 27.29 36.9498 27.48 36.7198 27.75L35.1798 29.56L35.4098 30.09H35.8998C36.7698 30.09 37.5398 30.52 37.5398 31.39C37.5398 32.15 36.8898 32.68 36.0998 32.68C35.0798 32.68 34.3898 31.91 34.3898 31.91L33.8498 32.66Z" fill="#006699"/>
<path d="M40 10.14H42.2V3.94L46.9 10.14H48.7V0H46.5V6.2L41.8 0H40V10.14Z" fill="#006699"/>
<path d="M20 10.14H22.1V6.77H23.86L25.8587 10.14H28.3L25.87 6.25C26.9852 5.82746 27.56 4.9 27.56 3.01409C27.56 1.69014 26.5874 0.732394 25.5316 0.28169C25.0706 0.0845071 24.5502 0 23.4052 0H20V10.14ZM22.1 4.8V1.8H23.3755C24.8773 1.8 25.3085 2.34225 25.3085 3.3C25.3085 4.3 24.6691 4.8 23.6431 4.8H22.1Z" fill="#006699"/>
<path d="M3.2 10.14H5.5V2.00001H8.7V0H0V2.00001H3.2V10.14Z" fill="#006699"/>
<path d="M9 5.0058C9 7.7228 11.054 10.14 13.771 10.14C16.488 10.14 18.542 7.7228 18.542 5.0058C18.542 2.3668 16.488 0 13.771 0C11.054 0 9 2.3668 9 5.0058ZM11.132 5.0058C11.132 3.31 12.041 2.13 13.771 2.13C15.501 2.13 16.412 3.31 16.412 5.0058C16.412 6.71 15.501 8.01 13.771 8.01C12.041 8.01 11.132 6.71 11.132 5.0058Z" fill="#006699"/>
<path d="M53.2 10.14H55.5V2.00001H58.7V0H50V2.00001H53.2V10.14Z" fill="#006699"/>
<path d="M59 5.0058C59 7.7228 61.054 10.14 63.771 10.14C66.488 10.14 68.542 7.7228 68.542 5.0058C68.542 2.3668 66.488 0 63.771 0C61.054 0 59 2.3668 59 5.0058ZM61.132 5.0058C61.132 3.31 62.041 2.13 63.771 2.13C65.501 2.13 66.412 3.31 66.412 5.0058C66.412 6.71 65.501 8.01 63.771 8.01C62.041 8.01 61.132 6.71 61.132 5.0058Z" fill="#006699"/>
<path d="M29 5.0058C29 7.7228 31.054 10.14 33.771 10.14C36.488 10.14 38.542 7.7228 38.542 5.0058C38.542 2.3668 36.488 0 33.771 0C31.054 0 29 2.3668 29 5.0058ZM31.132 5.0058C31.132 3.31 32.041 2.13 33.771 2.13C35.501 2.13 36.412 3.31 36.412 5.0058C36.412 6.71 35.501 8.01 33.771 8.01C32.041 8.01 31.132 6.71 31.132 5.0058Z" fill="#006699"/>
<path fill-rule="evenodd" clip-rule="evenodd" d="M7.10857 38.793C7.50613 38.2425 7.68124 38 8 38V45.7368V53.4737C7.68124 53.4737 7.50613 53.2312 7.10857 52.6806C6.62395 52.0095 5.8088 50.8807 4 49.1754C2.45849 47.7221 1.42459 46.9905 0.794738 46.5448C0.241518 46.1534 0 45.9825 0 45.7368C0 45.4912 0.241518 45.3203 0.794738 44.9288C1.42459 44.4831 2.45849 43.7516 4 42.2982C5.8088 40.5929 6.62395 39.4641 7.10857 38.793ZM8.89146 38.793C8.4939 38.2425 8.31879 38 8.00003 38V45.7368V53.4737C8.31879 53.4737 8.4939 53.2312 8.89146 52.6806C9.37608 52.0095 10.1912 50.8807 12 49.1754C13.5415 47.7221 14.5754 46.9905 15.2053 46.5448C15.7585 46.1534 16 45.9825 16 45.7368C16 45.4912 15.7585 45.3203 15.2053 44.9288C14.5754 44.4831 13.5415 43.7516 12 42.2982C10.1912 40.5929 9.37608 39.4641 8.89146 38.793Z" fill="#006699"/>
<path fill-rule="evenodd" clip-rule="evenodd" d="M8.01487 51.4839C8.73261 51.4839 9.88167 50.4237 11.3643 48.9781C12.345 48.0219 13.8764 46.4726 13.8764 45.7562C13.8764 45.0403 12.7386 43.6141 11.3643 42.2958C9.9333 40.9229 8.73261 40.0285 8.01487 40.0285C7.29713 40.0285 6.07102 40.9235 4.66541 42.2958C3.25987 43.668 2.15332 45.0403 2.15332 45.7562C2.15332 46.4722 3.33829 47.6712 4.66541 48.9781C6.13122 50.4214 7.29713 51.4839 8.01487 51.4839ZM10.6633 42.6714C10.6973 42.705 10.7316 42.7389 10.7662 42.7731C10.8838 42.8892 11.0158 43.0179 11.1564 43.1551C12.0879 44.0637 13.3979 45.3415 13.3979 45.7562C13.3979 45.9854 12.0326 47.2903 10.7988 48.4696L10.7662 48.5007C10.4264 48.8255 10.0956 49.1488 9.7874 49.4499C8.89596 50.3209 8.19422 51.0066 8.01485 51.0066C7.84592 51.0066 7.14375 50.3229 6.28158 49.4834C5.95817 49.1685 5.61225 48.8316 5.26351 48.5007C3.96581 47.2695 2.63179 45.9967 2.63179 45.7562C2.63179 45.5133 3.95164 44.0761 5.26351 42.7731C6.52957 41.5155 7.78496 40.5059 8.01485 40.5059C8.47099 40.5059 9.36417 41.3881 10.6633 42.6714Z" fill="white"/>
<path fill-rule="evenodd" clip-rule="evenodd" d="M8.00007 41.5341L8.9269 44.0653H8.31625L8.41489 46.4981C8.15638 46.5112 7.85762 46.5097 7.58612 46.4936L7.68457 44.0653H7.07324L8.00007 41.5341ZM7.56286 47.0672L7.46383 49.5097H8.537L8.43773 47.0614C8.25378 47.0744 8.06477 47.0742 7.86891 47.0741C7.84763 47.0741 7.82627 47.0741 7.80482 47.0741C7.72539 47.0741 7.64407 47.0717 7.56286 47.0672Z" fill="white"/>
<path fill-rule="evenodd" clip-rule="evenodd" d="M7.80487 46.9308C9.63684 46.9308 11.1219 46.501 11.1219 45.7368C11.1219 45.5036 10.8573 45.2569 10.4296 45.0397L10.7319 44.9727L9.21973 44.5667L9.43924 45.2592L9.92226 45.1522C10.3384 45.2724 10.6099 45.4576 10.6099 45.7368C10.6099 46.2414 9.45562 46.6442 8.12206 46.6442C6.78849 46.6442 5.70742 46.2622 5.70742 45.8323C5.70742 45.4982 6.18379 45.1497 7.02228 45.011L6.2582 44.5109C5.13172 44.7423 4.48779 45.2904 4.48779 45.7368C4.48779 46.3667 5.9729 46.9308 7.80487 46.9308Z" fill="white"/>
<path fill-rule="evenodd" clip-rule="evenodd" d="M74.5 50.5C81.6797 50.5 87.5 44.6797 87.5 37.5C87.5 30.3203 81.6797 24.5 74.5 24.5C67.3203 24.5 61.5 30.3203 61.5 37.5C61.5 44.6797 67.3203 50.5 74.5 50.5ZM74.5 53C83.0604 53 90 46.0604 90 37.5C90 28.9396 83.0604 22 74.5 22C65.9396 22 59 28.9396 59 37.5C59 46.0604 65.9396 53 74.5 53Z" fill="#006699"/>
<path d="M75 0H75.5V5H75.75V8H76.25V9H75.75V14.5H76V15.25H76.5C76.5 15.25 76.9141 15.9402 77.1269 16.5H77.5V18.5H77.25V19C77.25 19 77.0494 19.8023 75.75 19.9696V20C75.75 28.3738 76.4128 37.2778 76.7731 41.5H77V40H78.5V40.75H78.75V42.5H80.25V43H80.75V41.25H82V39.75H84V42.5H85V45H85.5V43H87.5V45.5H86V47H84V48.75H82V50H81V51H67V48H65.9295L64.9995 48.3843C65.0511 48.2545 65.1063 48.1263 65.1652 48H65V47H64V43H65V44H67V45.5533C68.4338 44.2806 70.3697 43.5 72.5 43.5C72.8532 43.5 73.201 43.5215 73.5422 43.5631C73.7602 41.2585 74.75 30.2333 74.75 20V19.9696C73.4506 19.8023 73.25 19 73.25 19V18.5H73V16.5H73.3731C73.5858 15.9402 74 15.25 74 15.25H74.5V14.5H74.75V9H74.25V8H74.75V5H75V0Z" fill="#006699"/>
<circle cx="88.7998" cy="26.1" r="9.5" fill="#006699"/>
<path d="M88.4853 33.0833L88.6425 30.0675C88.6448 30.0179 88.636 29.9684 88.6166 29.9227C88.5972 29.877 88.5679 29.8362 88.5306 29.8033C88.4934 29.7705 88.4493 29.7464 88.4015 29.7328C88.3538 29.7193 88.3036 29.7166 88.2546 29.725L85.2528 30.2527L85.6581 29.1344C85.6746 29.0899 85.6767 29.0414 85.6642 28.9956C85.6516 28.9499 85.6251 28.9092 85.5882 28.8793L82.2998 26.2164L83.0407 25.8704C83.0907 25.8468 83.1304 25.8057 83.1523 25.7549C83.1741 25.704 83.1767 25.6469 83.1595 25.5944L82.5095 23.5954L84.4036 23.9973C84.4549 24.008 84.5083 24.0006 84.5548 23.9764C84.6013 23.9522 84.638 23.9127 84.6587 23.8645L85.0256 23.0013L86.5038 24.5879C86.5376 24.6236 86.5821 24.6473 86.6305 24.6555C86.6789 24.6638 86.7287 24.6561 86.7724 24.6337C86.8161 24.6112 86.8514 24.5752 86.8729 24.5311C86.8944 24.4869 86.901 24.437 86.8917 24.3887L86.1788 20.7124L87.3216 21.3728C87.3484 21.3886 87.3782 21.3986 87.4091 21.4024C87.4399 21.4061 87.4712 21.4035 87.501 21.3946C87.5309 21.3858 87.5585 21.3709 87.5824 21.3509C87.6062 21.331 87.6257 21.3063 87.6396 21.2785L88.7998 19L89.96 21.2785C89.9739 21.3063 89.9934 21.331 90.0172 21.3509C90.0411 21.3709 90.0687 21.3858 90.0986 21.3946C90.1284 21.4035 90.1597 21.4061 90.1906 21.4024C90.2214 21.3986 90.2512 21.3886 90.278 21.3728L91.4208 20.7124L90.7079 24.3887C90.6986 24.437 90.7052 24.4869 90.7267 24.5311C90.7482 24.5752 90.7835 24.6112 90.8272 24.6337C90.8709 24.6561 90.9207 24.6638 90.9691 24.6555C91.0175 24.6473 91.062 24.6236 91.0958 24.5879L92.574 23.0013L92.9409 23.8645C92.9616 23.9127 92.9983 23.9522 93.0448 23.9764C93.0913 24.0006 93.1447 24.008 93.196 23.9973L95.0901 23.5954L94.4401 25.5944C94.4229 25.6469 94.4255 25.704 94.4473 25.7549C94.4692 25.8057 94.5089 25.8468 94.5589 25.8704L95.2998 26.2164L92.0114 28.8793C91.9745 28.9092 91.948 28.9499 91.9355 28.9956C91.9229 29.0414 91.925 29.0899 91.9415 29.1344L92.3468 30.2527L89.345 29.725C89.296 29.7166 89.2458 29.7193 89.1981 29.7328C89.1503 29.7464 89.1062 29.7705 89.069 29.8033C89.0318 29.8362 89.0024 29.877 88.983 29.9227C88.9636 29.9684 88.9548 30.0179 88.9571 30.0675L89.1143 33.0833H88.4853Z" fill="white"/>
</svg>
