<?xml version="1.0" encoding="UTF-8"?>
<svg xmlns="http://www.w3.org/2000/svg" xmlns:xlink="http://www.w3.org/1999/xlink" width="360px" height="194px" viewBox="0 0 359 194" version="1.1">
<g id="surface1">
<rect x="0" y="0" width="359" height="194" style="fill:rgb(100%,100%,100%);fill-opacity:1;stroke:none;"/>
<path style=" stroke:none;fill-rule:nonzero;fill:rgb(0%,40%,60%);fill-opacity:1;" d="M 75.390625 186.816406 L 64.621094 186.816406 L 64.621094 145.023438 L 75.390625 145.023438 Z M 75.390625 186.816406 "/>
<path style=" stroke:none;fill-rule:nonzero;fill:rgb(0%,40%,60%);fill-opacity:1;" d="M 113.5625 186.816406 L 83.355469 186.816406 L 83.355469 145.023438 L 113.5625 145.023438 L 113.5625 153.105469 L 94.070312 153.105469 L 94.070312 160.320312 L 112.160156 160.320312 L 112.160156 168.402344 L 94.070312 168.402344 L 94.070312 178.730469 L 113.5625 178.730469 Z M 113.5625 186.816406 "/>
<path style=" stroke:none;fill-rule:nonzero;fill:rgb(0%,40%,60%);fill-opacity:1;" d="M 152.828125 186.816406 L 122.621094 186.816406 L 122.621094 145.023438 L 152.828125 145.023438 L 152.828125 153.105469 L 133.335938 153.105469 L 133.335938 160.320312 L 151.425781 160.320312 L 151.425781 168.402344 L 133.335938 168.402344 L 133.335938 178.730469 L 152.828125 178.730469 Z M 152.828125 186.816406 "/>
<path style=" stroke:none;fill-rule:nonzero;fill:rgb(0%,40%,60%);fill-opacity:1;" d="M 192.09375 186.816406 L 161.886719 186.816406 L 161.886719 145.023438 L 192.09375 145.023438 L 192.09375 153.105469 L 172.601562 153.105469 L 172.601562 160.320312 L 190.691406 160.320312 L 190.691406 168.402344 L 172.601562 168.402344 L 172.601562 178.730469 L 192.09375 178.730469 Z M 192.09375 186.816406 "/>
<path style=" stroke:none;fill-rule:nonzero;fill:rgb(0%,40%,60%);fill-opacity:1;" d="M 1.507812 76.128906 C 1.507812 76.128906 4.523438 79.46875 9.90625 79.46875 C 14.933594 79.46875 17.949219 76.234375 17.949219 72.320312 C 17.949219 64.09375 5.671875 65.492188 5.671875 60.246094 C 5.671875 58.234375 7.574219 56.546875 10.265625 56.546875 C 13.5 56.546875 15.832031 58.738281 15.832031 58.738281 L 17.445312 55.792969 C 17.445312 55.792969 14.96875 53.242188 10.265625 53.242188 C 5.492188 53.242188 2.082031 56.367188 2.082031 60.320312 C 2.082031 68.117188 14.359375 66.929688 14.359375 72.425781 C 14.359375 74.832031 12.347656 76.164062 9.980469 76.164062 C 6.210938 76.164062 3.519531 73.433594 3.519531 73.433594 Z M 1.507812 76.128906 "/>
<path style=" stroke:none;fill-rule:nonzero;fill:rgb(0%,40%,60%);fill-opacity:1;" d="M 19.992188 69.949219 C 19.992188 75.335938 23.90625 79.46875 29.613281 79.46875 C 33.957031 79.46875 36.648438 76.882812 36.648438 76.882812 L 35.214844 74.332031 C 35.214844 74.332031 32.953125 76.449219 29.828125 76.449219 C 26.597656 76.449219 23.761719 74.4375 23.582031 70.449219 L 36.828125 70.449219 C 36.828125 70.449219 36.9375 69.410156 36.9375 68.941406 C 36.9375 64.234375 34.207031 60.425781 29.074219 60.425781 C 23.90625 60.425781 19.992188 64.164062 19.992188 69.949219 Z M 23.691406 67.828125 C 24.191406 64.847656 26.347656 63.195312 29.003906 63.195312 C 31.335938 63.195312 33.273438 64.703125 33.382812 67.828125 Z M 23.691406 67.828125 "/>
<path style=" stroke:none;fill-rule:nonzero;fill:rgb(0%,40%,60%);fill-opacity:1;" d="M 38.792969 69.949219 C 38.792969 75.410156 42.8125 79.46875 48.523438 79.46875 C 53.261719 79.46875 55.773438 76.558594 55.773438 76.558594 L 54.375 74.007812 C 54.375 74.007812 52.148438 76.449219 48.773438 76.449219 C 45.003906 76.449219 42.347656 73.613281 42.347656 69.910156 C 42.347656 66.175781 45.003906 63.445312 48.664062 63.445312 C 51.753906 63.445312 53.691406 65.527344 53.691406 65.527344 L 55.34375 63.085938 C 55.34375 63.085938 53.082031 60.425781 48.523438 60.425781 C 42.8125 60.425781 38.792969 64.558594 38.792969 69.949219 Z M 38.792969 69.949219 "/>
<path style=" stroke:none;fill-rule:nonzero;fill:rgb(0%,40%,60%);fill-opacity:1;" d="M 59.394531 72.390625 C 59.394531 78.460938 64.027344 79.179688 66.359375 79.179688 C 67.078125 79.179688 67.578125 79.109375 67.578125 79.109375 L 67.578125 76.019531 C 67.578125 76.019531 67.257812 76.089844 66.753906 76.089844 C 65.425781 76.089844 62.878906 75.625 62.878906 71.996094 L 62.878906 63.914062 L 67.257812 63.914062 L 67.257812 61.109375 L 62.878906 61.109375 L 62.878906 55.863281 L 59.503906 55.863281 L 59.503906 61.109375 L 57.023438 61.109375 L 57.023438 63.914062 L 59.394531 63.914062 Z M 59.394531 72.390625 "/>
<path style=" stroke:none;fill-rule:nonzero;fill:rgb(0%,40%,60%);fill-opacity:1;" d="M 70.394531 57.230469 L 73.914062 57.230469 L 73.914062 53.671875 L 70.394531 53.671875 Z M 70.429688 79.035156 L 73.914062 79.035156 L 73.914062 60.859375 L 70.429688 60.859375 Z M 70.429688 79.035156 "/>
<path style=" stroke:none;fill-rule:nonzero;fill:rgb(0%,40%,60%);fill-opacity:1;" d="M 76.964844 69.910156 C 76.964844 75.445312 81.34375 79.46875 86.765625 79.46875 C 92.1875 79.46875 96.566406 75.445312 96.566406 69.910156 C 96.566406 64.414062 92.1875 60.425781 86.765625 60.425781 C 81.34375 60.425781 76.964844 64.414062 76.964844 69.910156 Z M 80.519531 69.910156 C 80.519531 66.140625 83.355469 63.445312 86.765625 63.445312 C 90.210938 63.445312 93.011719 66.140625 93.011719 69.910156 C 93.011719 73.71875 90.210938 76.449219 86.765625 76.449219 C 83.355469 76.449219 80.519531 73.71875 80.519531 69.910156 Z M 80.519531 69.910156 "/>
<path style=" stroke:none;fill-rule:nonzero;fill:rgb(0%,40%,60%);fill-opacity:1;" d="M 99.617188 79.035156 L 103.101562 79.035156 L 103.101562 70.523438 C 103.101562 69.625 103.171875 68.796875 103.386719 68.078125 C 104.140625 65.457031 106.367188 63.625 109.132812 63.625 C 112.039062 63.625 112.578125 65.636719 112.578125 68.1875 L 112.578125 79.035156 L 116.0625 79.035156 L 116.0625 67.398438 C 116.0625 62.761719 114.085938 60.425781 109.816406 60.425781 C 105.867188 60.425781 103.710938 63.015625 102.992188 64.59375 L 102.921875 64.59375 C 102.921875 64.59375 102.992188 63.984375 102.992188 63.265625 L 102.992188 60.859375 L 99.617188 60.859375 Z M 99.617188 79.035156 "/>
<path style=" stroke:none;fill-rule:nonzero;fill:rgb(0%,40%,60%);fill-opacity:1;" d="M 1.472656 111.261719 C 1.472656 116.652344 5.386719 120.78125 11.09375 120.78125 C 15.4375 120.78125 18.128906 118.195312 18.128906 118.195312 L 16.695312 115.644531 C 16.695312 115.644531 14.433594 117.765625 11.308594 117.765625 C 8.078125 117.765625 5.242188 115.753906 5.0625 111.765625 L 18.308594 111.765625 C 18.308594 111.765625 18.417969 110.722656 18.417969 110.257812 C 18.417969 105.550781 15.6875 101.742188 10.554688 101.742188 C 5.386719 101.742188 1.472656 105.480469 1.472656 111.261719 Z M 5.171875 109.144531 C 5.671875 106.160156 7.828125 104.507812 10.484375 104.507812 C 12.816406 104.507812 14.753906 106.015625 14.863281 109.144531 Z M 5.171875 109.144531 "/>
<path style=" stroke:none;fill-rule:nonzero;fill:rgb(0%,40%,60%);fill-opacity:1;" d="M 20.09375 118.125 C 20.09375 118.125 22.535156 120.78125 26.984375 120.78125 C 30.972656 120.78125 33.554688 118.519531 33.554688 115.5 C 33.554688 109.539062 24.222656 110.257812 24.222656 106.988281 C 24.222656 105.40625 25.695312 104.761719 27.203125 104.761719 C 30.074219 104.761719 31.6875 106.375 31.6875 106.375 L 33.089844 103.753906 C 33.089844 103.753906 31.222656 101.742188 27.238281 101.742188 C 23.613281 101.742188 20.667969 103.609375 20.667969 106.914062 C 20.667969 112.84375 30 112.160156 30 115.5 C 30 116.976562 28.492188 117.765625 26.984375 117.765625 C 23.828125 117.765625 21.78125 115.644531 21.78125 115.644531 Z M 20.09375 118.125 "/>
<path style=" stroke:none;fill-rule:nonzero;fill:rgb(0%,40%,60%);fill-opacity:1;" d="M 37.335938 113.707031 C 37.335938 119.777344 41.964844 120.496094 44.296875 120.496094 C 45.015625 120.496094 45.519531 120.421875 45.519531 120.421875 L 45.519531 117.335938 C 45.519531 117.335938 45.195312 117.40625 44.695312 117.40625 C 43.367188 117.40625 40.816406 116.9375 40.816406 113.308594 L 40.816406 105.226562 L 45.195312 105.226562 L 45.195312 102.425781 L 40.816406 102.425781 L 40.816406 97.179688 L 37.441406 97.179688 L 37.441406 102.425781 L 34.964844 102.425781 L 34.964844 105.226562 L 37.335938 105.226562 Z M 37.335938 113.707031 "/>
<path style=" stroke:none;fill-rule:nonzero;fill:rgb(0%,40%,60%);fill-opacity:1;" d="M 48.371094 120.351562 L 52.03125 120.351562 L 52.03125 116.652344 L 48.371094 116.652344 Z M 48.371094 120.351562 "/>
<path style=" stroke:none;fill-rule:nonzero;fill:rgb(0%,40%,60%);fill-opacity:1;" d="M 63.832031 120.351562 L 78.410156 120.351562 L 78.410156 117.261719 L 72.878906 117.261719 L 72.878906 94.988281 L 69.722656 94.988281 L 63.652344 100.878906 L 65.808594 103.105469 L 68.175781 100.773438 C 69.109375 99.875 69.398438 99.300781 69.398438 99.300781 L 69.46875 99.300781 C 69.46875 99.300781 69.433594 100.089844 69.433594 100.878906 L 69.433594 117.261719 L 63.832031 117.261719 Z M 63.832031 120.351562 "/>
<path style=" stroke:none;fill-rule:nonzero;fill:rgb(0%,40%,60%);fill-opacity:1;" d="M 86.28125 120.78125 C 94.140625 120.78125 97.695312 113.023438 97.695312 106.519531 C 97.695312 99.261719 93.601562 94.558594 88.21875 94.558594 C 83.480469 94.558594 80.070312 98.042969 80.070312 103.035156 C 80.070312 107.742188 83.265625 111.371094 88.074219 111.371094 C 90.300781 111.371094 92.632812 110.4375 93.675781 109 L 93.746094 109 C 93.207031 113.203125 90.804688 117.515625 86.136719 117.515625 C 84.125 117.515625 82.511719 116.652344 82.511719 116.652344 L 81.363281 119.742188 C 81.363281 119.742188 83.265625 120.78125 86.28125 120.78125 Z M 88.792969 108.386719 C 85.527344 108.386719 83.585938 106.125 83.585938 103.035156 C 83.585938 100.089844 85.3125 97.828125 88.253906 97.828125 C 91.484375 97.828125 93.960938 101.527344 93.960938 104.832031 C 93.960938 106.628906 91.664062 108.386719 88.792969 108.386719 Z M 88.792969 108.386719 "/>
<path style=" stroke:none;fill-rule:nonzero;fill:rgb(0%,40%,60%);fill-opacity:1;" d="M 109.925781 120.78125 C 116.710938 120.78125 118.898438 114.964844 118.898438 107.632812 C 118.898438 100.339844 116.710938 94.558594 109.925781 94.558594 C 103.175781 94.558594 100.984375 100.339844 100.984375 107.632812 C 100.984375 114.964844 103.175781 120.78125 109.925781 120.78125 Z M 109.925781 117.515625 C 105.796875 117.515625 104.613281 113.167969 104.613281 107.632812 C 104.613281 102.136719 105.796875 97.828125 109.925781 97.828125 C 114.089844 97.828125 115.273438 102.136719 115.273438 107.632812 C 115.273438 113.167969 114.089844 117.515625 109.925781 117.515625 Z M 109.925781 117.515625 "/>
<path style=" stroke:none;fill-rule:nonzero;fill:rgb(0%,40%,60%);fill-opacity:1;" d="M 121.519531 117.335938 C 121.519531 117.335938 124.574219 120.78125 129.742188 120.78125 C 134.949219 120.78125 138.359375 116.976562 138.359375 112.628906 C 138.359375 107.707031 134.265625 105.550781 130.925781 105.191406 L 137.820312 97.25 L 137.820312 94.988281 L 122.667969 94.988281 L 122.667969 98.078125 L 131.25 98.078125 C 132.648438 98.078125 133.402344 97.96875 133.402344 97.96875 L 133.402344 98.042969 C 133.402344 98.042969 132.648438 98.722656 131.824219 99.695312 L 126.296875 106.195312 L 127.121094 108.101562 L 128.878906 108.101562 C 132.003906 108.101562 134.769531 109.644531 134.769531 112.769531 C 134.769531 115.5 132.433594 117.40625 129.597656 117.40625 C 125.9375 117.40625 123.460938 114.640625 123.460938 114.640625 Z M 121.519531 117.335938 "/>
<path style=" stroke:none;fill-rule:nonzero;fill:rgb(0%,40%,60%);fill-opacity:1;" d="M 143.601562 36.429688 L 151.496094 36.429688 L 151.496094 14.15625 L 168.371094 36.429688 L 174.832031 36.429688 L 174.832031 0 L 166.933594 0 L 166.933594 22.273438 L 150.0625 0 L 143.601562 0 Z M 143.601562 36.429688 "/>
<path style=" stroke:none;fill-rule:nonzero;fill:rgb(0%,40%,60%);fill-opacity:1;" d="M 71.800781 36.429688 L 79.339844 36.429688 L 79.339844 24.320312 L 85.65625 24.320312 L 92.832031 36.429688 L 101.597656 36.429688 L 92.875 22.453125 C 96.875 20.9375 98.941406 17.605469 98.941406 10.828125 C 98.941406 6.070312 95.449219 2.632812 91.660156 1.011719 C 90.003906 0.304688 88.136719 0 84.023438 0 L 71.800781 0 Z M 79.339844 17.246094 L 79.339844 6.464844 L 83.917969 6.464844 C 89.308594 6.464844 90.859375 8.414062 90.859375 11.855469 C 90.859375 15.449219 88.5625 17.246094 84.878906 17.246094 Z M 79.339844 17.246094 "/>
<path style=" stroke:none;fill-rule:nonzero;fill:rgb(0%,40%,60%);fill-opacity:1;" d="M 11.488281 36.429688 L 19.746094 36.429688 L 19.746094 7.183594 L 31.234375 7.183594 L 31.234375 0 L 0 0 L 0 7.183594 L 11.488281 7.183594 Z M 11.488281 36.429688 "/>
<path style=" stroke:none;fill-rule:nonzero;fill:rgb(0%,40%,60%);fill-opacity:1;" d="M 32.308594 17.984375 C 32.308594 27.746094 39.683594 36.429688 49.4375 36.429688 C 59.191406 36.429688 66.566406 27.746094 66.566406 17.984375 C 66.566406 8.503906 59.191406 0 49.4375 0 C 39.683594 0 32.308594 8.503906 32.308594 17.984375 Z M 39.964844 17.984375 C 39.964844 11.890625 43.226562 7.652344 49.4375 7.652344 C 55.648438 7.652344 58.917969 11.890625 58.917969 17.984375 C 58.917969 24.105469 55.648438 28.777344 49.4375 28.777344 C 43.226562 28.777344 39.964844 24.105469 39.964844 17.984375 Z M 39.964844 17.984375 "/>
<path style=" stroke:none;fill-rule:nonzero;fill:rgb(0%,40%,60%);fill-opacity:1;" d="M 190.988281 36.429688 L 199.246094 36.429688 L 199.246094 7.183594 L 210.734375 7.183594 L 210.734375 0 L 179.5 0 L 179.5 7.183594 L 190.988281 7.183594 Z M 190.988281 36.429688 "/>
<path style=" stroke:none;fill-rule:nonzero;fill:rgb(0%,40%,60%);fill-opacity:1;" d="M 211.808594 17.984375 C 211.808594 27.746094 219.183594 36.429688 228.9375 36.429688 C 238.691406 36.429688 246.066406 27.746094 246.066406 17.984375 C 246.066406 8.503906 238.691406 0 228.9375 0 C 219.183594 0 211.808594 8.503906 211.808594 17.984375 Z M 219.464844 17.984375 C 219.464844 11.890625 222.726562 7.652344 228.9375 7.652344 C 235.148438 7.652344 238.417969 11.890625 238.417969 17.984375 C 238.417969 24.105469 235.148438 28.777344 228.9375 28.777344 C 222.726562 28.777344 219.464844 24.105469 219.464844 17.984375 Z M 219.464844 17.984375 "/>
<path style=" stroke:none;fill-rule:nonzero;fill:rgb(0%,40%,60%);fill-opacity:1;" d="M 104.109375 17.984375 C 104.109375 27.746094 111.484375 36.429688 121.238281 36.429688 C 130.992188 36.429688 138.367188 27.746094 138.367188 17.984375 C 138.367188 8.503906 130.992188 0 121.238281 0 C 111.484375 0 104.109375 8.503906 104.109375 17.984375 Z M 111.765625 17.984375 C 111.765625 11.890625 115.027344 7.652344 121.238281 7.652344 C 127.449219 7.652344 130.71875 11.890625 130.71875 17.984375 C 130.71875 24.105469 127.449219 28.777344 121.238281 28.777344 C 115.027344 28.777344 111.765625 24.105469 111.765625 17.984375 Z M 111.765625 17.984375 "/>
<path style=" stroke:none;fill-rule:evenodd;fill:rgb(0%,40%,60%);fill-opacity:1;" d="M 25.519531 139.367188 C 26.945312 137.390625 27.574219 136.519531 28.71875 136.519531 L 28.71875 192.109375 C 27.574219 192.109375 26.945312 191.238281 25.519531 189.261719 C 23.78125 186.847656 20.855469 182.792969 14.359375 176.667969 C 8.824219 171.445312 5.113281 168.816406 2.851562 167.214844 C 0.867188 165.808594 0 165.195312 0 164.3125 C 0 163.429688 0.867188 162.816406 2.851562 161.410156 C 5.113281 159.808594 8.824219 157.183594 14.359375 151.960938 C 20.855469 145.832031 23.78125 141.777344 25.519531 139.367188 Z M 31.921875 139.367188 C 30.492188 137.390625 29.863281 136.519531 28.71875 136.519531 L 28.71875 192.109375 C 29.863281 192.109375 30.492188 191.238281 31.921875 189.261719 C 33.660156 186.847656 36.585938 182.792969 43.078125 176.667969 C 48.613281 171.445312 52.324219 168.816406 54.585938 167.214844 C 56.574219 165.808594 57.441406 165.195312 57.441406 164.3125 C 57.441406 163.429688 56.574219 162.816406 54.585938 161.410156 C 52.324219 159.808594 48.613281 157.183594 43.078125 151.960938 C 36.585938 145.832031 33.660156 141.777344 31.921875 139.367188 Z M 31.921875 139.367188 "/>
<path style=" stroke:none;fill-rule:evenodd;fill:rgb(100%,100%,100%);fill-opacity:1;" d="M 28.773438 184.960938 C 31.351562 184.960938 35.476562 181.152344 40.796875 175.957031 C 44.320312 172.523438 49.816406 166.957031 49.816406 164.382812 C 49.816406 161.8125 45.730469 156.6875 40.796875 151.953125 C 35.660156 147.019531 31.351562 143.804688 28.773438 143.804688 C 26.195312 143.804688 21.796875 147.019531 16.75 151.953125 C 11.703125 156.882812 7.730469 161.8125 7.730469 164.382812 C 7.730469 166.957031 11.984375 171.261719 16.75 175.957031 C 22.011719 181.144531 26.195312 184.960938 28.773438 184.960938 Z M 38.28125 153.300781 C 38.402344 153.421875 38.527344 153.542969 38.652344 153.667969 C 39.074219 154.082031 39.546875 154.546875 40.050781 155.039062 C 43.394531 158.304688 48.097656 162.894531 48.097656 164.382812 C 48.097656 165.207031 43.195312 169.894531 38.769531 174.132812 L 38.652344 174.242188 C 37.429688 175.410156 36.242188 176.570312 35.136719 177.652344 C 31.9375 180.78125 29.417969 183.246094 28.773438 183.246094 C 28.167969 183.246094 25.644531 180.789062 22.550781 177.773438 C 21.390625 176.640625 20.148438 175.433594 18.894531 174.242188 C 14.238281 169.820312 9.449219 165.246094 9.449219 164.382812 C 9.449219 163.511719 14.1875 158.347656 18.894531 153.667969 C 23.441406 149.148438 27.949219 145.519531 28.773438 145.519531 C 30.410156 145.519531 33.617188 148.691406 38.28125 153.300781 Z M 38.28125 153.300781 "/>
<path style=" stroke:none;fill-rule:evenodd;fill:rgb(100%,100%,100%);fill-opacity:1;" d="M 28.71875 149.214844 L 32.046875 158.308594 L 29.855469 158.308594 L 30.210938 167.046875 C 29.28125 167.097656 28.207031 167.089844 27.234375 167.03125 L 27.585938 158.308594 L 25.394531 158.308594 Z M 27.152344 169.09375 L 26.796875 177.867188 L 30.648438 177.867188 L 30.292969 169.074219 C 29.632812 169.121094 28.953125 169.117188 28.25 169.117188 C 28.171875 169.117188 28.097656 169.117188 28.019531 169.117188 C 27.734375 169.117188 27.441406 169.109375 27.152344 169.09375 Z M 27.152344 169.09375 "/>
<path style=" stroke:none;fill-rule:evenodd;fill:rgb(100%,100%,100%);fill-opacity:1;" d="M 28.019531 168.601562 C 34.597656 168.601562 39.925781 167.058594 39.925781 164.3125 C 39.925781 163.476562 38.976562 162.589844 37.441406 161.808594 L 38.527344 161.570312 L 33.097656 160.109375 L 33.886719 162.597656 L 35.621094 162.214844 C 37.113281 162.644531 38.089844 163.3125 38.089844 164.3125 C 38.089844 166.125 33.945312 167.574219 29.15625 167.574219 C 24.371094 167.574219 20.488281 166.203125 20.488281 164.65625 C 20.488281 163.457031 22.199219 162.203125 25.210938 161.707031 L 22.46875 159.910156 C 18.421875 160.742188 16.109375 162.710938 16.109375 164.3125 C 16.109375 166.578125 21.441406 168.601562 28.019531 168.601562 Z M 28.019531 168.601562 "/>
<path style=" stroke:none;fill-rule:evenodd;fill:rgb(0%,40%,60%);fill-opacity:1;" d="M 267.453125 181.425781 C 293.230469 181.425781 314.125 160.515625 314.125 134.722656 C 314.125 108.929688 293.230469 88.019531 267.453125 88.019531 C 241.679688 88.019531 220.785156 108.929688 220.785156 134.722656 C 220.785156 160.515625 241.679688 181.425781 267.453125 181.425781 Z M 267.453125 190.40625 C 298.1875 190.40625 323.101562 165.476562 323.101562 134.722656 C 323.101562 103.96875 298.1875 79.035156 267.453125 79.035156 C 236.722656 79.035156 211.808594 103.96875 211.808594 134.722656 C 211.808594 165.476562 236.722656 190.40625 267.453125 190.40625 Z M 267.453125 190.40625 "/>
<path style=" stroke:none;fill-rule:nonzero;fill:rgb(0%,40%,60%);fill-opacity:1;" d="M 269.25 0 L 271.046875 0 L 271.046875 17.964844 L 271.941406 17.964844 L 271.941406 28.742188 L 273.738281 28.742188 L 273.738281 32.332031 L 271.941406 32.332031 L 271.941406 52.09375 L 272.839844 52.09375 L 272.839844 54.785156 L 274.636719 54.785156 C 274.636719 54.785156 276.121094 57.265625 276.886719 59.277344 L 278.226562 59.277344 L 278.226562 66.464844 L 277.328125 66.464844 L 277.328125 68.257812 C 277.328125 68.257812 276.605469 71.140625 271.941406 71.742188 L 271.941406 71.851562 C 271.941406 101.933594 274.320312 133.925781 275.617188 149.09375 L 276.429688 149.09375 L 276.429688 143.703125 L 281.816406 143.703125 L 281.816406 146.398438 L 282.710938 146.398438 L 282.710938 152.683594 L 288.097656 152.683594 L 288.097656 154.480469 L 289.890625 154.480469 L 289.890625 148.195312 L 294.378906 148.195312 L 294.378906 142.804688 L 301.558594 142.804688 L 301.558594 152.683594 L 305.148438 152.683594 L 305.148438 161.667969 L 306.945312 161.667969 L 306.945312 154.480469 L 314.125 154.480469 L 314.125 163.464844 L 308.738281 163.464844 L 308.738281 168.851562 L 301.558594 168.851562 L 301.558594 175.140625 L 294.378906 175.140625 L 294.378906 179.628906 L 290.789062 179.628906 L 290.789062 183.222656 L 240.53125 183.222656 L 240.53125 172.445312 L 236.6875 172.445312 L 233.347656 173.824219 C 233.535156 173.359375 233.730469 172.898438 233.941406 172.445312 L 233.351562 172.445312 L 233.351562 168.851562 L 229.761719 168.851562 L 229.761719 154.480469 L 233.351562 154.480469 L 233.351562 158.074219 L 240.53125 158.074219 L 240.53125 163.65625 C 245.675781 159.082031 252.628906 156.277344 260.273438 156.277344 C 261.542969 156.277344 262.792969 156.355469 264.015625 156.503906 C 264.800781 148.226562 268.351562 108.617188 268.351562 71.851562 L 268.351562 71.742188 C 263.6875 71.140625 262.96875 68.257812 262.96875 68.257812 L 262.96875 66.464844 L 262.070312 66.464844 L 262.070312 59.277344 L 263.410156 59.277344 C 264.171875 57.265625 265.660156 54.785156 265.660156 54.785156 L 267.453125 54.785156 L 267.453125 52.09375 L 268.351562 52.09375 L 268.351562 32.332031 L 266.558594 32.332031 L 266.558594 28.742188 L 268.351562 28.742188 L 268.351562 17.964844 L 269.25 17.964844 Z M 269.25 0 "/>
<path style=" stroke:none;fill-rule:nonzero;fill:rgb(0%,40%,60%);fill-opacity:1;" d="M 352.894531 93.765625 C 352.894531 112.617188 337.628906 127.894531 318.792969 127.894531 C 299.957031 127.894531 284.6875 112.617188 284.6875 93.765625 C 284.6875 74.917969 299.957031 59.636719 318.792969 59.636719 C 337.628906 59.636719 352.894531 74.917969 352.894531 93.765625 Z M 352.894531 93.765625 "/>
<path style=" stroke:none;fill-rule:nonzero;fill:rgb(100%,100%,100%);fill-opacity:1;" d="M 317.664062 118.855469 L 318.226562 108.019531 C 318.234375 107.84375 318.203125 107.664062 318.132812 107.5 C 318.0625 107.335938 317.957031 107.1875 317.824219 107.070312 C 317.691406 106.953125 317.53125 106.867188 317.363281 106.816406 C 317.191406 106.769531 317.011719 106.757812 316.835938 106.789062 L 306.058594 108.6875 L 307.511719 104.667969 C 307.570312 104.507812 307.578125 104.332031 307.535156 104.167969 C 307.488281 104.003906 307.394531 103.859375 307.261719 103.75 L 295.457031 94.183594 L 298.117188 92.941406 C 298.296875 92.855469 298.4375 92.710938 298.515625 92.527344 C 298.59375 92.34375 298.605469 92.140625 298.542969 91.949219 L 296.210938 84.769531 L 303.007812 86.210938 C 303.191406 86.25 303.386719 86.222656 303.550781 86.136719 C 303.71875 86.050781 303.851562 85.910156 303.925781 85.734375 L 305.242188 82.632812 L 310.546875 88.335938 C 310.671875 88.460938 310.828125 88.546875 311.003906 88.578125 C 311.175781 88.605469 311.355469 88.578125 311.511719 88.5 C 311.667969 88.417969 311.796875 88.289062 311.875 88.128906 C 311.949219 87.972656 311.972656 87.792969 311.941406 87.617188 L 309.382812 74.410156 L 313.484375 76.785156 C 313.582031 76.839844 313.6875 76.875 313.796875 76.890625 C 313.910156 76.902344 314.023438 76.894531 314.128906 76.863281 C 314.234375 76.832031 314.335938 76.777344 314.421875 76.707031 C 314.507812 76.632812 314.578125 76.542969 314.625 76.445312 L 318.792969 68.257812 L 322.957031 76.445312 C 323.007812 76.542969 323.078125 76.632812 323.160156 76.707031 C 323.246094 76.777344 323.347656 76.832031 323.453125 76.863281 C 323.5625 76.894531 323.671875 76.902344 323.785156 76.890625 C 323.894531 76.875 324 76.839844 324.097656 76.785156 L 328.199219 74.410156 L 325.640625 87.617188 C 325.609375 87.792969 325.632812 87.972656 325.707031 88.128906 C 325.785156 88.289062 325.914062 88.417969 326.070312 88.5 C 326.226562 88.578125 326.40625 88.605469 326.578125 88.578125 C 326.753906 88.546875 326.914062 88.460938 327.035156 88.335938 L 332.339844 82.632812 L 333.65625 85.734375 C 333.730469 85.910156 333.863281 86.050781 334.03125 86.136719 C 334.199219 86.222656 334.390625 86.25 334.574219 86.210938 L 341.375 84.769531 L 339.039062 91.949219 C 338.976562 92.140625 338.988281 92.34375 339.066406 92.527344 C 339.144531 92.710938 339.285156 92.855469 339.464844 92.941406 L 342.125 94.183594 L 330.320312 103.75 C 330.1875 103.859375 330.09375 104.003906 330.046875 104.167969 C 330.003906 104.332031 330.011719 104.507812 330.070312 104.667969 L 331.523438 108.6875 L 320.75 106.789062 C 320.574219 106.757812 320.390625 106.769531 320.222656 106.816406 C 320.050781 106.867188 319.890625 106.953125 319.757812 107.070312 C 319.625 107.1875 319.519531 107.335938 319.449219 107.5 C 319.378906 107.664062 319.347656 107.84375 319.355469 108.019531 L 319.921875 118.855469 Z M 317.664062 118.855469 "/>
</g>
</svg>
