<svg width="552" height="295" viewBox="0 0 552 295" fill="none" xmlns="http://www.w3.org/2000/svg">
<path d="M115.689 286.469H99.1621V222.384H115.689V286.469Z" fill="#006799"/>
<path d="M184.265 286.469H137.913V222.384H184.265V234.779H154.353V245.841H182.114V258.236H154.353V274.075H184.265V286.469Z" fill="#006799"/>
<path d="M244.52 286.469H198.167V222.384H244.52V234.779H214.608V245.841H242.368V258.236H214.608V274.075H244.52V286.469Z" fill="#006799"/>
<path d="M304.775 286.469H258.422V222.384H304.775V234.779H274.863V245.841H302.623V258.236H274.863V274.075H304.775V286.469Z" fill="#006799"/>
<path d="M2.31348 116.741C5.76554 120.084 10.3995 121.926 15.2045 121.865C22.9175 121.865 27.5455 116.907 27.5455 110.902C27.5455 98.2859 8.70447 100.435 8.70447 92.3919C8.70447 89.3069 11.6245 86.7169 15.7555 86.7169C18.9034 86.8231 21.9187 88.01 24.2945 90.0779L26.7735 85.5599C26.7735 85.5599 22.9735 81.6489 15.7555 81.6489C8.42848 81.6489 3.19547 86.4419 3.19547 92.5019C3.19547 104.456 22.0365 102.638 22.0365 111.067C22.0365 114.758 18.9515 116.796 15.3155 116.796C11.613 116.643 8.09064 115.156 5.39848 112.61L2.31348 116.741Z" fill="#006799"/>
<path d="M30.6797 107.261C30.6797 115.524 36.6797 121.861 45.4437 121.861C49.4016 121.869 53.232 120.462 56.2437 117.894L54.0437 113.983C51.7435 115.982 48.8262 117.129 45.7807 117.233C40.8227 117.233 36.4707 114.148 36.1947 108.033H56.5227C56.5227 108.033 56.6887 106.433 56.6887 105.719C56.6887 98.5031 52.5017 92.6631 44.6237 92.6631C36.6847 92.6621 30.6797 98.3911 30.6797 107.261ZM36.3537 104.011C36.5739 102.02 37.5344 100.184 39.0448 98.8675C40.5551 97.5511 42.5049 96.8503 44.5077 96.9041C48.0887 96.9041 51.0637 99.2181 51.2287 104.011H36.3537Z" fill="#006799"/>
<path d="M59.5293 107.261C59.5293 115.635 65.6993 121.861 74.4593 121.861C76.5193 121.907 78.5673 121.535 80.4798 120.768C82.3923 120.001 84.1297 118.855 85.5873 117.398L83.4383 113.487C81.1604 115.792 78.0835 117.133 74.8443 117.233C73.5273 117.262 72.2183 117.021 70.9978 116.526C69.7774 116.03 68.6713 115.29 67.7475 114.351C66.8238 113.412 66.1021 112.293 65.6267 111.065C65.1513 109.836 64.9324 108.523 64.9833 107.207C64.9833 101.477 69.0603 97.2911 74.6833 97.2911C77.5681 97.3316 80.3279 98.4748 82.3963 100.486L84.9303 96.7401C84.9303 96.7401 81.4593 92.6631 74.4633 92.6631C65.7003 92.6621 59.5293 98.9971 59.5293 107.261Z" fill="#006799"/>
<path d="M91.1448 111.007C91.1448 120.317 98.2508 121.419 101.832 121.419C102.458 121.423 103.083 121.386 103.705 121.309V116.571C103.287 116.65 102.863 116.686 102.438 116.681C100.4 116.681 96.4888 115.965 96.4888 110.401V98.0012H103.21V93.7012H96.4888V85.6582H91.3098V93.7012H87.5098V98.0012H91.1458L91.1448 111.007Z" fill="#006799"/>
<path d="M108.023 87.7592H113.423V82.3052H108.023V87.7592ZM108.079 121.199H113.422V93.3232H108.079V121.199Z" fill="#006799"/>
<path d="M118.106 107.206C118.106 115.69 124.828 121.86 133.146 121.86C141.464 121.86 148.186 115.69 148.186 107.206C148.186 98.7771 141.465 92.6621 133.146 92.6621C124.827 92.6621 118.106 98.7771 118.106 107.206ZM123.561 107.206C123.518 105.92 123.734 104.638 124.196 103.437C124.658 102.236 125.357 101.141 126.251 100.215C127.146 99.2901 128.217 98.5543 129.402 98.0518C130.586 97.5493 131.86 97.2903 133.147 97.2903C134.434 97.2903 135.707 97.5493 136.892 98.0518C138.077 98.5543 139.148 99.2901 140.043 100.215C140.937 101.141 141.636 102.236 142.098 103.437C142.56 104.638 142.776 105.92 142.732 107.206C142.732 113.045 138.432 117.232 133.146 117.232C131.853 117.223 130.574 116.953 129.387 116.441C128.199 115.928 127.127 115.182 126.233 114.247C125.339 113.312 124.642 112.207 124.183 110.997C123.724 109.788 123.513 108.499 123.561 107.206Z" fill="#006799"/>
<path d="M152.87 121.199H158.213V108.141C158.18 106.878 158.329 105.616 158.654 104.395C159.162 102.443 160.302 100.713 161.897 99.4777C163.492 98.2418 165.451 97.5689 167.468 97.5641C171.931 97.5641 172.757 100.649 172.757 104.564V121.202H178.1V103.35C178.1 96.2431 175.07 92.6621 168.514 92.6621C166.341 92.6128 164.199 93.1888 162.343 94.3216C160.488 95.4544 158.997 97.0963 158.047 99.0521H157.937C158.009 98.3751 158.046 97.6949 158.047 97.0141V93.3231H152.87V121.199Z" fill="#006799"/>
<path d="M2.26074 170.615C2.26074 178.878 8.26074 185.215 17.0247 185.215C20.9826 185.224 24.813 183.817 27.8247 181.249L25.6247 177.338C23.3241 179.337 20.4065 180.484 17.3607 180.588C12.4027 180.588 8.05074 177.503 7.77574 171.388H28.1007C28.1007 171.388 28.2657 169.788 28.2657 169.074C28.2657 161.857 24.0787 156.018 16.2007 156.018C8.26474 156.016 2.26074 161.741 2.26074 170.615ZM7.93474 167.364C8.15498 165.373 9.11538 163.537 10.6255 162.221C12.1356 160.905 14.0852 160.204 16.0877 160.258C19.6687 160.258 22.6437 162.571 22.8087 167.364H7.93474Z" fill="#006799"/>
<path d="M30.834 181.141C33.6901 183.832 37.4877 185.296 41.411 185.217C47.526 185.217 51.493 181.747 51.493 177.117C51.493 167.972 37.169 169.074 37.169 164.061C37.169 161.637 39.428 160.645 41.742 160.645C44.265 160.591 46.7183 161.474 48.628 163.124L50.777 159.103C50.777 159.103 47.912 156.018 41.797 156.018C36.233 156.018 31.716 158.882 31.716 163.951C31.716 173.041 46.039 171.994 46.039 177.117C46.039 179.376 43.725 180.588 41.411 180.588C38.4368 180.536 35.5889 179.377 33.423 177.338L30.834 181.141Z" fill="#006799"/>
<path d="M57.2912 174.361C57.2912 183.671 64.3982 184.773 67.9782 184.773C68.6046 184.777 69.2306 184.74 69.8522 184.663V179.925C69.4342 180.004 69.0095 180.04 68.5842 180.035C66.5462 180.035 62.6352 179.319 62.6352 173.755V161.355H69.3562V157.055H62.6352V149.012H57.4562V157.055H53.6562V161.355H57.2923L57.2912 174.361Z" fill="#006799"/>
<path d="M74.2256 184.552H79.8446V178.878H74.2256V184.552Z" fill="#006799"/>
<path d="M97.9557 184.552H120.323V179.815H111.839V145.659H106.991L97.6807 154.693L100.986 158.109L104.622 154.528C105.357 153.875 105.989 153.114 106.495 152.27H106.605C106.605 152.27 106.55 153.482 106.55 154.693V179.815H97.9557V184.552Z" fill="#006799"/>
<path d="M142.4 185.213C154.465 185.213 159.919 173.313 159.919 163.343C159.919 152.214 153.639 144.998 145.375 144.998C138.103 144.998 132.875 150.341 132.875 157.998C132.875 165.215 137.775 170.779 145.16 170.779C148.575 170.779 152.16 169.346 153.754 167.143H153.864C153.038 173.588 149.347 180.199 142.185 180.199C140.256 180.174 138.356 179.722 136.621 178.877L134.858 183.615C137.216 184.72 139.797 185.266 142.4 185.213ZM146.257 166.207C141.243 166.207 138.269 162.737 138.269 157.999C138.269 153.482 140.913 150.011 145.43 150.011C150.388 150.011 154.19 155.685 154.19 160.753C154.19 163.508 150.664 166.207 146.257 166.207Z" fill="#006799"/>
<path d="M178.686 185.213C189.098 185.213 192.458 176.289 192.458 165.05C192.458 153.867 189.098 144.998 178.686 144.998C168.329 144.998 164.968 153.867 164.968 165.05C164.968 176.289 168.329 185.213 178.686 185.213ZM178.686 180.2C172.35 180.2 170.533 173.534 170.533 165.05C170.533 156.622 172.35 150.011 178.686 150.011C185.076 150.011 186.894 156.622 186.894 165.05C186.894 173.534 185.076 180.2 178.686 180.2Z" fill="#006799"/>
<path d="M196.479 179.925C198.132 181.592 200.096 182.918 202.261 183.825C204.426 184.733 206.748 185.204 209.095 185.213C217.083 185.213 222.316 179.374 222.316 172.713C222.316 165.166 216.036 161.86 210.916 161.313L221.493 149.138V145.668H198.242V150.405H211.408C212.513 150.42 213.617 150.365 214.714 150.24V150.341C213.858 151.138 213.049 151.985 212.29 152.876L203.806 162.847L205.073 165.767H207.773C212.566 165.767 216.809 168.135 216.809 172.928C216.809 177.115 213.227 180.035 208.875 180.035C203.256 180.035 199.455 175.793 199.455 175.793L196.479 179.925Z" fill="#006799"/>
<path d="M220.36 55.862H232.48V21.706L258.373 55.862H268.289V0H256.169V34.156L230.277 0H220.36V55.862Z" fill="#006799"/>
<path d="M110.181 55.862H121.75V37.296H131.45L142.461 55.862H155.901L142.514 34.432C148.658 32.104 151.824 26.995 151.824 16.605C151.824 9.31101 146.466 4.035 140.65 1.552C138.11 0.466002 135.243 0 128.936 0H110.181V55.862ZM121.75 26.441V9.91701H128.777C137.05 9.91701 139.426 12.904 139.426 18.18C139.426 23.689 135.903 26.444 130.251 26.444L121.75 26.441Z" fill="#006799"/>
<path d="M17.629 55.862H30.3V11.019H47.928V0H0V11.019H17.629V55.862Z" fill="#006799"/>
<path d="M49.5811 27.577C49.5811 42.545 60.8971 55.862 75.8651 55.862C90.8331 55.862 102.148 42.545 102.148 27.577C102.148 13.039 90.8331 0 75.8651 0C60.8971 0 49.5811 13.041 49.5811 27.577ZM61.3261 27.577C61.3261 18.235 66.3341 11.735 75.8651 11.735C85.3961 11.735 90.4141 18.235 90.4141 27.577C90.4141 36.966 85.3951 44.128 75.8651 44.128C66.3351 44.128 61.3261 36.966 61.3261 27.577Z" fill="#006799"/>
<path d="M293.079 55.862H305.75V11.019H323.379V0H275.451V11.019H293.079V55.862Z" fill="#006799"/>
<path d="M325.032 27.577C325.032 42.545 336.347 55.862 351.315 55.862C366.283 55.862 377.6 42.541 377.6 27.577C377.6 13.039 366.284 0 351.316 0C336.348 0 325.032 13.041 325.032 27.577ZM336.777 27.577C336.777 18.235 341.785 11.735 351.315 11.735C360.845 11.735 365.865 18.235 365.865 27.577C365.865 36.966 360.846 44.128 351.315 44.128C341.784 44.128 336.777 36.966 336.777 27.577Z" fill="#006799"/>
<path d="M159.762 27.577C159.762 42.545 171.078 55.862 186.046 55.862C201.014 55.862 212.329 42.545 212.329 27.577C212.329 13.039 201.014 0 186.046 0C171.078 0 159.762 13.041 159.762 27.577ZM171.508 27.577C171.508 18.235 176.515 11.735 186.046 11.735C195.577 11.735 200.595 18.235 200.595 27.577C200.595 36.966 195.576 44.128 186.046 44.128C176.516 44.128 171.508 36.966 171.508 27.577Z" fill="#006799"/>
<path d="M39.161 213.712C41.351 210.679 42.316 209.343 44.072 209.343V294.588C42.316 294.588 41.351 293.252 39.161 290.219C34.1432 283.201 28.4035 276.729 22.036 270.908C16.5309 265.631 10.6275 260.786 4.378 256.416C1.331 254.26 0 253.316 0 251.965C0 250.614 1.331 249.671 4.378 247.514C10.6277 243.144 16.5312 238.299 22.036 233.022C28.4032 227.201 34.1428 220.729 39.161 213.712ZM48.983 213.712C46.793 210.679 45.828 209.343 44.072 209.343V294.588C45.828 294.588 46.793 293.252 48.983 290.219C54.0008 283.201 59.7405 276.729 66.108 270.908C71.6131 265.631 77.5165 260.786 83.766 256.416C86.814 254.26 88.144 253.316 88.144 251.965C88.144 250.614 86.814 249.671 83.766 247.514C77.5163 243.144 71.6128 238.299 66.108 233.022C59.7408 227.201 54.0012 220.729 48.983 213.712Z" fill="#006799"/>
<path d="M44.1543 283.626C48.1083 283.626 54.4383 277.785 62.6063 269.821C68.0063 264.554 76.4453 256.021 76.4453 252.072C76.4453 248.123 70.1773 240.272 62.6063 233.009C54.7233 225.445 48.1063 220.518 44.1543 220.518C40.2023 220.518 33.4453 225.448 25.7023 233.009C17.9593 240.57 11.8633 248.128 11.8633 252.072C11.8633 256.016 18.3913 262.622 25.7023 269.821C33.7773 277.773 40.2003 283.626 44.1543 283.626ZM58.7443 235.078L59.3113 235.638C59.9593 236.278 60.6863 236.987 61.4613 237.738C66.5923 242.744 73.8093 249.783 73.8093 252.068C73.8093 253.331 66.2883 260.519 59.4913 267.016L59.3113 267.187C57.4393 268.977 55.6173 270.758 53.9193 272.417C49.0083 277.217 45.1423 280.992 44.1543 280.992C43.2233 280.992 39.3543 277.226 34.6053 272.601C32.8243 270.866 30.9183 269.01 28.9973 267.187C21.8483 260.405 14.4973 253.393 14.4973 252.068C14.4973 250.743 21.7683 242.812 28.9973 235.634C35.9713 228.706 42.8873 223.144 44.1543 223.144C46.6673 223.148 51.5873 228.008 58.7443 235.078Z" fill="white"/>
<path d="M44.0728 228.812L49.1788 242.757H45.8148L46.3588 256.157C44.8374 256.229 43.3133 256.221 41.7928 256.132L42.3348 242.755H38.9678L44.0728 228.812ZM41.6648 259.294L41.1188 272.75H47.0308L46.4848 259.262C45.4708 259.334 44.4298 259.333 43.3508 259.332H43.0008C42.5598 259.332 42.1118 259.319 41.6648 259.294Z" fill="white"/>
<path d="M43.0005 258.541C53.0925 258.541 61.2745 256.173 61.2745 251.963C61.2745 250.678 59.8165 249.319 57.4605 248.123L59.1255 247.754L50.7955 245.517L52.0005 249.334L54.6615 248.744C56.9535 249.407 58.4495 250.427 58.4495 251.965C58.4495 254.745 52.0905 256.965 44.7495 256.965C37.4085 256.965 31.4495 254.86 31.4495 252.492C31.4495 250.652 34.0745 248.732 38.6935 247.968L34.4845 245.213C28.2785 246.487 24.7305 249.507 24.7305 251.966C24.7235 255.435 32.9055 258.541 43.0005 258.541Z" fill="white"/>
<path d="M423.176 0H425.93V27.541H427.308V44.069H430.062V49.578H427.308V79.878H428.685V84.01H431.439C432.756 86.2187 433.91 88.52 434.893 90.896H436.948V101.914H435.571V104.669C435.571 104.669 434.466 109.089 427.308 110.01V110.178C427.308 156.309 430.959 205.361 432.944 228.621H434.194V220.361H442.457V224.493H443.835V234.133H452.1V236.888H454.855V227.247H461.741V218.984H472.759V234.133H478.268V247.906H481.023V236.888H492.041V250.66H483.777V258.924H472.757V268.565H461.739V275.451H456.23V280.96H379.1V264.433H373.2L368.077 266.55C368.361 265.835 368.666 265.13 368.99 264.433H368.08V258.924H362.571V236.888H368.08V242.397H379.1V250.954C387.476 243.602 398.256 239.577 409.4 239.641C411.32 239.641 413.237 239.757 415.142 239.989C416.342 227.289 421.796 166.555 421.796 110.18V110.012C414.637 109.091 413.532 104.671 413.532 104.671V101.916H412.155V90.899H414.21C415.193 88.523 416.348 86.2216 417.664 84.013H420.418V79.881H421.8V49.581H419.045V44.072H421.8V27.541H423.177L423.176 0Z" fill="#006799"/>
<path d="M499.199 196.121C528.104 196.121 551.535 172.69 551.535 143.785C551.535 114.881 528.104 91.4492 499.199 91.4492C470.295 91.4492 446.863 114.881 446.863 143.785C446.863 172.69 470.295 196.121 499.199 196.121Z" fill="#006799"/>
<path d="M420.422 285.366C463.929 285.366 499.2 250.096 499.2 206.588C499.2 163.08 463.929 127.81 420.422 127.81C376.914 127.81 341.644 163.08 341.644 206.588C341.644 250.096 376.914 285.366 420.422 285.366Z" stroke="#006799" stroke-width="17" stroke-miterlimit="10"/>
<path d="M497.468 182.257L498.334 165.643C498.346 165.37 498.297 165.097 498.191 164.845C498.084 164.593 497.922 164.369 497.717 164.187C497.512 164.006 497.269 163.874 497.006 163.799C496.743 163.724 496.466 163.71 496.197 163.756L479.66 166.663L481.893 160.502C481.983 160.257 481.995 159.989 481.925 159.737C481.856 159.485 481.71 159.261 481.507 159.097L463.392 144.427L467.473 142.521C467.748 142.391 467.967 142.164 468.088 141.884C468.208 141.604 468.222 141.29 468.128 141L464.547 129.988L474.981 132.202C475.263 132.261 475.558 132.22 475.814 132.087C476.07 131.953 476.273 131.735 476.387 131.47L478.408 126.715L486.552 135.455C486.738 135.652 486.983 135.784 487.25 135.83C487.518 135.876 487.793 135.833 488.034 135.709C488.275 135.585 488.469 135.386 488.587 135.141C488.705 134.897 488.74 134.621 488.688 134.355L484.761 114.102L491.061 117.74C491.208 117.827 491.372 117.882 491.542 117.903C491.712 117.924 491.885 117.909 492.049 117.861C492.213 117.812 492.366 117.73 492.497 117.62C492.629 117.51 492.736 117.374 492.813 117.221L499.204 104.669L505.596 117.221C505.672 117.375 505.779 117.511 505.911 117.621C506.108 117.787 506.353 117.888 506.61 117.91C506.867 117.931 507.125 117.872 507.348 117.741L513.648 114.103L509.721 134.356C509.668 134.622 509.704 134.898 509.822 135.142C509.94 135.386 510.135 135.585 510.376 135.709C510.617 135.833 510.892 135.876 511.159 135.83C511.426 135.784 511.671 135.653 511.858 135.456L520.001 126.716L522.023 131.471C522.136 131.735 522.337 131.953 522.592 132.086C522.847 132.22 523.141 132.261 523.423 132.203L533.858 129.989L530.277 141.001C530.181 141.291 530.195 141.605 530.316 141.885C530.436 142.165 530.655 142.392 530.931 142.522L535.013 144.428L516.897 159.098C516.694 159.263 516.548 159.487 516.479 159.739C516.41 159.991 516.421 160.258 516.512 160.503L518.745 166.664L502.201 163.756C501.931 163.709 501.654 163.724 501.391 163.798C501.128 163.873 500.884 164.005 500.679 164.187C500.474 164.368 500.312 164.593 500.206 164.845C500.099 165.097 500.051 165.37 500.064 165.643L500.93 182.257H497.468Z" fill="white"/>
</svg>
