<svg width="265" height="145" viewBox="0 0 265 145" fill="none" xmlns="http://www.w3.org/2000/svg">
<path d="M0 112.441V144.588H29.6404V140.829H4.28942V112.441H0Z" fill="#1F184E"/>
<path d="M32.7448 129.42V133.247H48.3376V129.42H32.7448Z" fill="#1F184E"/>
<path d="M55.9092 134.562C55.861 135.14 55.861 135.911 55.861 136.008C55.861 140.008 56.5839 141.695 58.8009 143.093C60.7769 144.298 63.5723 144.683 70.898 144.683C80.5854 144.683 85.2604 144.201 87.6701 143.044C90.2245 141.743 91.4294 139.285 91.4294 135.237C91.4294 132.827 90.9956 131.044 90.0317 129.694C88.5377 127.525 86.3207 126.754 81.6457 126.754C73.0668 126.706 73.0668 126.706 70.7052 126.706C66.946 126.658 64.4398 126.417 62.9457 126.031C60.7769 125.405 60.1986 124.441 60.1986 121.501C60.1986 116.922 62.6566 116.007 74.8019 116.007C78.8503 116.007 81.8385 116.296 83.4289 116.826C85.6459 117.549 86.1279 118.368 86.1279 121.501V121.983H90.4173C90.3691 117.838 89.8389 116.248 88.0075 114.802C85.7905 113.018 82.224 112.344 74.9947 112.344C71.9101 112.344 67.5725 112.537 65.2109 112.826C61.5481 113.259 59.8612 113.79 58.2226 115.139C56.6321 116.44 55.8128 118.561 55.8128 121.453C55.8128 128.007 58.9455 130.417 67.4279 130.417C83.1397 130.417 83.1397 130.417 84.7302 130.947C86.4171 131.526 87.0436 132.779 87.0436 135.574C87.0436 138.321 86.0315 139.912 83.9591 140.345C82.1276 140.779 77.8382 141.068 73.6452 141.068C67.0906 141.068 63.3313 140.827 62.0782 140.345C60.4396 139.719 60.1504 138.948 60.054 135.237V134.562H55.9092Z" fill="#1F184E"/>
<path d="M102.807 144.588H98.5177V112.441H118.856C129.7 112.682 129.7 112.682 131.676 114.176C133.508 115.574 134.279 117.984 134.279 122.37C134.279 126.707 133.604 129.021 131.869 130.467C130.134 131.961 128.736 132.346 124.495 132.443C123.917 132.491 122.037 132.491 118.856 132.491H111.275V128.732H118.856C126.664 128.732 127.291 128.635 128.592 127.575C129.556 126.756 129.893 125.551 129.893 122.514C129.893 119.189 129.652 118.128 128.688 117.406C127.387 116.442 126.905 116.345 118.856 116.201H102.807V144.588Z" fill="#1F184E"/>
<path d="M176.904 144.588H172.132L168.325 137.792H151.146L152.809 133.956V134.033H166.301L156.276 116.201H154.541L138.634 144.588L133.672 144.588L151.89 112.441H158.734L176.904 144.588Z" fill="#1F184E"/>
<path d="M185.874 144.588H181.585V112.441H201.634L201.687 112.442C209.731 112.538 209.784 112.538 211.996 112.827C214.599 113.164 216.526 114.417 217.539 116.393C218.261 117.888 218.551 119.478 218.551 122.129C218.551 128.057 217.49 129.744 213.249 130.611C214.791 130.9 215.707 131.382 216.526 132.25C217.78 133.551 217.972 134.515 217.972 140.009V144.588H213.683V141.503V141.502C213.683 137.359 213.683 137.31 213.49 136.057C213.249 133.985 212.092 132.78 210.068 132.491C208.574 132.25 208.574 132.25 201.634 132.202H193.754V128.442H201.634H205.49C210.647 128.442 212.623 127.912 213.49 126.274C213.876 125.551 214.165 123.719 214.165 122.081C214.165 119.815 213.586 118.032 212.623 117.357C211.321 116.393 209.393 116.201 201.634 116.201H185.874V144.588Z" fill="#1F184E"/>
<path d="M225.528 112.441V144.588H229.817V130.033H235.408L257.385 144.588H265L239.842 128.105L263.747 112.441H256.228L235.408 126.274H229.817V112.441H225.528Z" fill="#1F184E"/>
<path d="M110.244 56.7006C111.591 55.1959 112.41 53.2094 112.41 51.0305C112.41 46.3336 108.602 42.5254 103.905 42.5254C101.364 42.5254 99.0842 43.6384 97.5259 45.4047C95.5297 47.6667 89.7293 55.2831 80.5155 67.332C72.8688 77.3322 58.8657 91.333 51.0308 91.8548C46.6783 92.1451 42.8386 90.816 40.1159 87.8861C36.3595 83.8435 34.5044 77.7273 34.3303 77.4016C34.0209 76.7987 33.6117 76.5459 33.0283 76.5459C32.2455 76.5459 31.6108 77.1799 31.6108 77.9634C31.6108 78.1738 31.6563 78.3732 31.738 78.5517C31.738 78.5517 33.3668 81.3826 34.178 82.8943C37.079 88.2986 41.0417 95.6824 50.7475 95.6824C54.6324 95.6824 60.9415 94.7148 67.049 90.7211C85.4768 78.6722 109.043 58.0434 110.244 56.7006Z" fill="#1F184E"/>
<path d="M180.828 25.5771C183.237 22.8621 184.703 19.2778 184.703 15.3463C184.703 6.87135 177.889 0 169.483 0C164.937 0 160.857 2.0082 158.069 5.19535C154.497 9.2767 144.117 23.0194 127.629 44.76C113.946 62.8038 86.0526 89.4838 72.0322 90.4254C64.2436 90.9492 56.7534 88.7072 51.8814 83.4205C43.4369 74.2574 42.4587 64.9344 42.1474 64.3466C41.5937 63.2587 40.8613 62.8026 39.8175 62.8026C38.4166 62.8026 37.2809 63.9466 37.2809 65.3603C37.2809 65.74 37.3623 66.0997 37.5084 66.4219C37.5084 66.4219 40.4231 71.5298 41.8747 74.2574C47.0659 84.0087 54.1571 97.3318 71.5253 97.3318C78.4772 97.3318 92.6021 94.1683 103.531 86.9622C136.507 65.2217 178.677 28 180.828 25.5771Z" fill="#1F184E"/>
</svg>
