<svg width="172" height="93" viewBox="0 0 172 93" fill="none" xmlns="http://www.w3.org/2000/svg">
<g clip-path="url(#clip0)">
<path d="M0.102539 79.4824H4.44326L7.43532 87.965H7.4767L10.4868 79.4824H14.812V92.4918H11.9441V82.5132H11.9001L8.48688 92.4918H6.29847L3.01183 82.5132H2.96793V92.4918H0.102539V79.4824Z" fill="#F15E2F"/>
<path d="M36.5711 87.3087H33.393L34.9743 83.2702L36.5711 87.3087ZM28.2461 92.4918H31.4061L32.4913 89.7401H37.5478L38.6717 92.4918H41.9092L36.243 79.4824H33.871L28.2461 92.4918Z" fill="#F15E2F"/>
<path d="M58.5744 81.9086H60.4528C61.5018 81.9086 62.6749 82.1101 62.6749 83.4175C62.6749 84.8309 61.3158 84.8618 60.2642 84.8618H58.5744V81.9086ZM55.709 92.4918H58.5744V87.2829H59.9955L62.7188 92.4918H66.1501L62.8376 87.0012C64.6799 86.6627 65.6462 85.2598 65.6462 83.4227C65.6462 80.3945 63.4113 79.4824 60.7526 79.4824H55.709V92.4918Z" fill="#F15E2F"/>
<path d="M78.8369 79.4824H82.108L85.3223 88.0089H85.361L88.6321 79.4824H91.7068L86.3351 92.4918H84.0355L78.8369 79.4824Z" fill="#F15E2F"/>
<path d="M104.573 79.4824H113.405V82.1308H107.428V84.557H113.076V87.2028H107.428V89.8408H113.738V92.4918H104.573V79.4824Z" fill="#F15E2F"/>
<path d="M128.649 79.4824H131.523V89.8408H136.825V92.4918H128.649V79.4824Z" fill="#F15E2F"/>
<path d="M151.018 79.4824H153.883V89.8408H159.203V92.4918H151.018V79.4824Z" fill="#F15E2F"/>
<path d="M167.554 78.0332C169.98 78.0332 171.918 80.0176 171.918 82.4386C171.918 84.9216 169.98 86.8801 167.528 86.8801C165.097 86.8801 163.112 84.9216 163.112 82.4386C163.112 80.0176 165.097 78.0332 167.528 78.0332H167.554ZM167.507 78.9168C165.662 78.9168 164.172 80.5059 164.172 82.4644C164.172 84.4514 165.662 85.9965 167.528 85.9965C169.386 86.0171 170.9 84.4514 170.9 82.4644C170.9 80.5059 169.386 78.9168 167.528 78.9168H167.507ZM166.761 85.012H165.717V80.1132C166.115 80.0512 166.544 79.9762 167.29 79.9762C168.135 79.9762 168.644 80.1132 168.972 80.3638C169.249 80.5808 169.412 80.9193 169.412 81.4283C169.412 82.02 168.998 82.4231 168.469 82.5652V82.6091C168.897 82.6866 169.174 83.069 169.249 83.8002C169.35 84.5573 169.45 84.8622 169.528 85.012H168.443C168.337 84.8363 168.251 84.4075 168.158 83.746C168.083 83.2163 167.755 82.9941 167.226 82.9941H166.761V85.012ZM166.761 82.1854H167.257C167.861 82.1854 168.337 82.0045 168.337 81.48C168.337 81.0769 168.039 80.7591 167.332 80.7591C167.073 80.7591 166.903 80.7591 166.761 80.7746V82.1854Z" fill="#F15E2F"/>
<path d="M65.7576 0.193359L0 65.9509H36.7545L65.7576 36.7541H90.1098L88.1074 38.6919H65.7576V45.8619H81.002L79.1287 47.7352H65.7576V54.8406H71.9587L70.0854 56.7139H65.7576V61.0417L60.8484 65.9509H97.6674L126.671 36.7541H159.226V0.193359H126.735H126.671L98.3134 28.5505V0.193359H65.8222H65.7576ZM68.0184 2.45418H96.0526V34.5578H68.0184V2.45418ZM128.931 2.45418H156.966V34.5578H128.931V2.45418ZM126.671 38.6919V45.8619H159.226V38.6919H126.671ZM68.0184 40.9527H96.0526V43.6011H68.0184V40.9527ZM128.931 40.9527H156.966V43.6011H128.931V40.9527ZM126.671 47.7352V54.8406H159.226V47.7352H126.671ZM68.0184 49.996H96.0526V52.5798H68.0184V49.996ZM128.931 49.996H156.966V52.5798H128.931V49.996ZM126.671 56.7139V63.8193H159.226V56.7139H126.671ZM68.0184 58.9747H96.0526V61.6231H68.0184V58.9747ZM128.931 58.9747H156.966V61.6231H128.931V58.9747Z" fill="black"/>
<path d="M167.554 0C169.98 0 171.918 1.97146 171.918 4.41573C171.918 6.87808 169.98 8.84691 167.528 8.84691C165.097 8.84691 163.112 6.87808 163.112 4.41573C163.112 1.97146 165.097 0 167.528 0H167.554ZM167.507 0.883638C165.662 0.883638 164.172 2.47273 164.172 4.43125C164.172 6.41302 165.662 7.97362 167.528 7.97362C169.386 7.97878 170.9 6.41302 170.9 4.43125C170.9 2.47273 169.386 0.883638 167.528 0.883638H167.507ZM166.761 6.98918H165.717V2.07479C166.115 2.01795 166.544 1.94302 167.29 1.94302C168.135 1.94302 168.644 2.07479 168.972 2.32541C169.249 2.54762 169.412 2.88096 169.412 3.3848C169.412 3.97648 168.998 4.39503 168.469 4.52164V4.56554C168.897 4.64823 169.174 5.03582 169.249 5.7567C169.35 6.53442 169.45 6.81606 169.528 6.98918H168.443C168.337 6.80314 168.251 6.38199 168.158 5.70245C168.083 5.17794 167.755 4.96087 167.226 4.96087H166.761V6.98918ZM166.761 4.15218H167.257C167.861 4.15218 168.337 3.96098 168.337 3.4468C168.337 3.0334 168.039 2.72333 167.332 2.72333C167.073 2.72333 166.903 2.72335 166.761 2.74919V4.15218Z" fill="#292526"/>
</g>
<defs>
<clipPath id="clip0">
<rect width="172" height="92.4288" fill="white"/>
</clipPath>
</defs>
</svg>
