<svg width="240" height="56" viewBox="0 0 240 56" fill="none" xmlns="http://www.w3.org/2000/svg">
<g clip-path="url(#clip0)">
<path d="M70.0234 6.82324H83.0117C92.3294 6.82324 98.6823 11.6233 98.6823 19.8115V19.9527C98.6823 28.8468 91.0588 33.5057 82.1646 33.5057H73.1293V49.1763H70.0234V6.82324ZM82.447 30.5409C90.3529 30.5409 95.5764 26.4468 95.5764 20.0939V19.9527C95.5764 13.1762 90.3529 9.64678 82.7294 9.64678H73.1293V30.3998H82.447V30.5409Z" fill="black"/>
<path d="M99.6699 40.2815C99.6699 33.7874 105.176 30.1168 113.223 30.1168C117.458 30.1168 120.423 30.6815 123.388 31.3874V30.1168C123.388 23.905 119.576 20.6579 113.223 20.6579C109.411 20.6579 106.446 21.6462 103.482 23.1991L102.352 20.6579C105.741 19.105 109.129 17.9756 113.364 17.9756C117.599 17.9756 120.846 19.105 123.105 21.3638C125.223 23.4815 126.211 26.305 126.211 30.1168V49.1757H123.246V44.0933C121.129 47.058 117.317 50.0227 111.388 50.0227C105.882 49.8815 99.6699 46.6345 99.6699 40.2815ZM123.529 37.5992V34.0697C120.988 33.3639 117.458 32.658 113.082 32.658C106.588 32.658 102.917 35.6227 102.917 39.858V39.9992C102.917 44.5168 107.152 47.058 111.811 47.058C118.164 47.1992 123.529 43.2462 123.529 37.5992Z" fill="black"/>
<path d="M130.165 18.4004H133.13V27.1534C135.53 21.6475 142.165 18.4004 148.377 18.4004V21.0827H148.094C140.894 21.0827 133.13 26.4475 133.13 36.471V49.1769H130.165V18.4004V18.4004Z" fill="black"/>
<path d="M152.048 18.4V8.51758H155.013V18.4H165.883V21.0823H155.013V40.9882C155.013 45.3647 157.554 46.9177 161.224 46.9177C162.777 46.9177 164.048 46.6353 165.742 45.7882V48.6118C164.189 49.3177 162.636 49.7412 160.66 49.7412C155.86 49.7412 152.048 47.2 152.048 41.2706V21.0823" fill="black"/>
<path d="M175.199 34.2108C175.199 25.599 181.976 18.2578 190.446 18.2578C196.093 18.2578 199.623 20.799 202.446 23.7637L200.329 25.8814C197.787 23.199 194.823 20.9402 190.305 20.9402C183.529 20.9402 178.164 26.7284 178.164 33.9284V34.0696C178.164 41.2696 183.67 47.0579 190.587 47.0579C194.823 47.0579 198.07 44.7991 200.611 41.9755L202.588 43.8108C199.482 47.3402 195.811 49.7402 190.305 49.7402C181.835 49.8814 175.199 42.6814 175.199 34.2108Z" fill="black"/>
<path d="M205.836 5.12891H208.801V49.1761H205.836V5.12891Z" fill="black"/>
<path d="M211.906 34.2122C211.906 25.3181 217.977 18.4004 226.165 18.4004C234.636 18.4004 240 25.3181 240 34.2122C240 34.7769 240 34.9181 240 35.3416H215.153C215.718 42.824 221.083 47.2005 226.871 47.2005C231.53 47.2005 234.636 45.0828 237.177 42.5416L239.153 44.3769C236.047 47.624 232.518 50.024 226.73 50.024C218.824 49.8828 211.906 43.5299 211.906 34.2122ZM236.895 32.6592C236.471 26.5886 232.942 20.9416 226.165 20.9416C220.236 20.9416 215.577 26.0239 215.153 32.6592H236.895Z" fill="black"/>
<path d="M172.094 18.4004H169.129V49.3181H172.094V18.4004Z" fill="black"/>
<path d="M172.094 8.51758H169.129V13.4588H172.094V8.51758Z" fill="black"/>
<path d="M55.4827 27.9994L40.6591 31.1053L38.6826 27.9994L40.6591 24.8936L55.4827 27.9994Z" fill="#00AEEF"/>
<path d="M27.8125 38.8701L30.9184 40.9878L27.8125 55.8113L24.5654 40.9878L27.8125 38.8701Z" fill="#00AEEF"/>
<path d="M27.8125 0.1875L30.9184 15.0111L27.8125 17.1287L24.5654 15.0111L27.8125 0.1875Z" fill="#00AEEF"/>
<path d="M14.8236 24.8936L16.8 27.9994L14.8236 31.1053L0 27.9994L14.8236 24.8936Z" fill="#00AEEF"/>
<path d="M47.2935 8.375L34.7287 27.9986L47.2935 47.6222L27.8111 34.9162L8.1875 47.6222L20.7522 27.9986L8.1875 8.375L27.8111 21.0809L47.2935 8.375Z" fill="#00AEEF"/>
</g>
<defs>
<clipPath id="clip0">
<rect width="240" height="56" fill="white"/>
</clipPath>
</defs>
</svg>
