<svg width="487" height="487" viewBox="0 0 487 487" fill="none" xmlns="http://www.w3.org/2000/svg">
<path d="M243.486 0C109.013 0 0 109.013 0 243.486C0 377.959 109.016 486.972 243.486 486.972C377.956 486.972 486.972 377.96 486.972 243.486C486.972 109.012 377.96 0 243.486 0ZM243.486 458.381C124.804 458.381 28.592 362.169 28.592 243.486C28.592 124.803 124.804 28.592 243.486 28.592C362.168 28.592 458.386 124.804 458.386 243.486C458.386 362.168 362.169 458.381 243.486 458.381Z" fill="#98999A"/>
<path d="M96.8416 334.529H88.5463V357.536H85.1608V334.529H76.8832V331.728H96.8416V334.529ZM110.135 347.096H104.073V357.536H100.653V331.728H109.196C112.103 331.728 114.336 332.39 115.896 333.714C117.468 335.037 118.254 336.963 118.254 339.492C118.254 341.099 117.816 342.499 116.942 343.693C116.079 344.886 114.874 345.778 113.326 346.369L119.388 357.323V357.536H115.737L110.135 347.096ZM104.073 344.313H109.302C110.992 344.313 112.333 343.876 113.326 343.002C114.33 342.127 114.833 340.957 114.833 339.492C114.833 337.897 114.354 336.674 113.397 335.823C112.452 334.972 111.081 334.541 109.285 334.529H104.073V344.313ZM137.29 350.801H126.478L124.05 357.536H120.54L130.395 331.728H133.373L143.246 357.536H139.754L137.29 350.801ZM127.506 348H136.28L131.884 335.929L127.506 348ZM166.554 357.536H163.133L150.141 337.649V357.536H146.72V331.728H150.141L163.169 351.705V331.728H166.554V357.536ZM180.203 346.033C177.284 345.194 175.157 344.166 173.822 342.948C172.498 341.719 171.837 340.207 171.837 338.411C171.837 336.378 172.646 334.7 174.265 333.377C175.896 332.042 178.011 331.374 180.61 331.374C182.383 331.374 183.96 331.717 185.343 332.402C186.737 333.087 187.813 334.033 188.569 335.238C189.337 336.443 189.721 337.761 189.721 339.191H186.3C186.3 337.631 185.804 336.408 184.811 335.522C183.819 334.623 182.418 334.174 180.61 334.174C178.932 334.174 177.621 334.547 176.675 335.291C175.742 336.024 175.275 337.046 175.275 338.358C175.275 339.409 175.718 340.301 176.605 341.034C177.503 341.755 179.021 342.417 181.16 343.019C183.311 343.622 184.989 344.29 186.194 345.022C187.411 345.743 188.309 346.588 188.888 347.557C189.479 348.526 189.774 349.666 189.774 350.978C189.774 353.069 188.959 354.747 187.328 356.012C185.698 357.264 183.517 357.891 180.788 357.891C179.015 357.891 177.361 357.554 175.825 356.88C174.288 356.195 173.101 355.261 172.262 354.08C171.435 352.898 171.021 351.557 171.021 350.056H174.442C174.442 351.616 175.015 352.851 176.161 353.761C177.319 354.659 178.862 355.108 180.788 355.108C182.584 355.108 183.96 354.741 184.918 354.009C185.875 353.276 186.353 352.278 186.353 351.013C186.353 349.749 185.91 348.774 185.024 348.089C184.138 347.391 182.531 346.706 180.203 346.033ZM208.386 346.139H197.556V357.536H194.152V331.728H210.14V334.529H197.556V343.356H208.386V346.139ZM234.069 345.465C234.069 347.994 233.644 350.204 232.793 352.095C231.942 353.973 230.737 355.409 229.177 356.402C227.617 357.394 225.798 357.891 223.718 357.891C221.685 357.891 219.883 357.394 218.312 356.402C216.74 355.397 215.517 353.973 214.643 352.13C213.78 350.275 213.337 348.13 213.313 345.696V343.835C213.313 341.353 213.745 339.161 214.607 337.259C215.47 335.356 216.687 333.903 218.259 332.898C219.842 331.882 221.65 331.374 223.682 331.374C225.75 331.374 227.57 331.876 229.142 332.881C230.725 333.873 231.942 335.321 232.793 337.223C233.644 339.114 234.069 341.318 234.069 343.835V345.465ZM230.684 343.799C230.684 340.739 230.069 338.393 228.84 336.762C227.611 335.12 225.892 334.299 223.682 334.299C221.532 334.299 219.836 335.12 218.595 336.762C217.366 338.393 216.734 340.662 216.699 343.569V345.465C216.699 348.431 217.319 350.765 218.56 352.467C219.812 354.157 221.532 355.001 223.718 355.001C225.916 355.001 227.617 354.204 228.823 352.609C230.028 351.001 230.648 348.703 230.684 345.713V343.799ZM248.639 347.096H242.577V357.536H239.156V331.728H247.7C250.607 331.728 252.84 332.39 254.4 333.714C255.972 335.037 256.757 336.963 256.757 339.492C256.757 341.099 256.32 342.499 255.446 343.693C254.583 344.886 253.378 345.778 251.83 346.369L257.892 357.323V357.536H254.24L248.639 347.096ZM242.577 344.313H247.806C249.496 344.313 250.837 343.876 251.83 343.002C252.834 342.127 253.337 340.957 253.337 339.492C253.337 337.897 252.858 336.674 251.901 335.823C250.955 334.972 249.585 334.541 247.789 334.529H242.577V344.313ZM265.939 331.728L274.376 352.786L282.813 331.728H287.227V357.536H283.824V347.486L284.143 336.638L275.67 357.536H273.065L264.61 336.691L264.946 347.486V357.536H261.543V331.728H265.939ZM307.823 345.607H296.639V354.753H309.631V357.536H293.236V331.728H309.454V334.529H296.639V342.824H307.823V345.607ZM323.333 347.096H317.271V357.536H313.85V331.728H322.393C325.3 331.728 327.534 332.39 329.094 333.714C330.665 335.037 331.451 336.963 331.451 339.492C331.451 341.099 331.014 342.499 330.139 343.693C329.277 344.886 328.071 345.778 326.523 346.369L332.585 357.323V357.536H328.934L323.333 347.096ZM317.271 344.313H322.5C324.19 344.313 325.531 343.876 326.523 343.002C327.528 342.127 328.03 340.957 328.03 339.492C328.03 337.897 327.551 336.674 326.594 335.823C325.649 334.972 324.278 334.541 322.482 334.529H317.271V344.313ZM343.841 346.033C340.922 345.194 338.795 344.166 337.46 342.948C336.136 341.719 335.475 340.207 335.475 338.411C335.475 336.378 336.284 334.7 337.903 333.377C339.534 332.042 341.649 331.374 344.249 331.374C346.021 331.374 347.599 331.717 348.981 332.402C350.376 333.087 351.451 334.033 352.207 335.238C352.975 336.443 353.359 337.761 353.359 339.191H349.938C349.938 337.631 349.442 336.408 348.449 335.522C347.457 334.623 346.056 334.174 344.249 334.174C342.571 334.174 341.259 334.547 340.314 335.291C339.38 336.024 338.913 337.046 338.913 338.358C338.913 339.409 339.356 340.301 340.243 341.034C341.141 341.755 342.659 342.417 344.798 343.019C346.949 343.622 348.627 344.29 349.832 345.022C351.049 345.743 351.947 346.588 352.526 347.557C353.117 348.526 353.412 349.666 353.412 350.978C353.412 353.069 352.597 354.747 350.966 356.012C349.336 357.264 347.155 357.891 344.426 357.891C342.653 357.891 340.999 357.554 339.463 356.88C337.927 356.195 336.739 355.261 335.9 354.08C335.073 352.898 334.659 351.557 334.659 350.056H338.08C338.08 351.616 338.653 352.851 339.8 353.761C340.958 354.659 342.5 355.108 344.426 355.108C346.222 355.108 347.599 354.741 348.556 354.009C349.513 353.276 349.991 352.278 349.991 351.013C349.991 349.749 349.548 348.774 348.662 348.089C347.776 347.391 346.169 346.706 343.841 346.033Z" fill="black"/>
<path d="M206.473 177.038C192.296 164.094 172.008 161.505 165.318 160.651C164.396 160.534 163.631 160.451 163.118 160.399H76.8975V323.259L130.845 323.252L131.979 279.892C142.529 281.323 153.231 281.196 163.743 279.514C174.921 277.714 187.926 275.626 200.423 265.901C204.223 262.944 218.378 251.53 222.733 231.112C226.971 211.235 220.446 189.796 206.473 177.038ZM169.037 230.103C165.884 237.008 158.407 241.381 150.13 241.132L131.16 240.88V204.264H151.327C152.25 204.181 153.179 204.181 154.101 204.264C157.238 204.61 160.236 205.746 162.815 207.564C165.394 209.383 167.469 211.825 168.848 214.664C169.207 215.414 172.481 222.562 169.037 230.103Z" fill="#221F1F"/>
<path d="M305.318 206.917H252.072V323.258H305.318V206.917Z" fill="#221F1F"/>
<path d="M186.204 160.399C189.859 160.76 193.446 161.623 196.865 162.962C220.365 172.195 227.874 201.282 229.228 206.918H352.207V160.399H186.204Z" fill="#221F1F"/>
<path d="M411.315 160.399H358.069V323.258H411.315V160.399Z" fill="#221F1F"/>
<path d="M278.78 103.811L272.351 101.92L276.133 89.4419L263.534 90.8279L262.645 85.282L254.201 95.996L256.091 75.325L249.788 79.106L243.486 66.8789L237.184 79.106L230.881 75.325L232.772 95.996L224.327 85.282L223.438 90.8279L210.84 89.4419L214.621 101.92L208.193 103.811L227.478 117.424L225.714 124.609L241.722 122.088V138.474H243.486H245.251V122.088L261.259 124.609L259.495 117.424L278.78 103.811Z" fill="#AA202F"/>
</svg>
