<?xml version="1.0" standalone="no"?>
<!DOCTYPE svg PUBLIC "-//W3C//DTD SVG 20010904//EN"
 "http://www.w3.org/TR/2001/REC-SVG-20010904/DTD/svg10.dtd">
<svg version="1.0" xmlns="http://www.w3.org/2000/svg"
 width="1375.000000pt" height="1375.000000pt" viewBox="0 0 1375.000000 1375.000000"
 preserveAspectRatio="xMidYMid meet">
<metadata>
Created by potrace 1.11, written by Peter Selinger 2001-2013
</metadata>
<g transform="translate(0.000000,1375.000000) scale(0.100000,-0.100000)"
fill="#000000" stroke="none">
<path d="M3043 10982 c-23 -2 -34 -10 -39 -25 -7 -24 -70 -196 -174 -477 -37
-102 -159 -432 -270 -735 -111 -302 -212 -578 -226 -612 -13 -34 -24 -66 -24
-72 0 -6 -4 -19 -10 -29 -5 -9 -91 -240 -191 -512 -150 -410 -333 -910 -534
-1455 -18 -49 -66 -178 -105 -285 -40 -107 -79 -213 -86 -235 -7 -22 -61 -168
-119 -325 -58 -157 -108 -292 -110 -300 -2 -8 -35 -98 -73 -200 -38 -102 -154
-414 -256 -695 -190 -518 -201 -548 -255 -690 -16 -44 -82 -224 -147 -400 -64
-176 -143 -392 -176 -480 -66 -179 -163 -443 -213 -581 l-33 -92 30 -6 c17 -3
2426 -6 5353 -6 l5323 0 37 103 c21 56 80 219 132 362 52 143 101 274 109 292
8 17 14 36 14 42 0 6 7 25 15 43 8 18 37 94 64 168 69 191 297 811 401 1095
351 954 468 1271 662 1800 122 330 268 728 326 885 57 157 119 326 137 375 18
50 89 243 158 430 69 187 166 453 216 590 51 138 95 257 98 265 3 8 7 17 8 20
1 3 5 14 9 25 31 80 198 537 217 590 9 28 101 277 204 555 103 278 191 518
197 533 6 15 8 31 5 34 -6 5 -10616 11 -10674 5z m9997 -443 c0 -5 -42 -123
-120 -339 -23 -63 -47 -131 -54 -150 -106 -293 -189 -519 -196 -535 -7 -15
-191 -522 -283 -780 -56 -155 -107 -294 -115 -315 -6 -14 -25 -65 -42 -115
-17 -49 -35 -99 -40 -110 -5 -11 -58 -155 -117 -320 l-108 -300 -1718 -3
c-944 -1 -1717 -3 -1717 -5 0 -3 -18 -53 -400 -1102 -167 -456 -317 -870 -335
-920 -49 -136 -121 -333 -180 -495 -29 -80 -126 -345 -215 -590 -89 -245 -179
-492 -200 -550 -81 -221 -228 -626 -234 -647 -5 -15 -16 -23 -29 -24 -104 -2
-2949 0 -2952 2 -2 2 37 114 86 249 49 135 96 263 104 285 7 22 37 103 65 180
29 77 69 187 90 245 21 58 56 155 78 215 22 61 58 160 80 220 22 61 95 261
162 445 68 184 129 353 137 375 41 117 436 1203 443 1220 5 11 27 72 50 135
23 63 60 163 81 222 22 58 44 119 49 135 4 15 38 108 74 207 36 98 66 182 66
187 0 5 -731 9 -1710 9 -940 0 -1710 2 -1710 4 0 6 118 336 130 361 4 11 58
160 120 330 61 171 115 319 120 330 4 11 34 92 65 180 31 88 63 176 71 195 20
52 305 832 309 850 2 8 27 76 55 150 28 74 53 142 55 150 2 8 25 71 50 140 26
69 51 139 57 155 5 17 19 53 30 80 l20 50 4914 0 c2703 0 4914 -3 4914 -6z
m-8170 -3427 c0 -7 -8 -34 -19 -60 -10 -26 -44 -121 -75 -212 -32 -91 -63
-181 -71 -200 -7 -19 -32 -89 -54 -155 -47 -134 -87 -247 -156 -440 -25 -71
-47 -134 -48 -140 -2 -5 -12 -37 -24 -70 -28 -78 -67 -187 -149 -420 -36 -104
-86 -246 -110 -315 -25 -69 -54 -152 -65 -185 -55 -162 -103 -291 -110 -299
-5 -5 -392 -9 -935 -9 l-926 0 -15 -36 c-14 -32 -193 -522 -278 -756 -17 -49
-72 -199 -120 -332 l-88 -243 -51 -1 c-250 -3 -969 1 -973 5 -5 4 105 320 168
481 22 57 269 735 273 750 2 6 6 17 9 25 10 23 68 184 71 195 2 6 7 21 13 35
6 14 20 52 31 85 12 33 33 92 47 130 15 39 30 81 35 95 4 14 60 169 125 345
65 176 134 366 154 421 262 733 478 1314 490 1316 8 2 653 3 1433 3 1166 0
1418 -2 1418 -13z m6820 -18 c0 -2 -91 -277 -97 -294 -3 -8 -37 -107 -75 -220
-38 -112 -74 -207 -80 -211 -6 -4 -215 -7 -465 -6 -249 0 -455 -2 -458 -5 -3
-2 -30 -74 -61 -159 -30 -85 -68 -188 -83 -229 -16 -41 -62 -169 -104 -285
-41 -115 -107 -298 -146 -405 -38 -107 -76 -213 -84 -235 -8 -22 -36 -98 -62
-170 -26 -71 -76 -211 -111 -310 -36 -99 -69 -189 -74 -200 -13 -31 -130 -361
-130 -368 0 -4 206 -7 459 -7 l459 0 -114 -312 c-63 -172 -121 -331 -129 -353
l-15 -40 -1394 0 c-767 0 -1398 3 -1401 7 -4 4 2 31 13 60 64 168 202 535 228
608 l12 35 463 5 464 5 133 370 c73 204 139 386 147 405 8 19 51 136 95 260
44 124 89 248 100 275 15 40 307 843 366 1008 l14 38 -465 -4 c-255 -2 -467
-2 -469 1 -3 2 1 21 9 41 8 20 44 119 80 221 134 375 168 465 175 470 7 4
2800 8 2800 4z"/>
<path d="M2642 5923 c-73 -203 -140 -392 -151 -420 -11 -29 -19 -54 -18 -54 1
-1 177 -2 390 -3 257 -1 391 2 397 9 7 9 53 124 64 160 2 6 6 17 9 25 8 20
180 472 218 573 l28 77 -403 0 -403 0 -131 -367z"/>
</g>
</svg>
