<svg width="461" height="85" viewBox="0 0 461 85" fill="none" xmlns="http://www.w3.org/2000/svg">
<g clip-path="url(#clip0)">
<path d="M124.428 24.2972C125.663 24.2972 126.722 25.2973 126.722 26.5916V70.4207C126.722 71.6562 125.604 72.6563 124.428 72.6563H118.486C117.368 72.6563 116.25 71.7739 116.25 70.5384V66.4791C113.25 70.8914 108.073 73.9506 100.542 73.9506C87.9524 73.9506 80.1867 65.5966 80.1867 53.1833V26.474C80.1867 25.2385 81.3045 24.2384 82.4811 24.2384H88.423C89.6585 24.2384 90.6586 25.2385 90.6586 26.474V51.4772C90.6586 59.537 94.8945 64.8906 103.248 64.8906C111.426 64.8906 116.25 59.3605 116.25 51.5948V26.474C116.25 25.2385 117.368 24.2384 118.486 24.2384H124.428V24.2972ZM36.7694 0C16.4139 0 0 15.8255 0 36.9459C0 58.1251 16.4139 73.8918 36.7694 73.8918C40.2404 73.8918 43.5938 73.4211 46.7707 72.5387L50.7712 82.8341C51.183 83.9519 52.0066 84.6579 53.4774 84.6579H59.8312C61.3608 84.6579 62.4786 83.6577 61.7726 81.7163L56.5955 68.244C66.7732 61.8314 73.5388 50.477 73.5388 36.8871C73.5388 15.8255 57.1249 0 36.7694 0ZM52.7714 58.4192L48.1238 46.3589C47.712 45.3587 46.8883 44.4174 45.1234 44.4174H39.0638C37.5342 44.4174 36.3576 45.4176 37.0636 47.359L43.182 63.1845C41.1817 63.714 39.005 63.9493 36.7694 63.9493C21.8851 63.9493 11.2956 52.242 11.2956 36.9459C11.2956 21.6498 21.8851 9.94244 36.7694 9.94244C51.6536 9.94244 62.2432 21.6498 62.2432 36.9459C62.2432 45.8882 58.6545 53.5362 52.7714 58.4192V58.4192ZM460.823 70.1854C461.353 71.4209 460.706 72.5975 459.235 72.5975H452.587C451.352 72.5975 450.352 72.0092 449.94 70.7737L437.644 37.7107L425.172 70.7737C424.642 72.068 423.76 72.5975 422.525 72.5975H416.583C415.347 72.5975 414.465 72.068 413.935 70.7737L401.345 37.5342L388.932 70.7737C388.402 72.0092 387.52 72.5975 386.285 72.5975H380.048C378.813 72.5975 377.931 72.0092 377.401 70.7737L365.105 37.5342L352.398 70.7737C351.868 72.068 350.986 72.5975 349.751 72.5975H343.809C342.573 72.5975 341.691 72.068 341.161 70.7737L328.748 37.5342L316.334 70.7737C315.923 72.0092 314.923 72.5975 313.687 72.5975H307.216C305.686 72.5975 305.098 71.362 305.627 70.1854L322.453 26.1798C322.982 24.8855 323.865 24.2384 325.1 24.2384H332.337C333.572 24.2384 334.454 24.8267 334.984 26.1798L347.103 58.3016L359.105 26.1798C359.634 24.8855 360.517 24.2384 361.752 24.2384H368.871C370.106 24.2384 370.989 24.8267 371.518 26.1798L383.402 58.3016L395.286 26.1798C395.815 24.8855 396.698 24.2384 397.933 24.2384H405.111C406.346 24.2384 407.228 24.8267 407.758 26.1798L419.818 58.3016L431.584 26.1798C432.114 24.8855 432.996 24.2384 434.232 24.2384H441.468C442.704 24.2384 443.586 24.8267 444.116 26.1798L460.823 70.1854V70.1854ZM182.023 24.2972H176.081C174.846 24.2972 173.787 25.2973 173.787 26.5916V30.5921C170.786 26.0621 164.903 22.8264 157.961 22.8264C144.842 22.8264 133.605 33.1807 133.605 48.3003C133.605 63.5963 144.901 73.8918 157.902 73.8918C164.962 73.8918 170.669 70.6561 173.846 66.1261V70.3619C173.846 71.5974 174.963 72.5975 176.14 72.5975H182.082C183.318 72.5975 184.318 71.5974 184.318 70.3619V26.5916C184.259 25.2973 183.259 24.2972 182.023 24.2972V24.2972ZM159.079 64.2435C150.431 64.2435 144.254 57.1838 144.254 48.4179C144.254 39.5345 150.372 32.7101 159.079 32.7101C167.668 32.7101 173.905 39.5345 173.905 48.4179C173.846 57.2426 167.61 64.2435 159.079 64.2435ZM252.915 65.7731C254.209 67.3615 253.091 68.597 252.385 69.1265C248.267 72.2445 242.796 73.9506 236.854 73.9506C221.852 73.9506 211.851 62.9492 211.851 48.4768C211.851 34.0043 221.852 22.8853 236.854 22.8853C242.796 22.8853 248.208 24.5914 252.385 27.7094C253.091 28.2389 254.091 29.2979 252.915 31.0628L250.091 35.0045C248.973 36.5341 247.679 36.1223 246.561 35.4163C243.913 33.8278 240.795 32.4747 237.207 32.4747C228.441 32.4747 222.617 39.5345 222.617 48.4768C222.617 57.4191 228.441 64.42 237.207 64.42C240.854 64.42 243.737 63.008 246.384 61.4784C247.502 60.8901 248.679 60.3606 249.914 62.0079L252.915 65.7731V65.7731ZM280.918 22.9441C266.799 22.9441 255.562 34.0043 255.562 48.4179C255.562 62.9492 266.858 73.8918 280.918 73.8918C295.038 73.8918 306.274 62.8904 306.274 48.4179C306.333 34.0632 295.038 22.9441 280.918 22.9441ZM280.918 64.1847C272.27 64.1847 266.093 57.2426 266.093 48.4768C266.093 39.5933 272.211 32.7689 280.918 32.7689C289.566 32.7689 295.744 39.5933 295.744 48.4768C295.744 57.2426 289.625 64.1847 280.918 64.1847ZM202.849 1.29428C204.144 1.29428 205.085 2.41207 205.085 3.58869V70.3031C205.085 71.5385 204.203 72.5975 202.849 72.5975H196.907C195.672 72.5975 194.613 71.4797 194.613 70.3031V3.64752C194.613 2.41207 195.731 1.35311 196.907 1.35311H202.849" fill="#3354DD"/>
</g>
<defs>
<clipPath id="clip0">
<rect width="461" height="84.7167" fill="white"/>
</clipPath>
</defs>
</svg>
