<?xml version="1.0" encoding="UTF-8"?>
<svg width="162px" height="59px" viewBox="0 0 162 59" version="1.1" xmlns="http://www.w3.org/2000/svg" xmlns:xlink="http://www.w3.org/1999/xlink">
    <!-- Generator: Sketch 54.1 (76490) - https://sketchapp.com -->
    <title>Group 2</title>
    <desc>Created with Sketch.</desc>
    <g id="LOGO" stroke="none" stroke-width="1" fill="none" fill-rule="evenodd">
        <g id="Artboard-Copy-3" transform="translate(-43.000000, -43.000000)">
            <g id="Group-2" transform="translate(43.000000, 43.000000)">
                <g id="Group">
                    <path d="M45,51.7731737 C45,53.7229901 44.1982576,54.8555393 42.6336237,55.4543989 C36.5516835,57.793474 29.3501295,59 22.5,59 C15.6498705,59 8.44831646,57.793474 2.36461031,55.4543989 C0.801742406,54.8555393 0,53.7229901 0,51.7731737 L0,0 L45,0 L45,51.7731737 Z" id="Fill-20" fill="#0051A5"></path>
                    <path d="M11.7544077,30.8377167 C5.36795959,26.8503061 3.25664729,25.0829525 3.07738492,22.4681383 C3.0466025,21.9357592 3.16792147,21.0394067 3.39064138,20.4001897 L2.78766797,20 C2.30601353,20.765974 2,21.7782185 2,22.7053548 C2,24.2173838 2.48346517,25.3618177 3.07738492,26.2744675 C3.97550748,27.6579288 4.92070904,28.5253083 7.24387687,30.2691213 C9.75173925,32.1505562 11.4610693,34.3452617 12.4461069,36.6431836 L12.8028209,36.6431836 L12.8028209,34.0356127 C16.1888878,35.9586962 19.1765939,37.7676985 20.643286,41 L21,41 C20.4241876,37.6499957 18.530163,35.0677761 11.7544077,30.8377167" id="Fill-22" fill="#FEDF01"></path>
                    <path d="M29.7960471,22.8761369 C28.4318056,23.484248 27.4916807,24.3085373 26.6540505,25.4948811 L29.4408495,25.3490048 C29.53981,24.1187223 29.702388,23.3014632 29.7960471,22.8761369 L29.7960471,22.8761369 Z M39.84054,32.769366 C40.1197501,32.0927106 40.2999996,31.4424184 40.3494799,30.6181291 L36.2779613,30.3878905 C36.0941774,31.521508 35.7902273,32.5074915 35.4668384,33.3159629 L39.84054,32.769366 Z M35.4332625,22.7197153 C35.7248426,23.4983084 35.9439695,24.2558109 36.1065475,24.9834351 L38.5010387,24.8533767 C37.6775458,23.9113318 36.6260902,23.1714047 35.4332625,22.7197153 L35.4332625,22.7197153 Z M34.3446968,25.0801002 C33.9364846,23.674063 33.4487506,22.6951096 33.1907464,22.2346325 C33.0281684,22.2258447 32.8620561,22.2205721 32.6959438,22.2205721 C32.4202681,22.2205721 32.1428252,22.255723 31.8759852,22.2856013 C31.478376,23.2698273 31.1567543,24.2645986 30.8934486,25.2716727 L34.3446968,25.0801002 Z M36.3433459,26.3560789 C36.4705808,27.3719408 36.4829509,28.324531 36.4193334,29.2033042 L40.3371098,28.9959137 C40.2363821,28.1118678 39.9836794,27.2717606 39.6037417,26.5054704 L36.3433459,26.3560789 Z M35.0109132,29.2753636 C34.973803,28.1663518 34.8324308,27.1627927 34.6468798,26.2787469 L30.6919932,26.0994771 C30.4198518,27.2981238 30.2413694,28.4668922 30.1565461,29.5319654 L35.0109132,29.2753636 Z M35.6188135,20.8602311 L36.0835745,20.213454 L35.3643436,19.2591063 L35.4845099,19.0499583 L37.5043649,20.1326069 L37.064344,21.4595545 C37.3877328,21.6142186 37.6881487,21.8128213 38.0875251,22.0746957 L39.3916834,19.9427919 L36.0146556,18.1870029 L28.5502048,18.1870029 L22.4924072,21.8128213 C23.6304532,22.5984446 24.6783744,23.4473395 25.4205783,24.3032646 C27.0445912,21.9551826 29.8967748,20.4559954 32.7206839,20.4559954 C33.6431374,20.4559954 34.719333,20.5526605 35.6188135,20.8602311 L35.6188135,20.8602311 Z M20.6846105,20.647568 L24.0280624,18.6545103 C23.3724489,18.3293642 22.6461494,18.1237313 21.7837791,18.113186 C20.6315959,18.093853 18.6859614,18.6228745 17.7458364,18.7652357 C18.1646515,19.0517158 19.6596622,20.0007909 20.6846105,20.647568 L20.6846105,20.647568 Z M21.3702655,13.1393295 C20.1827393,12.8809702 19.5218243,13.0268465 18.8379365,13.6736236 C19.1719282,13.8318028 19.5907433,13.9179226 20.0537372,13.8845292 C20.7199535,13.838833 21.1352343,13.4416275 21.3702655,13.1393295 L21.3702655,13.1393295 Z M40.2151763,41.2091041 L39.7945941,41.2091041 C39.7945941,38.8944154 37.6616414,38.2634562 35.4261939,38.2634562 L28.4441757,38.2634562 C28.668604,39.4041039 28.7746331,40.7398392 28.5996851,42 L28.2515561,42 C27.6047784,36.8011776 24.6501,34.2246144 20.5202653,31.4687816 L20.5202653,33.8344391 L20.1739035,33.8344391 C19.076502,31.3932071 16.6625721,29.1013665 14.3794115,27.475636 L14.3794115,27.475636 C13.7715112,27.0432796 13.1441722,26.5968628 12.5203674,26.1557186 L12.5203674,28.7076761 L12.1722385,28.7076761 C11.2038391,26.1750516 9.44552265,24.2874467 6.93970087,22.0377872 C4.23242374,19.6141307 3.1403237,18.1641548 2.50768322,16.4962432 C2.12244405,15.485654 2.01464776,14.6683949 2.00051055,13.5593831 C1.97400326,11.5751131 2.98304715,9.78241575 4.2412595,9.111033 L4.2412595,10.0724109 C3.61745479,10.8949427 3.29406594,11.9336526 3.29229879,12.989938 C3.29053163,13.9618612 3.52379572,15.0462674 4.01329687,15.9707369 C5.53658205,18.8566281 10.6719263,22.3998418 13.932322,24.5756843 C24.0740083,31.3387231 26.0973976,32.5197944 27.7814936,36.1104618 C27.9688117,36.5094248 28.1561299,37.0472341 28.3134064,37.6711631 C29.7783756,37.4461971 35.0922022,36.6429984 36.0712045,36.4883343 C36.2585226,36.458456 36.6508304,36.4092447 36.8540529,36.3969419 C37.7694377,35.8204666 38.4851343,35.0875698 39.1124733,34.1736456 L35.2247386,33.8731051 C35.0250504,34.3160069 34.8253622,34.6886067 34.6504141,34.9873896 L34.3340939,34.9873896 C34.440123,34.5936992 34.5337821,34.207039 34.6115368,33.8256514 L33.6201644,33.7518344 L33.6201644,33.5426864 L34.6945929,33.4108704 C34.8995826,32.315919 34.9985431,31.2824817 35.0197489,30.3140736 L30.1229702,30.0398963 C30.096463,30.5390395 30.0911615,31.0083044 30.108833,31.4441759 L29.7960471,31.4441759 C29.690018,30.9590931 29.608729,30.4775254 29.5451115,30.0065029 L28.4724501,29.9449888 L28.4724501,29.6198427 L29.4920969,29.5653588 C29.3507247,28.2770772 29.3401218,27.0731579 29.3931364,26.0414781 L26.5303499,25.9096621 C26.6664206,26.1609913 26.8060256,26.4140779 26.903219,26.6900127 C27.5217222,28.4071356 27.3750486,30.4212839 27.170059,31.3475109 L26.8236971,31.3475109 C26.7742169,30.2754075 26.4101835,28.9625203 26.067356,28.1610791 C25.2756718,26.3051101 23.4979167,24.6653192 20.5202653,22.7618964 L20.5202653,25.1328266 L20.1739035,25.1328266 C19.1825311,22.0166967 16.7173538,20.2819983 13.0522802,18.4102113 C10.0269157,16.8670855 9.08679076,15.0058438 9.25820452,12.1269827 L10.2796185,12.7280636 C10.541157,15.4223824 12.6228623,16.9760534 14.7999937,16.958478 C16.0811791,16.9496902 17.2810754,16.7809658 18.4438615,16.5489696 C20.1191218,16.2132783 21.6689142,15.9250406 22.9642368,16.3820027 L22.9642368,14.7914232 L21.9481243,14.7914232 C21.5840909,15.1042664 20.8471885,15.4680786 19.7603899,15.4838965 C18.5675622,15.5067446 16.3091417,14.8213015 16.3091417,12.3132827 C16.3091417,10.133925 18.1646515,9.78593084 19.6737994,9.78593084 C20.481388,9.78593084 21.8244236,9.75605255 22.2803489,9.7314469 C22.617875,9.71035634 22.8705777,9.6593875 23.0349229,9.49769322 C23.2063366,9.33072631 23.257584,9.15848675 23.2982285,8.93527835 C23.3459417,8.66637374 23.3459417,8.3886814 23.3459417,7.92117404 L23.3459417,6.33059449 L16.348019,6.33059449 L16.348019,9.08642735 L13.7008251,8.08462586 L13.7008251,7.42554594 L14.9678732,7.42554594 L14.9678732,6.33059449 L10.2478097,6.33059449 L10.2478097,4.04226899 L8.63793411,4.04226899 C7.777331,4.04226899 6.78595863,4.64159234 6.7170397,5.80333055 C6.64988792,6.91585746 7.15352629,7.85438728 8.30747665,7.85438728 L8.51423346,7.85438728 L8.51423346,9.18836504 L8.30747665,9.18836504 C6.28762172,9.18836504 4.76433655,7.67863263 4.76433655,5.67502966 C4.76433655,3.588822 6.55269455,2 8.7121545,2 L12.1262925,2 L12.1262925,4.2883255 L25.3976053,4.2883255 L25.3976053,7.6698449 C25.3976053,8.23928995 25.3675637,9.00558021 25.3110149,9.48890549 C25.2721375,9.84041478 25.1466697,10.4748891 24.4751519,10.98282 C24.0722412,11.2903906 23.4625737,11.4134189 22.4712013,11.416934 C22.1478125,11.4186915 21.2076875,11.4028736 20.0784773,11.3343293 C18.5675622,11.2394218 18.1381442,11.8194121 18.078061,12.3589789 C18.0639238,12.4732194 18.065691,12.5839448 18.078061,12.6893976 C18.786689,12.1445582 19.7868972,11.7596555 20.9249432,12.1146799 C22.9288937,12.7403664 23.4996839,12.7966079 24.5423037,11.9811064 L24.6483328,12.2148601 C24.5352351,12.3888572 24.3355469,12.6366712 24.0421996,12.8563645 L25.010599,12.8563645 L25.010599,18.0692473 L28.0218263,16.2747924 L36.472348,16.2747924 C36.472348,16.2747924 40.0455297,18.1307615 40.6339914,18.4365745 C41.151767,18.7072367 41.3567566,19.0358979 41.4380456,19.5174656 C41.5051974,19.9199438 41.4009354,20.4296322 41.2012472,20.7547783 C41.0775466,20.9586537 40.1056129,22.5422031 39.5931387,23.3875829 C41.0298335,24.9324663 42,27.096006 42,29.5056022 C42,31.6902324 41.18711,34.5058219 38.550519,36.5990597 C39.7097708,36.9769322 40.4537418,37.6043763 41.0351349,38.4339382 L40.2151763,41.2091041 Z" id="Fill-24" fill="#FEDF01"></path>
                    <path d="M22.4570871,51.9601386 L20.8389142,51.9601386 L20.8389142,47.4696707 L22.3819896,47.4696707 C24.5043888,47.4696707 25.3197334,48.0814558 25.3197334,49.6239168 C25.3197334,51.2911612 24.2558518,51.9601386 22.4570871,51.9601386 L22.4570871,51.9601386 Z M22.3283485,43.0485269 C23.6121586,43.0485269 24.4811443,43.3171577 24.4811443,44.6464471 C24.4811443,46.0623917 23.3153446,46.4523397 21.9850455,46.4523397 L20.8389142,46.4523397 L20.8389142,43.0485269 L22.3283485,43.0485269 Z M24.908485,46.8353553 C26.0581925,46.6551127 27.1560468,45.7885615 27.1560468,44.4783362 C27.1560468,43.2963605 26.6393043,42 23.0525033,42 L17,42 L17,42.0953206 C17.1823797,42.1490468 17.4720416,42.2928943 17.6615735,42.47487 C18.0728218,42.8630849 18.2087126,43.4454073 18.228381,44.2183709 L18.228381,53 L23.2438231,53 C26.0027633,53 28,51.9809359 28,49.644714 C28,47.7435009 26.4748049,46.9358752 24.908485,46.8353553 L24.908485,46.8353553 Z" id="Fill-26" fill="#FFFFFF"></path>
                    <path d="M8.92839806,43.0485269 L10.7269417,43.0485269 C12.223301,43.0485269 13.0042476,43.4644714 13.0042476,44.9792028 C13.0042476,46.3310225 11.9830097,47.1299827 10.3428398,47.1299827 L8.92839806,47.1299827 L8.92839806,43.0485269 Z M13.6723301,53 L17,53 L12.7493932,47.8266898 C14.4532767,47.3934142 15.7293689,46.5060659 15.7293689,44.8942808 C15.7293689,43.0017331 14.5406553,42 11.4277913,42 L5,42 L5,42.0953206 C5.23665049,42.1750433 5.50242718,42.3206239 5.67536408,42.4835355 C6.125,42.9046794 6.25970874,43.5511265 6.25970874,44.4211438 L6.25970874,53 L8.92839806,53 L8.92839806,48.1247834 L9.90230583,48.1247834 L13.6723301,53 Z" id="Fill-28" fill="#FFFFFF"></path>
                    <path d="M38.3575921,43.7734984 C39.0619946,44.1824851 39.2758311,44.7143512 39.2812219,44.7198533 C39.3153639,44.7583677 39.3908356,44.7455296 39.3908356,44.7455296 L39.9640611,42.7556167 C39.9640611,42.7556167 38.9344115,42 36.4851752,42 C32.7762803,42 30,43.9073819 30,48.0779459 C30,52.778542 33.3063792,54 36.2228212,54 C38.9344115,54 40,53.1196699 40,53.1196699 L40,51.7533242 C40,51.7533242 39.0404313,52.6666667 36.9865229,52.6666667 C35.2884097,52.6666667 32.7996406,51.8762036 32.7457323,48.0119211 C32.6972147,44.4447501 34.2210243,43.2801467 36.262354,43.2801467 C37.4016173,43.2801467 37.9712489,43.5515818 38.3575921,43.7734984" id="Fill-30" fill="#FFFFFF"></path>
                </g>
                <path d="M68.819,17 L66.748,17 L66.748,6.531 C66.748,6.10033118 66.7353335,5.71716835 66.71,5.3815 C66.6846665,5.04583166 66.5833342,4.77033441 66.406,4.555 C66.3173329,4.4283327 66.1938341,4.32066711 66.0355,4.232 C65.8771659,4.14333289 65.7156675,4.09266673 65.551,4.08 L65.551,3.909 L68.819,3.909 L68.819,17 Z M78.462,17 L78.462,11.566 C78.462,10.5273281 78.3163348,9.78000228 78.025,9.324 C77.8349991,8.98199829 77.5816683,8.73500076 77.265,8.583 C76.9483318,8.43099924 76.6063352,8.355 76.239,8.355 C75.8336646,8.355 75.4631683,8.41199943 75.1275,8.526 C74.7918317,8.64000057 74.4910013,8.77299924 74.225,8.925 L74.225,17 L72.23,17 L72.23,7.272 L72.629,7.272 C72.8443344,7.37333384 73.0248326,7.44616644 73.1705,7.4905 C73.3161674,7.53483356 73.458666,7.557 73.598,7.557 C73.7753342,7.557 73.9368326,7.54116683 74.0825,7.5095 C74.2281674,7.47783318 74.3896658,7.43033365 74.567,7.367 C74.8203346,7.29099962 75.1021651,7.21183374 75.4125,7.1295 C75.7228349,7.04716626 76.0996645,7.006 76.543,7.006 C77.2903371,7.006 77.9363306,7.13899867 78.481,7.405 C79.0256694,7.67100133 79.462665,8.05099753 79.792,8.545 C80.0453346,8.9250019 80.2226662,9.34299772 80.324,9.799 C80.4253338,10.2550023 80.476,10.7616639 80.476,11.319 L80.476,17 L78.462,17 Z M87.497,17 L85.92,17 L81.873,7.272 L84.096,7.272 L87.117,14.758 C87.2056671,14.567999 87.3291659,14.273502 87.4875,13.8745 C87.6458341,13.475498 87.8041659,13.0606688 87.9625,12.63 C88.1208341,12.1993312 88.269666,11.8003352 88.409,11.433 C88.548334,11.0656648 88.6369998,10.8186673 88.675,10.692 C88.8016673,10.2613312 88.9156662,9.87816835 89.017,9.5425 C89.1183338,9.20683166 89.203833,8.9028347 89.2735,8.6305 C89.343167,8.3581653 89.4001665,8.11433441 89.4445,7.899 C89.4888336,7.68366559 89.5236665,7.47466768 89.549,7.272 L91.563,7.272 L87.497,17 Z M101.187,16.069 C100.502997,16.5503357 99.8538364,16.8828324 99.2395,17.0665 C98.6251636,17.2501676 98.0013365,17.342 97.368,17.342 C96.6586631,17.342 96.009503,17.2090013 95.4205,16.943 C94.8314971,16.6769987 94.3248355,16.3128356 93.9005,15.8505 C93.4761646,15.3881644 93.1436679,14.8435031 92.903,14.2165 C92.6623321,13.5894969 92.542,12.9150036 92.542,12.193 C92.542,11.4583297 92.6623321,10.7743365 92.903,10.141 C93.1436679,9.5076635 93.4793312,8.95983564 93.91,8.4975 C94.3406688,8.03516436 94.8441638,7.67416797 95.4205,7.4145 C95.9968362,7.15483203 96.6269966,7.025 97.311,7.025 C97.8556694,7.025 98.3813308,7.11366578 98.888,7.291 C99.3946692,7.46833422 99.8411647,7.73116493 100.2275,8.0795 C100.613835,8.42783507 100.920999,8.86166407 101.149,9.381 C101.377001,9.90033593 101.491,10.5083298 101.491,11.205 C101.491,11.3063338 101.487833,11.4361659 101.4815,11.5945 C101.475167,11.7528341 101.459333,11.901666 101.434,12.041 L94.632,12.212 C94.6573335,12.7820028 94.7554992,13.3044976 94.9265,13.7795 C95.0975009,14.2545024 95.3254986,14.656665 95.6105,14.986 C95.8955014,15.315335 96.2279981,15.5718324 96.608,15.7555 C96.9880019,15.9391676 97.3996645,16.031 97.843,16.031 C98.2863356,16.031 98.7391644,15.9486675 99.2015,15.784 C99.6638357,15.6193325 100.135664,15.3786683 100.617,15.062 L101.187,16.069 Z M99.325,10.654 C99.325,10.2613314 99.2711672,9.91300152 99.1635,9.609 C99.0558328,9.30499848 98.9133342,9.05166768 98.736,8.849 C98.5586658,8.64633232 98.3528345,8.4911672 98.1185,8.3835 C97.8841655,8.27583279 97.6340013,8.222 97.368,8.222 C96.6839966,8.222 96.0981691,8.47216417 95.6105,8.9725 C95.1228309,9.47283583 94.8283338,10.1663289 94.727,11.053 L99.325,10.863 L99.325,10.654 Z M109.899,9.647 C109.556998,9.2669981 109.161169,8.93766806 108.7115,8.659 C108.261831,8.38033194 107.783669,8.241 107.277,8.241 C106.795664,8.241 106.393502,8.36133213 106.0705,8.602 C105.747498,8.84266787 105.586,9.14666483 105.586,9.514 C105.586,9.74200114 105.649333,9.93833251 105.776,10.103 C105.902667,10.2676675 106.073666,10.4133327 106.289,10.54 C106.504334,10.6666673 106.751332,10.7838328 107.03,10.8915 C107.308668,10.9991672 107.593665,11.1099994 107.885,11.224 C108.265002,11.3760008 108.651331,11.5374991 109.044,11.7085 C109.436669,11.8795009 109.788165,12.0821655 110.0985,12.3165 C110.408835,12.5508345 110.665332,12.8263317 110.868,13.143 C111.070668,13.4596683 111.172,13.8333312 111.172,14.264 C111.172,14.7580025 111.064334,15.1949981 110.849,15.575 C110.633666,15.9550019 110.345502,16.2779987 109.9845,16.544 C109.623498,16.8100013 109.211836,17.012666 108.7495,17.152 C108.287164,17.291334 107.809002,17.361 107.315,17.361 C106.972998,17.361 106.627835,17.3293337 106.2795,17.266 C105.931165,17.2026664 105.586002,17.1171672 105.244,17.0095 C104.901998,16.9018328 104.575835,16.778334 104.2655,16.639 C103.955165,16.499666 103.673335,16.3540008 103.42,16.202 L104.237,14.625 C104.427001,14.8023342 104.642332,14.9828324 104.883,15.1665 C105.123668,15.3501676 105.376999,15.5148326 105.643,15.6605 C105.909001,15.8061674 106.184499,15.9264995 106.4695,16.0215 C106.754501,16.1165005 107.029999,16.164 107.296,16.164 C107.853336,16.164 108.306165,16.0373346 108.6545,15.784 C109.002835,15.5306654 109.177,15.2203352 109.177,14.853 C109.177,14.6249989 109.107334,14.4223342 108.968,14.245 C108.828666,14.0676658 108.645001,13.9061674 108.417,13.7605 C108.188999,13.6148326 107.929335,13.4818339 107.638,13.3615 C107.346665,13.2411661 107.049002,13.1176673 106.745,12.991 C106.377665,12.8389992 106.007169,12.6743342 105.6335,12.497 C105.259831,12.3196658 104.921002,12.1138345 104.617,11.8795 C104.312998,11.6451655 104.066001,11.3696683 103.876,11.053 C103.685999,10.7363317 103.591,10.3690021 103.591,9.951 C103.591,9.49499772 103.698666,9.08966844 103.914,8.735 C104.129334,8.38033156 104.414332,8.0763346 104.769,7.823 C105.123668,7.5696654 105.528998,7.37650066 105.985,7.2435 C106.441002,7.11049934 106.909664,7.044 107.391,7.044 C108.113004,7.044 108.752664,7.14849896 109.31,7.3575 C109.867336,7.56650105 110.348665,7.77866559 110.754,7.994 L109.899,9.647 Z M119.01,16.183 C118.794666,16.322334 118.560335,16.4553327 118.307,16.582 C118.053665,16.7086673 117.784501,16.8194995 117.4995,16.9145 C117.214499,17.0095005 116.926335,17.0886664 116.635,17.152 C116.343665,17.2153336 116.065001,17.247 115.799,17.247 C115.507665,17.247 115.229001,17.1995005 114.963,17.1045 C114.696999,17.0094995 114.475334,16.8543344 114.298,16.639 C113.955998,16.2336646 113.785,15.6446705 113.785,14.872 L113.785,4.498 L115.761,3.985 L115.761,7.272 L118.44,7.272 L118.44,8.488 L115.761,8.488 L115.761,14.777 C115.761,15.1443352 115.846499,15.4008326 116.0175,15.5465 C116.188501,15.6921674 116.406999,15.765 116.673,15.765 C116.825001,15.765 116.989666,15.7428336 117.167,15.6985 C117.344334,15.6541664 117.521666,15.6003336 117.699,15.537 C117.876334,15.4736664 118.044166,15.4103337 118.2025,15.347 C118.360834,15.2836664 118.490666,15.2266669 118.592,15.176 L119.01,16.183 Z M129.128,17 L120.996,17 L120.996,6.531 C120.996,6.10033118 120.983333,5.71716835 120.958,5.3815 C120.932667,5.04583166 120.831334,4.77033441 120.654,4.555 C120.565333,4.4283327 120.441834,4.32066711 120.2835,4.232 C120.125166,4.14333289 119.976334,4.09266673 119.837,4.08 L119.837,3.909 L128.957,3.909 L128.957,5.163 L123.067,5.163 L123.067,9.647 L128.102,9.647 L128.102,10.901 L123.067,10.901 L123.067,15.746 L129.128,15.746 L129.128,17 Z M139.531,17 C139.188998,16.8099991 138.878668,16.715 138.6,16.715 C138.460666,16.715 138.315001,16.7371664 138.163,16.7815 C138.010999,16.8258336 137.846334,16.8796664 137.669,16.943 C137.415665,17.0443338 137.133835,17.1393329 136.8235,17.228 C136.513165,17.3166671 136.155335,17.361 135.75,17.361 C134.913996,17.361 134.179337,17.1868351 133.546,16.8385 C132.912664,16.4901649 132.412335,16.0310029 132.045,15.461 C131.753665,15.0176644 131.535167,14.5236694 131.3895,13.979 C131.243833,13.4343306 131.171,12.8706696 131.171,12.288 C131.171,11.2619949 131.357831,10.4006701 131.7315,9.704 C132.105169,9.00732985 132.595997,8.43100228 133.204,7.975 C133.609335,7.64566502 134.062164,7.40500076 134.5625,7.253 C135.062836,7.10099924 135.572664,7.025 136.092,7.025 C136.586002,7.025 137.035665,7.07249952 137.441,7.1675 C137.846335,7.26250048 138.169332,7.36066616 138.41,7.462 L139.93,7.101 L139.93,17 L139.531,17 Z M137.916,8.773 C137.700666,8.63366597 137.437835,8.51966711 137.1275,8.431 C136.817165,8.34233289 136.516335,8.298 136.225,8.298 C135.844998,8.298 135.477668,8.37399924 135.123,8.526 C134.768332,8.67800076 134.454835,8.91233175 134.1825,9.229 C133.910165,9.54566825 133.691668,9.9478309 133.527,10.4355 C133.362333,10.9231691 133.28,11.49633 133.28,12.155 C133.28,13.7256745 133.685329,14.84033 134.496,15.499 C134.698668,15.6763342 134.926665,15.8156662 135.18,15.917 C135.433335,16.0183338 135.711999,16.069 136.016,16.069 C136.421335,16.069 136.798165,15.9866675 137.1465,15.822 C137.494835,15.6573325 137.751333,15.4990008 137.916,15.347 L137.916,8.773 Z M148.851,9.647 C148.508998,9.2669981 148.113169,8.93766806 147.6635,8.659 C147.213831,8.38033194 146.735669,8.241 146.229,8.241 C145.747664,8.241 145.345502,8.36133213 145.0225,8.602 C144.699498,8.84266787 144.538,9.14666483 144.538,9.514 C144.538,9.74200114 144.601333,9.93833251 144.728,10.103 C144.854667,10.2676675 145.025666,10.4133327 145.241,10.54 C145.456334,10.6666673 145.703332,10.7838328 145.982,10.8915 C146.260668,10.9991672 146.545665,11.1099994 146.837,11.224 C147.217002,11.3760008 147.603331,11.5374991 147.996,11.7085 C148.388669,11.8795009 148.740165,12.0821655 149.0505,12.3165 C149.360835,12.5508345 149.617332,12.8263317 149.82,13.143 C150.022668,13.4596683 150.124,13.8333312 150.124,14.264 C150.124,14.7580025 150.016334,15.1949981 149.801,15.575 C149.585666,15.9550019 149.297502,16.2779987 148.9365,16.544 C148.575498,16.8100013 148.163836,17.012666 147.7015,17.152 C147.239164,17.291334 146.761002,17.361 146.267,17.361 C145.924998,17.361 145.579835,17.3293337 145.2315,17.266 C144.883165,17.2026664 144.538002,17.1171672 144.196,17.0095 C143.853998,16.9018328 143.527835,16.778334 143.2175,16.639 C142.907165,16.499666 142.625335,16.3540008 142.372,16.202 L143.189,14.625 C143.379001,14.8023342 143.594332,14.9828324 143.835,15.1665 C144.075668,15.3501676 144.328999,15.5148326 144.595,15.6605 C144.861001,15.8061674 145.136499,15.9264995 145.4215,16.0215 C145.706501,16.1165005 145.981999,16.164 146.248,16.164 C146.805336,16.164 147.258165,16.0373346 147.6065,15.784 C147.954835,15.5306654 148.129,15.2203352 148.129,14.853 C148.129,14.6249989 148.059334,14.4223342 147.92,14.245 C147.780666,14.0676658 147.597001,13.9061674 147.369,13.7605 C147.140999,13.6148326 146.881335,13.4818339 146.59,13.3615 C146.298665,13.2411661 146.001002,13.1176673 145.697,12.991 C145.329665,12.8389992 144.959169,12.6743342 144.5855,12.497 C144.211831,12.3196658 143.873002,12.1138345 143.569,11.8795 C143.264999,11.6451655 143.018001,11.3696683 142.828,11.053 C142.637999,10.7363317 142.543,10.3690021 142.543,9.951 C142.543,9.49499772 142.650666,9.08966844 142.866,8.735 C143.081334,8.38033156 143.366332,8.0763346 143.721,7.823 C144.075668,7.5696654 144.480998,7.37650066 144.937,7.2435 C145.393002,7.11049934 145.861664,7.044 146.343,7.044 C147.065004,7.044 147.704664,7.14849896 148.262,7.3575 C148.819336,7.56650105 149.300665,7.77866559 149.706,7.994 L148.851,9.647 Z M160.736,16.069 C160.051997,16.5503357 159.402836,16.8828324 158.7885,17.0665 C158.174164,17.2501676 157.550337,17.342 156.917,17.342 C156.207663,17.342 155.558503,17.2090013 154.9695,16.943 C154.380497,16.6769987 153.873835,16.3128356 153.4495,15.8505 C153.025165,15.3881644 152.692668,14.8435031 152.452,14.2165 C152.211332,13.5894969 152.091,12.9150036 152.091,12.193 C152.091,11.4583297 152.211332,10.7743365 152.452,10.141 C152.692668,9.5076635 153.028331,8.95983564 153.459,8.4975 C153.889669,8.03516436 154.393164,7.67416797 154.9695,7.4145 C155.545836,7.15483203 156.175997,7.025 156.86,7.025 C157.404669,7.025 157.930331,7.11366578 158.437,7.291 C158.943669,7.46833422 159.390165,7.73116493 159.7765,8.0795 C160.162835,8.42783507 160.469999,8.86166407 160.698,9.381 C160.926001,9.90033593 161.04,10.5083298 161.04,11.205 C161.04,11.3063338 161.036833,11.4361659 161.0305,11.5945 C161.024167,11.7528341 161.008333,11.901666 160.983,12.041 L154.181,12.212 C154.206333,12.7820028 154.304499,13.3044976 154.4755,13.7795 C154.646501,14.2545024 154.874499,14.656665 155.1595,14.986 C155.444501,15.315335 155.776998,15.5718324 156.157,15.7555 C156.537002,15.9391676 156.948664,16.031 157.392,16.031 C157.835336,16.031 158.288164,15.9486675 158.7505,15.784 C159.212836,15.6193325 159.684664,15.3786683 160.166,15.062 L160.736,16.069 Z M158.874,10.654 C158.874,10.2613314 158.820167,9.91300152 158.7125,9.609 C158.604833,9.30499848 158.462334,9.05166768 158.285,8.849 C158.107666,8.64633232 157.901835,8.4911672 157.6675,8.3835 C157.433166,8.27583279 157.183001,8.222 156.917,8.222 C156.232997,8.222 155.647169,8.47216417 155.1595,8.9725 C154.671831,9.47283583 154.377334,10.1663289 154.276,11.053 L158.874,10.863 L158.874,10.654 Z" id="InvestEase" fill="#0051A5" fill-rule="nonzero"></path>
            </g>
        </g>
    </g>
</svg>