<svg width="685" height="165" viewBox="0 0 685 165" fill="none" xmlns="http://www.w3.org/2000/svg">
<g clip-path="url(#clip0)">
<path d="M15.8864 86.3588H24.3776L30.8896 102.527L42.5201 98.9455L36.5973 84.7895C39.0641 83.9255 39.8321 83.5455 41.3681 82.5188C44.3281 80.4628 46.1935 76.8215 46.1935 72.9961C46.1935 69.8348 44.9321 67.1308 42.5748 65.4535C41.4228 64.5881 39.9975 63.9401 38.4615 63.5615C35.8844 62.9121 35.2265 62.8575 28.5412 62.8575H8.38226L0 98.9455H12.9287L15.8864 86.3588ZM17.7495 78.4615L19.5568 70.7548H29.0339C31.7729 70.7548 33.0869 71.7375 33.0869 73.7601C33.0869 76.5481 30.8416 78.4615 27.5547 78.4615H17.7495Z" fill="#231F20"/>
<path d="M87.9854 83.8174C87.9854 80.4521 86.6267 77.0948 84.3987 75.0081C81.3547 72.0654 76.1374 70.5668 68.9574 70.5668C55.5774 70.5668 47.4707 76.4534 47.4707 86.2081C47.4707 94.8814 54.3174 99.8948 66.104 99.8948C79.236 99.8948 87.9854 93.4801 87.9854 83.8174ZM75.432 83.9268C75.432 89.1948 72.0294 92.5628 66.7627 92.5628C62.428 92.5628 59.74 90.1734 59.74 86.2614C59.74 81.3734 63.36 77.8988 68.408 77.8988C72.8534 77.8988 75.432 80.1254 75.432 83.9268Z" fill="#231F20"/>
<path d="M107.017 79.8668L105.1 87.9521C104.991 88.4908 104.936 88.9762 104.936 89.4068C104.936 90.9175 106.087 91.7255 108.277 91.7255C108.88 91.7255 109.264 91.6722 110.14 91.4562L108.387 98.9321C105.812 99.0388 104.827 99.0388 102.545 99.0388C98.1426 99.0388 96.4586 98.8775 94.9373 98.1188C93.4146 97.3601 92.3826 95.5721 92.3826 93.5668C92.3826 92.3215 92.5999 91.0241 93.4146 87.4668L95.2079 79.8668H91.2866L92.872 72.8281H96.8386L99.0119 63.3362H110.852L108.66 72.8281H113.372L111.729 79.8668H107.017Z" fill="#231F20"/>
<path d="M155.249 98.9455L158.809 83.6775C158.92 83.1908 158.975 82.4335 158.975 81.8402C158.975 79.8935 157.605 78.6495 155.359 78.6495C152.784 78.6495 150.867 80.2722 150.209 83.0282L146.485 98.9455H134.652L138.213 83.6775C138.377 82.8668 138.487 82.2175 138.487 81.7322C138.487 79.7855 137.281 78.6495 135.145 78.6495C132.297 78.6495 130.489 80.1642 129.831 83.0282L126.107 98.9455H114.273L120.628 71.5908H132.516L131.639 75.1482C135.255 71.9668 138.487 70.5668 142.651 70.5668C146.485 70.5668 149.004 71.9668 150.976 75.1482C152.839 73.5308 153.496 73.0455 154.811 72.2908C156.948 71.1588 159.248 70.5668 161.928 70.5668C167.837 70.5668 171.337 73.4228 171.337 78.1655C171.337 79.8402 171.009 82.1642 170.408 84.6495L167.071 98.9455H155.249Z" fill="#231F20"/>
<path d="M236.085 98.9628L239.153 85.8002C239.428 84.5028 239.592 83.6922 239.592 83.0975C239.592 80.6655 237.729 79.0428 234.936 79.0428C231.649 79.0428 229.129 81.4228 228.143 85.4215L225.02 98.9628H213.188L219.543 71.6068H231.429L230.499 75.5402C233.62 72.3082 237.62 70.5828 242.269 70.5828C248.389 70.5828 252.049 73.8162 252.049 79.2055C252.049 80.6108 251.776 82.2868 251.34 84.1775L247.897 98.9628H236.085Z" fill="#231F20"/>
<path d="M192.528 79.1961C197.092 79.2108 199.059 82.0455 198.243 85.4041C197.403 88.8695 194.104 91.5255 189.54 91.5108C184.976 91.4948 182.971 88.8201 183.812 85.3561C184.628 81.9975 187.965 79.1801 192.528 79.1961ZM213.789 71.6615L202.665 71.6241L202.023 74.2708C200.271 71.8641 196.743 70.6775 193.117 70.6655C183.816 70.6348 175.785 77.3321 173.883 85.1695C171.98 93.0068 176.859 99.8015 186.16 99.8321C189.849 99.8441 194.019 98.6308 196.645 95.9188H196.769L196.083 98.9148L207.16 98.9761L213.789 71.6615Z" fill="#231F20"/>
<path d="M296.212 151.23H280.212V0.17746H296.212V151.23Z" fill="#231F20"/>
<path d="M361.136 44.5748L361.365 15.8508H361.193L350.644 44.5748H343.764L333.5 15.8508H333.328L333.557 44.5748H324.328V3.98284H338.26L347.491 30.0122H347.719L356.548 3.98284H370.709V44.5748H361.136Z" fill="#231F20"/>
<path d="M394.847 32.1335H393.643C389.515 32.1335 384.871 32.6495 384.871 36.0321C384.871 38.2095 387.05 38.9562 388.94 38.9562C392.724 38.9562 394.847 36.6615 394.847 33.1095V32.1335ZM377.59 19.9215C380.915 16.7695 385.672 15.1055 390.318 15.1055C399.891 15.1055 403.446 19.8068 403.446 30.1841V44.5748H394.847V41.5361H394.675C393.242 43.8868 389.974 45.2615 386.591 45.2615C382.06 45.2615 376.215 43.0268 376.215 36.3175C376.215 28.0628 386.247 26.6868 394.56 26.6868V26.2281C394.56 23.4188 392.324 22.1001 389.399 22.1001C386.706 22.1001 384.068 23.4188 382.348 25.0242L377.59 19.9215Z" fill="#231F20"/>
<path d="M426.667 24.4508C425.176 23.0175 422.998 21.8708 420.704 21.8708C418.928 21.8708 417.15 22.5015 417.15 24.1655C417.15 25.7708 418.699 26.2281 422.368 27.0308C426.724 28.0055 431.483 30.1841 431.483 35.7455C431.483 42.9695 425.119 45.4921 419.271 45.4921C414.627 45.4921 409.811 43.9428 406.83 41.0775L412.104 35.5161C413.767 37.3508 416.347 38.7268 419.1 38.7268C420.647 38.7268 422.483 38.0948 422.483 36.2601C422.483 34.4828 420.704 33.9108 416.806 32.9921C412.85 32.0761 408.492 30.0695 408.492 24.6801C408.492 17.8575 414.914 15.1055 420.36 15.1055C424.603 15.1055 429.018 16.4815 431.826 19.1188L426.667 24.4508Z" fill="#231F20"/>
<path d="M446.56 23.0748V33.9681C446.56 36.6041 447.42 37.9815 450.115 37.9815C451.032 37.9815 452.179 37.8095 452.868 37.5228L452.983 44.4028C451.72 44.8615 449.543 45.2615 447.535 45.2615C439.91 45.2615 437.387 41.1921 437.387 35.1148V23.0748H432.8V16.0228H437.33V8.51215H446.56V16.0228H453.27V23.0748H446.56Z" fill="#231F20"/>
<path d="M476.774 27.0308C476.774 24.0495 474.881 21.5841 471.156 21.5841C467.544 21.5841 464.907 24.1068 464.677 27.0308H476.774ZM485.375 32.8775H464.677C464.964 36.0321 468.117 38.2668 471.5 38.2668C474.481 38.2668 476.546 37.0068 477.807 35.2881L484.341 39.4148C481.648 43.3135 477.175 45.4921 471.385 45.4921C462.784 45.4921 455.675 40.0441 455.675 30.4135C455.675 21.0681 462.44 15.1055 471.099 15.1055C479.527 15.1055 485.432 20.8961 485.432 30.6428C485.432 31.3881 485.432 32.1908 485.375 32.8775Z" fill="#231F20"/>
<path d="M509.224 23.7042C508.366 23.4762 507.563 23.4188 506.819 23.4188C501.771 23.4188 500.11 27.5455 500.11 29.8988V44.5748H490.707V16.0228H499.767V20.1495H499.882C501.314 17.2842 504.123 15.2202 507.62 15.2202C508.366 15.2202 509.167 15.2775 509.627 15.4495L509.224 23.7042Z" fill="#231F20"/>
<path d="M540.988 22.9028C536.573 22.9028 534.279 26.5148 534.279 30.1841C534.279 33.8535 536.631 37.5801 541.045 37.5801C545.46 37.5801 547.811 33.8535 547.811 30.1841C547.811 26.5148 545.403 22.9028 540.988 22.9028ZM540.988 45.4921C532.388 45.4921 525.164 39.5295 525.164 30.1841C525.164 20.8388 532.388 15.1055 540.988 15.1055C549.645 15.1055 556.869 20.8388 556.869 30.1841C556.869 39.5295 549.645 45.4921 540.988 45.4921Z" fill="#231F20"/>
<path d="M579.973 8.16817C579.285 7.93884 578.311 7.76684 577.393 7.76684C573.953 7.76684 573.209 10.5188 573.209 13.1562V16.0228H579.572V23.0748H573.209V44.5748H563.805V23.0748H558.589V16.0228H563.805V13.2708C563.805 6.27618 566.557 0.142834 576.075 0.142834C577.68 0.142834 579.343 0.314838 580.604 0.71484L579.973 8.16817Z" fill="#231F20"/>
<path d="M361.136 97.9081L361.365 69.1842H361.193L350.644 97.9081H343.764L333.5 69.1842H333.328L333.557 97.9081H324.328V57.3162H338.26L347.491 83.3455H347.719L356.548 57.3162H370.709V97.9081H361.136Z" fill="#231F20"/>
<path d="M394.847 85.4668H393.643C389.515 85.4668 384.871 85.9828 384.871 89.3655C384.871 91.5428 387.05 92.2895 388.94 92.2895C392.724 92.2895 394.847 89.9948 394.847 86.4428V85.4668ZM377.59 73.2548C380.915 70.1028 385.672 68.4388 390.318 68.4388C399.891 68.4388 403.446 73.1401 403.446 83.5175V97.9081H394.847V94.8695H394.675C393.242 97.2201 389.974 98.5948 386.591 98.5948C382.06 98.5948 376.215 96.3601 376.215 89.6508C376.215 81.3961 386.247 80.0201 394.56 80.0201V79.5615C394.56 76.7521 392.324 75.4335 389.399 75.4335C386.706 75.4335 384.068 76.7521 382.348 78.3575L377.59 73.2548Z" fill="#231F20"/>
<path d="M428.615 97.9081V82.3135C428.615 79.1601 427.756 76.2935 424.374 76.2935C421.048 76.2935 419.328 79.1601 419.328 82.4268V97.9081H409.868V69.3562H418.986V73.3121H419.1C420.417 70.7895 423.686 68.5535 427.642 68.5535C435.324 68.5535 438.076 74.5162 438.076 80.2495V97.9081H428.615Z" fill="#231F20"/>
<path d="M461.467 85.4668H460.264C456.136 85.4668 451.492 85.9828 451.492 89.3655C451.492 91.5428 453.67 92.2895 455.563 92.2895C459.347 92.2895 461.467 89.9948 461.467 86.4428V85.4668ZM444.212 73.2548C447.536 70.1028 452.295 68.4388 456.938 68.4388C466.514 68.4388 470.068 73.1401 470.068 83.5175V97.9081H461.467V94.8695H461.295C459.863 97.2201 456.595 98.5948 453.212 98.5948C448.683 98.5948 442.833 96.3601 442.833 89.6508C442.833 81.3961 452.868 80.0201 461.18 80.0201V79.5615C461.18 76.7521 458.946 75.4335 456.022 75.4335C453.326 75.4335 450.689 76.7521 448.969 78.3575L444.212 73.2548Z" fill="#231F20"/>
<path d="M490.88 76.2361C486.636 76.2361 484.171 79.5041 484.171 83.4601C484.171 87.2441 486.636 90.7415 490.88 90.7415C495.179 90.7415 497.816 87.3588 497.816 83.4601C497.816 79.5615 495.121 76.2361 490.88 76.2361ZM489.961 111.667C484.975 111.667 479.125 110.061 475.284 107.196L479.987 100.487C482.737 102.895 486.235 104.099 489.445 104.099C494.949 104.099 497.529 100.888 497.529 96.1308V94.4108H497.357C495.581 96.7041 492.485 98.1948 488.701 98.1948C480.044 98.1948 475.055 91.4281 475.055 83.5175C475.055 75.6055 480.044 68.5535 488.644 68.5535C492.199 68.5535 495.753 69.9868 497.759 73.0255H497.873V69.3561H506.761V95.2121C506.761 106.393 500.109 111.667 489.961 111.667Z" fill="#231F20"/>
<path d="M533.306 80.3641C533.306 77.3828 531.414 74.9174 527.687 74.9174C524.075 74.9174 521.438 77.4401 521.21 80.3641H533.306ZM541.906 86.2108H521.21C521.495 89.3654 524.65 91.6001 528.032 91.6001C531.012 91.6001 533.076 90.3401 534.338 88.6215L540.874 92.7481C538.179 96.6468 533.707 98.8254 527.918 98.8254C519.316 98.8254 512.207 93.3774 512.207 83.7468C512.207 74.4014 518.972 68.4388 527.63 68.4388C536.058 68.4388 541.963 74.2294 541.963 83.9761C541.963 84.7214 541.963 85.5241 541.906 86.2108Z" fill="#231F20"/>
<path d="M583.701 97.9081V82.3135C583.701 79.0441 582.956 76.2935 579.631 76.2935C576.42 76.2935 574.872 79.2762 574.872 82.4842V97.9081H565.469V81.6255C565.469 78.3575 564.208 76.2935 561.399 76.2935C558.417 76.2935 556.697 78.9868 556.697 82.4268V97.9081H547.237V69.3562H556.353V73.3121H556.468C557.787 70.9041 560.712 68.5535 565.011 68.5535C569.139 68.5535 572.005 70.3321 573.609 73.4268C575.503 70.4455 578.484 68.5535 582.727 68.5535C590.467 68.5535 593.103 74.8602 593.103 80.2495V97.9081H583.701Z" fill="#231F20"/>
<path d="M619.306 80.3641C619.306 77.3828 617.414 74.9174 613.687 74.9174C610.075 74.9174 607.438 77.4401 607.21 80.3641H619.306ZM627.906 86.2108H607.21C607.495 89.3654 610.65 91.6001 614.032 91.6001C617.012 91.6001 619.076 90.3401 620.338 88.6215L626.874 92.7481C624.179 96.6468 619.707 98.8254 613.918 98.8254C605.316 98.8254 598.207 93.3774 598.207 83.7468C598.207 74.4014 604.972 68.4388 613.63 68.4388C622.058 68.4388 627.963 74.2294 627.963 83.9761C627.963 84.7214 627.963 85.5241 627.906 86.2108Z" fill="#231F20"/>
<path d="M651.985 97.9081V82.3135C651.985 79.1601 651.125 76.2935 647.743 76.2935C644.417 76.2935 642.697 79.1601 642.697 82.4268V97.9081H633.237V69.3562H642.353V73.3121H642.468C643.787 70.7895 647.055 68.5535 651.011 68.5535C658.693 68.5535 661.445 74.5162 661.445 80.2495V97.9081H651.985Z" fill="#231F20"/>
<path d="M678.185 76.4081V87.3015C678.185 89.9375 679.045 91.3148 681.74 91.3148C682.657 91.3148 683.805 91.1428 684.493 90.8561L684.607 97.7361C683.347 98.1948 681.167 98.5948 679.16 98.5948C671.536 98.5948 669.013 94.5255 669.013 88.4481V76.4081H664.427V69.3561H668.956V61.8455H678.185V69.3561H684.893V76.4081H678.185Z" fill="#231F20"/>
<path d="M340.954 121.487L335.795 135.417H345.999L340.954 121.487ZM351.847 151.242L348.694 143.271H332.986L330.003 151.242H319.339L336.368 110.649H345.884L362.74 151.242H351.847Z" fill="#231F20"/>
<path d="M383.781 151.242V135.647C383.781 132.493 382.921 129.627 379.54 129.627C376.215 129.627 374.492 132.493 374.492 135.76V151.242H365.035V122.689H374.149V126.645H374.264C375.583 124.123 378.851 121.887 382.807 121.887C390.491 121.887 393.241 127.849 393.241 133.583V151.242H383.781Z" fill="#231F20"/>
<path d="M416.633 138.8H415.431C411.303 138.8 406.659 139.316 406.659 142.699C406.659 144.876 408.836 145.623 410.728 145.623C414.512 145.623 416.633 143.328 416.633 139.776V138.8ZM399.377 126.588C402.701 123.436 407.46 121.772 412.104 121.772C421.679 121.772 425.233 126.473 425.233 136.851V151.242H416.633V148.202H416.461C415.029 150.554 411.761 151.928 408.379 151.928C403.848 151.928 398 149.693 398 142.984C398 134.729 408.035 133.353 416.347 133.353V132.895C416.347 130.085 414.111 128.767 411.187 128.767C408.492 128.767 405.855 130.085 404.136 131.691L399.377 126.588Z" fill="#231F20"/>
<path d="M431.77 151.242V107.899H441.287V151.242H431.77Z" fill="#231F20"/>
<path d="M462.943 155.54C460.65 161.504 457.553 165 450.387 165C448.609 165 446.603 164.715 445.227 164.371L446.259 156.459C447.176 156.745 448.381 156.975 449.297 156.975C452.221 156.975 453.196 155.597 454.113 153.133L455.032 150.783L443.105 122.689H453.54L459.904 141.036H460.076L465.753 122.689H475.728L462.943 155.54Z" fill="#231F20"/>
<path d="M490.305 129.741V140.635C490.305 143.271 491.164 144.648 493.86 144.648C494.776 144.648 495.924 144.476 496.612 144.19L496.727 151.069C495.465 151.528 493.287 151.928 491.279 151.928C483.655 151.928 481.132 147.859 481.132 141.781V129.741H476.545V122.689H481.075V115.179H490.305V122.689H497.013V129.741H490.305Z" fill="#231F20"/>
<path d="M500.97 151.242V122.689H510.371V151.242H500.97ZM505.67 118.733C502.631 118.733 500.28 116.383 500.28 113.573C500.28 110.821 502.631 108.413 505.67 108.413C508.652 108.413 511.059 110.707 511.059 113.573C511.059 116.499 508.652 118.733 505.67 118.733Z" fill="#231F20"/>
<path d="M534.909 131.92C533.877 130.543 531.815 129.627 529.921 129.627C525.965 129.627 523.329 133.009 523.329 136.965C523.329 140.921 525.909 144.247 530.036 144.247C531.929 144.247 533.992 143.502 535.14 142.125L540.356 148.488C538.007 150.783 533.992 152.159 529.807 152.159C520.807 152.159 513.812 146.425 513.812 136.965C513.812 127.677 520.864 121.772 529.749 121.772C533.82 121.772 538.121 123.32 540.356 125.615L534.909 131.92Z" fill="#231F20"/>
<path d="M562.314 131.117C560.824 129.684 558.644 128.537 556.352 128.537C554.574 128.537 552.798 129.168 552.798 130.832C552.798 132.437 554.344 132.895 558.014 133.697C562.371 134.672 567.131 136.851 567.131 142.412C567.131 149.636 560.767 152.159 554.918 152.159C550.274 152.159 545.459 150.609 542.478 147.744L547.751 142.183C549.415 144.018 551.994 145.393 554.746 145.393C556.295 145.393 558.128 144.761 558.128 142.927C558.128 141.149 556.352 140.577 552.454 139.659C548.496 138.743 544.14 136.736 544.14 131.347C544.14 124.524 550.56 121.772 556.007 121.772C560.251 121.772 564.664 123.148 567.475 125.787L562.314 131.117Z" fill="#231F20"/>
</g>
<defs>
<clipPath id="clip0">
<rect width="684.893" height="164.857" fill="white" transform="matrix(1 0 0 -1 0 165)"/>
</clipPath>
</defs>
</svg>
