<svg width="685" height="165" viewBox="0 0 685 165" fill="none" xmlns="http://www.w3.org/2000/svg">
<g clip-path="url(#clip0)">
<path d="M15.8864 86.216H24.3776L30.8896 102.384L42.5201 98.8026L36.5973 84.6467C39.0641 83.7827 39.8321 83.4026 41.3681 82.376C44.3281 80.32 46.1935 76.6786 46.1935 72.8533C46.1935 69.692 44.9321 66.988 42.5748 65.3106C41.4228 64.4453 39.9975 63.7973 38.4615 63.4186C35.8844 62.7693 35.2265 62.7147 28.5412 62.7147H8.38226L0 98.8026H12.9287L15.8864 86.216ZM17.7495 78.3186L19.5568 70.612H29.0339C31.7729 70.612 33.0869 71.5946 33.0869 73.6173C33.0869 76.4053 30.8416 78.3186 27.5547 78.3186H17.7495Z" fill="#231F20"/>
<path d="M87.9854 83.6746C87.9854 80.3093 86.6267 76.9519 84.3987 74.8653C81.3547 71.9226 76.1374 70.424 68.9574 70.424C55.5774 70.424 47.4707 76.3106 47.4707 86.0653C47.4707 94.7386 54.3174 99.752 66.104 99.752C79.236 99.752 87.9854 93.3373 87.9854 83.6746ZM75.432 83.784C75.432 89.052 72.0294 92.42 66.7627 92.42C62.428 92.42 59.74 90.0306 59.74 86.1186C59.74 81.2306 63.36 77.756 68.408 77.756C72.8534 77.756 75.432 79.9826 75.432 83.784Z" fill="#231F20"/>
<path d="M107.017 79.724L105.1 87.8093C104.991 88.348 104.936 88.8333 104.936 89.264C104.936 90.7747 106.087 91.5827 108.277 91.5827C108.88 91.5827 109.264 91.5293 110.14 91.3133L108.387 98.7893C105.812 98.896 104.827 98.896 102.545 98.896C98.1426 98.896 96.4586 98.7347 94.9373 97.976C93.4146 97.2173 92.3826 95.4293 92.3826 93.424C92.3826 92.1787 92.5999 90.8813 93.4146 87.324L95.2079 79.724H91.2866L92.872 72.6853H96.8386L99.0119 63.1933H110.852L108.66 72.6853H113.372L111.729 79.724H107.017Z" fill="#231F20"/>
<path d="M155.249 98.8027L158.809 83.5347C158.92 83.048 158.975 82.2907 158.975 81.6973C158.975 79.7507 157.605 78.5067 155.359 78.5067C152.784 78.5067 150.867 80.1293 150.209 82.8853L146.485 98.8027H134.652L138.213 83.5347C138.377 82.724 138.487 82.0747 138.487 81.5893C138.487 79.6427 137.281 78.5067 135.145 78.5067C132.297 78.5067 130.489 80.0213 129.831 82.8853L126.107 98.8027H114.273L120.628 71.448H132.516L131.639 75.0053C135.255 71.824 138.487 70.424 142.651 70.424C146.485 70.424 149.004 71.824 150.976 75.0053C152.839 73.388 153.496 72.9027 154.811 72.148C156.948 71.016 159.248 70.424 161.928 70.424C167.837 70.424 171.337 73.28 171.337 78.0227C171.337 79.6973 171.009 82.0213 170.408 84.5067L167.071 98.8027H155.249Z" fill="#231F20"/>
<path d="M236.085 98.82L239.153 85.6573C239.428 84.36 239.592 83.5493 239.592 82.9547C239.592 80.5227 237.729 78.9 234.936 78.9C231.649 78.9 229.129 81.28 228.143 85.2787L225.02 98.82H213.188L219.543 71.464H231.429L230.499 75.3974C233.62 72.1653 237.62 70.44 242.269 70.44C248.389 70.44 252.049 73.6733 252.049 79.0627C252.049 80.468 251.776 82.144 251.34 84.0347L247.897 98.82H236.085Z" fill="#231F20"/>
<path d="M192.528 79.0533C197.092 79.068 199.059 81.9026 198.243 85.2613C197.403 88.7266 194.104 91.3826 189.54 91.368C184.976 91.352 182.971 88.6773 183.812 85.2133C184.628 81.8546 187.965 79.0373 192.528 79.0533ZM213.789 71.5186L202.665 71.4813L202.023 74.128C200.271 71.7213 196.743 70.5346 193.117 70.5226C183.816 70.492 175.785 77.1893 173.883 85.0266C171.98 92.864 176.859 99.6586 186.16 99.6893C189.849 99.7013 194.019 98.488 196.645 95.776H196.769L196.083 98.772L207.16 98.8333L213.789 71.5186Z" fill="#231F20"/>
<path d="M296.212 151.087H280.212V0.0346375H296.212V151.087Z" fill="#231F20"/>
<path d="M361.136 44.432L361.365 15.708H361.193L350.644 44.432H343.764L333.5 15.708H333.328L333.557 44.432H324.328V3.84002H338.26L347.491 29.8693H347.719L356.548 3.84002H370.709V44.432H361.136Z" fill="#231F20"/>
<path d="M394.847 31.9907H393.643C389.515 31.9907 384.871 32.5067 384.871 35.8893C384.871 38.0667 387.05 38.8133 388.94 38.8133C392.724 38.8133 394.847 36.5187 394.847 32.9667V31.9907ZM377.59 19.7787C380.915 16.6267 385.672 14.9627 390.318 14.9627C399.891 14.9627 403.446 19.664 403.446 30.0413V44.432H394.847V41.3933H394.675C393.242 43.744 389.974 45.1187 386.591 45.1187C382.06 45.1187 376.215 42.884 376.215 36.1747C376.215 27.92 386.247 26.544 394.56 26.544V26.0853C394.56 23.276 392.324 21.9573 389.399 21.9573C386.706 21.9573 384.068 23.276 382.348 24.8813L377.59 19.7787Z" fill="#231F20"/>
<path d="M426.667 24.308C425.176 22.8746 422.998 21.728 420.704 21.728C418.928 21.728 417.15 22.3586 417.15 24.0226C417.15 25.628 418.699 26.0853 422.368 26.888C426.724 27.8626 431.483 30.0413 431.483 35.6026C431.483 42.8266 425.119 45.3493 419.271 45.3493C414.627 45.3493 409.811 43.8 406.83 40.9346L412.104 35.3733C413.767 37.208 416.347 38.584 419.1 38.584C420.647 38.584 422.483 37.952 422.483 36.1173C422.483 34.34 420.704 33.768 416.806 32.8493C412.85 31.9333 408.492 29.9266 408.492 24.5373C408.492 17.7146 414.914 14.9627 420.36 14.9627C424.603 14.9627 429.018 16.3386 431.826 18.976L426.667 24.308Z" fill="#231F20"/>
<path d="M446.56 22.932V33.8253C446.56 36.4613 447.42 37.8387 450.115 37.8387C451.032 37.8387 452.179 37.6667 452.868 37.38L452.983 44.26C451.72 44.7187 449.543 45.1187 447.535 45.1187C439.91 45.1187 437.387 41.0493 437.387 34.972V22.932H432.8V15.88H437.33V8.36932H446.56V15.88H453.27V22.932H446.56Z" fill="#231F20"/>
<path d="M476.774 26.888C476.774 23.9066 474.881 21.4413 471.156 21.4413C467.544 21.4413 464.907 23.964 464.677 26.888H476.774ZM485.375 32.7346H464.677C464.964 35.8893 468.117 38.124 471.5 38.124C474.481 38.124 476.546 36.864 477.807 35.1453L484.341 39.272C481.648 43.1706 477.175 45.3493 471.385 45.3493C462.784 45.3493 455.675 39.9013 455.675 30.2706C455.675 20.9253 462.44 14.9627 471.099 14.9627C479.527 14.9627 485.432 20.7533 485.432 30.5C485.432 31.2453 485.432 32.048 485.375 32.7346Z" fill="#231F20"/>
<path d="M509.224 23.5614C508.366 23.3334 507.563 23.276 506.819 23.276C501.771 23.276 500.11 27.4027 500.11 29.756V44.432H490.707V15.88H499.767V20.0067H499.882C501.314 17.1413 504.123 15.0774 507.62 15.0774C508.366 15.0774 509.167 15.1347 509.627 15.3067L509.224 23.5614Z" fill="#231F20"/>
<path d="M540.988 22.76C536.573 22.76 534.279 26.372 534.279 30.0413C534.279 33.7106 536.631 37.4373 541.045 37.4373C545.46 37.4373 547.811 33.7106 547.811 30.0413C547.811 26.372 545.403 22.76 540.988 22.76ZM540.988 45.3493C532.388 45.3493 525.164 39.3866 525.164 30.0413C525.164 20.696 532.388 14.9627 540.988 14.9627C549.645 14.9627 556.869 20.696 556.869 30.0413C556.869 39.3866 549.645 45.3493 540.988 45.3493Z" fill="#231F20"/>
<path d="M579.973 8.02535C579.285 7.79602 578.311 7.62402 577.393 7.62402C573.953 7.62402 573.209 10.376 573.209 13.0134V15.88H579.572V22.932H573.209V44.432H563.805V22.932H558.589V15.88H563.805V13.128C563.805 6.13335 566.557 1.14441e-05 576.075 1.14441e-05C577.68 1.14441e-05 579.343 0.172016 580.604 0.572018L579.973 8.02535Z" fill="#231F20"/>
<path d="M361.136 97.7653L361.365 69.0413H361.193L350.644 97.7653H343.764L333.5 69.0413H333.328L333.557 97.7653H324.328V57.1733H338.26L347.491 83.2027H347.719L356.548 57.1733H370.709V97.7653H361.136Z" fill="#231F20"/>
<path d="M394.847 85.324H393.643C389.515 85.324 384.871 85.84 384.871 89.2226C384.871 91.4 387.05 92.1466 388.94 92.1466C392.724 92.1466 394.847 89.852 394.847 86.3V85.324ZM377.59 73.112C380.915 69.96 385.672 68.296 390.318 68.296C399.891 68.296 403.446 72.9973 403.446 83.3746V97.7653H394.847V94.7266H394.675C393.242 97.0773 389.974 98.452 386.591 98.452C382.06 98.452 376.215 96.2173 376.215 89.508C376.215 81.2533 386.247 79.8773 394.56 79.8773V79.4186C394.56 76.6093 392.324 75.2906 389.399 75.2906C386.706 75.2906 384.068 76.6093 382.348 78.2146L377.59 73.112Z" fill="#231F20"/>
<path d="M428.615 97.7653V82.1707C428.615 79.0173 427.756 76.1507 424.374 76.1507C421.048 76.1507 419.328 79.0173 419.328 82.284V97.7653H409.868V69.2133H418.986V73.1693H419.1C420.417 70.6467 423.686 68.4107 427.642 68.4107C435.324 68.4107 438.076 74.3733 438.076 80.1067V97.7653H428.615Z" fill="#231F20"/>
<path d="M461.467 85.324H460.264C456.136 85.324 451.492 85.84 451.492 89.2226C451.492 91.4 453.67 92.1466 455.563 92.1466C459.347 92.1466 461.467 89.852 461.467 86.3V85.324ZM444.212 73.112C447.536 69.96 452.295 68.296 456.938 68.296C466.514 68.296 470.068 72.9973 470.068 83.3746V97.7653H461.467V94.7266H461.295C459.863 97.0773 456.595 98.452 453.212 98.452C448.683 98.452 442.833 96.2173 442.833 89.508C442.833 81.2533 452.868 79.8773 461.18 79.8773V79.4186C461.18 76.6093 458.946 75.2906 456.022 75.2906C453.326 75.2906 450.689 76.6093 448.969 78.2146L444.212 73.112Z" fill="#231F20"/>
<path d="M490.88 76.0933C486.636 76.0933 484.171 79.3613 484.171 83.3173C484.171 87.1013 486.636 90.5986 490.88 90.5986C495.179 90.5986 497.816 87.216 497.816 83.3173C497.816 79.4186 495.121 76.0933 490.88 76.0933ZM489.961 111.524C484.975 111.524 479.125 109.919 475.284 107.053L479.987 100.344C482.737 102.752 486.235 103.956 489.445 103.956C494.949 103.956 497.529 100.745 497.529 95.988V94.268H497.357C495.581 96.5613 492.485 98.052 488.701 98.052C480.044 98.052 475.055 91.2853 475.055 83.3747C475.055 75.4627 480.044 68.4107 488.644 68.4107C492.199 68.4107 495.753 69.844 497.759 72.8826H497.873V69.2133H506.761V95.0693C506.761 106.251 500.109 111.524 489.961 111.524Z" fill="#231F20"/>
<path d="M533.306 80.2213C533.306 77.24 531.414 74.7746 527.687 74.7746C524.075 74.7746 521.438 77.2973 521.21 80.2213H533.306ZM541.906 86.068H521.21C521.495 89.2226 524.65 91.4573 528.032 91.4573C531.012 91.4573 533.076 90.1973 534.338 88.4786L540.874 92.6053C538.179 96.504 533.707 98.6826 527.918 98.6826C519.316 98.6826 512.207 93.2346 512.207 83.604C512.207 74.2586 518.972 68.296 527.63 68.296C536.058 68.296 541.963 74.0866 541.963 83.8333C541.963 84.5786 541.963 85.3813 541.906 86.068Z" fill="#231F20"/>
<path d="M583.701 97.7653V82.1707C583.701 78.9013 582.956 76.1507 579.631 76.1507C576.42 76.1507 574.872 79.1333 574.872 82.3413V97.7653H565.469V81.4827C565.469 78.2147 564.208 76.1507 561.399 76.1507C558.417 76.1507 556.697 78.844 556.697 82.284V97.7653H547.237V69.2133H556.353V73.1693H556.468C557.787 70.7613 560.712 68.4107 565.011 68.4107C569.139 68.4107 572.005 70.1893 573.609 73.284C575.503 70.3027 578.484 68.4107 582.727 68.4107C590.467 68.4107 593.103 74.7173 593.103 80.1067V97.7653H583.701Z" fill="#231F20"/>
<path d="M619.306 80.2213C619.306 77.24 617.414 74.7746 613.687 74.7746C610.075 74.7746 607.438 77.2973 607.21 80.2213H619.306ZM627.906 86.068H607.21C607.495 89.2226 610.65 91.4573 614.032 91.4573C617.012 91.4573 619.076 90.1973 620.338 88.4786L626.874 92.6053C624.179 96.504 619.707 98.6826 613.918 98.6826C605.316 98.6826 598.207 93.2346 598.207 83.604C598.207 74.2586 604.972 68.296 613.63 68.296C622.058 68.296 627.963 74.0866 627.963 83.8333C627.963 84.5786 627.963 85.3813 627.906 86.068Z" fill="#231F20"/>
<path d="M651.985 97.7653V82.1707C651.985 79.0173 651.125 76.1507 647.743 76.1507C644.417 76.1507 642.697 79.0173 642.697 82.284V97.7653H633.237V69.2133H642.353V73.1693H642.468C643.787 70.6467 647.055 68.4107 651.011 68.4107C658.693 68.4107 661.445 74.3733 661.445 80.1067V97.7653H651.985Z" fill="#231F20"/>
<path d="M678.185 76.2653V87.1586C678.185 89.7946 679.045 91.172 681.74 91.172C682.657 91.172 683.805 91 684.493 90.7133L684.607 97.5933C683.347 98.052 681.167 98.452 679.16 98.452C671.536 98.452 669.013 94.3826 669.013 88.3053V76.2653H664.427V69.2133H668.956V61.7026H678.185V69.2133H684.893V76.2653H678.185Z" fill="#231F20"/>
<path d="M340.954 121.344L335.795 135.275H345.999L340.954 121.344ZM351.847 151.099L348.694 143.128H332.986L330.003 151.099H319.339L336.368 110.507H345.884L362.74 151.099H351.847Z" fill="#231F20"/>
<path d="M383.781 151.099V135.504C383.781 132.351 382.921 129.484 379.54 129.484C376.215 129.484 374.492 132.351 374.492 135.617V151.099H365.035V122.547H374.149V126.503H374.264C375.583 123.98 378.851 121.744 382.807 121.744C390.491 121.744 393.241 127.707 393.241 133.44V151.099H383.781Z" fill="#231F20"/>
<path d="M416.633 138.657H415.431C411.303 138.657 406.659 139.173 406.659 142.556C406.659 144.733 408.836 145.48 410.728 145.48C414.512 145.48 416.633 143.185 416.633 139.633V138.657ZM399.377 126.445C402.701 123.293 407.46 121.629 412.104 121.629C421.679 121.629 425.233 126.331 425.233 136.708V151.099H416.633V148.06H416.461C415.029 150.411 411.761 151.785 408.379 151.785C403.848 151.785 398 149.55 398 142.842C398 134.587 408.035 133.211 416.347 133.211V132.752C416.347 129.943 414.111 128.624 411.187 128.624C408.492 128.624 405.855 129.943 404.136 131.548L399.377 126.445Z" fill="#231F20"/>
<path d="M431.77 151.099V107.756H441.287V151.099H431.77Z" fill="#231F20"/>
<path d="M462.943 155.397C460.65 161.361 457.553 164.857 450.387 164.857C448.609 164.857 446.603 164.572 445.227 164.228L446.259 156.316C447.176 156.603 448.381 156.832 449.297 156.832C452.221 156.832 453.196 155.455 454.113 152.991L455.032 150.64L443.105 122.547H453.54L459.904 140.893H460.076L465.753 122.547H475.728L462.943 155.397Z" fill="#231F20"/>
<path d="M490.305 129.599V140.492C490.305 143.128 491.164 144.505 493.86 144.505C494.776 144.505 495.924 144.333 496.612 144.047L496.727 150.926C495.465 151.385 493.287 151.785 491.279 151.785C483.655 151.785 481.132 147.716 481.132 141.638V129.599H476.545V122.547H481.075V115.036H490.305V122.547H497.013V129.599H490.305Z" fill="#231F20"/>
<path d="M500.97 151.099V122.547H510.371V151.099H500.97ZM505.67 118.591C502.631 118.591 500.28 116.24 500.28 113.431C500.28 110.679 502.631 108.271 505.67 108.271C508.652 108.271 511.059 110.564 511.059 113.431C511.059 116.356 508.652 118.591 505.67 118.591Z" fill="#231F20"/>
<path d="M534.909 131.777C533.877 130.4 531.815 129.484 529.921 129.484C525.965 129.484 523.329 132.867 523.329 136.823C523.329 140.779 525.909 144.104 530.036 144.104C531.929 144.104 533.992 143.359 535.14 141.983L540.356 148.345C538.007 150.64 533.992 152.016 529.807 152.016C520.807 152.016 513.812 146.283 513.812 136.823C513.812 127.535 520.864 121.629 529.749 121.629C533.82 121.629 538.121 123.177 540.356 125.472L534.909 131.777Z" fill="#231F20"/>
<path d="M562.314 130.975C560.824 129.541 558.644 128.395 556.352 128.395C554.574 128.395 552.798 129.025 552.798 130.689C552.798 132.295 554.344 132.752 558.014 133.555C562.371 134.529 567.131 136.708 567.131 142.269C567.131 149.493 560.767 152.016 554.918 152.016C550.274 152.016 545.459 150.467 542.478 147.601L547.751 142.04C549.415 143.875 551.994 145.25 554.746 145.25C556.295 145.25 558.128 144.619 558.128 142.784C558.128 141.007 556.352 140.435 552.454 139.516C548.496 138.6 544.14 136.593 544.14 131.204C544.14 124.381 550.56 121.629 556.007 121.629C560.251 121.629 564.664 123.005 567.475 125.644L562.314 130.975Z" fill="#231F20"/>
</g>
<defs>
<clipPath id="clip0">
<rect width="684.893" height="164.857" fill="white" transform="matrix(1 0 0 -1 0 164.857)"/>
</clipPath>
</defs>
</svg>
