<?xml version="1.0" encoding="utf-8"?>
<!-- Generator: Adobe Illustrator 23.0.1, SVG Export Plug-In . SVG Version: 6.00 Build 0)  -->
<svg version="1.1" id="Layer_1" xmlns="http://www.w3.org/2000/svg" xmlns:xlink="http://www.w3.org/1999/xlink" x="0px" y="0px"
	 viewBox="0 0 1000 246" style="enable-background:new 0 0 1000 246;" xml:space="preserve">
<style type="text/css">
	.st0{fill:#00C895;}
</style>
<g>
	<g>
		<path class="st0" d="M0,186.61h9.89c3.47,17.01,9.95,29.02,19.44,36.02c9.49,7,19.21,10.5,29.16,10.5
			c9.14,0,15.85-2.05,20.13-6.16c4.28-4.11,6.42-9.52,6.42-16.23c0-6.36-2.31-11.8-6.94-16.32c-2.55-2.43-6.65-5.03-12.32-7.81
			L39.4,173.77c-13.89-6.83-23.84-14.23-29.85-22.22c-6.13-7.98-9.2-17.41-9.2-28.29c0-13.77,4.8-25.66,14.41-35.67
			c9.6-10.01,23.03-15.01,40.27-15.01c7.52,0,15.51,1.25,23.95,3.73c8.45,2.49,13.71,3.73,15.8,3.73c2.89,0,4.95-0.61,6.16-1.82
			c1.22-1.22,2.23-2.92,3.04-5.12h7.81v51.38h-9.03c-3.36-12.03-8.85-21.7-16.49-28.99c-7.64-7.29-16.55-10.94-26.73-10.94
			c-7.87,0-13.74,2.2-17.62,6.6c-3.88,4.4-5.81,9.14-5.81,14.23c0,4.17,1.74,8.33,5.21,12.5c3.36,4.28,9.72,8.68,19.09,13.19
			l19.44,9.37c12.03,5.79,20.83,11.4,26.38,16.84c9.26,9.26,13.89,20.66,13.89,34.19c0,13.19-4.77,25.49-14.32,36.88
			c-9.55,11.4-23.87,17.1-42.96,17.1c-4.74,0-9.52-0.49-14.32-1.48c-4.8-0.99-10.73-2.69-17.79-5.12l-6.08-2.08
			c-2.2-0.81-3.56-1.27-4.08-1.39c-0.52-0.11-1.19-0.17-2-0.17c-1.97,0-3.67,0.78-5.12,2.34s-3.1,4.19-4.95,7.9H0V186.61z"/>
		<path class="st0" d="M154.62,97.05c15.22-16.55,34.34-24.82,57.37-24.82c23.49,0,42.73,8.45,57.71,25.34
			c14.99,16.9,22.48,37.38,22.48,61.44c0,23.72-7.41,44.12-22.22,61.18c-14.81,17.07-34.14,25.6-57.97,25.6
			c-23.14,0-42.29-8.3-57.45-24.91c-15.16-16.6-22.74-37.23-22.74-61.88C131.79,134.25,139.4,113.6,154.62,97.05z M187.85,211.26
			c4.05,15.39,12.09,23.09,24.13,23.09c11.46,0,18.98-5.9,22.56-17.7s5.38-31.01,5.38-57.63c0-26.5-1.88-45.68-5.64-57.54
			c-3.76-11.86-11.14-17.79-22.13-17.79c-12.03,0-20.08,7.7-24.13,23.09c-2.66,10.3-3.99,27.72-3.99,52.25
			C184.04,183.9,185.31,201.31,187.85,211.26z"/>
		<path class="st0" d="M302.11,236.95c6.25-1.5,10.67-3.5,13.28-5.99c2.6-2.49,3.91-7.66,3.91-15.53V29.36
			c0-7.59-1.22-12.56-3.65-14.9c-2.43-2.33-6.94-4.25-13.54-5.76V0.2h67.35v215.23c0,7.87,1.27,13.02,3.82,15.45
			c2.54,2.43,7.06,4.46,13.54,6.08v8.51h-84.7V236.95z"/>
		<path class="st0" d="M421.93,169.13c15.39-9.39,39.51-18.84,72.38-28.34v-25.86c0-10.53-2.23-18.31-6.68-23.35
			c-4.46-5.03-12.36-7.55-23.69-7.55c-6.37,0-11.6,1.19-15.71,3.56c-4.11,2.37-6.16,5.35-6.16,8.94c0,1.39,0.23,2.55,0.69,3.47
			c0.46,0.93,1.15,1.91,2.08,2.95l2.08,2.43c1.62,1.97,2.92,4.14,3.91,6.51c0.98,2.37,1.48,4.89,1.48,7.55
			c0,6.71-2.23,11.89-6.68,15.53c-4.46,3.65-9.63,5.47-15.53,5.47c-6.83,0-12.64-2.02-17.44-6.06c-4.81-4.04-7.2-9.87-7.2-17.49
			c0-13.62,6.42-24.41,19.27-32.37c12.84-7.96,28.64-11.95,47.39-11.95c20.13,0,36.97,3.88,50.51,11.63
			c13.42,7.87,20.13,22.33,20.13,43.39v86.09c0,2.55,0.66,4.72,2,6.51c1.33,1.8,2.8,2.69,4.43,2.69c1.39,0,2.63-0.26,3.73-0.78
			c1.1-0.52,2.8-1.94,5.12-4.25l5.38,7.46c-6.94,8.1-14.64,13.77-23.09,17.01c-5.33,2.08-10.94,3.12-16.84,3.12
			c-10.53,0-18.23-3.07-23.09-9.22c-2.78-3.48-4.81-8.64-6.08-15.48c-9.84,9.86-20.95,16.81-33.33,20.87
			c-7.52,2.55-14.93,3.83-22.22,3.83c-9.72,0-18.81-3.1-27.25-9.3c-8.45-6.2-12.67-15.85-12.67-28.95
			C398.84,191.21,406.54,178.52,421.93,169.13z M483.89,214.89c2.78-2.09,6.08-5.34,9.89-9.74v-52.03
			c-9.49,2.32-17.82,5.98-24.99,10.96c-12.15,8.47-18.23,19.26-18.23,32.37c0,7.77,1.76,13.66,5.29,17.67c3.53,4,7.49,6,11.89,6
			C473.53,220.11,478.91,218.38,483.89,214.89z"/>
		<path class="st0" d="M692.66,83.17c10.94,7.29,16.4,16.66,16.4,28.12c0,6.13-2.17,11.46-6.51,15.97
			c-4.34,4.51-9.86,6.77-16.58,6.77c-4.51,0-8.45-1.04-11.8-3.12c-6.36-3.7-9.55-10.41-9.55-20.13c0-1.04,0.06-2.57,0.17-4.6
			c0.12-2.02,0.17-4.19,0.17-6.51c0-6.25-1.45-10.53-4.34-12.84c-3.01-2.31-6.42-3.47-10.24-3.47c-10.99,0-18.8,6.05-23.43,18.14
			c-4.63,12.09-6.94,25.95-6.94,41.57c0,22.22,4.4,40.85,13.19,55.89c8.79,15.04,20.66,22.56,35.58,22.56
			c9.37,0,17.36-2.08,23.95-6.25c3.93-2.43,8.79-6.88,14.58-13.37l6.6,6.08c-11.57,16.09-25.11,27.14-40.62,33.15
			c-8.22,3.12-16.95,4.69-26.21,4.69c-22.8,0-41.43-8.16-55.89-24.47s-21.7-36.22-21.7-59.71c0-24.76,7.67-45.85,23-63.27
			c15.33-17.41,35.78-26.12,61.36-26.12C668.79,72.23,681.73,75.88,692.66,83.17z"/>
		<path class="st0" d="M744.29,95.23c14.54-15.1,32.06-22.65,52.57-22.65c11.7,0,22.71,3.07,33.02,9.2
			c10.31,6.13,18.25,14.64,23.81,25.52c4.17,8.22,7.07,18.86,8.69,31.94c0.81,6.13,1.22,10.82,1.22,14.06h-90.78
			c0.81,14.23,3.13,26.56,6.96,36.97c6.96,19.56,19.19,29.33,36.7,29.33c8.35,0,16.23-2.6,23.66-7.81
			c4.52-3.12,10.15-8.39,16.87-15.8l8.16,5.03c-11,18.05-23.75,30.61-38.23,37.67c-9.38,4.51-20.16,6.77-32.32,6.77
			c-17.49,0-33.89-6.88-49.18-20.66c-15.29-13.77-22.94-35.76-22.94-65.96C722.48,131.54,729.75,110.33,744.29,95.23z M819.85,140.1
			c-0.23-20.94-1.86-35.58-4.88-43.91c-3.02-8.33-9.06-12.5-18.12-12.5c-9.29,0-15.65,4.8-19.07,14.41
			c-3.43,9.61-5.37,23.61-5.84,42H819.85z"/>
		<circle class="st0" cx="940.75" cy="186.56" r="59.25"/>
	</g>
</g>
</svg>
