<svg width="274" height="75" viewBox="0 0 274 75" fill="none" xmlns="http://www.w3.org/2000/svg">
<g clip-path="url(#clip0)">
<path d="M140.39 12.4622V7.61621H123.104V32.5492H140.39V27.4922H130.103V21.9652H138.66V17.1252H130.103V12.4622H140.39Z" fill="#49166D"/>
<path d="M170.875 27.6292H160.075V7.61621H152.99V32.5492H170.875V27.6292Z" fill="#49166D"/>
<path d="M227.938 17.1177C223.158 16.0407 221.485 15.9157 221.485 14.0137C221.485 12.2487 223.854 11.6997 225.216 11.6997C227.42 11.6997 230.024 12.2137 232.676 13.5737L234.604 8.98572C231.885 7.50372 228.399 6.88672 225.043 6.88672C218.45 6.88672 214.027 9.56172 213.84 14.7767C213.651 19.5327 217.52 21.3117 221.073 22.0457C224.499 22.7537 227.974 23.3597 228.045 25.3947C228.108 27.2717 226.42 28.0757 223.234 28.0757C220.285 28.0757 217.542 27.1277 214.74 25.9537L213.103 30.9407C216.324 32.3107 219.595 33.0657 222.965 33.0657C227.648 33.0657 231.066 32.3347 233.583 29.9727C235.327 28.3507 235.897 26.3927 235.897 24.5237C235.901 20.5827 233.446 18.3627 227.938 17.1177Z" fill="#49166D"/>
<path d="M113.053 12.5382V7.61621H91.3086V12.5382H98.6546V32.5492H105.698V12.5382H113.053Z" fill="#49166D"/>
<path d="M195.047 7.61621V23.4572C195.047 24.6982 195.047 25.0412 194.974 25.5242C194.745 27.0342 193.283 27.9102 190.949 27.9412C189.22 27.9132 187.955 27.4022 187.366 26.4992C187.07 26.0352 186.925 25.2012 186.925 23.8692V7.61621H179.577V24.7992C179.577 27.1802 179.894 28.2552 180.971 29.6142C182.744 31.8312 186.202 32.9972 190.963 32.9972C191.016 32.9972 191.063 32.9972 191.12 32.9972C191.144 32.9972 191.187 32.9972 191.223 32.9972C197.6 32.9972 200.891 30.5112 201.843 28.1852C202.319 27.0572 202.354 26.5232 202.354 24.2472V7.61621H195.047Z" fill="#49166D"/>
<path d="M94.6279 0.789448L53.4209 8.99345V11.8674L53.5519 11.8334C80.7739 5.21645 94.6269 1.23645 94.7389 1.20845C94.8929 1.16845 94.9469 1.04845 94.9259 0.947448C94.9029 0.841448 94.7919 0.753448 94.6279 0.789448Z" fill="#49166D"/>
<path d="M59.716 2.56887V2.56487V2.56887ZM61.125 0.00486498C59.122 0.118865 55.413 3.08587 53.377 4.84787C45.27 11.8619 39.242 18.3089 34.859 25.0609C25.722 29.9549 14.071 34.9879 2.505 38.9159L2.226 39.0099L0 45.0049L1.271 44.5129C8.629 41.7089 20.91 36.4429 32.043 30.5889C31.416 32.2609 31.1 33.7979 31.1 35.1999C31.1 36.2439 31.275 37.2159 31.624 38.0999C32.324 39.8639 33.704 41.1999 35.617 41.9599C38.466 43.0959 42.353 43.1169 46.788 41.7749C58.118 38.3399 71.557 27.7959 74.483 25.6989L74.595 25.6199C74.71 25.5369 74.718 25.4119 74.67 25.3269C74.606 25.2299 74.471 25.2039 74.36 25.2719H74.359H74.36L74.216 25.3589C71.076 27.2439 55.818 36.3029 45.9 38.9619C40.848 40.3169 36.998 39.5779 35.546 37.5459C35.042 36.8519 34.799 35.9739 34.799 34.9499C34.799 32.9509 35.74 30.4059 37.552 27.5769C39.22 26.6279 40.778 25.6999 42.182 24.8179C51.858 19.3799 63.006 8.80686 63.482 2.35286C63.484 2.30886 63.484 2.25787 63.484 2.20987C63.484 1.65287 63.243 1.07987 62.82 0.656865C62.366 0.193865 61.768 -0.037135 61.125 0.00486498ZM60.046 3.08087C60.681 2.66987 60.864 2.92687 60.677 3.39087C60.375 4.13187 58.978 8.58987 48.605 17.1059C45.898 19.3229 43.973 20.5679 40.075 22.8759C46.458 13.9309 55.777 5.85287 60.046 3.08087Z" fill="#66CC00"/>
<path d="M53.2858 9.01953L9.93177 18.3385L8.25977 22.8475L53.4208 11.8655L54.8178 11.0765L54.7788 9.02453L53.2858 9.01953Z" fill="#49166D"/>
<path d="M99.9315 59.9666H102.098V61.0606H99.9315V68.2426C99.9315 69.0906 100.054 69.5846 100.983 69.6466C101.353 69.6466 101.726 69.6266 102.098 69.5836V70.7006C101.705 70.7006 101.333 70.7416 100.94 70.7416C99.2085 70.7416 98.6095 70.1636 98.6305 68.3456V61.0606H96.7725V59.9666H98.6305V56.7676H99.9305L99.9315 59.9666Z" fill="#49166D"/>
<path d="M103.81 55.8818H105.111V61.8038H105.152C105.627 60.5258 107.052 59.6578 108.557 59.6578C111.55 59.6578 112.458 61.2258 112.458 63.7628V70.6148H111.156V63.9698C111.156 62.1328 110.559 60.7508 108.453 60.7508C106.39 60.7508 105.151 62.3168 105.111 64.4008V70.6138H103.81V55.8818" fill="#49166D"/>
<path d="M122.425 64.5503C122.363 62.5863 121.146 60.7533 119.04 60.7533C116.915 60.7533 115.739 62.6093 115.533 64.5503H122.425ZM115.533 65.6433C115.554 67.5423 116.543 69.8323 119.04 69.8323C120.939 69.8323 121.971 68.7173 122.384 67.1073H123.685C123.126 69.5233 121.724 70.9233 119.04 70.9233C115.656 70.9233 114.232 68.3213 114.232 65.2893C114.232 62.4813 115.656 59.6553 119.04 59.6553C122.467 59.6553 123.829 62.6473 123.726 65.6393H115.533V65.6433Z" fill="#49166D"/>
<path d="M135.037 61.0608H132.931V70.6178H131.63V61.0608H129.813V59.9668H131.63V58.9978C131.609 57.1598 132.124 55.8818 134.211 55.8818C134.58 55.8818 134.89 55.9028 135.304 55.9628V57.0778C134.954 57.0148 134.664 56.9738 134.353 56.9738C132.91 56.9738 132.952 57.8828 132.932 59.0368V59.9658H135.038V61.0608" fill="#49166D"/>
<path d="M144.756 70.6168H143.556V68.6968H143.517C142.835 70.1228 141.431 70.9258 139.843 70.9258C137.161 70.9258 136.109 69.3598 136.109 66.8808V59.9678H137.41V66.9028C137.473 68.8228 138.193 69.8348 140.258 69.8348C142.487 69.8348 143.456 67.7298 143.456 65.5638V59.9698H144.757V70.6168" fill="#49166D"/>
<path d="M149.131 59.9666H151.298V61.0606H149.131V68.2426C149.131 69.0906 149.254 69.5846 150.181 69.6466C150.554 69.6466 150.924 69.6266 151.298 69.5836V70.7006C150.903 70.7006 150.535 70.7416 150.142 70.7416C148.408 70.7416 147.81 70.1636 147.829 68.3456V61.0606H145.972V59.9666H147.829V56.7676H149.131V59.9666Z" fill="#49166D"/>
<path d="M161.655 70.6168H160.461V68.6968H160.419C159.735 70.1228 158.335 70.9258 156.747 70.9258C154.063 70.9258 153.01 69.3598 153.01 66.8808V59.9678H154.312V66.9028C154.375 68.8228 155.097 69.8348 157.16 69.8348C159.39 69.8348 160.359 67.7298 160.359 65.5638V59.9698H161.658V70.6178" fill="#49166D"/>
<path d="M163.968 59.9672H165.164V62.4672H165.204C165.866 60.7532 167.309 59.7402 169.227 59.8242V61.1232C166.876 60.9992 165.266 62.7322 165.266 64.9392V70.6152H163.966L163.968 59.9672Z" fill="#49166D"/>
<path d="M177.614 64.5503C177.551 62.5863 176.334 60.7533 174.225 60.7533C172.102 60.7533 170.926 62.6093 170.721 64.5503H177.614ZM170.722 65.6433C170.743 67.5423 171.73 69.8323 174.226 69.8323C176.127 69.8323 177.16 68.7173 177.572 67.1073H178.875C178.316 69.5233 176.912 70.9233 174.229 70.9233C170.846 70.9233 169.422 68.3213 169.422 65.2893C169.422 62.4813 170.846 59.6553 174.229 59.6553C177.657 59.6553 179.018 62.6473 178.916 65.6393H170.724V65.6433H170.722Z" fill="#49166D"/>
<path d="M186.138 70.6168V59.9668H187.439V70.6148H186.138V70.6168ZM186.138 57.9678V55.8818H187.439V57.9678H186.138Z" fill="#49166D"/>
<path d="M196.167 63.0832C196.104 61.4742 194.865 60.7532 193.381 60.7532C192.226 60.7532 190.864 61.2062 190.864 62.5862C190.864 63.7442 192.182 64.1562 193.071 64.3842L194.803 64.7782C196.288 65.0052 197.837 65.8702 197.837 67.7272C197.837 70.0402 195.545 70.9252 193.566 70.9252C191.087 70.9252 189.396 69.7722 189.191 67.1712H190.49C190.594 68.9262 191.894 69.8322 193.625 69.8322C194.844 69.8322 196.537 69.2972 196.537 67.8092C196.537 66.5732 195.385 66.1612 194.206 65.8702L192.534 65.5012C190.844 65.0492 189.56 64.4702 189.56 62.6512C189.56 60.4832 191.687 59.6592 193.566 59.6592C195.689 59.6592 197.381 60.7742 197.465 63.0852L196.167 63.0832Z" fill="#49166D"/>
<path d="M209.271 61.0608H207.167V70.6178H205.864V61.0608H204.048V59.9668H205.864V58.9978C205.844 57.1598 206.36 55.8818 208.444 55.8818C208.815 55.8818 209.129 55.9028 209.537 55.9628V57.0778C209.186 57.0148 208.899 56.9738 208.589 56.9738C207.146 56.9738 207.189 57.8828 207.167 59.0368V59.9658H209.271V61.0608Z" fill="#49166D"/>
<path d="M210.362 59.9672H211.561V62.4672H211.602C212.262 60.7532 213.707 59.7402 215.624 59.8242V61.1232C213.271 60.9992 211.664 62.7322 211.664 64.9392V70.6152H210.361V59.9672" fill="#49166D"/>
<path d="M216.742 70.6168V59.9668H218.042V70.6148H216.742V70.6168ZM216.742 57.9678V55.8818H218.042V57.9678H216.742Z" fill="#49166D"/>
<path d="M228.051 64.5503C227.988 62.5863 226.769 60.7533 224.666 60.7533C222.54 60.7533 221.362 62.6093 221.158 64.5503H228.051ZM221.159 65.6433C221.179 67.5423 222.17 69.8323 224.667 69.8323C226.563 69.8323 227.597 68.7173 228.013 67.1073H229.312C228.754 69.5233 227.351 70.9233 224.667 70.9233C221.28 70.9233 219.856 68.3213 219.856 65.2893C219.856 62.4813 221.28 59.6553 224.667 59.6553C228.095 59.6553 229.457 62.6473 229.351 65.6393H221.16V65.6433H221.159Z" fill="#49166D"/>
<path d="M230.94 59.9672H232.239V61.8042H232.283C232.757 60.5262 234.179 59.6582 235.688 59.6582C238.68 59.6582 239.584 61.2262 239.584 63.7632V70.6152H238.286V63.9702C238.286 62.1332 237.686 60.7512 235.583 60.7512C233.52 60.7512 232.282 62.3172 232.237 64.4012V70.6142H230.938V59.9672" fill="#49166D"/>
<path d="M246.231 69.8318C248.999 69.8318 249.967 67.5008 249.967 65.2908C249.967 63.0828 248.997 60.7528 246.231 60.7528C243.754 60.7528 242.745 63.0828 242.745 65.2908C242.745 67.5008 243.755 69.8318 246.231 69.8318ZM251.267 70.6168H250.072V68.5958H250.029C249.472 69.9768 247.781 70.9248 246.232 70.9248C242.993 70.9248 241.445 68.3048 241.445 65.2908C241.445 62.2788 242.993 59.6578 246.232 59.6578C247.82 59.6578 249.371 60.4628 249.925 61.9898H249.968V55.8818H251.267V70.6168V70.6168Z" fill="#49166D"/>
<path d="M254.922 55.8799H253.62V70.6149H254.922V55.8799Z" fill="#49166D"/>
<path d="M256.076 59.9668H257.46L260.966 69.0478L264.248 59.9668H265.549L260.927 72.2458C260.185 74.0418 259.749 74.5588 258.118 74.5588C257.604 74.5378 257.334 74.5378 257.129 74.4548V73.3588C257.441 73.4218 257.73 73.4628 258.017 73.4628C259.172 73.4628 259.443 72.7818 259.873 71.7938L260.328 70.5728L256.076 59.9668Z" fill="#49166D"/>
<path fill-rule="evenodd" clip-rule="evenodd" d="M267.354 61.7903C267.354 60.7743 268.117 60.0143 269.097 60.0143C270.064 60.0143 270.827 60.7753 270.827 61.7903C270.827 62.8213 270.063 63.5753 269.097 63.5753C268.117 63.5753 267.354 62.8213 267.354 61.7903ZM269.098 63.9333C270.26 63.9333 271.259 63.0273 271.259 61.7903C271.259 60.5613 270.26 59.6562 269.098 59.6562C267.922 59.6562 266.927 60.5603 266.927 61.7903C266.927 63.0263 267.922 63.9333 269.098 63.9333ZM268.642 61.9603H269.074L269.725 63.0263H270.141L269.442 61.9423C269.803 61.8953 270.082 61.7053 270.082 61.2623C270.082 60.7743 269.791 60.5603 269.213 60.5603H268.272V63.0263H268.643V61.9603H268.642ZM268.642 61.6423V60.8763H269.151C269.415 60.8763 269.693 60.9363 269.693 61.2413C269.693 61.6193 269.409 61.6413 269.09 61.6413H268.642V61.6423Z" fill="#49166D"/>
</g>
<defs>
<clipPath id="clip0">
<rect width="273.274" height="74.559" fill="white"/>
</clipPath>
</defs>
</svg>
