<svg width="363" height="308" viewBox="0 0 363 308" fill="none" xmlns="http://www.w3.org/2000/svg">
<g clip-path="url(#clip0)">
<path d="M49.4998 24.4L19.4998 41.8L19.1998 53.4C19.0998 60.3 19.2998 65 19.8998 65C20.8998 65 37.5998 55.6 39.7998 53.8C40.6999 53 40.9998 55.4 40.9998 65.4C40.9998 72.3 41.2998 78 41.5998 78C41.9998 78 47.0998 75.2 53.0998 71.8L63.9998 65.6V52.9V40.2L72.2998 35.4L80.4998 30.5L80.7998 18.7C80.8998 12.3 80.6998 7 80.2998 7C79.8998 7.1 65.9998 14.9 49.4998 24.4Z" fill="black"/>
<path d="M99.4998 23.9C83.5998 33.2 69.8998 41.3 69.2998 41.9C67.6998 43.4 67.4998 65 69.0998 65C69.5998 65 74.3998 62.5 79.5998 59.5C84.8998 56.5 89.2998 54 89.5998 54C89.7998 54 89.9998 59.4 89.9998 66C89.9998 72.6 90.3998 78 90.8998 78C92.2998 78 112.4 66 113.2 64.7C113.6 64 114 58.1 114 51.5V39.5L122 35L130 30.5V18.7C130 12.3 129.7 7 129.3 7.1C128.8 7.1 115.5 14.7 99.4998 23.9Z" fill="black"/>
<path d="M148.4 24.2C132 33.6 118.2 41.8 117.8 42.4C116.6 44.1 116.9 63.8 118 64.5C118.6 64.9 123.3 62.6 128.6 59.6C133.8 56.5 138.3 54 138.6 54C138.8 54 139 59.1 139 65.4C139 71.7 139.4 77.1 139.9 77.5C140.4 77.8 145.7 75.2 151.7 71.7L162.5 65.5L162.8 52.5L163.1 39.5L169.7 36C180.1 30.6 180 30.7 180 18.6C180 12.8 179.6 7.9 179.2 7.6C178.7 7.3 164.9 14.8 148.4 24.2Z" fill="black"/>
<path d="M48.8 82.3L19 99.5V110.7C19 119.1 19.3 122 20.3 122C20.9 122 25.8 119.5 31 116.5L40.5 111L40.8 123C41 130.5 41.5 135 42.1 135C42.7 135 47.8 132.3 53.6 128.9L64 122.8V110.1V97.4L72.5 92.6L81 87.8V76.4C81 67.9 80.7 65 79.8 65C79.1 65 65.1 72.8 48.8 82.3Z" fill="black"/>
<path d="M98.8 82.3L69 99.5V110.7C69 119.1 69.3 122 70.3 122C70.9 122 75.8 119.5 81 116.5L90.5 111L90.8 123C91 130.5 91.5 135 92.1 135C92.7 135 97.8 132.3 103.6 128.9L114 122.8V110.1V97.4L122.5 92.6L131 87.8V76.4C131 67.9 130.7 65 129.8 65C129.1 65 115.1 72.8 98.8 82.3Z" fill="#57B7DF"/>
<path d="M149.4 80.8C134.6 89.4 121.2 97.3 119.7 98.3C117 100 117 100.2 117 111C117 119.9 117.3 122 118.4 122C119.2 122 124 119.6 129.2 116.6L138.5 111.2L138.8 123.1C139 130.9 139.4 135 140.2 135C141.5 135 158.8 125.3 161.3 123.2C162.7 121.9 163 119.9 163 109.5V97.2L171.3 92.4L179.5 87.5L179.8 76.2C180 66 179.9 65 178.3 65.1C177.3 65.1 164.3 72.2 149.4 80.8Z" fill="black"/>
<path d="M48.9998 139.4L19.4998 156.5L19.1998 167.4C19.0998 173.4 19.2998 178.7 19.6998 179.1C20.0998 179.5 25.0998 177.2 30.6998 174L40.9998 168.1V180.1C40.9998 188.4 41.2998 192 42.1998 192C42.7998 192 47.8998 189.4 53.5998 186.2L63.8998 180.5L64.1998 167.5L64.4998 154.6L72.4998 150L80.4998 145.4L80.7998 133.7C80.9998 124.7 80.7998 122 79.7998 122.1C79.0998 122.2 65.1998 129.9 48.9998 139.4Z" fill="black"/>
<path d="M98.4998 139.3L68.4998 156.6L68.1998 167.5C68.0998 173.4 68.2998 178.7 68.7998 179.2C69.1998 179.6 74.1998 177.3 79.7998 174.1L89.9998 168.2V180.1C89.9998 189.8 90.2998 192 91.3998 192C93.0998 192 112.1 181.1 113.2 179.5C113.6 179 114 173 114 166.4V154.2L121.8 149.8L129.5 145.5L129.8 133.7C129.9 127.3 129.7 122 129.3 122C128.8 122 115 129.8 98.4998 139.3Z" fill="black"/>
<path d="M148 139.1C131.8 148.4 118.2 156.6 117.8 157.3C116.7 158.9 116.8 178.8 117.9 179.4C118.3 179.7 122.7 177.6 127.6 174.9C132.4 172.1 137 169.6 137.7 169.3C138.7 168.9 139 171.3 139 180.4C139 190.4 139.2 192 140.6 192C142.4 192 161.1 181.3 162.2 179.6C162.6 179 163 173.1 163 166.4V154.3L171 149.9C175.9 147.2 179.2 144.7 179.6 143.5C180.4 140.1 179.6 122.7 178.5 122.4C178 122.2 164.2 129.7 148 139.1Z" fill="black"/>
<path d="M157.7 217.5C152.5 219.3 149.2 222.5 146.4 228.5C141.4 239.1 144.4 253.5 152.8 259.3C160.7 264.8 172.6 264.7 179.2 259.2C182.5 256.4 185.9 249.9 186 246.2C186 244.2 185.5 244 180.5 244C175.8 244 175 244.3 175 245.9C175 246.9 174.1 248.9 173 250.3C168.5 256 159.5 254.1 156.6 246.9C152.4 236.5 157.2 226 166 226C169.7 226 175 229.5 175 232C175 232.6 177.3 233 180.5 233C184.2 233 186 232.6 186 231.7C185.9 229.5 182.3 222.5 180.2 220.7C175.3 216.3 165 214.8 157.7 217.5Z" fill="black"/>
<path d="M259.7 217C244.2 221.7 239.8 246.2 252.4 257.8C263.8 268.3 283.1 263.7 288.1 249.3C288.9 247.2 289.4 242.6 289.4 239C289.3 222.8 275.2 212.4 259.7 217ZM274.2 228.9C277 231.4 277.4 232.4 277.8 238.2C278.3 245.9 276.5 250.2 271.9 252.6C262.6 257.4 253.8 246.9 257 235C259.4 226.1 267.7 223.1 274.2 228.9Z" fill="black"/>
<path d="M18 222V227H24.5H31V244.5V262H37H43V244.5V227H49.5H56V222V217H37H18V222Z" fill="black"/>
<path fill-rule="evenodd" clip-rule="evenodd" d="M59 262V239.5V217H73.1C88.8 217 92.4 218 95.3 222.9C97.7 227 97.6 235 95 238.2C94.1699 239.292 93.7024 239.907 93.5977 240.579C93.4627 241.445 93.9301 242.404 95 244.6C96.1 246.7 97 250.5 97.1 253C97.1 255.5 97.5 258.4 98 259.5L98.8 261.5L99.6 259.5C100.1 258.4 103.9 248.5 108 237.5L115.6 217.5H121.4H127.2L135.1 238.8C139.4 250.6 143 260.6 143 261.1C143 261.7 140.5 262 137.3 261.8L131.7 261.5L130.2 257.2L128.8 253H121H113.3L112 257.5L110.7 262L104.1 262.1C96.1 262.2 87.6 261.9 87.2 261.6C87.1 261.4 86.6 258.3 86.2 254.6C85.7 251 84.9 247.5 84.3 246.9C83.7 246.3 80.5 245.6 77.1 245.3L71 244.7V253.4V262H65H59ZM86 231.5C86 229.1 85.4 227.7 84.1 227C83 226.5 79.6 226 76.6 226H71V231.5V237H76.6C84 237 86 235.8 86 231.5ZM114 246H120.9H126.484H128C127.28 243.919 126.347 241.258 125.339 238.4L121.249 227H121.107H120.964L117.03 237.704C115.897 240.846 114.808 243.82 114 246Z" fill="black"/>
<path d="M188 222V227H194.5H201V244.5V262H206.5H212V244.5V227H218.5H225V222V217H206.5H188V222Z" fill="black"/>
<path d="M229 239.5V262H234.5H240V239.5V217H234.5H229V239.5Z" fill="black"/>
<path d="M294 239.5V262H299.5H305V248.3V234.6L313.3 248L321.5 261.5L327.3 261.8L333 262.1V239.5V217H327.5H322.1L321.8 229.9L321.5 242.8L313.5 229.9L305.5 217H299.8H294V239.5Z" fill="black"/>
<path d="M165.533 302.622L164.993 303.162C165.047 303.216 165.146 303.279 165.29 303.351C165.434 303.423 165.587 303.486 165.749 303.54C165.929 303.612 166.1 303.657 166.262 303.675C166.424 303.711 166.541 303.72 166.613 303.702C166.631 303.702 166.667 303.648 166.721 303.54C166.775 303.432 166.829 303.315 166.883 303.189C166.937 303.063 166.991 302.946 167.045 302.838C167.099 302.712 167.135 302.64 167.153 302.622C167.153 302.622 167.18 302.622 167.234 302.622C167.306 302.604 167.36 302.595 167.396 302.595C167.432 302.595 167.486 302.604 167.558 302.622C167.63 302.622 167.675 302.622 167.693 302.622C167.729 302.64 167.828 302.676 167.99 302.73C168.152 302.784 168.323 302.847 168.503 302.919C168.683 302.991 168.854 303.045 169.016 303.081C169.178 303.135 169.277 303.162 169.313 303.162C169.385 303.144 169.52 303.09 169.718 303C169.916 302.91 170.132 302.811 170.366 302.703C170.6 302.595 170.816 302.487 171.014 302.379C171.23 302.253 171.383 302.154 171.473 302.082C171.491 302.064 171.527 302.001 171.581 301.893C171.635 301.785 171.689 301.668 171.743 301.542C171.797 301.416 171.851 301.299 171.905 301.191C171.959 301.083 171.995 301.02 172.013 301.002C172.139 300.876 172.328 300.804 172.58 300.786C172.85 300.75 173.138 300.705 173.444 300.651C173.75 300.579 174.065 300.453 174.389 300.273C174.713 300.093 175.001 299.796 175.253 299.382C175.199 299.346 175.1 299.265 174.956 299.139C174.83 298.995 174.749 298.896 174.713 298.842C174.713 298.842 174.704 298.806 174.686 298.734C174.686 298.662 174.686 298.608 174.686 298.572C174.686 298.248 174.821 298.014 175.091 297.87C175.361 297.708 175.64 297.627 175.928 297.627C175.928 297.411 175.865 297.231 175.739 297.087C175.631 296.925 175.487 296.808 175.307 296.736C175.127 296.646 174.938 296.601 174.74 296.601C174.542 296.601 174.353 296.628 174.173 296.682L174.713 296.142C174.677 296.088 174.587 295.998 174.443 295.872C174.317 295.728 174.227 295.638 174.173 295.602C174.137 295.584 174.065 295.602 173.957 295.656C173.867 295.71 173.804 295.737 173.768 295.737C173.768 295.503 173.786 295.314 173.822 295.17C173.876 295.008 173.93 294.864 173.984 294.738C174.056 294.594 174.11 294.45 174.146 294.306C174.2 294.144 174.227 293.928 174.227 293.658C174.227 293.334 174.11 292.965 173.876 292.551C173.642 292.137 173.354 291.732 173.012 291.336C172.688 290.94 172.328 290.589 171.932 290.283C171.554 289.977 171.221 289.77 170.933 289.662C170.897 289.644 170.798 289.635 170.636 289.635C170.474 289.635 170.303 289.644 170.123 289.662C169.943 289.662 169.772 289.662 169.61 289.662C169.448 289.662 169.349 289.662 169.313 289.662C169.295 289.662 169.259 289.635 169.205 289.581C169.151 289.509 169.097 289.446 169.043 289.392C168.989 289.32 168.935 289.257 168.881 289.203C168.827 289.149 168.791 289.122 168.773 289.122C168.755 289.122 168.692 289.122 168.584 289.122C168.476 289.104 168.341 289.095 168.179 289.095C168.035 289.077 167.882 289.068 167.72 289.068C167.576 289.068 167.459 289.068 167.369 289.068C167.009 289.068 166.676 289.131 166.37 289.257C166.064 289.365 165.767 289.5 165.479 289.662C165.191 289.806 164.903 289.941 164.615 290.067C164.327 290.175 164.012 290.229 163.67 290.229C163.634 290.229 163.58 290.229 163.508 290.229C163.436 290.211 163.391 290.202 163.373 290.202C163.337 290.184 163.238 290.148 163.076 290.094C162.914 290.022 162.743 289.959 162.563 289.905C162.383 289.833 162.212 289.77 162.05 289.716C161.888 289.662 161.789 289.644 161.753 289.662C161.717 289.662 161.609 289.725 161.429 289.851C161.267 289.977 161.069 290.13 160.835 290.31C160.601 290.49 160.367 290.67 160.133 290.85C159.899 291.03 159.719 291.174 159.593 291.282C159.539 291.318 159.458 291.39 159.35 291.498C159.26 291.588 159.152 291.696 159.026 291.822C158.918 291.93 158.81 292.038 158.702 292.146C158.612 292.236 158.549 292.308 158.513 292.362C158.585 293.118 158.675 293.874 158.783 294.63C158.891 295.368 159.161 296.052 159.593 296.682C159.611 296.7 159.647 296.736 159.701 296.79C159.755 296.826 159.809 296.88 159.863 296.952C159.935 297.006 159.998 297.06 160.052 297.114C160.106 297.168 160.133 297.204 160.133 297.222C160.133 297.258 160.133 297.33 160.133 297.438C160.133 297.546 160.124 297.663 160.106 297.789C160.106 297.897 160.106 298.005 160.106 298.113C160.106 298.221 160.115 298.284 160.133 298.302C160.151 298.338 160.241 298.383 160.403 298.437C160.565 298.473 160.736 298.518 160.916 298.572C161.114 298.626 161.294 298.68 161.456 298.734C161.618 298.788 161.717 298.824 161.753 298.842C161.771 298.86 161.762 298.905 161.726 298.977C161.708 299.049 161.681 299.121 161.645 299.193C161.609 299.265 161.564 299.337 161.51 299.409C161.474 299.481 161.456 299.526 161.456 299.544C161.312 299.544 161.177 299.526 161.051 299.49C160.925 299.436 160.808 299.4 160.7 299.382C160.592 299.364 160.484 299.391 160.376 299.463C160.286 299.535 160.205 299.688 160.133 299.922C160.187 299.94 160.259 299.976 160.349 300.03C160.457 300.066 160.565 300.111 160.673 300.165C160.799 300.219 160.907 300.282 160.997 300.354C161.105 300.408 161.177 300.444 161.213 300.462C161.231 300.48 161.294 300.543 161.402 300.651C161.51 300.759 161.618 300.876 161.726 301.002C161.852 301.128 161.969 301.245 162.077 301.353C162.185 301.461 162.257 301.524 162.293 301.542C162.329 301.56 162.401 301.56 162.509 301.542C162.635 301.524 162.761 301.497 162.887 301.461C163.031 301.425 163.157 301.389 163.265 301.353C163.391 301.317 163.472 301.299 163.508 301.299C163.508 301.425 163.481 301.56 163.427 301.704C163.391 301.83 163.373 301.956 163.373 302.082C163.373 302.19 163.409 302.298 163.481 302.406C163.553 302.496 163.697 302.568 163.913 302.622C163.967 302.64 164.066 302.658 164.21 302.676C164.372 302.676 164.543 302.676 164.723 302.676C164.903 302.676 165.065 302.676 165.209 302.676C165.371 302.658 165.479 302.64 165.533 302.622ZM167.153 300.462L167.693 301.002L166.613 301.542L167.153 300.462ZM164.426 295.872C164.426 295.584 164.525 295.359 164.723 295.197C164.939 295.017 165.191 294.882 165.479 294.792C165.767 294.702 166.064 294.648 166.37 294.63C166.694 294.594 166.955 294.576 167.153 294.576V293.307C167.189 293.307 167.279 293.325 167.423 293.361C167.567 293.379 167.657 293.406 167.693 293.442C167.729 293.46 167.819 293.55 167.963 293.712C168.107 293.874 168.197 293.964 168.233 293.982C168.305 294 168.458 294.018 168.692 294.036C168.926 294.054 169.169 294.081 169.421 294.117C169.673 294.135 169.907 294.153 170.123 294.171C170.357 294.189 170.519 294.198 170.609 294.198C170.609 294.234 170.582 294.288 170.528 294.36C170.474 294.432 170.429 294.486 170.393 294.522C170.357 294.558 170.285 294.603 170.177 294.657C170.087 294.711 169.979 294.774 169.853 294.846C169.745 294.9 169.637 294.954 169.529 295.008C169.439 295.044 169.367 295.062 169.313 295.062C169.655 295.17 169.853 295.404 169.907 295.764C169.961 296.106 169.943 296.412 169.853 296.682C169.925 296.592 170.06 296.448 170.258 296.25C170.456 296.034 170.672 295.818 170.906 295.602C171.14 295.368 171.356 295.152 171.554 294.954C171.77 294.738 171.923 294.594 172.013 294.522C172.031 294.504 172.067 294.495 172.121 294.495C172.193 294.477 172.247 294.468 172.283 294.468C172.319 294.468 172.364 294.477 172.418 294.495C172.49 294.495 172.535 294.504 172.553 294.522C172.481 294.594 172.364 294.738 172.202 294.954C172.058 295.152 171.896 295.368 171.716 295.602C171.554 295.818 171.392 296.034 171.23 296.25C171.086 296.448 170.987 296.592 170.933 296.682C170.915 296.718 170.879 296.79 170.825 296.898C170.789 297.006 170.735 297.123 170.663 297.249C170.609 297.357 170.555 297.465 170.501 297.573C170.447 297.681 170.411 297.744 170.393 297.762C170.375 297.78 170.285 297.78 170.123 297.762C169.979 297.744 169.889 297.744 169.853 297.762C169.763 297.798 169.619 297.87 169.421 297.978C169.223 298.068 169.007 298.176 168.773 298.302C168.539 298.41 168.314 298.518 168.098 298.626C167.9 298.716 167.765 298.788 167.693 298.842H168.233C168.107 298.572 167.837 298.365 167.423 298.221C167.009 298.059 166.577 297.888 166.127 297.708C165.695 297.51 165.299 297.276 164.939 297.006C164.597 296.736 164.426 296.358 164.426 295.872ZM165.533 292.902C165.659 292.902 165.758 292.965 165.83 293.091C165.902 293.199 165.938 293.325 165.938 293.469C165.938 293.595 165.902 293.712 165.83 293.82C165.758 293.928 165.659 293.982 165.533 293.982C165.389 293.982 165.281 293.928 165.209 293.82C165.155 293.712 165.128 293.595 165.128 293.469C165.128 293.325 165.155 293.199 165.209 293.091C165.281 292.965 165.389 292.902 165.533 292.902ZM168.773 292.362C168.899 292.362 168.998 292.425 169.07 292.551C169.142 292.659 169.178 292.785 169.178 292.929C169.178 293.055 169.142 293.172 169.07 293.28C168.998 293.388 168.899 293.442 168.773 293.442C168.629 293.442 168.521 293.388 168.449 293.28C168.395 293.172 168.368 293.055 168.368 292.929C168.368 292.785 168.395 292.659 168.449 292.551C168.521 292.425 168.629 292.362 168.773 292.362ZM160.673 291.822C160.799 291.822 160.898 291.885 160.97 292.011C161.042 292.119 161.078 292.245 161.078 292.389C161.078 292.515 161.042 292.632 160.97 292.74C160.898 292.848 160.799 292.902 160.673 292.902C160.529 292.902 160.421 292.848 160.349 292.74C160.295 292.632 160.268 292.515 160.268 292.389C160.268 292.245 160.295 292.119 160.349 292.011C160.421 291.885 160.529 291.822 160.673 291.822ZM169.313 291.822H169.853V292.362L169.313 291.822ZM180.95 303.378V304.161C181.058 304.161 181.283 304.071 181.625 303.891C181.985 303.729 182.345 303.531 182.705 303.297C183.083 303.081 183.416 302.874 183.704 302.676C184.01 302.478 184.172 302.352 184.19 302.298C184.208 302.244 184.208 302.118 184.19 301.92C184.19 301.704 184.181 301.47 184.163 301.218C184.163 300.966 184.154 300.741 184.136 300.543C184.136 300.327 184.154 300.192 184.19 300.138C184.244 300.048 184.37 299.94 184.568 299.814C184.766 299.688 184.973 299.571 185.189 299.463C185.423 299.337 185.648 299.238 185.864 299.166C186.08 299.094 186.242 299.058 186.35 299.058C186.35 299.04 186.35 299.004 186.35 298.95C186.368 298.878 186.377 298.824 186.377 298.788C186.377 298.752 186.368 298.707 186.35 298.653C186.35 298.581 186.35 298.536 186.35 298.518C186.35 298.5 186.314 298.437 186.242 298.329C186.188 298.221 186.125 298.104 186.053 297.978C185.981 297.852 185.918 297.744 185.864 297.654C185.81 297.546 185.792 297.474 185.81 297.438C185.828 297.402 185.9 297.312 186.026 297.168C186.17 297.024 186.323 296.871 186.485 296.709C186.665 296.529 186.836 296.358 186.998 296.196C187.178 296.034 187.322 295.908 187.43 295.818C187.43 295.818 187.457 295.818 187.511 295.818C187.583 295.8 187.637 295.791 187.673 295.791C187.709 295.791 187.763 295.8 187.835 295.818C187.907 295.818 187.952 295.818 187.97 295.818C188.06 295.854 188.24 295.944 188.51 296.088C188.78 296.214 188.96 296.304 189.05 296.358C188.798 296.664 188.636 296.925 188.564 297.141C188.51 297.357 188.483 297.636 188.483 297.978C188.483 298.518 188.609 298.995 188.861 299.409C189.131 299.805 189.509 300.003 189.995 300.003C189.995 300.183 190.013 300.327 190.049 300.435C190.103 300.525 190.13 300.615 190.13 300.705C190.13 300.777 190.094 300.858 190.022 300.948C189.95 301.02 189.806 301.11 189.59 301.218L190.67 303.378C190.742 303.324 190.877 303.243 191.075 303.135C191.291 303.045 191.516 302.946 191.75 302.838C191.984 302.712 192.2 302.604 192.398 302.514C192.596 302.406 192.74 302.334 192.83 302.298C192.866 302.28 192.956 302.271 193.1 302.271C193.244 302.271 193.334 302.28 193.37 302.298L193.91 299.598C193.928 299.562 193.937 299.472 193.937 299.328C193.955 299.184 193.964 299.094 193.964 299.058H192.83V295.278C192.488 295.062 192.245 294.801 192.101 294.495C191.957 294.171 191.849 293.847 191.777 293.523C191.705 293.181 191.633 292.839 191.561 292.497C191.507 292.137 191.39 291.804 191.21 291.498C191.192 291.48 191.129 291.444 191.021 291.39C190.931 291.336 190.823 291.282 190.697 291.228C190.571 291.174 190.445 291.12 190.319 291.066C190.211 291.012 190.148 290.976 190.13 290.958C190.094 290.94 190.022 290.877 189.914 290.769C189.824 290.643 189.716 290.517 189.59 290.391C189.482 290.265 189.374 290.148 189.266 290.04C189.158 289.932 189.086 289.878 189.05 289.878C189.014 289.878 188.915 289.905 188.753 289.959C188.591 290.013 188.42 290.076 188.24 290.148C188.06 290.22 187.889 290.292 187.727 290.364C187.565 290.418 187.466 290.436 187.43 290.418C187.358 290.4 187.286 290.346 187.214 290.256C187.142 290.166 187.079 290.067 187.025 289.959C186.971 289.833 186.926 289.716 186.89 289.608C186.854 289.5 186.854 289.41 186.89 289.338C186.872 289.482 186.746 289.689 186.512 289.959C186.278 290.229 185.99 290.526 185.648 290.85C185.324 291.174 184.964 291.507 184.568 291.849C184.19 292.173 183.83 292.479 183.488 292.767C183.164 293.037 182.885 293.262 182.651 293.442C182.417 293.622 182.3 293.712 182.3 293.712C182.264 293.712 182.21 293.712 182.138 293.712C182.084 293.694 182.048 293.676 182.03 293.658L179.33 290.958C179.33 290.958 179.294 290.949 179.222 290.931C179.168 290.913 179.123 290.904 179.087 290.904C178.835 290.904 178.565 290.985 178.277 291.147C178.007 291.309 177.728 291.507 177.44 291.741C177.17 291.975 176.909 292.218 176.657 292.47C176.423 292.722 176.234 292.938 176.09 293.118C176.144 293.1 176.225 293.109 176.333 293.145C176.459 293.181 176.576 293.226 176.684 293.28C176.81 293.334 176.918 293.397 177.008 293.469C177.098 293.541 177.152 293.604 177.17 293.658C177.188 293.712 177.197 293.847 177.197 294.063C177.197 294.261 177.188 294.486 177.17 294.738C177.17 294.972 177.161 295.197 177.143 295.413C177.143 295.629 177.152 295.764 177.17 295.818C177.17 295.854 177.215 295.98 177.305 296.196C177.395 296.412 177.494 296.664 177.602 296.952C177.728 297.24 177.845 297.528 177.953 297.816C178.079 298.104 178.178 298.338 178.25 298.518C178.268 298.554 178.304 298.626 178.358 298.734C178.412 298.824 178.466 298.932 178.52 299.058C178.592 299.184 178.655 299.301 178.709 299.409C178.763 299.517 178.79 299.58 178.79 299.598C178.79 299.634 178.763 299.706 178.709 299.814C178.655 299.904 178.592 300.012 178.52 300.138C178.448 300.264 178.385 300.381 178.331 300.489C178.277 300.597 178.25 300.66 178.25 300.678C178.25 300.75 178.268 300.867 178.304 301.029C178.358 301.173 178.412 301.335 178.466 301.515C178.52 301.677 178.574 301.839 178.628 302.001C178.7 302.145 178.754 302.244 178.79 302.298C178.808 302.334 178.871 302.379 178.979 302.433C179.087 302.469 179.204 302.514 179.33 302.568C179.456 302.622 179.573 302.676 179.681 302.73C179.789 302.784 179.852 302.82 179.87 302.838C179.906 302.874 179.951 302.964 180.005 303.108C180.059 303.252 180.086 303.342 180.086 303.378H180.95ZM192.83 300.678C192.992 300.714 193.073 300.804 193.073 300.948C193.073 301.092 192.992 301.182 192.83 301.218C192.74 301.236 192.677 301.218 192.641 301.164C192.605 301.092 192.587 301.02 192.587 300.948C192.587 300.876 192.605 300.813 192.641 300.759C192.677 300.687 192.74 300.66 192.83 300.678ZM182.03 294.738V295.818H181.49L182.03 294.738ZM183.65 295.278C183.812 295.314 183.893 295.404 183.893 295.548C183.893 295.692 183.812 295.782 183.65 295.818C183.56 295.836 183.497 295.818 183.461 295.764C183.425 295.692 183.407 295.62 183.407 295.548C183.407 295.476 183.425 295.413 183.461 295.359C183.497 295.287 183.56 295.26 183.65 295.278ZM186.89 294.738C187.016 294.738 187.115 294.801 187.187 294.927C187.259 295.035 187.295 295.161 187.295 295.305C187.295 295.431 187.259 295.548 187.187 295.656C187.115 295.764 187.016 295.818 186.89 295.818C186.746 295.818 186.638 295.764 186.566 295.656C186.512 295.548 186.485 295.431 186.485 295.305C186.485 295.161 186.512 295.035 186.566 294.927C186.638 294.801 186.746 294.738 186.89 294.738ZM178.25 293.658C178.376 293.658 178.475 293.721 178.547 293.847C178.619 293.955 178.655 294.081 178.655 294.225C178.655 294.351 178.619 294.468 178.547 294.576C178.475 294.684 178.376 294.738 178.25 294.738C178.106 294.738 177.998 294.684 177.926 294.576C177.872 294.468 177.845 294.351 177.845 294.225C177.845 294.081 177.872 293.955 177.926 293.847C177.998 293.721 178.106 293.658 178.25 293.658ZM179.87 292.038C179.996 292.038 180.095 292.101 180.167 292.227C180.239 292.335 180.275 292.461 180.275 292.605C180.275 292.731 180.239 292.848 180.167 292.956C180.095 293.064 179.996 293.118 179.87 293.118C179.726 293.118 179.618 293.064 179.546 292.956C179.492 292.848 179.465 292.731 179.465 292.605C179.465 292.461 179.492 292.335 179.546 292.227C179.618 292.101 179.726 292.038 179.87 292.038ZM211.884 299.76C211.884 300.066 212.028 300.435 212.316 300.867C212.604 301.299 212.946 301.713 213.342 302.109C213.756 302.487 214.179 302.811 214.611 303.081C215.043 303.369 215.394 303.522 215.664 303.54H215.124C215.16 303.504 215.223 303.45 215.313 303.378C215.421 303.324 215.529 303.27 215.637 303.216C215.763 303.162 215.871 303.108 215.961 303.054C216.069 303.018 216.15 303 216.204 303C216.294 303 216.402 303.063 216.528 303.189C216.672 303.333 216.744 303.45 216.744 303.54L218.364 302.46C218.454 302.766 218.598 302.937 218.796 302.973C218.994 303.009 219.21 303.027 219.444 303.027C219.714 303.027 219.966 302.973 220.2 302.865C220.434 302.739 220.551 302.514 220.551 302.19C220.551 302.154 220.542 302.1 220.524 302.028C220.524 301.956 220.524 301.92 220.524 301.92C220.488 301.866 220.398 301.776 220.254 301.65C220.128 301.506 220.038 301.416 219.984 301.38C220.164 301.326 220.461 301.209 220.875 301.029C221.307 300.849 221.748 300.642 222.198 300.408C222.666 300.174 223.098 299.949 223.494 299.733C223.89 299.499 224.16 299.328 224.304 299.22C224.376 299.166 224.475 299.04 224.601 298.842C224.727 298.644 224.844 298.437 224.952 298.221C225.078 297.987 225.177 297.762 225.249 297.546C225.339 297.33 225.384 297.168 225.384 297.06L225.924 297.6C225.762 297.276 225.699 296.997 225.735 296.763C225.789 296.511 225.897 296.286 226.059 296.088C226.221 295.872 226.419 295.656 226.653 295.44C226.905 295.224 227.139 294.981 227.355 294.711C227.571 294.441 227.751 294.126 227.895 293.766C228.057 293.406 228.138 292.974 228.138 292.47C228.138 292.236 228.12 291.975 228.084 291.687C228.066 291.399 227.886 291.21 227.544 291.12C227.652 291.048 227.769 290.949 227.895 290.823C228.021 290.679 228.138 290.526 228.246 290.364C228.354 290.202 228.444 290.049 228.516 289.905C228.588 289.743 228.624 289.608 228.624 289.5C228.624 289.464 228.597 289.365 228.543 289.203C228.489 289.041 228.426 288.87 228.354 288.69C228.282 288.51 228.219 288.339 228.165 288.177C228.111 288.015 228.084 287.916 228.084 287.88C228.084 287.772 228.102 287.592 228.138 287.34C228.192 287.07 228.246 286.791 228.3 286.503C228.354 286.215 228.408 285.945 228.462 285.693C228.534 285.441 228.588 285.27 228.624 285.18L227.544 285.72C227.616 285.396 227.607 284.991 227.517 284.505C227.427 284.019 227.274 283.533 227.058 283.047C226.842 282.561 226.59 282.12 226.302 281.724C226.014 281.31 225.708 281.022 225.384 280.86C225.348 280.842 225.267 280.842 225.141 280.86C225.015 280.878 224.88 280.905 224.736 280.941C224.61 280.977 224.484 281.013 224.358 281.049C224.25 281.085 224.178 281.103 224.142 281.103C224.142 280.581 224.061 280.167 223.899 279.861C223.755 279.555 223.548 279.33 223.278 279.186C223.008 279.024 222.684 278.925 222.306 278.889C221.928 278.853 221.514 278.835 221.064 278.835V277.62C220.974 277.674 220.794 277.773 220.524 277.917C220.254 278.043 220.074 278.124 219.984 278.16C219.984 278.16 219.948 278.169 219.876 278.187C219.804 278.187 219.75 278.187 219.714 278.187C219.462 278.187 219.21 278.16 218.958 278.106C218.724 278.034 218.481 277.962 218.229 277.89C217.995 277.818 217.752 277.755 217.5 277.701C217.248 277.629 216.987 277.593 216.717 277.593C216.015 277.593 215.322 277.728 214.638 277.998C213.954 278.25 213.396 278.664 212.964 279.24C212.946 279.276 212.91 279.348 212.856 279.456C212.802 279.564 212.748 279.681 212.694 279.807C212.64 279.933 212.586 280.05 212.532 280.158C212.478 280.248 212.442 280.302 212.424 280.32C212.406 280.338 212.343 280.347 212.235 280.347C212.127 280.329 212.01 280.32 211.884 280.32C211.776 280.32 211.659 280.32 211.533 280.32C211.425 280.302 211.362 280.302 211.344 280.32C211.29 280.356 211.209 280.419 211.101 280.509C210.993 280.599 210.876 280.707 210.75 280.833C210.642 280.941 210.534 281.049 210.426 281.157C210.336 281.265 210.282 281.346 210.264 281.4L209.724 280.86C209.67 281.238 209.553 281.49 209.373 281.616C209.193 281.742 209.004 281.841 208.806 281.913C208.626 281.985 208.455 282.075 208.293 282.183C208.149 282.273 208.077 282.462 208.077 282.75C208.077 282.858 208.122 283.002 208.212 283.182C208.32 283.344 208.437 283.515 208.563 283.695C208.689 283.875 208.815 284.055 208.941 284.235C209.067 284.397 209.148 284.532 209.184 284.64C209.382 284.334 209.634 284.082 209.94 283.884C210.264 283.668 210.606 283.497 210.966 283.371C211.344 283.245 211.722 283.155 212.1 283.101C212.496 283.047 212.874 283.02 213.234 283.02H213.504C213.45 283.11 213.351 283.29 213.207 283.56C213.081 283.83 213 284.01 212.964 284.1C212.964 284.118 212.955 284.163 212.937 284.235C212.937 284.289 212.937 284.334 212.937 284.37C212.937 284.532 212.964 284.658 213.018 284.748C213.09 284.838 213.162 284.928 213.234 285.018C213.306 285.09 213.369 285.18 213.423 285.288C213.495 285.396 213.531 285.531 213.531 285.693C213.531 285.927 213.495 286.143 213.423 286.341C213.369 286.521 213.306 286.71 213.234 286.908C213.162 287.088 213.09 287.277 213.018 287.475C212.964 287.655 212.937 287.862 212.937 288.096C212.937 288.204 212.937 288.366 212.937 288.582C212.955 288.798 212.964 288.924 212.964 288.96C212.964 289.032 212.991 289.203 213.045 289.473C213.117 289.725 213.18 290.004 213.234 290.31C213.306 290.616 213.369 290.904 213.423 291.174C213.477 291.426 213.504 291.588 213.504 291.66C213.504 291.786 213.477 292.002 213.423 292.308C213.387 292.614 213.342 292.938 213.288 293.28C213.234 293.622 213.171 293.946 213.099 294.252C213.045 294.558 213 294.774 212.964 294.9C212.946 294.954 212.883 295.062 212.775 295.224C212.667 295.368 212.55 295.53 212.424 295.71C212.298 295.89 212.181 296.061 212.073 296.223C211.965 296.385 211.902 296.484 211.884 296.52C211.848 296.574 211.803 296.682 211.749 296.844C211.695 296.988 211.641 297.15 211.587 297.33C211.533 297.51 211.479 297.681 211.425 297.843C211.389 297.987 211.362 298.086 211.344 298.14H212.964V298.896C212.928 298.896 212.838 298.851 212.694 298.761C212.55 298.671 212.46 298.644 212.424 298.68C212.334 298.77 212.217 298.95 212.073 299.22C211.947 299.49 211.884 299.67 211.884 299.76ZM215.124 301.38C215.25 301.38 215.349 301.443 215.421 301.569C215.493 301.677 215.529 301.803 215.529 301.947C215.529 302.073 215.493 302.19 215.421 302.298C215.349 302.406 215.25 302.46 215.124 302.46C214.98 302.46 214.872 302.406 214.8 302.298C214.746 302.19 214.719 302.073 214.719 301.947C214.719 301.803 214.746 301.677 214.8 301.569C214.872 301.443 214.98 301.38 215.124 301.38ZM217.824 298.14C217.986 298.176 218.067 298.266 218.067 298.41C218.067 298.554 217.986 298.644 217.824 298.68C217.734 298.698 217.671 298.68 217.635 298.626C217.599 298.554 217.581 298.482 217.581 298.41C217.581 298.338 217.599 298.275 217.635 298.221C217.671 298.149 217.734 298.122 217.824 298.14ZM216.744 297.6C216.87 297.6 216.969 297.663 217.041 297.789C217.113 297.897 217.149 298.023 217.149 298.167C217.149 298.293 217.113 298.41 217.041 298.518C216.969 298.626 216.87 298.68 216.744 298.68C216.6 298.68 216.492 298.626 216.42 298.518C216.366 298.41 216.339 298.293 216.339 298.167C216.339 298.023 216.366 297.897 216.42 297.789C216.492 297.663 216.6 297.6 216.744 297.6ZM220.524 298.14C220.488 298.302 220.398 298.383 220.254 298.383C220.11 298.383 220.02 298.302 219.984 298.14C219.966 298.068 219.984 298.014 220.038 297.978C220.11 297.924 220.182 297.897 220.254 297.897C220.326 297.897 220.389 297.924 220.443 297.978C220.515 298.014 220.542 298.068 220.524 298.14ZM224.304 297.6C224.43 297.6 224.529 297.663 224.601 297.789C224.673 297.897 224.709 298.023 224.709 298.167C224.709 298.293 224.673 298.41 224.601 298.518C224.529 298.626 224.43 298.68 224.304 298.68C224.16 298.68 224.052 298.626 223.98 298.518C223.926 298.41 223.899 298.293 223.899 298.167C223.899 298.023 223.926 297.897 223.98 297.789C224.052 297.663 224.16 297.6 224.304 297.6ZM217.284 295.98L218.364 294.9L217.824 294.36V290.04C217.734 290.04 217.626 290.004 217.5 289.932C217.392 289.842 217.275 289.743 217.149 289.635C217.041 289.509 216.942 289.392 216.852 289.284C216.78 289.158 216.744 289.05 216.744 288.96C216.744 288.906 216.798 288.771 216.906 288.555C217.014 288.339 217.131 288.114 217.257 287.88C217.383 287.628 217.5 287.403 217.608 287.205C217.734 286.989 217.806 286.854 217.824 286.8C217.878 286.692 217.932 286.557 217.986 286.395C218.058 286.215 218.121 286.044 218.175 285.882C218.229 285.702 218.274 285.549 218.31 285.423C218.346 285.279 218.364 285.198 218.364 285.18C218.364 285.144 218.31 285.081 218.202 284.991C218.094 284.883 217.977 284.766 217.851 284.64C217.725 284.514 217.599 284.406 217.473 284.316C217.365 284.208 217.302 284.136 217.284 284.1C217.266 284.082 217.248 284.046 217.23 283.992C217.23 283.92 217.23 283.866 217.23 283.83C217.23 283.596 217.311 283.425 217.473 283.317C217.653 283.209 217.869 283.137 218.121 283.101C218.391 283.047 218.688 283.02 219.012 283.02C219.354 283.002 219.687 282.984 220.011 282.966C220.335 282.93 220.632 282.885 220.902 282.831C221.19 282.759 221.424 282.642 221.604 282.48C221.622 282.534 221.649 282.642 221.685 282.804C221.739 282.948 221.793 283.11 221.847 283.29C221.901 283.47 221.955 283.641 222.009 283.803C222.063 283.947 222.108 284.046 222.144 284.1C222.162 284.136 222.198 284.208 222.252 284.316C222.306 284.406 222.36 284.514 222.414 284.64C222.486 284.766 222.549 284.883 222.603 284.991C222.657 285.099 222.684 285.162 222.684 285.18C222.684 285.216 222.684 285.315 222.684 285.477C222.684 285.639 222.675 285.819 222.657 286.017C222.657 286.197 222.657 286.368 222.657 286.53C222.657 286.674 222.666 286.764 222.684 286.8C222.702 286.854 222.756 286.917 222.846 286.989C222.954 287.043 223.062 287.106 223.17 287.178C223.296 287.232 223.413 287.277 223.521 287.313C223.629 287.349 223.71 287.358 223.764 287.34V292.2C223.548 292.344 223.386 292.506 223.278 292.686C223.188 292.866 223.107 293.055 223.035 293.253C222.981 293.433 222.927 293.622 222.873 293.82C222.837 294 222.774 294.18 222.684 294.36C222.648 294.414 222.558 294.513 222.414 294.657C222.288 294.783 222.198 294.864 222.144 294.9C222.108 294.918 222.009 294.954 221.847 295.008C221.685 295.062 221.505 295.116 221.307 295.17C221.127 295.224 220.956 295.278 220.794 295.332C220.65 295.386 220.56 295.422 220.524 295.44C220.416 295.53 220.29 295.674 220.146 295.872C220.02 296.07 219.867 296.277 219.687 296.493C219.525 296.691 219.336 296.853 219.12 296.979C218.904 297.105 218.652 297.132 218.364 297.06C218.292 297.042 218.193 296.988 218.067 296.898C217.959 296.808 217.851 296.709 217.743 296.601C217.635 296.493 217.536 296.385 217.446 296.277C217.356 296.151 217.302 296.052 217.284 295.98ZM224.304 295.98C224.43 295.98 224.529 296.043 224.601 296.169C224.673 296.277 224.709 296.403 224.709 296.547C224.709 296.673 224.673 296.79 224.601 296.898C224.529 297.006 224.43 297.06 224.304 297.06C224.16 297.06 224.052 297.006 223.98 296.898C223.926 296.79 223.899 296.673 223.899 296.547C223.899 296.403 223.926 296.277 223.98 296.169C224.052 296.043 224.16 295.98 224.304 295.98ZM227.004 294.36C227.076 294.504 227.04 294.648 226.896 294.792C226.752 294.936 226.608 294.972 226.464 294.9C226.392 294.864 226.374 294.801 226.41 294.711C226.446 294.621 226.5 294.54 226.572 294.468C226.644 294.396 226.725 294.342 226.815 294.306C226.905 294.27 226.968 294.288 227.004 294.36ZM216.744 292.74C216.87 292.74 216.969 292.803 217.041 292.929C217.113 293.037 217.149 293.163 217.149 293.307C217.149 293.433 217.113 293.55 217.041 293.658C216.969 293.766 216.87 293.82 216.744 293.82C216.6 293.82 216.492 293.766 216.42 293.658C216.366 293.55 216.339 293.433 216.339 293.307C216.339 293.163 216.366 293.037 216.42 292.929C216.492 292.803 216.6 292.74 216.744 292.74ZM216.744 291.66C216.87 291.66 216.969 291.723 217.041 291.849C217.113 291.957 217.149 292.083 217.149 292.227C217.149 292.353 217.113 292.47 217.041 292.578C216.969 292.686 216.87 292.74 216.744 292.74C216.6 292.74 216.492 292.686 216.42 292.578C216.366 292.47 216.339 292.353 216.339 292.227C216.339 292.083 216.366 291.957 216.42 291.849C216.492 291.723 216.6 291.66 216.744 291.66ZM227.544 291.66C227.67 291.66 227.769 291.723 227.841 291.849C227.913 291.957 227.949 292.083 227.949 292.227C227.949 292.353 227.913 292.47 227.841 292.578C227.769 292.686 227.67 292.74 227.544 292.74C227.4 292.74 227.292 292.686 227.22 292.578C227.166 292.47 227.139 292.353 227.139 292.227C227.139 292.083 227.166 291.957 227.22 291.849C227.292 291.723 227.4 291.66 227.544 291.66ZM217.824 288.42C217.68 288.42 217.572 288.483 217.5 288.609C217.446 288.717 217.419 288.843 217.419 288.987C217.419 289.113 217.446 289.23 217.5 289.338C217.572 289.446 217.68 289.5 217.824 289.5C217.95 289.5 218.049 289.446 218.121 289.338C218.193 289.23 218.229 289.113 218.229 288.987C218.229 288.843 218.193 288.717 218.121 288.609C218.049 288.483 217.95 288.42 217.824 288.42ZM217.824 287.34C217.68 287.34 217.572 287.403 217.5 287.529C217.446 287.637 217.419 287.763 217.419 287.907C217.419 288.033 217.446 288.15 217.5 288.258C217.572 288.366 217.68 288.42 217.824 288.42C217.95 288.42 218.049 288.366 218.121 288.258C218.193 288.15 218.229 288.033 218.229 287.907C218.229 287.763 218.193 287.637 218.121 287.529C218.049 287.403 217.95 287.34 217.824 287.34ZM219.444 280.86C219.57 280.86 219.669 280.923 219.741 281.049C219.813 281.157 219.849 281.283 219.849 281.427C219.849 281.553 219.813 281.67 219.741 281.778C219.669 281.886 219.57 281.94 219.444 281.94C219.3 281.94 219.192 281.886 219.12 281.778C219.066 281.67 219.039 281.553 219.039 281.427C219.039 281.283 219.066 281.157 219.12 281.049C219.192 280.923 219.3 280.86 219.444 280.86ZM215.124 279.24L215.664 279.78L215.124 280.32V279.24ZM239.971 302.46C239.719 302.586 239.539 302.748 239.431 302.946C239.341 303.144 239.296 303.369 239.296 303.621C239.332 303.621 239.44 303.612 239.62 303.594C239.818 303.576 239.935 303.558 239.971 303.54C239.989 303.54 240.052 303.504 240.16 303.432C240.268 303.378 240.385 303.315 240.511 303.243C240.637 303.189 240.745 303.135 240.835 303.081C240.943 303.027 241.015 303 241.051 303C241.105 303 241.231 303.027 241.429 303.081C241.645 303.135 241.87 303.198 242.104 303.27C242.356 303.342 242.59 303.405 242.806 303.459C243.022 303.513 243.157 303.54 243.211 303.54C243.247 303.54 243.337 303.468 243.481 303.324C243.625 303.198 243.715 303.09 243.751 303C243.751 303 243.751 302.964 243.751 302.892C243.769 302.82 243.778 302.766 243.778 302.73C243.778 302.694 243.769 302.64 243.751 302.568C243.751 302.496 243.751 302.46 243.751 302.46C243.715 302.406 243.625 302.316 243.481 302.19C243.355 302.046 243.265 301.956 243.211 301.92C243.445 301.812 243.724 301.704 244.048 301.596C244.372 301.47 244.669 301.326 244.939 301.164C245.227 300.984 245.47 300.777 245.668 300.543C245.866 300.309 245.965 300.03 245.965 299.706C245.965 299.328 245.848 299.067 245.614 298.923C245.398 298.779 245.11 298.698 244.75 298.68C244.408 298.644 244.03 298.653 243.616 298.707C243.202 298.761 242.815 298.797 242.455 298.815C242.095 298.815 241.78 298.779 241.51 298.707C241.258 298.617 241.105 298.428 241.051 298.14C240.907 298.158 240.655 298.176 240.295 298.194C239.935 298.194 239.557 298.194 239.161 298.194C238.765 298.194 238.387 298.194 238.027 298.194C237.667 298.176 237.415 298.158 237.271 298.14C237.235 298.14 237.163 298.113 237.055 298.059C236.965 298.005 236.857 297.951 236.731 297.897C236.605 297.825 236.488 297.762 236.38 297.708C236.272 297.636 236.209 297.6 236.191 297.6C236.137 297.582 236.002 297.555 235.786 297.519C235.57 297.465 235.336 297.411 235.084 297.357C234.832 297.303 234.598 297.249 234.382 297.195C234.184 297.141 234.067 297.096 234.031 297.06C234.013 297.042 233.986 296.916 233.95 296.682C233.932 296.43 233.923 296.232 233.923 296.088C233.923 295.854 233.932 295.62 233.95 295.386C233.968 295.152 234.013 294.936 234.085 294.738C234.157 294.54 234.274 294.36 234.436 294.198C234.598 294.036 234.823 293.91 235.111 293.82C235.111 293.91 235.147 294.018 235.219 294.144C235.309 294.252 235.408 294.369 235.516 294.495C235.642 294.603 235.759 294.702 235.867 294.792C235.993 294.864 236.101 294.9 236.191 294.9C236.299 294.9 236.452 294.864 236.65 294.792C236.866 294.702 237.091 294.603 237.325 294.495C237.559 294.369 237.775 294.252 237.973 294.144C238.171 294.018 238.297 293.91 238.351 293.82C238.351 293.91 238.414 294.027 238.54 294.171C238.684 294.297 238.801 294.36 238.891 294.36C238.909 294.36 238.963 294.342 239.053 294.306C239.143 294.252 239.242 294.198 239.35 294.144C239.476 294.09 239.593 294.036 239.701 293.982C239.827 293.91 239.917 293.856 239.971 293.82C239.989 293.802 240.016 293.766 240.052 293.712C240.106 293.658 240.16 293.604 240.214 293.55C240.286 293.478 240.349 293.415 240.403 293.361C240.457 293.307 240.493 293.28 240.511 293.28C240.565 293.28 240.646 293.307 240.754 293.361C240.862 293.397 240.97 293.442 241.078 293.496C241.186 293.55 241.285 293.613 241.375 293.685C241.483 293.739 241.555 293.784 241.591 293.82C241.645 293.478 241.771 293.226 241.969 293.064C242.167 292.884 242.374 292.74 242.59 292.632C242.806 292.524 242.995 292.407 243.157 292.281C243.337 292.155 243.427 291.948 243.427 291.66H242.671C242.959 291.03 243.337 290.472 243.805 289.986C244.273 289.482 244.795 289.05 245.371 288.69H243.751C243.841 288.654 243.949 288.537 244.075 288.339C244.219 288.123 244.291 287.97 244.291 287.88C244.291 287.826 244.264 287.745 244.21 287.637C244.174 287.529 244.129 287.421 244.075 287.313C244.021 287.187 243.958 287.079 243.886 286.989C243.832 286.899 243.787 286.836 243.751 286.8C243.733 286.782 243.67 286.782 243.562 286.8C243.454 286.8 243.337 286.8 243.211 286.8C243.103 286.8 242.986 286.809 242.86 286.827C242.752 286.827 242.689 286.818 242.671 286.8C242.275 286.602 241.969 286.413 241.753 286.233C241.555 286.053 241.384 285.882 241.24 285.72C241.096 285.54 240.961 285.387 240.835 285.261C240.709 285.117 240.529 284.991 240.295 284.883C240.061 284.775 239.746 284.694 239.35 284.64C238.972 284.586 238.459 284.559 237.811 284.559C237.721 284.559 237.577 284.568 237.379 284.586C237.181 284.586 236.965 284.595 236.731 284.613C236.497 284.613 236.272 284.622 236.056 284.64C235.858 284.64 235.723 284.64 235.651 284.64C235.597 284.676 235.498 284.766 235.354 284.91C235.228 285.036 235.147 285.126 235.111 285.18C235.093 285.216 235.057 285.288 235.003 285.396C234.967 285.504 234.913 285.621 234.841 285.747C234.787 285.855 234.733 285.963 234.679 286.071C234.625 286.179 234.589 286.242 234.571 286.26C234.265 286.512 233.887 286.746 233.437 286.962C233.005 287.178 232.582 287.43 232.168 287.718C231.754 287.988 231.394 288.312 231.088 288.69C230.8 289.05 230.656 289.5 230.656 290.04H231.115C231.115 290.076 231.16 290.166 231.25 290.31C231.34 290.454 231.367 290.544 231.331 290.58C230.971 290.94 230.647 291.192 230.359 291.336C230.089 291.48 229.864 291.642 229.684 291.822C229.504 291.984 229.369 292.227 229.279 292.551C229.189 292.857 229.144 293.361 229.144 294.063C229.144 294.567 229.198 295.062 229.306 295.548C229.432 296.016 229.567 296.484 229.711 296.952C229.873 297.42 230.008 297.888 230.116 298.356C230.242 298.806 230.305 299.274 230.305 299.76H231.493C231.493 299.796 231.457 299.886 231.385 300.03C231.313 300.174 231.295 300.264 231.331 300.3C231.385 300.372 231.538 300.525 231.79 300.759C232.042 300.975 232.312 301.209 232.6 301.461C232.906 301.695 233.194 301.92 233.464 302.136C233.752 302.334 233.941 302.442 234.031 302.46C234.085 302.478 234.211 302.487 234.409 302.487C234.625 302.487 234.85 302.487 235.084 302.487C235.336 302.469 235.57 302.46 235.786 302.46C236.002 302.46 236.137 302.46 236.191 302.46C236.227 302.46 236.326 302.496 236.488 302.568C236.65 302.622 236.821 302.685 237.001 302.757C237.181 302.811 237.352 302.865 237.514 302.919C237.676 302.973 237.775 303 237.811 303C237.829 303 237.892 302.973 238 302.919C238.108 302.865 238.225 302.811 238.351 302.757C238.477 302.685 238.585 302.622 238.675 302.568C238.783 302.496 238.855 302.46 238.891 302.46C238.909 302.46 238.981 302.46 239.107 302.46C239.251 302.442 239.359 302.433 239.431 302.433C239.467 302.433 239.557 302.442 239.701 302.46C239.845 302.46 239.935 302.46 239.971 302.46ZM235.651 298.14C235.687 298.194 235.732 298.302 235.786 298.464C235.858 298.608 235.921 298.77 235.975 298.95C236.029 299.112 236.074 299.274 236.11 299.436C236.164 299.58 236.191 299.688 236.191 299.76C236.191 299.85 236.119 299.967 235.975 300.111C235.849 300.237 235.741 300.3 235.651 300.3V298.14ZM237.811 298.14C237.937 298.14 238.036 298.203 238.108 298.329C238.18 298.437 238.216 298.563 238.216 298.707C238.216 298.833 238.18 298.95 238.108 299.058C238.036 299.166 237.937 299.22 237.811 299.22C237.667 299.22 237.559 299.166 237.487 299.058C237.433 298.95 237.406 298.833 237.406 298.707C237.406 298.563 237.433 298.437 237.487 298.329C237.559 298.203 237.667 298.14 237.811 298.14ZM230.251 295.98C230.377 295.98 230.476 296.043 230.548 296.169C230.62 296.277 230.656 296.403 230.656 296.547C230.656 296.673 230.62 296.79 230.548 296.898C230.476 297.006 230.377 297.06 230.251 297.06C230.107 297.06 229.999 297.006 229.927 296.898C229.873 296.79 229.846 296.673 229.846 296.547C229.846 296.403 229.873 296.277 229.927 296.169C229.999 296.043 230.107 295.98 230.251 295.98ZM231.331 295.98C231.457 295.98 231.556 296.043 231.628 296.169C231.7 296.277 231.736 296.403 231.736 296.547C231.736 296.673 231.7 296.79 231.628 296.898C231.556 297.006 231.457 297.06 231.331 297.06C231.187 297.06 231.079 297.006 231.007 296.898C230.953 296.79 230.926 296.673 230.926 296.547C230.926 296.403 230.953 296.277 231.007 296.169C231.079 296.043 231.187 295.98 231.331 295.98ZM234.031 293.28C234.157 293.28 234.256 293.343 234.328 293.469C234.4 293.577 234.436 293.703 234.436 293.847C234.436 293.973 234.4 294.09 234.328 294.198C234.256 294.306 234.157 294.36 234.031 294.36C233.887 294.36 233.779 294.306 233.707 294.198C233.653 294.09 233.626 293.973 233.626 293.847C233.626 293.703 233.653 293.577 233.707 293.469C233.779 293.343 233.887 293.28 234.031 293.28ZM236.191 292.2C236.317 292.2 236.416 292.263 236.488 292.389C236.56 292.497 236.596 292.623 236.596 292.767C236.596 292.893 236.56 293.01 236.488 293.118C236.416 293.226 236.317 293.28 236.191 293.28C236.047 293.28 235.939 293.226 235.867 293.118C235.813 293.01 235.786 292.893 235.786 292.767C235.786 292.623 235.813 292.497 235.867 292.389C235.939 292.263 236.047 292.2 236.191 292.2ZM236.191 290.58C236.317 290.58 236.416 290.643 236.488 290.769C236.56 290.877 236.596 291.003 236.596 291.147C236.596 291.273 236.56 291.39 236.488 291.498C236.416 291.606 236.317 291.66 236.191 291.66C236.047 291.66 235.939 291.606 235.867 291.498C235.813 291.39 235.786 291.273 235.786 291.147C235.786 291.003 235.813 290.877 235.867 290.769C235.939 290.643 236.047 290.58 236.191 290.58ZM237.001 287.637C236.929 287.583 236.857 287.565 236.785 287.583C236.713 287.601 236.65 287.628 236.596 287.664C236.56 287.7 236.542 287.745 236.542 287.799C236.542 287.835 236.569 287.853 236.623 287.853C236.911 287.853 237.127 287.853 237.271 287.853C237.415 287.853 237.514 287.862 237.568 287.88C237.622 287.88 237.64 287.889 237.622 287.907C237.622 287.925 237.613 287.952 237.595 287.988C237.631 287.97 237.667 287.979 237.703 288.015C237.739 288.051 237.775 288.06 237.811 288.042C237.847 288.096 237.874 288.105 237.892 288.069C237.91 288.033 237.937 288.024 237.973 288.042L238.027 287.988H238.162C238.306 287.844 238.45 287.718 238.594 287.61C238.738 287.484 238.855 287.322 238.945 287.124C239.053 287.106 239.098 287.142 239.08 287.232C239.062 287.304 239.026 287.412 238.972 287.556C238.936 287.682 238.909 287.826 238.891 287.988C238.873 288.132 238.909 288.258 238.999 288.366C238.945 288.42 238.945 288.411 238.999 288.339C239.071 288.249 239.152 288.159 239.242 288.069C239.35 287.961 239.449 287.871 239.539 287.799C239.647 287.727 239.719 287.727 239.755 287.799C239.845 287.835 239.908 287.907 239.944 288.015C239.998 288.105 240.07 288.168 240.16 288.204C240.196 288.42 240.142 288.609 239.998 288.771C239.854 288.933 239.737 289.086 239.647 289.23C239.719 289.734 239.584 290.175 239.242 290.553C239.188 290.607 239.026 290.607 238.756 290.553C238.504 290.499 238.225 290.436 237.919 290.364C237.613 290.292 237.325 290.229 237.055 290.175C236.785 290.121 236.614 290.112 236.542 290.148C236.398 290.148 236.299 290.031 236.245 289.797C236.209 289.563 236.2 289.302 236.218 289.014C236.254 288.726 236.308 288.465 236.38 288.231C236.47 287.997 236.587 287.88 236.731 287.88L237.001 287.637ZM237.271 285.72C237.397 285.72 237.496 285.783 237.568 285.909C237.64 286.017 237.676 286.143 237.676 286.287C237.676 286.413 237.64 286.53 237.568 286.638C237.496 286.746 237.397 286.8 237.271 286.8C237.127 286.8 237.019 286.746 236.947 286.638C236.893 286.53 236.866 286.413 236.866 286.287C236.866 286.143 236.893 286.017 236.947 285.909C237.019 285.783 237.127 285.72 237.271 285.72ZM268.501 297.087C268.501 297.177 268.447 297.33 268.339 297.546C268.249 297.744 268.222 297.888 268.258 297.978C268.384 298.23 268.573 298.518 268.825 298.842C269.077 299.148 269.338 299.472 269.608 299.814C269.896 300.156 270.157 300.498 270.391 300.84C270.643 301.164 270.832 301.47 270.958 301.758C270.976 301.794 270.976 301.893 270.958 302.055C270.958 302.217 270.949 302.388 270.931 302.568C270.931 302.748 270.931 302.919 270.931 303.081C270.931 303.243 270.94 303.342 270.958 303.378C271.228 303.846 271.561 304.134 271.957 304.242C272.371 304.35 272.767 304.404 273.145 304.404C273.523 304.422 273.856 304.44 274.144 304.458C274.45 304.494 274.648 304.674 274.738 304.998C274.792 304.944 274.891 304.863 275.035 304.755C275.197 304.665 275.359 304.557 275.521 304.431C275.701 304.323 275.863 304.215 276.007 304.107C276.169 304.017 276.286 303.954 276.358 303.918C276.394 303.882 276.457 303.846 276.547 303.81C276.637 303.792 276.7 303.783 276.736 303.783C276.736 303.531 276.772 303.333 276.844 303.189C276.916 303.045 276.997 302.919 277.087 302.811C277.195 302.703 277.285 302.595 277.357 302.487C277.429 302.379 277.465 302.226 277.465 302.028C277.465 301.74 277.393 301.479 277.249 301.245C277.105 300.993 276.925 300.768 276.709 300.57C276.493 300.354 276.25 300.165 275.98 300.003C275.728 299.841 275.494 299.706 275.278 299.598C275.242 299.58 275.143 299.58 274.981 299.598C274.837 299.616 274.756 299.616 274.738 299.598C274.216 299.076 273.865 298.59 273.685 298.14C273.505 297.672 273.379 297.222 273.307 296.79C273.253 296.358 273.19 295.935 273.118 295.521C273.064 295.107 272.884 294.666 272.578 294.198C272.416 293.964 272.155 293.667 271.795 293.307C271.453 292.929 271.075 292.569 270.661 292.227C270.247 291.867 269.824 291.561 269.392 291.309C268.978 291.057 268.609 290.931 268.285 290.931C267.745 290.931 267.241 291.111 266.773 291.471C266.305 291.813 265.846 292.191 265.396 292.605C264.964 293.019 264.532 293.406 264.1 293.766C263.686 294.108 263.263 294.279 262.831 294.279C262.615 294.279 262.354 294.135 262.048 293.847C261.76 293.541 261.463 293.199 261.157 292.821C260.851 292.443 260.554 292.074 260.266 291.714C259.996 291.354 259.78 291.102 259.618 290.958C259.888 290.814 260.068 290.634 260.158 290.418C260.248 290.202 260.293 289.959 260.293 289.689C260.185 289.689 259.996 289.698 259.726 289.716C259.456 289.734 259.168 289.752 258.862 289.77C258.574 289.788 258.295 289.806 258.025 289.824C257.755 289.842 257.566 289.86 257.458 289.878C257.152 289.914 256.909 289.995 256.729 290.121C256.567 290.229 256.414 290.364 256.27 290.526C256.144 290.688 256.009 290.859 255.865 291.039C255.721 291.201 255.532 291.354 255.298 291.498C255.262 291.516 255.172 291.516 255.028 291.498C254.884 291.48 254.794 291.48 254.758 291.498C254.686 291.534 254.578 291.624 254.434 291.768C254.308 291.894 254.236 291.984 254.218 292.038C254.218 292.074 254.218 292.146 254.218 292.254C254.218 292.362 254.218 292.479 254.218 292.605C254.236 292.713 254.245 292.821 254.245 292.929C254.245 293.037 254.236 293.1 254.218 293.118C254.2 293.154 254.137 293.199 254.029 293.253C253.939 293.289 253.831 293.334 253.705 293.388C253.579 293.442 253.453 293.496 253.327 293.55C253.219 293.604 253.156 293.64 253.138 293.658C253.084 293.694 253.003 293.766 252.895 293.874C252.805 293.964 252.697 294.072 252.571 294.198C252.463 294.306 252.355 294.414 252.247 294.522C252.157 294.612 252.094 294.684 252.058 294.738C252.094 294.576 252.121 294.378 252.139 294.144C252.175 293.892 252.166 293.649 252.112 293.415C252.076 293.181 251.986 292.983 251.842 292.821C251.716 292.641 251.518 292.551 251.248 292.551C251.212 292.551 251.158 292.56 251.086 292.578C251.014 292.578 250.978 292.578 250.978 292.578C250.924 292.614 250.825 292.704 250.681 292.848C250.555 292.974 250.474 293.064 250.438 293.118C250.51 292.848 250.528 292.578 250.492 292.308C250.474 292.038 250.411 291.795 250.303 291.579C250.195 291.363 250.033 291.192 249.817 291.066C249.619 290.922 249.367 290.85 249.061 290.85C248.971 290.85 248.818 290.868 248.602 290.904C248.404 290.922 248.296 290.94 248.278 290.958C248.188 291.012 248.062 291.138 247.9 291.336C247.738 291.534 247.567 291.75 247.387 291.984C247.207 292.218 247.045 292.443 246.901 292.659C246.775 292.857 246.694 293.01 246.658 293.118C246.838 293.244 246.991 293.442 247.117 293.712C247.243 293.964 247.378 294.207 247.522 294.441C247.666 294.657 247.837 294.819 248.035 294.927C248.233 295.017 248.494 294.954 248.818 294.738C248.512 294.954 248.278 295.17 248.116 295.386C247.972 295.602 247.864 295.836 247.792 296.088C247.738 296.322 247.702 296.574 247.684 296.844C247.684 297.096 247.684 297.375 247.684 297.681C247.684 298.095 247.693 298.464 247.711 298.788C247.747 299.112 247.801 299.427 247.873 299.733C247.963 300.039 248.08 300.354 248.224 300.678C248.368 301.002 248.566 301.362 248.818 301.758C248.89 301.758 249.025 301.767 249.223 301.785C249.439 301.785 249.664 301.794 249.898 301.812C250.132 301.812 250.348 301.812 250.546 301.812C250.744 301.812 250.888 301.812 250.978 301.812C251.986 301.812 252.787 301.686 253.381 301.434C253.975 301.164 254.443 300.831 254.785 300.435C255.127 300.039 255.388 299.616 255.568 299.166C255.766 298.716 255.964 298.293 256.162 297.897C256.36 297.501 256.603 297.177 256.891 296.925C257.197 296.655 257.638 296.52 258.214 296.52C258.214 296.61 258.196 296.745 258.16 296.925C258.142 297.105 258.115 297.303 258.079 297.519C258.061 297.735 258.034 297.942 257.998 298.14C257.98 298.32 257.98 298.446 257.998 298.518C258.052 298.806 258.286 299.139 258.7 299.517C259.132 299.895 259.609 300.255 260.131 300.597C260.653 300.939 261.175 301.227 261.697 301.461C262.237 301.695 262.642 301.812 262.912 301.812C263.326 301.812 263.74 301.605 264.154 301.191C264.586 300.777 265 300.3 265.396 299.76C265.81 299.202 266.206 298.653 266.584 298.113C266.98 297.573 267.358 297.168 267.718 296.898C267.736 296.88 267.781 296.88 267.853 296.898C267.943 296.916 268.024 296.943 268.096 296.979C268.186 296.997 268.267 297.024 268.339 297.06C268.429 297.078 268.483 297.087 268.501 297.087ZM275.278 303.378C275.242 303.54 275.152 303.621 275.008 303.621C274.864 303.621 274.774 303.54 274.738 303.378C274.72 303.306 274.738 303.243 274.792 303.189C274.864 303.153 274.936 303.135 275.008 303.135C275.08 303.135 275.143 303.153 275.197 303.189C275.269 303.243 275.296 303.306 275.278 303.378ZM273.118 301.758C273.244 301.758 273.343 301.821 273.415 301.947C273.487 302.055 273.523 302.181 273.523 302.325C273.523 302.451 273.487 302.568 273.415 302.676C273.343 302.784 273.244 302.838 273.118 302.838C272.974 302.838 272.866 302.784 272.794 302.676C272.74 302.568 272.713 302.451 272.713 302.325C272.713 302.181 272.74 302.055 272.794 301.947C272.866 301.821 272.974 301.758 273.118 301.758ZM249.898 300.678H250.438V301.218L249.898 300.678ZM254.218 298.518C254.344 298.518 254.443 298.581 254.515 298.707C254.587 298.815 254.623 298.941 254.623 299.085C254.623 299.211 254.587 299.328 254.515 299.436C254.443 299.544 254.344 299.598 254.218 299.598C254.074 299.598 253.966 299.544 253.894 299.436C253.84 299.328 253.813 299.211 253.813 299.085C253.813 298.941 253.84 298.815 253.894 298.707C253.966 298.581 254.074 298.518 254.218 298.518ZM265.018 298.518V299.058H264.478L265.018 298.518ZM255.298 297.978C255.46 298.014 255.541 298.104 255.541 298.248C255.541 298.392 255.46 298.482 255.298 298.518C255.208 298.536 255.145 298.518 255.109 298.464C255.073 298.392 255.055 298.32 255.055 298.248C255.055 298.176 255.073 298.113 255.109 298.059C255.145 297.987 255.208 297.96 255.298 297.978ZM253.678 297.438C253.84 297.474 253.921 297.564 253.921 297.708C253.921 297.852 253.84 297.942 253.678 297.978C253.588 297.996 253.525 297.978 253.489 297.924C253.453 297.852 253.435 297.78 253.435 297.708C253.435 297.636 253.453 297.573 253.489 297.519C253.525 297.447 253.588 297.42 253.678 297.438ZM248.818 296.358C248.944 296.358 249.043 296.421 249.115 296.547C249.187 296.655 249.223 296.781 249.223 296.925C249.223 297.051 249.187 297.168 249.115 297.276C249.043 297.384 248.944 297.438 248.818 297.438C248.674 297.438 248.566 297.384 248.494 297.276C248.44 297.168 248.413 297.051 248.413 296.925C248.413 296.781 248.44 296.655 248.494 296.547C248.566 296.421 248.674 296.358 248.818 296.358ZM260.698 295.278C260.824 295.278 260.923 295.341 260.995 295.467C261.067 295.575 261.103 295.701 261.103 295.845C261.103 295.971 261.067 296.088 260.995 296.196C260.923 296.304 260.824 296.358 260.698 296.358C260.554 296.358 260.446 296.304 260.374 296.196C260.32 296.088 260.293 295.971 260.293 295.845C260.293 295.701 260.32 295.575 260.374 295.467C260.446 295.341 260.554 295.278 260.698 295.278ZM262.318 295.278C262.444 295.278 262.543 295.341 262.615 295.467C262.687 295.575 262.723 295.701 262.723 295.845C262.723 295.971 262.687 296.088 262.615 296.196C262.543 296.304 262.444 296.358 262.318 296.358C262.174 296.358 262.066 296.304 261.994 296.196C261.94 296.088 261.913 295.971 261.913 295.845C261.913 295.701 261.94 295.575 261.994 295.467C262.066 295.341 262.174 295.278 262.318 295.278ZM269.878 295.278C270.004 295.278 270.103 295.341 270.175 295.467C270.247 295.575 270.283 295.701 270.283 295.845C270.283 295.971 270.247 296.088 270.175 296.196C270.103 296.304 270.004 296.358 269.878 296.358C269.734 296.358 269.626 296.304 269.554 296.196C269.5 296.088 269.473 295.971 269.473 295.845C269.473 295.701 269.5 295.575 269.554 295.467C269.626 295.341 269.734 295.278 269.878 295.278ZM268.798 294.738C268.96 294.774 269.041 294.864 269.041 295.008C269.041 295.152 268.96 295.242 268.798 295.278C268.708 295.296 268.645 295.278 268.609 295.224C268.573 295.152 268.555 295.08 268.555 295.008C268.555 294.936 268.573 294.873 268.609 294.819C268.645 294.747 268.708 294.72 268.798 294.738ZM250.978 294.198C251.14 294.234 251.221 294.324 251.221 294.468C251.221 294.612 251.14 294.702 250.978 294.738C250.888 294.756 250.825 294.738 250.789 294.684C250.753 294.612 250.735 294.54 250.735 294.468C250.735 294.396 250.753 294.333 250.789 294.279C250.825 294.207 250.888 294.18 250.978 294.198ZM255.298 293.118C255.424 293.118 255.523 293.181 255.595 293.307C255.667 293.415 255.703 293.541 255.703 293.685C255.703 293.811 255.667 293.928 255.595 294.036C255.523 294.144 255.424 294.198 255.298 294.198C255.154 294.198 255.046 294.144 254.974 294.036C254.92 293.928 254.893 293.811 254.893 293.685C254.893 293.541 254.92 293.415 254.974 293.307C255.046 293.181 255.154 293.118 255.298 293.118ZM277.685 297.924C277.685 298.032 277.685 298.185 277.685 298.383C277.703 298.563 277.721 298.662 277.739 298.68C277.757 298.716 277.82 298.788 277.928 298.896C278.036 298.986 278.153 299.094 278.279 299.22C278.405 299.346 278.522 299.463 278.63 299.571C278.738 299.661 278.801 299.724 278.819 299.76C278.981 300.084 279.098 300.471 279.17 300.921C279.242 301.353 279.341 301.767 279.467 302.163C279.593 302.541 279.782 302.865 280.034 303.135C280.304 303.423 280.709 303.567 281.249 303.567C281.285 303.567 281.339 303.558 281.411 303.54C281.483 303.54 281.519 303.54 281.519 303.54C281.537 303.54 281.573 303.504 281.627 303.432C281.681 303.378 281.735 303.315 281.789 303.243C281.843 303.189 281.897 303.135 281.951 303.081C282.005 303.027 282.041 303 282.059 303C282.113 303 282.194 303.018 282.302 303.054C282.41 303.108 282.518 303.162 282.626 303.216C282.734 303.27 282.833 303.324 282.923 303.378C283.031 303.45 283.103 303.504 283.139 303.54C283.247 303.486 283.427 303.378 283.679 303.216C283.949 303.072 284.228 302.919 284.516 302.757C284.804 302.577 285.074 302.415 285.326 302.271C285.578 302.109 285.749 301.992 285.839 301.92C285.893 301.866 285.974 301.794 286.082 301.704C286.208 301.596 286.325 301.488 286.433 301.38C286.559 301.254 286.667 301.146 286.757 301.056C286.847 300.948 286.901 300.876 286.919 300.84C286.937 300.804 286.937 300.732 286.919 300.624C286.901 300.498 286.874 300.381 286.838 300.273C286.802 300.147 286.766 300.03 286.73 299.922C286.694 299.796 286.676 299.715 286.676 299.679C286.694 299.679 286.739 299.688 286.811 299.706C286.901 299.706 286.982 299.715 287.054 299.733C287.144 299.751 287.225 299.76 287.297 299.76C287.387 299.76 287.441 299.76 287.459 299.76C287.477 299.76 287.54 299.733 287.648 299.679C287.756 299.607 287.873 299.544 287.999 299.49C288.125 299.418 288.233 299.355 288.323 299.301C288.431 299.247 288.503 299.22 288.539 299.22C288.683 299.256 288.881 299.364 289.133 299.544C289.403 299.724 289.664 299.949 289.916 300.219C290.168 300.471 290.384 300.732 290.564 301.002C290.744 301.272 290.834 301.515 290.834 301.731C290.888 301.731 291.032 301.74 291.266 301.758C291.5 301.758 291.761 301.776 292.049 301.812C292.355 301.848 292.661 301.902 292.967 301.974C293.273 302.046 293.525 302.154 293.723 302.298C293.939 302.424 294.074 302.595 294.128 302.811C294.2 303.009 294.137 303.252 293.939 303.54C294.353 303.27 294.641 303.018 294.803 302.784C294.965 302.532 295.1 302.28 295.208 302.028C295.334 301.776 295.487 301.515 295.667 301.245C295.847 300.957 296.171 300.642 296.639 300.3C296.549 300.228 296.396 300.093 296.18 299.895C295.982 299.697 295.766 299.481 295.532 299.247C295.298 299.013 295.082 298.797 294.884 298.599C294.686 298.383 294.551 298.23 294.479 298.14C294.461 298.122 294.425 298.059 294.371 297.951C294.317 297.843 294.263 297.726 294.209 297.6C294.155 297.474 294.101 297.357 294.047 297.249C293.993 297.141 293.957 297.078 293.939 297.06C293.921 297.042 293.867 297.042 293.777 297.06C293.705 297.078 293.624 297.105 293.534 297.141C293.462 297.177 293.381 297.213 293.291 297.249C293.219 297.267 293.174 297.276 293.156 297.276C293.156 297.24 293.174 297.159 293.21 297.033C293.246 296.907 293.282 296.772 293.318 296.628C293.354 296.484 293.381 296.349 293.399 296.223C293.417 296.097 293.417 296.016 293.399 295.98C293.381 295.944 293.318 295.872 293.21 295.764C293.102 295.656 292.985 295.548 292.859 295.44C292.733 295.314 292.616 295.206 292.508 295.116C292.4 295.008 292.337 294.936 292.319 294.9C292.031 294.54 291.788 294.225 291.59 293.955C291.392 293.667 291.212 293.379 291.05 293.091C290.888 292.803 290.735 292.506 290.591 292.2C290.465 291.894 290.321 291.534 290.159 291.12C290.123 291.048 290.078 290.958 290.024 290.85C289.97 290.724 289.916 290.607 289.862 290.499C289.808 290.373 289.754 290.265 289.7 290.175C289.664 290.085 289.637 290.04 289.619 290.04C289.583 290.022 289.511 290.031 289.403 290.067C289.295 290.085 289.187 290.121 289.079 290.175C288.971 290.211 288.863 290.256 288.755 290.31C288.647 290.346 288.575 290.364 288.539 290.364V289.122C288.269 289.122 288.053 289.086 287.891 289.014C287.729 288.942 287.585 288.861 287.459 288.771C287.351 288.663 287.234 288.573 287.108 288.501C287 288.429 286.847 288.393 286.649 288.393C286.613 288.393 286.559 288.402 286.487 288.42C286.433 288.42 286.397 288.42 286.379 288.42C286.343 288.42 286.271 288.456 286.163 288.528C286.073 288.582 285.965 288.645 285.839 288.717C285.713 288.771 285.596 288.825 285.488 288.879C285.38 288.933 285.317 288.96 285.299 288.96C285.209 288.96 285.092 288.897 284.948 288.771C284.822 288.627 284.759 288.51 284.759 288.42C284.687 288.51 284.543 288.663 284.327 288.879C284.129 289.077 283.913 289.293 283.679 289.527C283.463 289.761 283.247 289.977 283.031 290.175C282.833 290.373 282.689 290.508 282.599 290.58C282.563 290.598 282.473 290.598 282.329 290.58C282.185 290.562 282.095 290.562 282.059 290.58C282.005 290.616 281.924 290.688 281.816 290.796C281.708 290.904 281.591 291.012 281.465 291.12C281.357 291.228 281.249 291.336 281.141 291.444C281.051 291.552 280.997 291.624 280.979 291.66C280.943 291.714 280.871 291.876 280.763 292.146C280.673 292.416 280.565 292.704 280.439 293.01C280.331 293.316 280.223 293.604 280.115 293.874C280.007 294.144 279.935 294.306 279.899 294.36C279.881 294.396 279.818 294.441 279.71 294.495C279.62 294.549 279.512 294.603 279.386 294.657C279.26 294.711 279.134 294.765 279.008 294.819C278.9 294.855 278.837 294.882 278.819 294.9C278.621 295.026 278.45 295.215 278.306 295.467C278.18 295.719 278.063 295.989 277.955 296.277C277.865 296.565 277.793 296.862 277.739 297.168C277.703 297.456 277.685 297.708 277.685 297.924ZM290.159 297.6C290.285 297.6 290.384 297.663 290.456 297.789C290.528 297.897 290.564 298.023 290.564 298.167C290.564 298.293 290.528 298.41 290.456 298.518C290.384 298.626 290.285 298.68 290.159 298.68C290.015 298.68 289.907 298.626 289.835 298.518C289.781 298.41 289.754 298.293 289.754 298.167C289.754 298.023 289.781 297.897 289.835 297.789C289.907 297.663 290.015 297.6 290.159 297.6ZM287.459 292.74C287.405 292.884 287.279 293.109 287.081 293.415C286.883 293.721 286.667 294.054 286.433 294.414C286.199 294.756 285.974 295.08 285.758 295.386C285.56 295.674 285.407 295.872 285.299 295.98C285.245 296.034 285.119 296.142 284.921 296.304C284.741 296.448 284.534 296.61 284.3 296.79C284.084 296.952 283.859 297.114 283.625 297.276C283.409 297.42 283.247 297.528 283.139 297.6C283.121 297.6 283.076 297.609 283.004 297.627C282.95 297.627 282.905 297.627 282.869 297.627C282.833 297.627 282.779 297.627 282.707 297.627C282.653 297.609 282.617 297.6 282.599 297.6C282.707 297.42 282.905 297.114 283.193 296.682C283.499 296.232 283.814 295.773 284.138 295.305C284.48 294.819 284.804 294.387 285.11 294.009C285.434 293.613 285.677 293.37 285.839 293.28C285.875 293.262 285.965 293.262 286.109 293.28C286.253 293.298 286.343 293.298 286.379 293.28C286.469 293.244 286.649 293.163 286.919 293.037C287.189 292.893 287.369 292.794 287.459 292.74ZM301.897 303.378V304.161C302.005 304.161 302.23 304.071 302.572 303.891C302.932 303.729 303.292 303.531 303.652 303.297C304.03 303.081 304.363 302.874 304.651 302.676C304.957 302.478 305.119 302.352 305.137 302.298C305.155 302.244 305.155 302.118 305.137 301.92C305.137 301.704 305.128 301.47 305.11 301.218C305.11 300.966 305.101 300.741 305.083 300.543C305.083 300.327 305.101 300.192 305.137 300.138C305.191 300.048 305.317 299.94 305.515 299.814C305.713 299.688 305.92 299.571 306.136 299.463C306.37 299.337 306.595 299.238 306.811 299.166C307.027 299.094 307.189 299.058 307.297 299.058C307.297 299.04 307.297 299.004 307.297 298.95C307.315 298.878 307.324 298.824 307.324 298.788C307.324 298.752 307.315 298.707 307.297 298.653C307.297 298.581 307.297 298.536 307.297 298.518C307.297 298.5 307.261 298.437 307.189 298.329C307.135 298.221 307.072 298.104 307 297.978C306.928 297.852 306.865 297.744 306.811 297.654C306.757 297.546 306.739 297.474 306.757 297.438C306.775 297.402 306.847 297.312 306.973 297.168C307.117 297.024 307.27 296.871 307.432 296.709C307.612 296.529 307.783 296.358 307.945 296.196C308.125 296.034 308.269 295.908 308.377 295.818C308.377 295.818 308.404 295.818 308.458 295.818C308.53 295.8 308.584 295.791 308.62 295.791C308.656 295.791 308.71 295.8 308.782 295.818C308.854 295.818 308.899 295.818 308.917 295.818C309.007 295.854 309.187 295.944 309.457 296.088C309.727 296.214 309.907 296.304 309.997 296.358C309.745 296.664 309.583 296.925 309.511 297.141C309.457 297.357 309.43 297.636 309.43 297.978C309.43 298.518 309.556 298.995 309.808 299.409C310.078 299.805 310.456 300.003 310.942 300.003C310.942 300.183 310.96 300.327 310.996 300.435C311.05 300.525 311.077 300.615 311.077 300.705C311.077 300.777 311.041 300.858 310.969 300.948C310.897 301.02 310.753 301.11 310.537 301.218L311.617 303.378C311.689 303.324 311.824 303.243 312.022 303.135C312.238 303.045 312.463 302.946 312.697 302.838C312.931 302.712 313.147 302.604 313.345 302.514C313.543 302.406 313.687 302.334 313.777 302.298C313.813 302.28 313.903 302.271 314.047 302.271C314.191 302.271 314.281 302.28 314.317 302.298L314.857 299.598C314.875 299.562 314.884 299.472 314.884 299.328C314.902 299.184 314.911 299.094 314.911 299.058H313.777V295.278C313.435 295.062 313.192 294.801 313.048 294.495C312.904 294.171 312.796 293.847 312.724 293.523C312.652 293.181 312.58 292.839 312.508 292.497C312.454 292.137 312.337 291.804 312.157 291.498C312.139 291.48 312.076 291.444 311.968 291.39C311.878 291.336 311.77 291.282 311.644 291.228C311.518 291.174 311.392 291.12 311.266 291.066C311.158 291.012 311.095 290.976 311.077 290.958C311.041 290.94 310.969 290.877 310.861 290.769C310.771 290.643 310.663 290.517 310.537 290.391C310.429 290.265 310.321 290.148 310.213 290.04C310.105 289.932 310.033 289.878 309.997 289.878C309.961 289.878 309.862 289.905 309.7 289.959C309.538 290.013 309.367 290.076 309.187 290.148C309.007 290.22 308.836 290.292 308.674 290.364C308.512 290.418 308.413 290.436 308.377 290.418C308.305 290.4 308.233 290.346 308.161 290.256C308.089 290.166 308.026 290.067 307.972 289.959C307.918 289.833 307.873 289.716 307.837 289.608C307.801 289.5 307.801 289.41 307.837 289.338C307.819 289.482 307.693 289.689 307.459 289.959C307.225 290.229 306.937 290.526 306.595 290.85C306.271 291.174 305.911 291.507 305.515 291.849C305.137 292.173 304.777 292.479 304.435 292.767C304.111 293.037 303.832 293.262 303.598 293.442C303.364 293.622 303.247 293.712 303.247 293.712C303.211 293.712 303.157 293.712 303.085 293.712C303.031 293.694 302.995 293.676 302.977 293.658L300.277 290.958C300.277 290.958 300.241 290.949 300.169 290.931C300.115 290.913 300.07 290.904 300.034 290.904C299.782 290.904 299.512 290.985 299.224 291.147C298.954 291.309 298.675 291.507 298.387 291.741C298.117 291.975 297.856 292.218 297.604 292.47C297.37 292.722 297.181 292.938 297.037 293.118C297.091 293.1 297.172 293.109 297.28 293.145C297.406 293.181 297.523 293.226 297.631 293.28C297.757 293.334 297.865 293.397 297.955 293.469C298.045 293.541 298.099 293.604 298.117 293.658C298.135 293.712 298.144 293.847 298.144 294.063C298.144 294.261 298.135 294.486 298.117 294.738C298.117 294.972 298.108 295.197 298.09 295.413C298.09 295.629 298.099 295.764 298.117 295.818C298.117 295.854 298.162 295.98 298.252 296.196C298.342 296.412 298.441 296.664 298.549 296.952C298.675 297.24 298.792 297.528 298.9 297.816C299.026 298.104 299.125 298.338 299.197 298.518C299.215 298.554 299.251 298.626 299.305 298.734C299.359 298.824 299.413 298.932 299.467 299.058C299.539 299.184 299.602 299.301 299.656 299.409C299.71 299.517 299.737 299.58 299.737 299.598C299.737 299.634 299.71 299.706 299.656 299.814C299.602 299.904 299.539 300.012 299.467 300.138C299.395 300.264 299.332 300.381 299.278 300.489C299.224 300.597 299.197 300.66 299.197 300.678C299.197 300.75 299.215 300.867 299.251 301.029C299.305 301.173 299.359 301.335 299.413 301.515C299.467 301.677 299.521 301.839 299.575 302.001C299.647 302.145 299.701 302.244 299.737 302.298C299.755 302.334 299.818 302.379 299.926 302.433C300.034 302.469 300.151 302.514 300.277 302.568C300.403 302.622 300.52 302.676 300.628 302.73C300.736 302.784 300.799 302.82 300.817 302.838C300.853 302.874 300.898 302.964 300.952 303.108C301.006 303.252 301.033 303.342 301.033 303.378H301.897ZM313.777 300.678C313.939 300.714 314.02 300.804 314.02 300.948C314.02 301.092 313.939 301.182 313.777 301.218C313.687 301.236 313.624 301.218 313.588 301.164C313.552 301.092 313.534 301.02 313.534 300.948C313.534 300.876 313.552 300.813 313.588 300.759C313.624 300.687 313.687 300.66 313.777 300.678ZM302.977 294.738V295.818H302.437L302.977 294.738ZM304.597 295.278C304.759 295.314 304.84 295.404 304.84 295.548C304.84 295.692 304.759 295.782 304.597 295.818C304.507 295.836 304.444 295.818 304.408 295.764C304.372 295.692 304.354 295.62 304.354 295.548C304.354 295.476 304.372 295.413 304.408 295.359C304.444 295.287 304.507 295.26 304.597 295.278ZM307.837 294.738C307.963 294.738 308.062 294.801 308.134 294.927C308.206 295.035 308.242 295.161 308.242 295.305C308.242 295.431 308.206 295.548 308.134 295.656C308.062 295.764 307.963 295.818 307.837 295.818C307.693 295.818 307.585 295.764 307.513 295.656C307.459 295.548 307.432 295.431 307.432 295.305C307.432 295.161 307.459 295.035 307.513 294.927C307.585 294.801 307.693 294.738 307.837 294.738ZM299.197 293.658C299.323 293.658 299.422 293.721 299.494 293.847C299.566 293.955 299.602 294.081 299.602 294.225C299.602 294.351 299.566 294.468 299.494 294.576C299.422 294.684 299.323 294.738 299.197 294.738C299.053 294.738 298.945 294.684 298.873 294.576C298.819 294.468 298.792 294.351 298.792 294.225C298.792 294.081 298.819 293.955 298.873 293.847C298.945 293.721 299.053 293.658 299.197 293.658ZM300.817 292.038C300.943 292.038 301.042 292.101 301.114 292.227C301.186 292.335 301.222 292.461 301.222 292.605C301.222 292.731 301.186 292.848 301.114 292.956C301.042 293.064 300.943 293.118 300.817 293.118C300.673 293.118 300.565 293.064 300.493 292.956C300.439 292.848 300.412 292.731 300.412 292.605C300.412 292.461 300.439 292.335 300.493 292.227C300.565 292.101 300.673 292.038 300.817 292.038ZM315.55 297.438C315.55 297.474 315.55 297.528 315.55 297.6C315.568 297.672 315.577 297.708 315.577 297.708C315.613 297.798 315.694 297.978 315.82 298.248C315.964 298.518 316.063 298.698 316.117 298.788C316.135 298.806 316.171 298.842 316.225 298.896C316.279 298.932 316.333 298.986 316.387 299.058C316.459 299.112 316.522 299.166 316.576 299.22C316.63 299.274 316.657 299.31 316.657 299.328C316.657 299.364 316.657 299.436 316.657 299.544C316.657 299.634 316.657 299.742 316.657 299.868C316.657 299.994 316.657 300.111 316.657 300.219C316.657 300.327 316.657 300.39 316.657 300.408C316.729 300.66 316.864 300.903 317.062 301.137C317.26 301.353 317.458 301.578 317.656 301.812C317.854 302.028 318.025 302.262 318.169 302.514C318.331 302.748 318.412 303.009 318.412 303.297C318.52 303.297 318.691 303.288 318.925 303.27C319.159 303.252 319.411 303.234 319.681 303.216C319.951 303.198 320.203 303.18 320.437 303.162C320.689 303.144 320.869 303.126 320.977 303.108C320.995 303.108 321.058 303.072 321.166 303C321.274 302.946 321.391 302.892 321.517 302.838C321.643 302.766 321.751 302.703 321.841 302.649C321.949 302.595 322.021 302.568 322.057 302.568C322.075 302.568 322.111 302.595 322.165 302.649C322.219 302.703 322.273 302.766 322.327 302.838C322.381 302.91 322.435 302.973 322.489 303.027C322.543 303.081 322.579 303.108 322.597 303.108C322.615 303.108 322.678 303.081 322.786 303.027C322.894 302.973 323.011 302.919 323.137 302.865C323.263 302.793 323.371 302.73 323.461 302.676C323.569 302.604 323.641 302.568 323.677 302.568C323.731 302.568 323.866 302.568 324.082 302.568C324.298 302.568 324.523 302.577 324.757 302.595C325.009 302.595 325.234 302.595 325.432 302.595C325.648 302.595 325.783 302.586 325.837 302.568C325.855 302.55 325.891 302.487 325.945 302.379C325.999 302.271 326.053 302.154 326.107 302.028C326.161 301.902 326.215 301.785 326.269 301.677C326.323 301.569 326.359 301.506 326.377 301.488C326.413 301.452 326.503 301.38 326.647 301.272C326.791 301.164 326.944 301.056 327.106 300.948C327.286 300.84 327.457 300.732 327.619 300.624C327.781 300.516 327.907 300.444 327.997 300.408C328.015 300.408 328.051 300.408 328.105 300.408C328.177 300.39 328.231 300.381 328.267 300.381C328.303 300.381 328.357 300.39 328.429 300.408C328.501 300.408 328.537 300.408 328.537 300.408C328.573 300.426 328.663 300.516 328.807 300.678C328.951 300.84 329.041 300.93 329.077 300.948C329.077 300.948 329.104 300.957 329.158 300.975C329.23 300.975 329.284 300.975 329.32 300.975C329.356 300.975 329.41 300.975 329.482 300.975C329.554 300.957 329.599 300.948 329.617 300.948L332.857 300.408C332.857 300.39 332.857 300.354 332.857 300.3C332.875 300.228 332.884 300.174 332.884 300.138C332.884 300.102 332.875 300.057 332.857 300.003C332.857 299.931 332.857 299.886 332.857 299.868C332.839 299.832 332.803 299.733 332.749 299.571C332.695 299.409 332.632 299.238 332.56 299.058C332.506 298.878 332.452 298.707 332.398 298.545C332.344 298.383 332.317 298.284 332.317 298.248C332.317 298.176 332.335 298.068 332.371 297.924C332.425 297.762 332.479 297.6 332.533 297.438C332.587 297.258 332.641 297.096 332.695 296.952C332.767 296.79 332.821 296.682 332.857 296.628L331.777 297.168C331.687 297.042 331.579 296.853 331.453 296.601C331.345 296.349 331.228 296.088 331.102 295.818C330.994 295.548 330.895 295.287 330.805 295.035C330.733 294.783 330.697 294.594 330.697 294.468C330.697 294.414 330.715 294.333 330.751 294.225C330.805 294.117 330.859 294.009 330.913 293.901C330.967 293.793 331.021 293.694 331.075 293.604C331.147 293.496 331.201 293.424 331.237 293.388C331.183 293.388 331.102 293.37 330.994 293.334C330.886 293.28 330.769 293.226 330.643 293.172C330.535 293.118 330.427 293.064 330.319 293.01C330.229 292.938 330.175 292.884 330.157 292.848C330.157 292.848 330.148 292.794 330.13 292.686C330.13 292.56 330.13 292.461 330.13 292.389C330.13 291.957 330.157 291.543 330.211 291.147C330.283 290.733 330.355 290.328 330.427 289.932C330.517 289.518 330.589 289.104 330.643 288.69C330.715 288.276 330.751 287.853 330.751 287.421C330.751 287.277 330.742 287.088 330.724 286.854C330.724 286.62 330.724 286.395 330.724 286.179C330.724 285.945 330.715 285.747 330.697 285.585C330.697 285.405 330.697 285.306 330.697 285.288C330.697 285.252 330.661 285.153 330.589 284.991C330.535 284.829 330.472 284.658 330.4 284.478C330.346 284.298 330.292 284.127 330.238 283.965C330.184 283.803 330.157 283.704 330.157 283.668C330.157 283.65 330.184 283.587 330.238 283.479C330.292 283.371 330.346 283.254 330.4 283.128C330.472 283.002 330.535 282.894 330.589 282.804C330.661 282.696 330.697 282.624 330.697 282.588C330.697 282.57 330.697 282.534 330.697 282.48C330.715 282.408 330.724 282.354 330.724 282.318C330.724 282.066 330.661 281.742 330.535 281.346C330.409 280.932 330.238 280.536 330.022 280.158C329.824 279.78 329.59 279.456 329.32 279.186C329.05 278.898 328.771 278.754 328.483 278.754C328.429 278.754 328.339 278.763 328.213 278.781C328.087 278.781 328.015 278.79 327.997 278.808C327.187 279.348 326.53 279.96 326.026 280.644C325.54 281.31 325.297 282.138 325.297 283.128C325.297 283.146 325.324 283.182 325.378 283.236C325.432 283.29 325.495 283.344 325.567 283.398C325.639 283.452 325.702 283.506 325.756 283.56C325.81 283.614 325.837 283.65 325.837 283.668C325.837 283.704 325.81 283.803 325.756 283.965C325.702 284.127 325.639 284.298 325.567 284.478C325.513 284.658 325.45 284.829 325.378 284.991C325.324 285.153 325.297 285.252 325.297 285.288C325.297 285.324 325.297 285.423 325.297 285.585C325.297 285.747 325.297 285.918 325.297 286.098C325.297 286.278 325.297 286.449 325.297 286.611C325.297 286.773 325.297 286.872 325.297 286.908C325.189 287.412 324.973 287.745 324.649 287.907C324.325 288.051 323.947 288.132 323.515 288.15C323.101 288.168 322.66 288.186 322.192 288.204C321.742 288.204 321.337 288.312 320.977 288.528C320.941 288.546 320.896 288.609 320.842 288.717C320.806 288.825 320.761 288.942 320.707 289.068C320.653 289.194 320.599 289.311 320.545 289.419C320.491 289.527 320.455 289.59 320.437 289.608C320.401 289.662 320.302 289.77 320.14 289.932C319.978 290.076 319.807 290.238 319.627 290.418C319.447 290.598 319.276 290.769 319.114 290.931C318.952 291.075 318.853 291.174 318.817 291.228C318.763 291.3 318.682 291.444 318.574 291.66C318.466 291.858 318.349 292.074 318.223 292.308C318.115 292.524 318.007 292.74 317.899 292.956C317.809 293.154 317.755 293.298 317.737 293.388C317.629 293.226 317.503 293.217 317.359 293.361C317.215 293.487 317.062 293.694 316.9 293.982C316.738 294.27 316.576 294.603 316.414 294.981C316.252 295.359 316.108 295.728 315.982 296.088C315.856 296.43 315.748 296.736 315.658 297.006C315.586 297.258 315.55 297.402 315.55 297.438ZM326.917 298.788C327.043 298.788 327.142 298.851 327.214 298.977C327.286 299.085 327.322 299.211 327.322 299.355C327.322 299.481 327.286 299.598 327.214 299.706C327.142 299.814 327.043 299.868 326.917 299.868C326.773 299.868 326.665 299.814 326.593 299.706C326.539 299.598 326.512 299.481 326.512 299.355C326.512 299.211 326.539 299.085 326.593 298.977C326.665 298.851 326.773 298.788 326.917 298.788ZM320.41 295.791C320.41 295.665 320.41 295.512 320.41 295.332C320.41 295.152 320.428 294.972 320.464 294.792C320.5 294.594 320.554 294.423 320.626 294.279C320.716 294.117 320.833 294 320.977 293.928C321.031 293.892 321.13 293.865 321.274 293.847C321.436 293.829 321.607 293.82 321.787 293.82C321.967 293.82 322.129 293.829 322.273 293.847C322.435 293.865 322.543 293.892 322.597 293.928L322.057 293.388C322.111 293.388 322.237 293.388 322.435 293.388C322.651 293.37 322.795 293.361 322.867 293.361C323.245 293.361 323.569 293.388 323.839 293.442C324.127 293.478 324.433 293.64 324.757 293.928C324.595 294.342 324.433 294.801 324.271 295.305C324.127 295.809 323.938 296.286 323.704 296.736C323.47 297.186 323.173 297.564 322.813 297.87C322.453 298.158 321.994 298.302 321.436 298.302C321.148 298.302 320.932 298.212 320.788 298.032C320.644 297.852 320.545 297.636 320.491 297.384C320.437 297.114 320.41 296.835 320.41 296.547C320.41 296.259 320.41 296.007 320.41 295.791ZM324.757 296.628C324.829 296.772 324.793 296.916 324.649 297.06C324.505 297.204 324.361 297.24 324.217 297.168C324.145 297.132 324.127 297.069 324.163 296.979C324.199 296.889 324.253 296.808 324.325 296.736C324.397 296.664 324.478 296.61 324.568 296.574C324.658 296.538 324.721 296.556 324.757 296.628ZM325.837 296.088L326.377 296.628H325.837V296.088ZM318.277 293.928C318.403 293.928 318.502 293.991 318.574 294.117C318.646 294.225 318.682 294.351 318.682 294.495C318.682 294.621 318.646 294.738 318.574 294.846C318.502 294.954 318.403 295.008 318.277 295.008C318.133 295.008 318.025 294.954 317.953 294.846C317.899 294.738 317.872 294.621 317.872 294.495C317.872 294.351 317.899 294.225 317.953 294.117C318.025 293.991 318.133 293.928 318.277 293.928ZM321.517 289.068C321.643 289.068 321.742 289.131 321.814 289.257C321.886 289.365 321.922 289.491 321.922 289.635C321.922 289.761 321.886 289.878 321.814 289.986C321.742 290.094 321.643 290.148 321.517 290.148C321.373 290.148 321.265 290.094 321.193 289.986C321.139 289.878 321.112 289.761 321.112 289.635C321.112 289.491 321.139 289.365 321.193 289.257C321.265 289.131 321.373 289.068 321.517 289.068ZM329.617 286.908H330.157V287.448L329.617 286.908Z" fill="black"/>
</g>
<defs>
<clipPath id="clip0">
<rect width="363" height="308" fill="white"/>
</clipPath>
</defs>
</svg>
