<svg width="261" height="78" viewBox="0 0 261 78" fill="none" xmlns="http://www.w3.org/2000/svg">
<g clip-path="url(#clip0)">
<path d="M183.871 15.4088H169.957C169.779 15.4221 169.611 15.4991 169.484 15.6257C169.358 15.7523 169.281 15.9202 169.267 16.0988V24.1482C169.281 24.3268 169.358 24.4947 169.484 24.6213C169.611 24.7479 169.779 24.8249 169.957 24.8381H183.871C184.05 24.8249 184.218 24.7479 184.344 24.6213C184.471 24.4947 184.548 24.3268 184.561 24.1482V16.0988C184.561 15.6388 184.331 15.4088 183.871 15.4088ZM183.641 27.3679H156.963C156.618 27.3679 156.158 27.7129 156.043 28.0579L152.594 41.1669L152.364 41.8569L148.339 27.8279C148.224 27.4829 147.879 27.138 147.419 27.138H137.07C136.725 27.138 136.265 27.4829 136.15 27.8279L132.24 40.9369L132.01 41.6269L131.78 40.9369L128.56 28.0579C128.445 27.7129 128.1 27.3679 127.64 27.3679H106.827V16.0988C106.827 15.7538 106.367 15.2939 105.907 15.5238L92.683 19.5485C92.3381 19.6635 91.9931 19.8935 91.9931 20.2385V27.3679H88.5434C88.3648 27.3812 88.1969 27.4582 88.0703 27.5848C87.9437 27.7114 87.8667 27.8793 87.8534 28.0579V38.0621C87.8667 38.2407 87.9437 38.4086 88.0703 38.5352C88.1969 38.6619 88.3648 38.7388 88.5434 38.7521H91.9931V50.9412C91.9931 59.5655 96.7077 63.5902 105.447 63.5902C109.012 63.5902 112.577 62.7853 114.876 61.5204V51.1712C114.876 50.5962 114.416 50.4812 114.186 50.5962C112.807 51.1712 111.657 51.4012 110.392 51.4012C108.092 51.4012 106.827 50.4812 106.827 47.7214V38.7521H114.301C114.48 38.7388 114.648 38.6619 114.775 38.5352C114.901 38.4086 114.978 38.2407 114.991 38.0621V29.6678L124.881 62.5553C124.996 62.9003 125.341 63.2453 125.801 63.2453H136.725C137.07 63.2453 137.53 62.9003 137.645 62.5553L142.359 47.9514L146.959 62.4403C147.074 62.7853 147.534 63.1303 147.879 63.1303H158.803C159.148 63.1303 159.608 62.7853 159.723 62.4403L169.727 29.4378V62.4403C169.741 62.6189 169.818 62.7868 169.944 62.9134C170.071 63.04 170.239 63.117 170.417 63.1303H183.756C183.935 63.117 184.103 63.04 184.229 62.9134C184.356 62.7868 184.433 62.6189 184.446 62.4403V28.0579C184.331 27.5979 183.986 27.3679 183.641 27.3679V27.3679ZM201.235 15.4088H187.896C187.717 15.4221 187.549 15.4991 187.423 15.6257C187.296 15.7523 187.219 15.9202 187.206 16.0988V62.4403C187.219 62.6189 187.296 62.7868 187.423 62.9134C187.549 63.04 187.717 63.117 187.896 63.1303H201.235C201.413 63.117 201.581 63.04 201.708 62.9134C201.835 62.7868 201.912 62.6189 201.925 62.4403V16.0988C201.925 15.6388 201.58 15.4088 201.235 15.4088V15.4088ZM219.059 15.4088H205.145C204.966 15.4221 204.798 15.4991 204.672 15.6257C204.545 15.7523 204.468 15.9202 204.455 16.0988V24.1482C204.468 24.3268 204.545 24.4947 204.672 24.6213C204.798 24.7479 204.966 24.8249 205.145 24.8381H219.059C219.237 24.8249 219.405 24.7479 219.532 24.6213C219.658 24.4947 219.735 24.3268 219.749 24.1482V16.0988C219.749 15.6388 219.519 15.4088 219.059 15.4088ZM218.829 27.3679H205.49C205.311 27.3812 205.143 27.4582 205.016 27.5848C204.89 27.7114 204.813 27.8793 204.8 28.0579V62.4403C204.813 62.6189 204.89 62.7868 205.016 62.9134C205.143 63.04 205.311 63.117 205.49 63.1303H218.829C219.007 63.117 219.175 63.04 219.302 62.9134C219.428 62.7868 219.505 62.6189 219.519 62.4403V28.0579C219.519 27.5979 219.174 27.3679 218.829 27.3679V27.3679ZM240.907 26.448C229.178 26.448 220.898 35.0724 220.898 45.0766V45.1916C220.898 55.1959 229.178 63.7052 240.792 63.7052C252.521 63.7052 260.8 55.0809 260.8 45.0766V44.9616C260.915 34.9574 252.636 26.448 240.907 26.448ZM246.656 45.1916C246.656 48.5264 244.242 51.4012 240.907 51.4012C237.687 51.4012 235.042 48.6414 235.042 45.0766V44.9616C235.042 41.6269 237.457 38.7521 240.792 38.7521C244.012 38.7521 246.656 41.5119 246.656 45.0766V45.1916ZM39.2121 0C17.5937 0 0 17.5937 0 39.2121C0 60.8304 17.5937 78.4241 39.2121 78.4241C60.9454 78.5391 78.5391 60.9454 78.5391 39.2121C78.5391 17.4787 60.9454 0 39.2121 0ZM39.2121 68.1899C23.3432 68.1899 10.3492 55.1959 10.3492 39.2121C10.3492 23.3432 23.3432 10.3492 39.2121 10.3492C55.1959 10.3492 68.1899 23.3432 68.1899 39.2121C68.1899 55.1959 55.1959 68.1899 39.2121 68.1899Z" fill="#E31E26"/>
<path d="M48.9857 37.6012C53.4947 37.6012 57.1501 33.9459 57.1501 29.4368C57.1501 24.9278 53.4947 21.2725 48.9857 21.2725C44.4766 21.2725 40.8213 24.9278 40.8213 29.4368C40.8213 33.9459 44.4766 37.6012 48.9857 37.6012Z" fill="#E31E26"/>
<path d="M48.9857 57.1501C53.4947 57.1501 57.1501 53.4947 57.1501 48.9857C57.1501 44.4766 53.4947 40.8213 48.9857 40.8213C44.4766 40.8213 40.8213 44.4766 40.8213 48.9857C40.8213 53.4947 44.4766 57.1501 48.9857 57.1501Z" fill="#E31E26"/>
<path d="M29.4368 57.1501C33.9459 57.1501 37.6012 53.4947 37.6012 48.9857C37.6012 44.4766 33.9459 40.8213 29.4368 40.8213C24.9278 40.8213 21.2725 44.4766 21.2725 48.9857C21.2725 53.4947 24.9278 57.1501 29.4368 57.1501Z" fill="#E31E26"/>
<path d="M29.4368 37.6012C33.9459 37.6012 37.6012 33.9459 37.6012 29.4368C37.6012 24.9278 33.9459 21.2725 29.4368 21.2725C24.9278 21.2725 21.2725 24.9278 21.2725 29.4368C21.2725 33.9459 24.9278 37.6012 29.4368 37.6012Z" fill="#E31E26"/>
</g>
<defs>
<clipPath id="clip0">
<rect width="261" height="78" fill="white"/>
</clipPath>
</defs>
</svg>
