<svg width="683" height="177" viewBox="0 0 683 177" fill="none" xmlns="http://www.w3.org/2000/svg">
<path fill-rule="evenodd" clip-rule="evenodd" d="M431.43 2.92264C431.907 2.85215 432.303 2.79355 432.461 2.76403C433.978 2.53092 439.248 2.96384 441.882 3.54664C444.583 4.14606 447.735 5.5947 449.903 7.22649C451.42 8.37542 454.055 11.0396 454.055 11.4226C454.055 11.5558 454.121 11.6557 454.188 11.6557C454.455 11.6557 455.572 13.5872 456.856 16.3179C457.356 17.3669 458.29 20.4141 458.707 22.3955C459.407 25.7757 459.608 28.2234 459.507 33.0522C459.407 38.3139 459.374 38.7302 458.057 46.9225C457.989 47.3553 457.907 47.8616 457.824 48.374C457.684 49.2415 457.54 50.1265 457.456 50.7022C457.14 52.7503 456.656 55.7475 456.239 58.2784C456.056 59.3274 455.789 60.9759 455.639 61.9416C455.372 63.6567 455.039 65.7214 454.388 69.6844C454.317 70.1552 454.227 70.7269 454.137 71.2986C454.017 72.0613 453.898 72.8241 453.821 73.3476C453.338 76.478 452.871 79.3419 452.554 81.1902C452.371 82.2059 452.221 83.2383 452.221 83.5047C452.221 83.7544 452.104 84.6203 451.97 85.4029C450.37 94.7941 448.552 110.579 448.552 115.092C448.552 117.09 448.602 117.539 448.969 118.655C449.403 119.954 450.086 121.053 450.87 121.635C451.22 121.902 451.57 121.968 452.637 121.968C453.755 121.968 454.121 121.885 454.889 121.502C456.739 120.586 458.274 119.421 460.558 117.14C462.259 115.475 462.642 115.025 464.593 112.511C465.116 111.832 465.616 111.186 465.988 110.704C466.329 110.263 466.563 109.96 466.611 109.896C466.728 109.763 467.345 108.864 467.978 107.898C468.629 106.933 469.212 106.1 469.296 106.033C469.396 105.967 469.479 103.819 469.496 100.872C469.529 95.6766 469.712 93.3787 470.413 89.166C470.996 85.7359 472.147 80.9238 472.831 79.0422C472.964 78.7092 473.131 78.1431 473.214 77.7934C473.398 77.1274 473.831 75.8952 474.398 74.4299C474.598 73.9304 474.882 73.2144 475.015 72.8481C475.499 71.516 477.566 67.2533 478.483 65.6881C478.8 65.1386 479.117 64.5725 479.184 64.4393C479.451 63.8732 481.985 60.1766 482.185 60.0601C482.302 59.9935 482.402 59.827 482.402 59.6938C482.402 59.5772 482.452 59.444 482.535 59.4107C482.602 59.3774 482.952 58.9778 483.319 58.5282C485.37 55.9639 488.171 53.2998 490.406 51.7845C490.606 51.6513 490.956 51.4016 491.156 51.2351C491.373 51.0852 491.59 50.952 491.64 50.952C491.69 50.952 491.973 50.7855 492.273 50.569C493.141 50.0029 495.492 48.8706 496.909 48.3544C500.294 47.1556 504.163 46.6061 506.947 46.9391C510.866 47.4386 513.484 49.1703 514.551 52.001C515.068 53.3497 515.035 53.5329 514.217 54.0657C512.85 54.9316 510.149 57.2461 508.798 58.6947C508.031 59.5106 507.414 60.2099 507.414 60.2432C507.414 60.2932 507.297 60.4431 507.164 60.5929C506.68 61.0924 506.08 61.8584 505.463 62.7742C505.113 63.2737 504.796 63.7233 504.73 63.7733C504.68 63.8232 504.496 64.1063 504.329 64.3894C504.146 64.6891 503.946 64.9388 503.879 64.9388C503.812 64.9388 503.746 65.0054 503.746 65.0887C503.746 65.2219 503.262 66.0877 502.512 67.3199C502.328 67.6196 501.795 68.6021 501.328 69.5179C501.089 69.97 500.854 70.4181 500.666 70.7779C500.473 71.147 500.328 71.4232 500.277 71.516C499.977 72.0821 498.91 74.4299 498.91 74.5631C498.91 74.6297 498.793 74.8961 498.643 75.1792C498.493 75.4456 498.31 75.8619 498.243 76.095C498.16 76.3281 497.943 76.9275 497.743 77.4271C496.792 79.8581 496.275 81.4566 494.908 86.2521C494.741 86.8515 494.475 87.9005 494.341 88.5832C494.259 88.9577 494.146 89.5125 494.031 90.08C493.937 90.5472 493.84 91.023 493.758 91.4139C493.007 95.0272 492.874 96.0762 492.39 101.821C492.007 106.416 492.657 112.994 493.758 115.758C493.941 116.191 494.074 116.624 494.074 116.707C494.074 116.873 494.558 117.922 495.108 118.921C496.059 120.67 497.709 122.102 499.544 122.751C501.561 123.467 504.263 123.067 507.414 121.585C507.981 121.319 509.248 120.553 509.415 120.387C509.465 120.337 509.915 119.987 510.416 119.621C511.516 118.788 513.417 116.94 514.334 115.824C514.701 115.358 515.135 114.858 515.301 114.692C515.451 114.525 515.585 114.326 515.585 114.226C515.585 114.143 515.685 114.009 515.802 113.943C515.902 113.876 516.085 113.693 516.168 113.543C516.197 113.5 516.265 113.396 516.362 113.25C516.599 112.89 517.009 112.267 517.436 111.628C518.036 110.712 518.636 109.797 518.753 109.563C518.87 109.33 519.02 109.114 519.07 109.064C519.37 108.831 522.471 102.27 523.172 100.405C523.289 100.089 523.539 99.4064 523.739 98.9068C525.79 93.3954 527.441 86.1688 527.907 80.5908C527.937 80.2518 527.969 79.8852 528.002 79.5198C528.079 78.6467 528.156 77.78 528.191 77.3105L528.291 76.1283L527.491 75.9951C526.257 75.8119 522.922 74.5298 522.922 74.2301C522.922 74.1635 522.772 74.0969 522.605 74.0969C522.422 74.0969 522.255 74.0469 522.221 73.9637C522.205 73.8971 521.721 73.5141 521.171 73.0978C517.186 70.1339 515.485 65.5383 516.585 60.6096C516.769 59.7937 517.036 58.8446 517.186 58.4949C517.719 57.2128 518.586 55.5144 518.953 55.0315C519.587 54.1656 522.422 51.4515 522.672 51.4515C522.805 51.4515 522.922 51.3849 522.922 51.3183C522.922 51.0353 525.74 49.7864 527.324 49.3702C529.058 48.9372 531.693 48.804 532.927 49.1037C535.361 49.7032 536.212 50.0195 537.629 50.8188C539.263 51.7512 541.664 54.149 542.598 55.7808C543.182 56.8131 544.266 59.0943 544.266 59.3108C544.266 59.4273 544.432 59.8769 544.649 60.3098L545.016 61.0758L546.1 60.5929C546.231 60.5309 546.363 60.4689 546.492 60.4089C546.949 60.1946 547.353 60.0049 547.484 59.9269C547.972 59.6645 548.3 59.5053 549.778 58.7882C550.271 58.5495 550.89 58.2489 551.686 57.8622C555.037 56.2304 567.894 49.853 569.611 48.9705C570.962 48.2878 572.046 47.7883 572.229 47.7883C572.312 47.7883 572.696 47.6384 573.08 47.4553C573.446 47.2721 573.847 47.1223 573.963 47.1223C574.063 47.1223 574.497 47.0057 574.93 46.8725C577.515 46.04 581.367 45.6736 582.801 46.1399C585.169 46.9058 586.119 48.0381 586.119 50.1361C586.119 51.2351 585.902 52.3673 584.452 58.5282C584.368 58.8945 584.26 59.3774 584.152 59.8603C584.043 60.3432 583.935 60.826 583.851 61.1924C583.701 61.925 583.435 63.0406 583.285 63.69C582.951 64.9721 582.451 67.1534 582.034 69.1016C581.793 70.2001 581.456 71.6931 580.951 73.9368L580.783 74.6797C580.669 75.1803 580.516 75.8832 580.383 76.4959C580.321 76.7798 580.264 77.0444 580.216 77.2606C580.146 77.5813 580.053 78.0234 579.956 78.4883C579.846 79.0129 579.73 79.5666 579.633 80.008C579.082 82.5889 578.382 86.1022 577.799 89.3325C574.213 109.031 574.147 118.555 577.582 120.919C578.265 121.386 578.449 121.436 579.683 121.436C580.717 121.436 581.25 121.352 581.951 121.036C582.768 120.703 584.052 119.97 584.285 119.721C584.335 119.671 584.869 119.238 585.486 118.755C586.97 117.589 589.521 114.742 591.005 112.611C591.355 112.128 591.889 111.362 592.206 110.896C592.522 110.446 592.789 110.03 592.789 109.98C592.789 109.93 592.873 109.797 592.956 109.68C593.606 108.914 596.258 104.302 597.725 101.404C598.825 99.2066 600.977 94.511 601.777 92.4962C601.827 92.387 601.924 92.1477 602.036 91.8698C602.113 91.6816 602.196 91.4757 602.277 91.2807C602.352 91.0913 602.451 90.847 602.555 90.5912C602.707 90.2173 602.869 89.8191 602.977 89.5323C603.079 89.2951 603.185 89.0363 603.276 88.8151C603.364 88.6017 603.437 88.4234 603.478 88.3335C603.561 88.1503 603.728 87.7007 603.861 87.3344L603.893 87.2459C604.028 86.8772 604.223 86.3405 604.361 86.0023C605.112 83.9876 605.679 82.4557 605.795 82.0061C605.879 81.723 606.029 81.2402 606.146 80.9238C606.763 79.1588 606.979 78.4927 607.546 76.6778C608.847 72.4151 609.314 70.8333 609.697 69.3513C609.751 69.155 609.817 68.9035 609.889 68.6323C610.018 68.1445 610.163 67.5934 610.281 67.1867C610.748 65.4717 611.248 63.5068 611.515 62.2747C611.613 61.8826 611.754 61.2698 611.891 60.6737C611.964 60.3584 612.035 60.0478 612.099 59.777C612.849 56.5634 613.549 53.1832 613.716 51.9511C614.1 49.2203 618.618 46.2731 624.221 45.0742C631.141 43.5923 637.061 44.5913 638.461 47.5052C638.895 48.421 638.895 49.1204 638.461 50.7522C638.278 51.4515 638.011 52.4506 637.878 52.9501C637.578 54.1656 637.027 56.2637 636.644 57.6956C636.46 58.3284 636.16 59.5273 635.96 60.3598C635.777 61.1757 635.51 62.2247 635.393 62.6909C635.093 63.8066 634.56 65.9212 634.226 67.3532C634.076 67.986 633.809 69.0849 633.642 69.7676C633.276 71.2496 632.709 73.6306 632.392 75.0127C632.298 75.3985 632.147 76.0469 632.002 76.6699C631.94 76.9342 631.88 77.1939 631.825 77.4271C631.308 79.6583 630.841 81.7397 630.574 83.0052C630.501 83.3507 630.389 83.8799 630.272 84.4302C630.174 84.8876 630.074 85.3595 629.991 85.7526C629.424 88.4167 629.04 90.2816 628.123 95.0771C628.006 95.6766 627.873 96.5757 627.806 97.0752C627.74 97.5748 627.573 98.707 627.423 99.5729C626.556 104.801 626.339 106.833 626.205 111.728C626.105 115.142 626.356 118.055 626.872 119.254C627.339 120.37 627.473 120.636 627.673 120.953C628.34 121.952 629.674 122.635 630.641 122.485C632.425 122.202 635.01 120.47 636.927 118.272C637.461 117.639 637.945 117.106 638.011 117.056C638.061 117.006 638.445 116.524 638.862 115.974C639.279 115.425 639.745 114.842 639.879 114.675C640.029 114.525 640.146 114.359 640.146 114.309C640.146 114.276 640.496 113.743 640.946 113.11C641.796 111.878 642.363 110.995 643.947 108.281C644.514 107.282 645.065 106.366 645.148 106.233C645.381 105.867 645.932 104.785 647.516 101.654C648.883 98.9568 649.35 97.9744 650.567 95.3269C651.034 94.2945 651.251 93.795 652.068 91.8302C652.132 91.6758 652.225 91.4619 652.319 91.2481C652.396 91.0699 652.474 90.8917 652.535 90.7479L652.585 90.6242C652.736 90.2466 653.011 89.5635 653.219 88.9995C653.469 88.3501 653.769 87.6008 653.886 87.3344C654.286 86.4353 654.819 85.0033 654.819 84.8368C654.836 84.7369 654.969 84.3705 655.153 84.0042C655.336 83.6379 655.47 83.2383 655.486 83.1217C655.486 82.9885 655.586 82.6555 655.703 82.3724C656.02 81.6231 656.504 80.2744 656.654 79.675C656.72 79.3919 656.887 78.8757 657.021 78.5094C657.154 78.1431 657.387 77.4271 657.537 76.9275C657.583 76.7754 657.64 76.5862 657.701 76.3797C657.842 75.9081 658.01 75.3463 658.138 74.9294C659.789 69.4179 660.806 64.8889 660.456 64.4893C660.355 64.3727 660.222 64.2728 660.139 64.2728C659.588 64.2728 656.687 61.6919 655.47 60.11C654.519 58.8779 653.419 56.7299 652.768 54.7651C652.335 53.5162 651.818 50.3859 651.818 49.1204C651.818 47.9382 652.318 44.7578 652.685 43.6256C653.335 41.6441 654.936 38.6303 655.353 38.6303C655.42 38.6303 655.486 38.547 655.486 38.4305C655.486 38.164 657.688 36.066 658.538 35.5165C659.839 34.6673 660.639 34.2677 662.406 33.5684C663.457 33.1521 666.392 32.6359 667.742 32.6359C669.093 32.6359 672.028 33.1521 672.978 33.5684C674.246 34.1178 674.763 34.351 675.079 34.5175C675.171 34.5674 675.292 34.6298 675.413 34.6922C675.534 34.7547 675.655 34.8172 675.746 34.8671C676.63 35.3334 678.364 36.8986 679.265 38.0475C680.932 40.1622 681.866 42.2269 682.6 45.3739C683.05 47.2555 683.05 53.7993 682.616 56.6966C682.116 59.9602 681.349 63.8898 680.815 65.8879C680.649 66.5373 680.499 67.2034 680.499 67.3699C680.499 67.5197 680.382 68.0692 680.232 68.5854C680.082 69.1016 679.815 70.034 679.648 70.6834C679.465 71.3162 679.165 72.3652 678.981 73.0146C678.876 73.3466 678.757 73.7428 678.649 74.1045C678.551 74.4322 678.461 74.7316 678.398 74.9294C678.014 76.2449 677.464 77.9766 677.164 78.8424C676.53 80.6407 676.463 80.8572 676.33 81.3567C676.263 81.6564 676.08 82.1227 675.93 82.4224C675.78 82.7221 675.663 83.0718 675.663 83.1883C675.663 83.3215 675.513 83.7378 675.346 84.1208C675.179 84.5204 674.863 85.2863 674.662 85.8358C673.995 87.6841 673.479 88.9662 672.828 90.4981C670.244 96.5258 669.994 97.0586 667.859 101.321L667.858 101.323C665.625 105.767 665.608 105.8 665.375 106.033C665.258 106.15 665.158 106.333 665.158 106.416C665.158 106.566 663.174 110.063 662.99 110.23C662.94 110.279 662.807 110.479 662.707 110.696C662.19 111.595 662.04 111.845 661.539 112.594C661.239 113.027 660.989 113.427 660.989 113.476C660.989 113.526 660.689 113.976 660.322 114.476C659.955 114.975 659.655 115.458 659.655 115.558C659.655 115.641 659.588 115.724 659.522 115.724C659.455 115.724 659.255 115.974 659.088 116.274C658.705 116.94 656.954 119.288 656.787 119.354C656.704 119.388 656.654 119.504 656.654 119.621C656.654 119.721 656.52 119.937 656.37 120.087C656.204 120.236 656.005 120.468 655.904 120.585L655.903 120.586C655.603 120.969 654.419 122.468 654.236 122.651C654.152 122.751 653.552 123.434 652.919 124.15C650.384 127.014 647.299 129.878 644.815 131.693C644.314 132.059 643.814 132.425 643.731 132.492C642.947 133.108 642.313 133.541 642.213 133.541C642.147 133.541 641.963 133.641 641.83 133.774C641.68 133.907 640.779 134.423 639.812 134.923C635.093 137.404 630.574 138.52 626.005 138.32C623.771 138.236 621.103 137.837 620.153 137.437C619.852 137.304 619.486 137.204 619.369 137.204C619.135 137.204 618.152 136.805 616.884 136.188C612.699 134.157 609.381 130.194 607.53 125.049C607.079 123.75 606.329 121.019 606.062 119.637C605.695 117.722 605.295 114.009 605.295 112.527C605.295 111.828 605.229 111.212 605.162 111.162C605.028 111.095 604.578 111.811 603.294 114.143C603.094 114.509 602.711 115.125 602.444 115.525C602.177 115.924 601.96 116.274 601.96 116.324C601.96 116.374 601.61 116.94 601.177 117.589C600.726 118.239 600.31 118.888 600.209 119.038C599.042 120.919 595.541 125.282 593.356 127.53C591.422 129.528 589.304 131.393 587.603 132.575C583.918 135.139 580.55 136.638 576.448 137.554C574.964 137.87 574.23 137.937 571.696 137.937C568.994 137.92 568.544 137.887 567.193 137.504C564.375 136.705 562.007 135.373 560.023 133.474C559.523 132.991 559.106 132.542 559.106 132.509C559.106 132.459 558.806 132.092 558.439 131.693C558.072 131.293 557.772 130.91 557.772 130.827C557.772 130.76 557.505 130.327 557.188 129.878C556.872 129.428 556.605 128.962 556.605 128.862C556.605 128.762 556.471 128.479 556.305 128.246C556.138 127.996 555.871 127.48 555.721 127.08C555.655 126.911 555.569 126.7 555.482 126.486C555.373 126.216 555.262 125.943 555.188 125.748C554.387 123.75 553.753 120.936 553.437 118.022C552.903 113.01 553.537 103.136 555.121 91.9134C555.223 91.1699 555.352 90.2603 555.468 89.4337C555.56 88.7795 555.645 88.1774 555.704 87.7507C555.971 85.8025 556.471 82.7221 556.938 80.0912L557.031 79.5527C557.193 78.6202 557.398 77.4372 557.522 76.6778C557.672 75.762 557.939 74.3466 558.106 73.5141C558.272 72.6982 558.389 71.9988 558.372 71.9655C558.322 71.9156 557.555 72.232 555.921 72.9646C555.495 73.163 554.84 73.4459 554.346 73.6592L554.104 73.7639C553.603 73.9637 552.886 74.28 552.52 74.4465C552.153 74.5964 551.486 74.8628 551.019 75.0127C550.912 75.0523 550.796 75.0948 550.678 75.1381C550.301 75.2766 549.901 75.4234 549.685 75.5122C549.135 75.7453 547.634 76.2948 546.4 76.7111C546.103 76.8098 545.912 76.8615 545.774 76.9775C545.495 77.2138 545.44 77.7166 545.183 79.4252C544.766 82.3724 543.949 86.5518 543.415 88.5333C543.248 89.1827 543.098 89.8154 543.098 89.9486C543.098 90.0652 542.948 90.6813 542.748 91.3307C542.635 91.7201 542.497 92.2105 542.376 92.6388C542.301 92.9063 542.232 93.1495 542.181 93.3288C541.864 94.4943 540.113 99.9892 539.713 100.988C539.547 101.438 539.263 102.17 539.08 102.603C538.913 103.053 538.613 103.802 538.413 104.268C537.779 105.867 537.662 106.15 537.312 106.899C536.712 108.215 534.244 113.127 533.844 113.809L533.826 113.839C533.613 114.2 533.358 114.63 533.277 114.809C533.177 114.992 532.91 115.441 532.677 115.808C532.472 116.128 532.217 116.588 532.045 116.899C532.02 116.944 531.997 116.985 531.976 117.023C531.826 117.306 531.643 117.556 531.559 117.556C531.493 117.556 531.426 117.623 531.426 117.722C531.426 117.856 530.392 119.471 529.875 120.137C529.808 120.22 529.525 120.603 529.258 120.969C528.408 122.102 526.59 124.366 525.84 125.199C525.073 126.065 522.605 128.546 522.505 128.546C522.455 128.546 522.221 128.745 521.971 129.012C521.404 129.561 520.487 130.344 519.854 130.793C519.682 130.911 519.503 131.05 519.366 131.156C519.291 131.215 519.228 131.263 519.187 131.293C518.936 131.543 516.469 133.175 515.668 133.641C514.701 134.207 510.949 136.039 510.749 136.039C510.666 136.039 510.349 136.138 510.049 136.272C509.198 136.621 507.464 137.138 505.913 137.504C501.378 138.553 494.958 138.57 491.123 137.537C490.456 137.354 489.822 137.204 489.706 137.204C489.505 137.204 488.522 136.838 487.071 136.255C486.487 136.005 485.02 135.289 484.236 134.856C483.419 134.407 482.802 133.957 481.401 132.858C478.834 130.827 476.983 128.662 474.948 125.299C474.732 124.932 473.464 122.385 472.931 121.219C472.747 120.803 472.53 120.27 472.48 120.02C472.414 119.754 472.314 119.554 472.247 119.554C472.147 119.554 471.447 120.42 470.896 121.219C470.763 121.419 470.546 121.702 470.413 121.835C470.279 121.968 469.846 122.501 469.446 123.017C468.012 124.849 464.677 128.346 462.659 130.127C462.125 130.577 461.575 131.077 461.425 131.226C461.275 131.36 460.808 131.743 460.391 132.042C459.974 132.359 459.624 132.675 459.591 132.742C459.557 132.825 459.424 132.875 459.307 132.875C459.191 132.875 459.057 132.941 459.024 133.008C459.007 133.091 458.407 133.524 457.723 133.957C457.04 134.407 456.289 134.89 456.056 135.039C455.305 135.556 452.504 136.838 451.22 137.287C449.319 137.937 446.885 138.37 445.134 138.37C443.366 138.37 440.431 137.887 438.981 137.371C436.446 136.455 434.228 134.856 432.728 132.875C432.494 132.559 432.261 132.259 432.211 132.209C432.044 132.042 431.527 131.093 430.977 129.944C429.593 127.08 428.909 124.033 428.526 119.055C428.242 115.275 428.742 109.447 430.56 95.5767C430.627 95.0588 430.705 94.4584 430.784 93.8538C430.921 92.8062 431.059 91.746 431.144 91.0809C431.444 88.7331 431.961 85.0366 432.378 82.2559C432.544 81.1069 432.811 79.2753 432.961 78.1764C433.111 77.0774 433.361 75.4623 433.495 74.5964C433.645 73.7306 433.812 72.5317 433.878 71.9322C433.945 71.3328 434.112 70.2172 434.262 69.4346C434.412 68.652 434.645 67.1534 434.795 66.1044C434.945 65.0554 435.196 63.357 435.379 62.3579C435.996 58.7114 436.796 53.7993 436.963 52.7004C437.013 52.334 437.163 51.5015 437.297 50.8687C437.329 50.6867 437.374 50.4418 437.425 50.1582C437.558 49.4306 437.736 48.4486 437.88 47.6218C438.064 46.4729 438.364 44.8244 438.547 43.9586C438.714 43.0927 438.981 41.6607 439.131 40.7949C439.264 39.929 439.531 38.4637 439.714 37.5479C440.782 31.9532 441.215 27.8904 441.215 23.5445C441.215 17.8332 440.348 14.6362 438.314 12.8545C437.497 12.1552 435.979 11.6057 435.046 11.689C433.978 11.8055 432.428 12.5881 431.41 13.5539C430.51 14.4031 429.126 16.1181 428.859 16.7342C428.776 16.9174 428.526 17.3669 428.292 17.7333C427.559 18.9321 426.408 21.4964 425.524 23.8941C424.824 25.8257 424.74 26.0754 424.374 27.3076C424.157 27.9903 423.857 28.9727 423.707 29.4722C423.54 29.9717 423.29 30.8709 423.123 31.4703C423.035 31.8229 422.906 32.3136 422.781 32.7902C422.694 33.124 422.608 33.4507 422.539 33.7182C422.173 35.0503 421.689 37.115 421.272 39.0465C421.122 39.7792 420.855 40.9614 420.689 41.6607C420.505 42.3767 420.372 43.0594 420.372 43.176C420.372 43.3758 421.155 43.4258 424.674 43.509C428.059 43.5756 429.109 43.6422 429.71 43.8587C431.677 44.5913 432.328 46.2731 431.544 48.7541C431.21 49.8197 430.243 51.6347 429.726 52.1509C429.576 52.3007 429.126 52.767 428.726 53.1832C428.309 53.6162 427.475 54.1989 426.808 54.532L425.624 55.1147H418.237L418.054 55.9473C417.954 56.4135 417.87 56.9963 417.87 57.2294C417.87 57.4792 417.72 58.4949 417.537 59.5106C417.354 60.5263 417.087 62.258 416.953 63.357C416.891 63.8119 416.809 64.4067 416.722 65.035C416.6 65.9244 416.467 66.8809 416.37 67.603C415.92 70.7001 415.436 74.4132 415.119 77.0941C415.068 77.5116 415.006 78.0382 414.939 78.607C414.807 79.7166 414.657 80.9871 414.535 81.9228C414.069 85.7193 413.585 89.8487 413.285 92.5795C412.918 95.9263 412.418 100.339 412.034 103.403C411.923 104.264 411.786 105.392 411.663 106.412C411.583 107.068 411.509 107.679 411.451 108.148C411.05 111.428 410.567 114.842 409.6 121.302C409.216 123.933 408.699 126.98 408.366 128.795C408.289 129.218 408.19 129.748 408.092 130.277C407.978 130.894 407.863 131.511 407.782 131.959C407.032 136.172 405.531 142.732 404.781 145.197C404.748 145.314 404.703 145.473 404.651 145.658C404.518 146.124 404.341 146.753 404.197 147.278C403.88 148.477 403.697 149.043 403.063 150.808C402.981 151.019 402.874 151.329 402.783 151.592C402.745 151.703 402.709 151.806 402.68 151.89C402.48 152.456 402.179 153.222 401.529 154.854C400.946 156.303 399.428 159.383 398.528 160.948C398.061 161.731 397.694 162.397 397.694 162.43C397.694 162.464 397.527 162.747 397.327 163.063C397.11 163.379 396.677 164.062 396.36 164.578C395.059 166.726 391.558 170.839 391.041 170.839C390.941 170.839 390.857 170.906 390.857 170.989C390.857 171.155 388.94 172.671 388.723 172.671C388.623 172.671 388.523 172.737 388.489 172.804C388.323 173.22 383.937 175.551 382.77 175.851C382.522 175.913 382.114 176.033 381.831 176.116L381.77 176.134C379.852 176.784 379.152 176.9 376.9 176.967C374.683 177.033 374.499 177 373.849 176.65C373.049 176.201 372.515 175.418 372.515 174.702C372.515 174.269 373.999 171.089 374.499 170.423C374.883 169.94 377.301 165.228 378.101 163.429C378.182 163.253 378.274 163.046 378.37 162.833C378.572 162.384 378.788 161.903 378.935 161.598C379.135 161.132 379.585 160.049 379.935 159.183C380.269 158.318 380.652 157.335 380.786 157.019C381.036 156.403 382.086 153.056 382.653 151.108C382.97 149.992 383.103 149.476 383.837 146.362C384.804 142.183 386.155 134.607 386.939 128.962C387 128.509 387.082 127.919 387.168 127.294C387.292 126.402 387.424 125.441 387.522 124.716C388.006 121.286 388.473 117.556 388.773 114.975C388.906 113.693 389.173 111.512 389.357 110.146C389.54 108.764 389.723 107.316 389.757 106.899C389.782 106.691 389.815 106.421 389.848 106.15C389.882 105.879 389.915 105.609 389.94 105.401L390.057 104.651L389.64 105.317C389.407 105.684 389.023 106.35 388.773 106.799C388.539 107.232 388.256 107.682 388.173 107.798C388.073 107.898 387.489 108.764 386.855 109.73C386.222 110.696 385.455 111.828 385.155 112.244C383.304 114.825 382.62 115.724 382.487 115.724C382.42 115.724 382.353 115.824 382.353 115.941C382.353 116.057 382.22 116.274 382.07 116.424C381.903 116.574 381.686 116.807 381.603 116.923C380.002 118.971 376.6 122.551 373.432 125.532C372.015 126.864 366.412 131.043 366.045 131.043C365.962 131.043 365.778 131.16 365.662 131.31C365.545 131.46 365.295 131.643 365.095 131.726C364.911 131.809 364.461 132.059 364.094 132.292C362.21 133.458 357.824 135.439 355.507 136.205C350.771 137.737 347.419 138.27 342.5 138.27C338.148 138.286 335.347 137.837 331.995 136.621C328.077 135.206 324.141 132.425 321.407 129.145C321.04 128.695 320.673 128.246 320.573 128.146C320.548 128.111 320.516 128.068 320.482 128.021C320.403 127.913 320.309 127.784 320.24 127.68C320.156 127.53 319.689 126.831 319.206 126.131C318.489 125.082 316.838 121.919 316.338 120.636C315.687 118.988 315.104 117.256 314.453 114.942C314.137 113.793 314.036 113.626 313.87 113.859C313.781 113.987 313.507 114.347 313.196 114.755C313.1 114.881 313.001 115.012 312.903 115.142C312.502 115.691 312.102 116.207 312.019 116.307C311.952 116.39 311.485 116.99 310.985 117.639C310.501 118.272 310.051 118.838 309.984 118.888C309.934 118.938 309.718 119.188 309.501 119.471C308.617 120.636 306.383 123.101 304.482 125.032C303.164 126.348 300.797 128.429 299.062 129.778C298.68 130.077 298.313 130.363 297.999 130.608C297.491 131.005 297.123 131.292 297.062 131.343C296.478 131.793 294.444 133.091 293.81 133.408C293.576 133.524 293.36 133.657 293.31 133.724C293.193 133.857 289.725 135.572 288.974 135.855C288.796 135.931 288.564 136.022 288.345 136.108C288.175 136.174 288.014 136.238 287.89 136.288C284.789 137.52 280.237 138.37 276.635 138.353C274.367 138.353 270.398 137.903 268.548 137.454C267.014 137.054 263.962 136.055 263.328 135.722C263.178 135.639 262.561 135.323 261.961 135.039C261.361 134.74 260.56 134.29 260.16 134.024C259.76 133.757 259.41 133.541 259.36 133.541C259.276 133.541 257.009 131.743 256.525 131.293C256.325 131.11 255.841 130.66 255.441 130.277C253.774 128.729 252.106 126.547 250.505 123.8C249.822 122.601 248.621 119.987 248.621 119.654C248.621 119.521 248.555 119.371 248.471 119.304C248.371 119.254 248.138 118.688 247.938 118.055C247.737 117.406 247.504 116.89 247.437 116.89C247.354 116.89 247.287 116.957 247.287 117.04C247.287 117.19 246.504 118.455 245.786 119.471C244.219 121.685 243.252 122.984 243.119 123.017C243.018 123.051 242.952 123.167 242.952 123.284C242.952 123.384 242.752 123.7 242.502 123.983C242.235 124.266 241.668 124.932 241.201 125.482C239.934 126.997 237.349 129.595 235.865 130.843C235.131 131.46 234.514 132.009 234.481 132.076C234.448 132.159 234.314 132.209 234.198 132.209C234.064 132.209 233.897 132.309 233.831 132.425C233.764 132.542 233.514 132.758 233.28 132.925C232.28 133.624 230.679 134.657 230.446 134.773C230.312 134.84 229.895 135.073 229.529 135.289C228.611 135.822 227.111 136.538 226.877 136.538C226.761 136.538 226.61 136.605 226.527 136.688C226.21 136.988 223.659 137.72 221.775 138.053C218.757 138.603 214.988 138.303 212.337 137.304C211.52 137.004 209.619 135.922 209.252 135.556C209.102 135.406 208.768 135.089 208.502 134.856C204.8 131.559 202.932 124.699 203.149 115.225C203.266 109.68 204.35 100.056 205.934 90.4148C206.086 89.5463 206.283 88.2669 206.432 87.3042C206.463 87.1042 206.492 86.9178 206.517 86.7516C206.615 86.1259 206.761 85.2137 206.897 84.3636C206.971 83.9015 207.042 83.4578 207.101 83.0884C207.518 80.6074 208.001 77.5936 208.335 75.5122C208.42 74.9797 208.495 74.4993 208.591 73.888C208.778 72.7023 209.041 71.0244 209.602 67.5197C209.786 66.3209 209.969 64.7723 209.986 64.0563C210.019 62.8408 209.986 62.7409 209.602 62.4412C209.085 62.0416 207.685 62.0083 206.334 62.3579C203.783 63.024 200.148 64.7723 196.929 66.9036C196.146 67.4198 195.395 67.9194 195.245 68.0193C194.678 68.3689 193.995 68.8518 193.794 69.0516C193.678 69.1682 193.494 69.2681 193.411 69.2681C193.328 69.2681 193.261 69.8842 193.261 70.6335C193.278 74.0802 191.91 82.9386 190.593 88.167C189.826 91.1808 189.542 92.2298 189.259 93.1623C189.176 93.437 189.067 93.7992 188.959 94.1613C188.85 94.5235 188.742 94.8856 188.659 95.1604C188.509 95.7099 188.258 96.4592 188.125 96.8255C187.992 97.1918 187.825 97.708 187.758 97.991C187.575 98.6571 186.474 101.688 186.174 102.354C186.041 102.637 185.924 102.953 185.924 103.036C185.924 103.136 185.774 103.486 185.607 103.852C185.424 104.202 185.124 104.901 184.923 105.401C184.507 106.483 184.173 107.232 183.606 108.348C183.566 108.449 183.359 108.87 183.083 109.431C182.905 109.794 182.698 110.215 182.489 110.646C181.422 112.86 179.337 116.524 178.47 117.756C178.17 118.189 177.92 118.588 177.92 118.655C177.92 118.788 177.036 119.954 176.886 120.02C176.803 120.054 176.753 120.154 176.753 120.237C176.753 120.387 175.902 121.585 175.235 122.368C175.052 122.585 174.435 123.334 173.885 124.033C172.634 125.582 168.766 129.445 167.698 130.211C167.265 130.51 166.915 130.827 166.915 130.91C166.915 130.977 166.798 131.043 166.665 131.043C166.548 131.043 166.364 131.143 166.298 131.243C166.181 131.426 164.463 132.625 162.829 133.674C161.846 134.29 157.927 136.072 156.41 136.588C153.025 137.72 149.156 138.37 145.771 138.37C144.054 138.37 139.101 137.854 138.751 137.637C138.684 137.587 138.101 137.404 137.467 137.221C135.583 136.688 133.282 135.706 131.814 134.823C129.396 133.358 126.745 131.027 125.128 128.962C124.777 128.496 124.444 128.096 124.394 128.046C124.211 127.863 122.743 125.598 122.343 124.866C121.826 123.917 121.426 123.151 121.092 122.435C121.057 122.364 121.003 122.253 120.941 122.126C120.858 121.956 120.761 121.757 120.675 121.585C120.525 121.269 120.392 120.936 120.392 120.836C120.375 120.72 120.242 120.337 120.058 119.97C119.875 119.604 119.742 119.238 119.725 119.138C119.725 119.055 119.575 118.605 119.408 118.139C118.391 115.475 117.441 110.812 116.974 106.133C116.107 97.5748 117.374 85.5361 120.008 77.4271C120.142 77.0108 120.309 76.4114 120.392 76.095C120.625 75.0959 121.576 72.3818 121.976 71.4827C122.109 71.1996 122.226 70.8832 122.226 70.8C122.226 70.7001 122.326 70.417 122.46 70.1506C122.593 69.9008 123.027 68.9351 123.427 68.0193C124.427 65.7048 126.345 62.0083 126.828 61.4255C126.962 61.2923 127.062 61.1091 127.062 61.0425C127.062 60.8926 127.946 59.5439 128.112 59.4773C128.179 59.444 128.229 59.3441 128.229 59.2442C128.229 59.0777 130.63 55.8141 131.497 54.815C131.964 54.2655 135.249 50.9853 135.733 50.569C136.917 49.57 137.734 48.9539 137.884 48.9539C137.984 48.9539 138.067 48.8873 138.067 48.8207C138.067 48.7374 138.234 48.5876 138.451 48.4876C138.606 48.4102 138.921 48.2227 139.226 48.0414C139.315 47.9889 139.402 47.9369 139.485 47.8882C141.102 46.8725 143.87 45.6403 145.588 45.1574C149.073 44.1584 149.606 44.0918 152.724 44.1584C155.759 44.2416 156.109 44.3082 158.077 45.1908C159.011 45.607 159.094 45.6736 160.245 46.7892C161.295 47.8216 161.862 48.7874 162.179 50.1194C162.379 50.9187 162.362 51.0519 162.146 51.2018C159.661 52.8336 156.793 55.4977 154.675 58.1619C153.541 59.5939 150.907 63.3237 150.907 63.5068C150.907 63.5401 150.407 64.4559 149.773 65.5549C149.156 66.6372 148.439 68.0026 148.172 68.6021C147.905 69.2015 147.639 69.751 147.572 69.8509C147.439 70.034 146.571 71.9988 146.054 73.2976C145.983 73.4722 145.897 73.692 145.806 73.9228C145.663 74.2864 145.51 74.6775 145.387 74.9627C145.204 75.4456 144.987 76.0617 144.904 76.3448C144.821 76.6112 144.504 77.6269 144.17 78.5926C142.253 84.2207 141.219 88.8164 140.202 96.0762C139.901 98.2575 139.851 99.473 139.851 103.902C139.835 109.38 139.985 110.879 140.852 114.143C141.919 118.255 143.837 121.036 146.388 122.218C147.205 122.585 147.505 122.635 149.306 122.635C151.057 122.618 151.49 122.551 152.574 122.185C154.409 121.536 155.693 120.836 157.327 119.604C158.977 118.355 161.779 115.358 163.313 113.177L163.533 112.863C164.224 111.88 164.805 111.053 164.88 110.962C164.997 110.779 165.314 110.263 165.714 109.563C165.756 109.49 165.811 109.392 165.874 109.281C166.01 109.038 166.182 108.732 166.331 108.481C167.482 106.483 169.466 102.237 170.333 99.9059C171.25 97.4582 171.834 95.7765 172.134 94.7441C173.018 91.7469 173.651 89.3159 173.985 87.7507C174.869 83.4048 175.586 78.0765 175.586 75.8119V74.2634L175.135 74.1801C173.451 73.8471 169.616 72.2153 169.449 71.7491C169.416 71.6658 169.283 71.5992 169.166 71.5992C168.816 71.5992 166.064 68.8019 165.647 68.0193C165.572 67.882 165.413 67.6046 165.254 67.327C165.201 67.2341 165.147 67.1412 165.097 67.0535C164.897 66.6872 164.53 65.838 164.28 65.1386C163.863 63.9398 163.83 63.69 163.83 61.1091C163.847 58.5948 163.88 58.2451 164.297 56.9464C164.88 55.148 165.597 53.6495 166.548 52.3007C167.398 51.0852 169.516 48.9539 169.849 48.9539C169.983 48.9539 170.083 48.8873 170.083 48.8207C170.083 48.7374 170.35 48.5376 170.7 48.3544C170.867 48.2712 171.083 48.1546 171.3 48.038C171.517 47.9215 171.734 47.8049 171.9 47.7217C175.419 45.8568 180.888 45.8401 184.156 47.6884C185.674 48.5542 185.924 48.7041 185.924 48.8207C185.924 48.9039 186.024 48.9539 186.141 48.9539C186.374 48.9539 188.925 51.5181 188.925 51.7679C188.925 51.8511 189.025 52.001 189.142 52.0676C189.442 52.2508 190.626 54.1656 190.943 54.9815C191.043 55.248 191.143 55.4478 191.177 55.4478C191.277 55.4478 192.027 55.0148 192.761 54.532C193.761 53.8659 194.078 53.6828 194.728 53.3497C195.012 53.1832 195.262 53.0001 195.262 52.9335C195.262 52.8669 195.395 52.7836 195.562 52.7337C195.712 52.667 196.229 52.4006 196.679 52.1342C197.563 51.6014 200.848 49.9529 202.515 49.2036C205.333 47.9382 207.685 47.1389 211.02 46.3064C213.888 45.5904 215.205 45.4072 218.273 45.3406C221.208 45.2574 221.475 45.274 223.175 45.6903C224.159 45.9401 225.093 46.2065 225.243 46.2897C225.41 46.3563 225.943 46.6227 226.444 46.8725C227.277 47.2888 228.461 48.138 229.112 48.7874C232.63 52.3507 233.631 57.679 232.28 65.6881C232.113 66.6872 231.813 68.5354 231.613 69.7676C231.429 70.9998 231.163 72.6815 231.029 73.5141C230.546 76.5945 230.079 79.3919 229.779 81.0903C229.689 81.6118 229.569 82.2886 229.455 82.9373C229.358 83.49 229.264 84.0222 229.195 84.4205C228.845 86.4519 228.328 89.3825 227.944 91.4972C227.816 92.2052 227.637 93.2416 227.493 94.0756C227.451 94.3203 227.412 94.5476 227.378 94.7441C227.283 95.3578 227.121 96.3646 226.97 97.308C226.908 97.6957 226.847 98.0727 226.794 98.4073C225.677 105.317 225.276 109.097 225.276 112.694C225.276 115.225 225.327 115.858 225.61 116.773C226.01 118.055 226.794 118.871 227.661 118.921C229.378 119.005 230.729 118.722 232.03 118.006C232.122 117.956 232.243 117.893 232.363 117.831C232.484 117.768 232.605 117.706 232.697 117.656C234.681 116.574 237.616 113.793 239.834 110.862C240.634 109.797 241.284 108.881 241.284 108.831C241.284 108.781 241.534 108.365 241.835 107.932C242.118 107.499 242.468 106.966 242.585 106.749C243.319 105.484 243.585 104.968 244.453 103.286L245.42 101.421L245.486 98.7903C245.636 93.9615 246.887 86.7017 248.304 82.5722C248.471 82.056 248.621 81.5232 248.621 81.3734C248.621 81.2235 248.721 80.8572 248.855 80.5575L248.867 80.5247C248.99 80.2102 249.245 79.5564 249.422 79.0422C250.172 76.9775 250.489 76.1616 250.689 75.6787C250.822 75.3957 251.122 74.6963 251.373 74.0969C251.623 73.4974 251.939 72.8647 252.056 72.6815C252.19 72.4984 252.29 72.2819 252.29 72.182C252.29 72.0155 253.273 70.1173 254.441 68.0193C255.174 66.6872 256.175 65.1053 256.392 64.9222C256.525 64.8223 256.625 64.6724 256.625 64.5892C256.625 64.3894 258.426 61.8251 259.31 60.7927C259.377 60.7134 259.498 60.5669 259.651 60.3812C259.917 60.0603 260.279 59.6222 260.627 59.2109C262.278 57.1961 265.346 54.1823 267.097 52.8669C267.158 52.8145 267.242 52.7438 267.328 52.6717C267.405 52.6061 267.484 52.5393 267.547 52.4839C267.931 52.1342 270.265 50.4858 270.765 50.2027C270.847 50.1536 270.953 50.0919 271.068 50.0242C271.305 49.8854 271.586 49.7209 271.799 49.5866C272.75 49.0038 274.35 48.1213 274.801 47.9215C275.034 47.8216 275.751 47.4886 276.418 47.1722C277.085 46.8725 277.702 46.6227 277.802 46.6227C277.902 46.6227 278.336 46.4895 278.769 46.3064C282.038 45.0076 287.373 44.175 291.525 44.3416C294.81 44.4748 296.911 44.8244 299.629 45.7402C301.664 46.4229 304.749 48.138 306.149 49.4035C307.233 50.3526 307.984 51.1352 307.984 51.285C307.984 51.3683 308.05 51.4515 308.134 51.4515C308.334 51.4515 309.818 53.4996 309.818 53.766C309.818 53.8659 309.868 53.9492 309.951 53.9492C310.201 53.9492 311.502 56.7299 311.969 58.3117C313.369 62.9907 313.186 68.2357 311.452 72.9313C309.351 78.6259 305.466 82.2559 300.78 82.9053C299.062 83.1384 297.078 82.8719 295.728 82.2392C294.327 81.5565 294.177 81.4566 293.093 80.3576C292.042 79.2753 291.159 77.6602 290.959 76.428C290.933 76.2803 290.913 76.1605 290.908 76.04C290.885 75.522 291.14 74.9917 292.493 72.182C292.659 71.8157 292.809 71.4327 292.809 71.3162C292.809 71.1996 292.909 70.8666 293.043 70.5669C293.176 70.2671 293.426 69.4512 293.626 68.7686C295.144 63.2737 294.71 59.0277 292.459 57.3127C291.342 56.4635 289.441 56.2137 287.874 56.7132C286.873 57.0296 285.306 57.8122 285.306 57.9787C285.306 58.062 285.206 58.1119 285.089 58.1119C284.672 58.1119 280.737 62.1415 280.487 62.8242C280.453 62.9241 280.287 63.1572 280.103 63.3403C279.936 63.5235 279.803 63.7233 279.803 63.7899C279.803 63.8565 279.703 64.023 279.586 64.1396C278.869 64.8722 274.967 72.2986 274.967 72.9313C274.967 73.0146 274.817 73.3476 274.634 73.6806C274.45 74.0136 274.3 74.3633 274.3 74.4799C274.3 74.5964 274.184 74.8961 274.05 75.1459C273.917 75.3957 273.733 75.8452 273.65 76.1449C273.567 76.4447 273.267 77.3438 272.983 78.1764C272.299 80.1911 271.899 81.4566 271.549 82.7554C271.382 83.3548 271.116 84.3206 270.965 84.92C268.381 94.5609 267.664 105.667 269.165 112.727C269.348 113.593 269.598 114.559 269.732 114.858C269.865 115.158 269.965 115.508 269.965 115.641C269.965 115.957 270.499 117.156 271.482 119.055C272.249 120.553 274.534 122.834 275.885 123.45C276.435 123.7 277.018 123.967 277.185 124.066C277.352 124.166 278.252 124.333 279.186 124.449C280.553 124.633 281.22 124.633 282.638 124.466C284.755 124.216 287.474 123.334 289.141 122.368C289.274 122.285 289.575 122.118 289.808 122.018C290.041 121.902 290.575 121.569 291.009 121.269C291.442 120.969 291.876 120.72 291.959 120.72C292.042 120.72 292.142 120.653 292.176 120.586C292.209 120.52 292.609 120.203 293.06 119.887C293.526 119.571 293.96 119.204 294.027 119.088C294.093 118.988 294.277 118.888 294.394 118.888C294.527 118.888 294.644 118.838 294.644 118.755C294.644 118.688 295.111 118.255 295.694 117.806C297.045 116.723 301.48 112.278 302.631 110.846C303.131 110.23 303.598 109.73 303.681 109.73C303.748 109.73 303.815 109.613 303.815 109.48C303.815 109.33 303.915 109.181 304.048 109.131C304.182 109.081 304.682 108.481 305.165 107.798C305.649 107.116 306.116 106.566 306.183 106.566C306.249 106.566 306.316 106.483 306.316 106.4C306.316 106.3 306.383 106.133 306.483 106.017C307.467 104.835 308.15 103.902 308.15 103.769C308.15 103.669 308.2 103.569 308.284 103.536C308.4 103.486 309.251 102.287 310.185 100.838C310.418 100.472 310.685 100.072 310.768 99.9892C311.018 99.6894 311.819 98.424 311.819 98.3241C311.819 98.2741 311.902 98.1409 311.985 98.0243C312.086 97.9078 312.352 97.5415 312.586 97.1751L312.591 97.1676C313.003 96.5425 313.005 96.5385 313.653 91.4139C314.02 88.5166 314.937 84.3705 315.837 81.5066C315.906 81.28 315.992 80.9997 316.079 80.7135C316.204 80.3054 316.333 79.8853 316.421 79.5917C316.688 78.6426 316.888 78.1098 317.905 75.429C318.622 73.5474 318.772 73.1977 320.223 70.2671C321.507 67.6363 322.324 66.1544 323.008 65.1386C323.274 64.7557 323.491 64.3894 323.491 64.3394C323.491 64.2062 325.059 62.0249 325.192 61.9749C325.259 61.9416 325.325 61.8417 325.325 61.7418C325.325 61.6086 326.643 59.7937 326.993 59.444C327.043 59.394 327.376 58.9778 327.726 58.5282C328.46 57.6124 332.562 53.4996 333.529 52.7004C335.263 51.285 336.631 50.286 336.814 50.286C336.881 50.286 337.081 50.1361 337.248 49.9529C337.415 49.7698 337.631 49.6199 337.715 49.6199C337.815 49.6199 338.015 49.52 338.148 49.3868C338.665 48.9372 342.384 47.0224 343.584 46.5728C346.519 45.4738 348.303 44.9743 351.071 44.4581C352.789 44.1417 353.639 44.0918 357.191 44.0918C360.709 44.0918 361.576 44.1417 363.277 44.4581C365.895 44.941 368.863 45.7902 370.014 46.373C370.247 46.4895 370.764 46.7393 371.181 46.9391C374.966 48.7208 378.201 51.9344 380.102 55.7808C381.686 58.9611 382.253 61.592 382.27 65.6049C382.27 69.0516 381.836 71.7824 380.836 74.6797C380.736 74.9461 380.602 75.3957 380.519 75.6787C380.352 76.3281 380.019 77.0774 378.818 79.5084C377.668 81.8396 377.517 82.106 376.484 83.6878C374.066 87.3677 370.197 91.264 365.762 94.5443C365.178 94.9606 364.161 95.5767 364.028 95.5767C363.944 95.5767 363.844 95.6433 363.811 95.7099C363.694 96.0096 360.609 97.6414 358.341 98.5905L358.085 98.6994C355.67 99.7249 355.56 99.7714 352.255 100.705C348.587 101.754 344.952 102.237 340.449 102.287L336.798 102.32L336.864 106.317C336.914 109.181 337.014 110.762 337.231 111.895C337.948 115.808 338.765 118.139 340.116 120.22C340.983 121.569 341.066 121.652 342.083 122.485C344.301 124.283 346.886 124.766 350.638 124.05C353.906 123.417 355.39 122.901 358.875 121.186C360.826 120.22 361.126 120.054 362.06 119.421C362.493 119.138 362.894 118.888 362.944 118.888C362.994 118.888 363.594 118.472 364.261 117.972C364.945 117.473 365.578 117.056 365.678 117.056C365.762 117.056 365.845 117.006 365.845 116.923C365.845 116.857 366.262 116.507 366.762 116.157C367.262 115.791 367.679 115.441 367.679 115.358C367.679 115.291 367.796 115.225 367.929 115.225C368.063 115.225 368.18 115.158 368.18 115.092C368.18 115.008 368.68 114.542 369.313 114.043C370.597 113.01 375.833 107.832 377.184 106.25C377.684 105.65 378.218 105.051 378.351 104.918C378.485 104.768 378.901 104.268 379.268 103.819L379.532 103.493C380.434 102.381 380.612 102.161 380.902 101.871C381.052 101.704 381.186 101.521 381.186 101.438C381.186 101.371 381.319 101.188 381.486 101.038C381.54 100.987 381.584 100.946 381.626 100.904C381.856 100.674 382.046 100.404 383.737 98.1243C384.621 96.9087 385.355 95.8764 385.355 95.8264C385.355 95.7931 385.588 95.4268 385.855 95.0438C386.955 93.4953 388.339 91.3473 388.84 90.4148C389.056 89.9986 389.323 89.549 389.44 89.4158C389.557 89.2826 389.974 88.5666 390.357 87.8339C390.433 87.6952 390.507 87.5583 390.579 87.4269C390.885 86.8643 391.137 86.4028 391.191 86.3354C391.274 86.2354 391.774 85.303 392.308 84.254C392.551 83.7863 392.738 83.4335 392.897 83.0691C393.461 81.7856 393.696 80.3583 394.943 73.2643C395.093 72.3985 395.359 70.9665 395.526 70.1006C396.039 67.4936 396.348 65.936 396.568 64.8307C396.662 64.3547 396.74 63.9626 396.81 63.6067C397.227 61.4588 397.694 59.2442 398.027 57.7789C398.194 56.9963 398.378 56.1138 398.428 55.8141L398.528 55.2813L394.642 55.2646C389.473 55.248 388.339 55.148 387.756 54.6152C386.972 53.8826 386.689 52.9501 386.689 51.0353C386.689 49.2036 386.905 48.2046 387.656 46.6227C388.156 45.5404 389.19 44.1417 389.49 44.1251C389.59 44.1251 389.69 44.0585 389.69 43.9919C389.69 43.5423 390.724 43.459 396.01 43.459H401.462L401.763 42.41C401.929 41.8439 402.179 40.9614 402.313 40.4619C402.415 40.0804 402.594 39.4755 402.748 38.9588C402.795 38.7989 402.84 38.6475 402.88 38.5137C402.927 38.3651 402.981 38.1916 403.039 38.0054C403.21 37.4612 403.414 36.8081 403.563 36.3491C403.747 35.7163 403.98 35.0336 404.064 34.8005C404.164 34.5674 404.297 34.1511 404.364 33.8847C404.581 33.0688 405.398 30.9042 405.548 30.721C405.631 30.6378 405.698 30.438 405.698 30.2715C405.698 30.1216 405.798 29.7386 405.931 29.4389C406.026 29.2261 406.205 28.7949 406.39 28.3482C406.466 28.1658 406.542 27.9809 406.615 27.8071C406.848 27.2077 407.115 26.5749 407.199 26.3918C407.982 24.5602 410.534 19.3651 411.117 18.3993C411.321 18.0792 411.576 17.6192 411.748 17.3082L411.818 17.1838C411.968 16.9007 412.151 16.651 412.234 16.651C412.301 16.651 412.368 16.5844 412.368 16.5011C412.368 16.4012 412.618 15.9849 412.918 15.552C413.013 15.4131 413.113 15.2687 413.207 15.1323C413.396 14.8598 413.563 14.6195 413.618 14.5196C413.969 13.9535 415.386 12.1552 416.12 11.3393C417.604 9.69085 419.538 7.92583 420.739 7.10994C421.139 6.86017 421.556 6.54381 421.706 6.42725C422.056 6.11087 425.057 4.54569 425.908 4.22931C427.342 3.69649 428.826 3.31351 430.377 3.0804C430.731 3.02591 431.1 2.97142 431.43 2.92264ZM362.777 67.1035C363.727 61.9417 362.61 58.0453 359.792 56.6466C359.008 56.2637 357.141 56.0638 356.09 56.2637C355.24 56.4135 354.306 56.8464 353.289 57.5624C352.855 57.8622 352.472 58.1119 352.439 58.1119C352.355 58.1119 350.104 60.4431 349.62 61.0258C349.07 61.6919 347.336 64.2561 347.336 64.3894C347.336 64.4559 347.236 64.6225 347.103 64.7557C346.586 65.3385 343.751 71.2995 342.784 73.8471C342.65 74.2134 342.384 74.9128 342.184 75.4123C341.983 75.8952 341.833 76.3947 341.833 76.5113C341.833 76.6278 341.7 77.0774 341.517 77.527C340.399 80.4576 338.482 88.1004 338.082 91.1974L337.998 91.9134H338.565C339.132 91.9134 341.717 91.3307 343.167 90.8644C344.668 90.3815 347.486 88.9995 348.687 88.167C349.137 87.8506 349.537 87.5842 349.587 87.5842C349.637 87.5842 349.771 87.5009 349.887 87.4177C349.939 87.3737 350.071 87.2684 350.25 87.1259C350.477 86.9448 350.78 86.7036 351.088 86.4519C352.472 85.3862 355.19 82.5889 356.34 81.0903C356.657 80.674 356.974 80.3077 357.041 80.291C357.124 80.2577 357.174 80.1412 357.174 80.008C357.174 79.8914 357.291 79.7083 357.424 79.5917C357.641 79.4085 360.176 75.1792 360.176 74.996C360.176 74.8961 361.126 72.7981 361.343 72.3985C361.443 72.232 361.51 71.9988 361.51 71.8656C361.51 71.7491 361.643 71.2829 361.826 70.8333C362.193 69.8675 362.46 68.8019 362.777 67.1035Z" fill="black"/>
<path d="M92.0448 0.366338C89.4769 0.965764 87.109 2.09803 85.008 3.71319C84.2076 4.32926 83.5406 4.91205 83.5406 4.9953C83.5406 5.07856 83.9408 5.41158 84.4244 5.72796C85.3082 6.31073 87.4425 8.34215 88.1595 9.25795C89.0933 10.4735 89.6603 11.306 90.0271 11.9887C90.2439 12.405 90.494 12.8213 90.5774 12.9212C90.8442 13.2708 91.4778 14.5696 91.9614 15.7352C92.2282 16.3679 92.495 16.9674 92.5784 17.0673C92.6451 17.1505 92.7118 17.3337 92.7118 17.4669C92.7118 17.6167 92.8618 18.0996 93.0286 18.5658C93.4121 19.5649 93.7456 20.7638 94.1958 22.6453C96.0134 30.4547 96.0134 40.1622 94.1958 50.7855C94.0124 51.8345 93.7456 53.4164 93.6122 54.2822C93.212 56.6467 92.1782 61.4588 91.778 62.7576C91.6446 63.1738 91.5445 63.6567 91.5445 63.8399C91.5445 64.0231 91.3945 64.6891 91.1944 65.3385C90.8275 66.604 90.4273 68.0193 89.9604 69.7676C89.8103 70.3671 89.5435 71.2662 89.3768 71.7658C89.2101 72.2653 88.9099 73.2477 88.7098 73.9304C88.493 74.6131 88.2262 75.4456 88.1095 75.762C87.9761 76.0784 87.726 76.861 87.5259 77.5104C87.3425 78.1431 87.0423 79.0089 86.8756 79.4252C86.7852 79.6758 86.6646 79.9929 86.5575 80.2745C86.4867 80.4607 86.4218 80.6314 86.3753 80.7573C85.4749 83.2716 84.7746 85.1365 84.1409 86.6684C84.0774 86.8234 84.005 86.9933 83.9375 87.1516C83.8454 87.3674 83.7625 87.5618 83.724 87.6675C82.9237 89.599 82.3734 90.8644 81.5563 92.6294C81.2729 93.2455 81.0394 93.795 81.0394 93.8616C81.0394 93.9782 77.3376 101.305 76.804 102.237C76.5705 102.653 76.2704 103.219 76.1537 103.503C76.0203 103.786 75.7035 104.335 75.4367 104.751C75.1699 105.151 74.7863 105.817 74.5696 106.233C74.3361 106.65 74.0527 107.099 73.9359 107.249C73.8025 107.382 73.7025 107.565 73.7025 107.632C73.7025 107.699 72.7687 109.147 71.6348 110.862C68.9001 114.958 66.6657 117.772 64.6314 119.704C64.0811 120.22 63.4808 120.786 63.2974 120.986C63.0973 121.169 62.6137 121.552 62.1969 121.819C61.78 122.085 61.4132 122.351 61.3631 122.401C61.3131 122.451 60.7962 122.668 60.2126 122.868C59.1954 123.217 59.0954 123.217 58.445 122.968C57.6113 122.651 57.1444 122.202 56.7442 121.302C56.4941 120.736 56.4607 120.154 56.4774 117.556C56.4774 115.858 56.5775 114.026 56.6775 113.476C56.7942 112.927 56.9443 111.911 57.0277 111.229C57.1611 110.013 57.3445 108.981 58.0615 105.484C58.122 105.182 58.1898 104.84 58.2583 104.494C58.3973 103.793 58.5391 103.077 58.6285 102.653C58.8786 101.438 59.3455 99.2565 59.8624 96.992C60.0292 96.2594 60.2959 95.0605 60.446 94.3279C60.5961 93.5952 60.8629 92.4629 61.013 91.8302C61.1797 91.1808 61.4799 89.9153 61.6966 88.9995C61.8967 88.0837 62.1635 86.9182 62.2803 86.4186C62.397 85.9191 62.6638 84.7535 62.8639 83.8377C63.0004 83.2129 63.1913 82.3865 63.3517 81.6918L63.352 81.6906L63.3527 81.6874C63.427 81.3656 63.4948 81.0723 63.5475 80.8406C63.5993 80.588 63.6649 80.2761 63.7348 79.9438C63.8676 79.3121 64.0162 78.6058 64.1145 78.0931C64.2645 77.3105 64.5313 75.9951 64.7148 75.1792C67.7496 60.5929 68.6333 47.5885 67.1826 38.7968C66.2655 33.2187 64.8648 29.4223 62.3303 25.5926C61.4799 24.3104 61.0463 23.8109 59.1621 21.9294C58.2616 21.0468 57.4112 20.3142 57.2778 20.3142C57.1444 20.3142 57.0277 20.2476 57.0277 20.181C57.0277 19.8979 54.343 18.3327 52.5255 17.5668C48.1067 15.7019 43.6878 14.9193 37.7683 14.9193C33.5829 14.9193 28.7305 15.4854 25.6791 16.318C25.0788 16.4678 24.1116 16.7342 23.5113 16.9008C20.6599 17.6667 16.1577 19.7314 13.6899 21.3965C13.3917 21.6074 13.0657 21.8184 12.8568 21.9535C12.7855 21.9997 12.7276 22.0371 12.6894 22.0626C12.5393 22.1458 12.3892 22.2624 12.3392 22.3123C12.2892 22.3623 11.9557 22.612 11.5888 22.8785C10.4383 23.711 7.83702 26.2253 6.61975 27.6406C5.78601 28.6231 3.86841 31.487 3.31814 32.5527C3.21581 32.7498 3.10707 32.9628 3.00877 33.1554C2.88286 33.4022 2.77403 33.6154 2.71785 33.7183C1.83409 35.3834 0.966996 37.9975 0.400053 40.7616C0.0165322 42.6265 -0.0168174 43.0761 0.033207 46.0899C0.0999063 49.52 0.233305 50.4691 1.10039 53.0667C1.76739 55.0981 2.78455 57.2128 3.50157 58.062C3.58494 58.1786 3.66831 58.3118 3.66831 58.3617C3.66831 58.5615 5.63594 60.8427 6.45301 61.6087C7.65359 62.7409 8.8375 63.6734 9.67124 64.1563C11.8223 65.4051 14.3569 66.4374 16.0077 66.7705C16.4245 66.8537 16.8914 66.9703 17.0582 67.0369C17.0737 67.0428 17.0886 67.0488 17.1028 67.0545C17.166 67.0799 17.2159 67.0999 17.2508 67.085C17.3816 67.0293 17.3045 66.4856 16.9392 63.9095L16.9081 63.69C16.5246 60.9926 16.5079 56.5301 16.8914 53.6994C17.6084 48.4544 18.6256 44.7579 20.5099 40.5452C20.6766 40.1788 20.8934 39.696 20.9934 39.4628C21.1435 39.1132 21.4103 38.6136 22.5775 36.5489C23.0111 35.7996 24.9954 33.0023 25.5123 32.4028C26.346 31.4537 28.3804 29.4556 29.0974 28.8728C32.8492 25.8257 37.1346 24.5269 40.3862 25.4594C41.5868 25.809 43.1543 26.8414 43.6378 27.6073C43.8046 27.8571 43.9713 28.0902 44.0213 28.1402C44.5049 28.6064 45.2886 30.7044 45.7222 32.7192C46.039 34.2011 46.089 34.8838 46.0723 38.9633C46.0723 44.1917 45.6721 48.3212 44.5216 55.0315C44.4688 55.3479 44.406 55.7227 44.34 56.1162L44.3396 56.1183C44.1973 56.9671 44.0404 57.9029 43.938 58.5282C43.7879 59.444 43.5211 60.9593 43.3377 61.8917C43.1543 62.8408 42.8541 64.406 42.6707 65.3884C42.5418 66.0904 42.3553 67.0472 42.1979 67.8545C42.1313 68.1962 42.07 68.5111 42.0204 68.7686C41.8786 69.4376 41.6971 70.3949 41.5527 71.1566L41.5524 71.1577C41.51 71.3814 41.4708 71.5882 41.4367 71.7658C41.3812 72.0554 41.3097 72.4249 41.2331 72.8201L41.2319 72.8268C41.1019 73.4978 40.9578 74.2422 40.8531 74.7962C40.6697 75.6954 40.3696 77.1607 40.1861 78.0432C40.0679 78.6805 39.8995 79.5521 39.758 80.2843L39.7573 80.2879C39.6994 80.5873 39.646 80.8633 39.6025 81.0903C39.525 81.4946 39.4163 82.05 39.3064 82.6118C39.2035 83.1375 39.0995 83.6689 39.0189 84.0875C38.3853 87.2512 38.0518 89.0328 37.7683 90.6646C37.6182 91.5804 37.3514 93.079 37.1847 93.9948C36.6678 96.8421 36.2175 99.5729 35.9507 101.488C34.5834 111.295 34.4333 113.06 34.4333 119.887C34.4333 124.749 34.4834 126.148 34.7335 127.796C35.4838 132.742 36.551 135.889 38.5353 138.952C39.0356 139.718 41.2533 142.033 41.5034 142.033C41.5868 142.033 41.6869 142.1 41.7202 142.183C41.887 142.616 45.1886 144.264 46.4392 144.531C46.6736 144.573 47.1258 144.67 47.6089 144.774C47.8815 144.832 48.1649 144.893 48.4235 144.947C49.4907 145.18 50.3244 145.213 52.7589 145.163C56.7609 145.063 59.1954 144.531 63.781 142.799C64.498 142.532 67.8663 140.851 68.3665 140.518C68.5173 140.421 68.8699 140.199 69.2715 139.946L69.2755 139.944C69.4944 139.806 69.7277 139.659 69.9507 139.519C70.601 139.119 71.1512 138.753 71.2013 138.703C71.2513 138.653 71.6682 138.353 72.1184 138.037C73.0355 137.404 73.2523 137.254 73.6691 136.871C73.7719 136.768 74.0469 136.549 74.3546 136.303C74.4961 136.189 74.6445 136.071 74.7863 135.955C75.7368 135.223 75.9202 135.056 77.2209 133.841C77.4413 133.635 77.6921 133.402 77.9305 133.18L77.9333 133.177C78.2529 132.88 78.55 132.604 78.7216 132.442C79.2385 131.976 80.9394 130.161 82.7236 128.213C84.6245 126.131 88.6598 120.87 90.1272 118.588L90.2071 118.468C90.3483 118.255 90.6018 117.872 90.8442 117.523C91.1277 117.09 91.3778 116.657 91.3778 116.574C91.3778 116.49 91.4445 116.39 91.5112 116.357C91.6612 116.29 92.5784 114.958 93.0619 114.093C93.2454 113.76 93.6122 113.143 93.879 112.727C94.1458 112.311 94.4293 111.861 94.496 111.728C94.5301 111.674 94.6145 111.521 94.7309 111.312L94.7316 111.31C94.8995 111.008 95.1338 110.585 95.3797 110.163C98.0644 105.501 100.682 100.356 103.017 95.2437C103.834 93.4287 105.968 88.3834 106.468 87.0847C106.619 86.6684 106.885 86.019 107.069 85.6194C107.236 85.2364 107.386 84.8201 107.386 84.7036C107.402 84.6037 107.536 84.204 107.719 83.8377C107.903 83.4714 108.036 83.0884 108.053 82.9719C108.053 82.8553 108.153 82.5223 108.286 82.2226C108.419 81.9229 108.686 81.2235 108.886 80.674C108.951 80.4973 109.025 80.2913 109.103 80.0782C109.266 79.6287 109.44 79.1474 109.553 78.8424C109.611 78.6624 109.692 78.4179 109.78 78.1491C109.92 77.7217 110.081 77.2328 110.204 76.8443C110.404 76.1949 110.654 75.4123 110.787 75.096C110.904 74.7796 111.187 73.947 111.388 73.2644C111.604 72.5817 111.871 71.7158 111.971 71.3495L112.001 71.2565C112.126 70.8622 112.352 70.1538 112.521 69.6011C112.705 69.0017 113.022 67.9194 113.222 67.1867C113.366 66.6599 113.544 66.0298 113.676 65.5626C113.705 65.4596 113.732 65.3646 113.756 65.2803C113.775 65.2151 113.791 65.1564 113.805 65.1054C113.922 64.6891 114.189 63.6734 114.372 62.8575C114.572 62.0249 114.873 60.7928 115.056 60.1101C116.423 54.7151 117.591 47.8716 118.141 42.2103C118.508 38.3306 118.474 31.5037 118.074 27.8904C117.674 24.377 117.074 21.3632 116.29 18.9821C116.157 18.5658 116.056 18.1329 116.056 18.0164C116.056 17.8998 115.906 17.4835 115.723 17.1172C115.54 16.7342 115.389 16.3513 115.389 16.2847C115.389 15.9849 114.039 12.9711 113.455 11.9554C111.804 9.1081 109.77 6.47724 108.103 5.04526C106.885 3.99625 104.834 2.49765 104.634 2.49765C104.568 2.49765 104.317 2.36445 104.084 2.19794C103.834 2.03142 103.3 1.76502 102.883 1.5985C102.467 1.432 101.866 1.18222 101.566 1.03237C99.2149 0.0166671 94.7961 -0.299709 92.0448 0.366338Z" fill="black"/>
<path d="M226.944 2.76409C225.043 3.0971 224.41 3.23031 223.609 3.49672C217.806 5.4116 213.554 11.5058 212.754 19.0321C212.287 23.4779 213.354 27.6407 215.722 30.6378C216.189 31.2373 216.823 31.9033 217.106 32.1364C217.406 32.3695 217.723 32.636 217.84 32.7359C218.006 32.8857 218.407 33.1022 219.941 33.8848C220.174 34.018 221.041 34.2677 221.858 34.4842C224.543 35.1503 227.878 34.9338 230.362 33.9347C232.147 33.2187 233.564 32.4361 233.831 32.0199C233.898 31.9033 234.048 31.8034 234.148 31.8034C234.431 31.8034 237.449 28.6897 237.449 28.4066C237.449 28.2734 237.516 28.1402 237.599 28.1069C238 27.957 239.6 24.7101 240.184 22.8618C241.018 20.2476 241.168 19.132 241.068 16.0682C240.968 12.5549 240.534 10.7899 239.2 8.52532C238.583 7.45966 236.349 4.99532 236.015 4.99532C235.915 4.99532 235.732 4.89541 235.632 4.7622C235.448 4.54573 234.281 3.92965 233.231 3.51337C231.947 2.9972 228.161 2.54761 226.944 2.76409Z" fill="black"/>
</svg>
