<svg width="307" height="170" viewBox="0 0 307 170" fill="none" xmlns="http://www.w3.org/2000/svg">
<path d="M162.286 11.22C159.646 3.73999 158.326 0.880001 156.786 0.880001C155.466 0.880001 154.586 1.98 151.286 11L104.646 136.4H104.206C100.906 124.74 78.026 44 74.726 29.92C72.526 20.24 70.546 12.54 70.546 9.67999C70.546 6.81999 72.086 5.06 73.406 4.39999C76.046 3.08 80.226 3.08 81.986 3.08C83.086 3.08 84.186 2.86 84.186 1.53999C84.186 0.659992 83.306 0 80.226 0C69.226 0 59.546 0.65999 57.566 0.65999C55.146 0.65999 43.046 0 31.606 0C29.406 0 28.086 0.439994 28.086 1.53999C28.086 2.86 28.966 3.08 30.066 3.08C31.606 3.08 37.106 3.29999 39.966 4.39999C45.686 6.59999 48.546 9.9 52.066 21.56L91.226 152.02C95.626 166.98 96.726 169.4 98.926 169.4C101.566 169.4 102.666 166.98 106.186 157.74C114.106 137.28 144.246 56.76 152.166 35.64H152.606L195.726 157.96C198.806 166.54 200.126 169.4 202.326 169.4C204.746 169.4 205.846 166.76 211.566 150.48C220.146 125.84 242.366 55.88 252.046 27.94C256.226 15.84 259.746 6.59999 266.346 4.18C268.766 3.3 272.946 3.08 273.826 3.08C275.146 3.08 275.806 2.41999 275.806 1.32C275.806 0.439994 274.706 0 272.726 0C265.906 0 256.446 0.65999 254.906 0.65999C252.926 0.65999 243.686 0 232.466 0C229.826 0 228.726 0.439994 228.726 1.53999C228.726 2.42 229.606 3.08 230.706 3.08C240.826 3.08 243.246 5.71999 243.246 9.67999C243.246 12.54 243.026 15.62 240.826 23.76C233.126 51.92 212.886 115.72 206.946 135.96H206.066L162.286 11.22Z" fill="#E9EFF1"/>
<path d="M51.2585 75.4333C50.5475 77.4083 49.7575 78.9093 47.9405 79.1463C47.6245 79.1858 47.0715 79.2253 46.795 79.2253C46.5975 79.2253 46.4395 79.3043 46.4395 79.4623C46.4395 79.6993 46.6765 79.7783 47.19 79.7783C49.0465 79.7783 51.219 79.6598 51.6535 79.6598C52.088 79.6598 53.7865 79.7783 54.7345 79.7783C55.09 79.7783 55.327 79.6993 55.327 79.4623C55.327 79.3043 55.2085 79.2253 54.932 79.2253H54.537C53.8655 79.2253 53.036 78.8698 53.036 78.0798C53.036 77.3688 53.2335 76.4208 53.589 75.4333L55.959 68.4418C56.038 68.2443 56.1565 68.1258 56.354 68.1258H64.8465C65.044 68.1258 65.123 68.2048 65.202 68.3628L68.8755 78.0798C69.1125 78.7118 68.8755 79.0673 68.6385 79.1463C68.4805 79.1858 68.362 79.2648 68.362 79.4228C68.362 79.6598 68.7965 79.6598 69.547 79.6993C72.2725 79.7783 75.156 79.7783 75.7485 79.7783C76.183 79.7783 76.5385 79.6993 76.5385 79.4623C76.5385 79.2648 76.3805 79.2253 76.1435 79.2253C75.7485 79.2253 75.156 79.1858 74.5635 78.9883C73.734 78.7513 72.5885 78.1193 71.1665 74.6038C68.757 68.5998 62.5555 52.2863 61.963 50.7853C61.489 49.5608 61.331 49.3633 61.094 49.3633C60.857 49.3633 60.699 49.6003 60.225 50.9038L51.2585 75.4333ZM56.7885 66.7038C56.67 66.7038 56.591 66.6248 56.67 66.4273L60.146 55.7623C60.3435 55.1698 60.541 55.1698 60.7385 55.7623L64.491 66.4273C64.5305 66.5853 64.5305 66.7038 64.333 66.7038H56.7885Z" fill="#10516C"/>
<path d="M87.8309 51.6148L92.8079 51.6938C96.5999 51.7728 97.5479 52.6813 97.6664 53.8663L97.7059 54.3008C97.7454 54.8538 97.8244 54.9723 98.0219 54.9723C98.1799 54.9723 98.2984 54.8143 98.2984 54.4588C98.2984 54.0243 98.4169 51.2988 98.4169 50.1138C98.4169 49.8768 98.4169 49.6398 98.2194 49.6398C98.0614 49.6398 97.7059 49.7583 97.1134 49.8373C96.4814 49.9558 95.5729 50.0348 94.3089 50.0348H79.4964C79.0224 50.0348 77.5214 49.9558 76.3759 49.8373C75.3094 49.7583 74.9144 49.3633 74.6379 49.3633C74.4799 49.3633 74.3219 49.8768 74.2429 50.1138C74.1639 50.4298 73.3739 53.8268 73.3739 54.2218C73.3739 54.4588 73.4529 54.5773 73.5714 54.5773C73.7294 54.5773 73.8479 54.4983 73.9664 54.1823C74.0849 53.9058 74.2034 53.6293 74.6379 52.9578C75.2699 52.0098 76.2179 51.7333 78.6669 51.6938L84.5129 51.6148V68.3233C84.5129 72.1153 84.5129 75.2358 84.3154 76.8948C84.1574 78.0403 83.9599 78.9093 83.1699 79.0673C82.8144 79.1463 82.3404 79.2253 81.9849 79.2253C81.7479 79.2253 81.6689 79.3438 81.6689 79.4623C81.6689 79.6993 81.8664 79.7783 82.3009 79.7783C83.4859 79.7783 85.9744 79.6598 86.1719 79.6598C86.3694 79.6598 88.8579 79.7783 91.0304 79.7783C91.4649 79.7783 91.6624 79.6598 91.6624 79.4623C91.6624 79.3438 91.5834 79.2253 91.3464 79.2253C90.9909 79.2253 90.1219 79.1463 89.5689 79.0673C88.3839 78.9093 88.1469 78.0403 88.0284 76.8948C87.8309 75.2358 87.8309 72.1153 87.8309 68.3233V51.6148Z" fill="#10516C"/>
<path d="M106.728 68.3233C106.728 72.1153 106.728 75.2358 106.53 76.8948C106.372 78.0403 106.175 78.9093 105.385 79.0673C105.029 79.1463 104.555 79.2253 104.2 79.2253C103.963 79.2253 103.884 79.3438 103.884 79.4623C103.884 79.6993 104.081 79.7783 104.516 79.7783C105.108 79.7783 106.017 79.6993 106.807 79.6993C107.636 79.6598 108.308 79.6598 108.387 79.6598C108.979 79.6598 109.927 79.6993 111.468 79.7783C113.008 79.8178 115.181 79.8968 118.143 79.8968C119.684 79.8968 120 79.8968 120.276 78.8698C120.474 78.0403 120.79 75.3543 120.79 75.0383C120.79 74.7618 120.79 74.4458 120.553 74.4458C120.355 74.4458 120.276 74.6038 120.197 75.0383C119.921 76.6578 119.447 77.4478 118.42 77.8823C117.393 78.3168 115.655 78.3168 114.628 78.3168C110.757 78.3168 110.164 77.8033 110.046 75.0778C110.006 74.2483 110.046 69.6663 110.046 68.3233V64.8473C110.046 64.6893 110.125 64.5708 110.322 64.5708C110.994 64.5708 114.904 64.6498 115.971 64.7683C117.511 64.9263 117.867 65.5978 118.025 66.1508C118.183 66.6643 118.183 67.0593 118.183 67.4543C118.183 67.6518 118.262 67.8098 118.459 67.8098C118.736 67.8098 118.736 67.3753 118.736 67.0593C118.736 66.7828 118.815 65.3213 118.894 64.5313C119.012 63.2278 119.21 62.5563 119.21 62.3193C119.21 62.0823 119.131 62.0033 119.012 62.0033C118.854 62.0033 118.696 62.2008 118.42 62.5168C118.064 62.9118 117.511 62.9908 116.563 63.0698C115.655 63.1488 110.796 63.1488 110.283 63.1488C110.085 63.1488 110.046 63.0303 110.046 62.7538V51.8518C110.046 51.5753 110.125 51.4568 110.283 51.4568C110.717 51.4568 115.023 51.4963 115.694 51.5753C117.827 51.8123 118.222 52.2863 118.499 52.9183C118.696 53.3923 118.736 54.0638 118.736 54.3403C118.736 54.6563 118.815 54.8538 119.052 54.8538C119.21 54.8538 119.289 54.6168 119.328 54.4193C119.407 53.9453 119.486 52.2073 119.526 51.8123C119.644 50.7063 119.842 50.2323 119.842 49.9558C119.842 49.7583 119.802 49.6003 119.684 49.6003C119.486 49.6003 119.328 49.7583 119.131 49.7978C118.815 49.8768 118.183 49.9558 117.432 49.9953C116.524 50.0348 108.663 50.0348 108.387 50.0348L106.767 49.9558C105.898 49.9163 104.832 49.9163 103.923 49.9163C103.489 49.9163 103.291 49.9953 103.291 50.2323C103.291 50.3903 103.449 50.4693 103.607 50.4693C103.963 50.4693 104.634 50.5088 104.95 50.5878C106.254 50.8643 106.57 51.4963 106.649 52.8393C106.728 54.1033 106.728 55.2093 106.728 61.3713V68.3233Z" fill="#10516C"/>
<path d="M130.837 68.3233C130.837 72.1153 130.837 75.2358 130.639 76.8948C130.481 78.0403 130.284 78.9093 129.494 79.0673C129.138 79.1463 128.664 79.2253 128.309 79.2253C128.072 79.2253 127.993 79.3438 127.993 79.4623C127.993 79.6993 128.19 79.7783 128.625 79.7783C129.81 79.7783 132.298 79.6598 132.338 79.6598C132.535 79.6598 135.024 79.7783 137.196 79.7783C137.631 79.7783 137.828 79.6598 137.828 79.4623C137.828 79.3438 137.749 79.2253 137.512 79.2253C137.157 79.2253 136.288 79.1463 135.735 79.0673C134.55 78.9093 134.313 78.0403 134.194 76.8948C133.997 75.2358 133.997 72.1153 133.997 68.3233V67.3753C133.997 67.1778 134.076 67.0593 134.273 67.0593L139.132 67.1383C139.369 67.1383 139.487 67.2173 139.645 67.3753C140.435 68.4023 142.292 71.0488 143.951 73.2213C146.202 76.1838 147.585 78.1193 149.283 79.0278C150.31 79.5808 151.298 79.7783 153.51 79.7783H156.314C157.025 79.7783 157.262 79.6993 157.262 79.4623C157.262 79.3438 157.104 79.2253 156.907 79.2253C156.67 79.2253 156.117 79.2253 155.366 79.1068C154.379 78.9488 152.68 78.5143 150.547 76.2628C148.256 73.8138 145.57 70.2983 142.331 66.1508C145.886 62.8723 147.111 59.9493 147.111 57.0263C147.111 54.3008 145.373 52.3653 144.385 51.6543C142.292 50.1533 139.645 49.9163 137.157 49.9163C135.932 49.9163 132.93 50.0348 132.496 50.0348C132.298 50.0348 129.81 49.9163 128.032 49.9163C127.598 49.9163 127.4 49.9953 127.4 50.2323C127.4 50.3903 127.558 50.4693 127.716 50.4693C128.072 50.4693 128.743 50.5088 129.059 50.5878C130.363 50.8643 130.679 51.4963 130.758 52.8393C130.837 54.1033 130.837 55.2093 130.837 61.3713V68.3233ZM133.997 51.8913C133.997 51.6543 134.115 51.4963 134.313 51.4173C134.708 51.2988 135.774 51.1803 136.959 51.1803C141.186 51.1803 143.793 54.1428 143.793 59.0803C143.793 62.0823 142.766 64.2153 141.383 65.1633C140.475 65.7953 139.369 65.9138 138.421 65.9138C136.683 65.9138 134.866 65.6373 134.273 65.2818C134.076 65.1633 133.997 65.0053 133.997 64.8078V51.8913Z" fill="#10516C"/>
<path d="M160.616 68.3233C160.616 72.1153 160.616 75.2358 160.419 76.8948C160.261 78.0403 160.063 78.9093 159.273 79.0673C158.918 79.1463 158.444 79.2253 158.088 79.2253C157.851 79.2253 157.772 79.3438 157.772 79.4623C157.772 79.6993 157.97 79.7783 158.404 79.7783C159.589 79.7783 162.078 79.6598 162.275 79.6598C162.473 79.6598 164.961 79.7783 167.134 79.7783C167.568 79.7783 167.766 79.6598 167.766 79.4623C167.766 79.3438 167.687 79.2253 167.45 79.2253C167.094 79.2253 166.225 79.1463 165.672 79.0673C164.487 78.9093 164.25 78.0403 164.132 76.8948C163.934 75.2358 163.934 72.1153 163.934 68.3233V64.9658C163.934 64.6893 164.013 64.6103 164.211 64.6103C164.882 64.6103 169.188 64.6103 170.175 64.7288C171.4 64.8868 172.032 65.5978 172.229 66.1508C172.387 66.6248 172.427 67.1778 172.466 67.5728C172.466 67.7703 172.545 67.9283 172.743 67.9283C173.019 67.9283 173.019 67.5333 173.019 67.1778C173.019 66.9013 173.098 65.3213 173.177 64.5313C173.296 63.2278 173.493 62.5563 173.493 62.3193C173.493 62.1218 173.454 62.0033 173.296 62.0033C173.138 62.0033 173.019 62.2008 172.861 62.3983C172.506 62.9118 171.992 63.0303 171.044 63.1093C170.491 63.1488 169.938 63.1488 169.267 63.1488L164.211 63.1883C163.974 63.1883 163.934 63.0698 163.934 62.8328V51.9308C163.934 51.6148 164.053 51.4963 164.29 51.4963L170.373 51.6148C171.913 51.6543 172.822 52.3653 173.059 52.8788C173.296 53.3923 173.414 54.0638 173.414 54.3798C173.414 54.6563 173.493 54.8538 173.691 54.8538C173.888 54.8538 173.967 54.6168 174.007 54.4193C174.086 53.9453 174.165 52.2073 174.204 51.8123C174.323 50.7063 174.52 50.2323 174.52 49.9558C174.52 49.7583 174.441 49.6003 174.283 49.6003C174.125 49.6003 173.967 49.7583 173.73 49.8373C173.375 49.9558 172.743 49.9558 171.992 49.9953C171.084 50.0348 163.065 50.0743 162.275 50.0348L160.656 49.9558C159.787 49.9163 158.72 49.9163 157.812 49.9163C157.377 49.9163 157.18 49.9953 157.18 50.2323C157.18 50.3903 157.338 50.4693 157.496 50.4693C157.851 50.4693 158.523 50.5088 158.839 50.5878C160.142 50.8643 160.458 51.4963 160.537 52.8393C160.616 54.1033 160.616 55.2093 160.616 61.3713V68.3233Z" fill="#10516C"/>
<path d="M183.992 68.3233C183.992 72.1153 183.992 75.2358 183.795 76.8948C183.637 78.0403 183.439 78.9093 182.649 79.0673C182.294 79.1463 181.82 79.2253 181.464 79.2253C181.227 79.2253 181.148 79.3438 181.148 79.4623C181.148 79.6993 181.346 79.7783 181.78 79.7783C182.965 79.7783 185.454 79.6598 185.493 79.6598C185.691 79.6598 188.179 79.7783 190.352 79.7783C190.786 79.7783 190.984 79.6598 190.984 79.4623C190.984 79.3438 190.905 79.2253 190.668 79.2253C190.312 79.2253 189.443 79.1463 188.89 79.0673C187.705 78.9093 187.468 78.0403 187.35 76.8948C187.152 75.2358 187.152 72.1153 187.152 68.3233V67.3753C187.152 67.1778 187.231 67.0593 187.429 67.0593L192.287 67.1383C192.524 67.1383 192.643 67.2173 192.801 67.3753C193.591 68.4023 195.447 71.0488 197.106 73.2213C199.358 76.1838 200.74 78.1193 202.439 79.0278C203.466 79.5808 204.453 79.7783 206.665 79.7783H209.47C210.181 79.7783 210.418 79.6993 210.418 79.4623C210.418 79.3438 210.26 79.2253 210.062 79.2253C209.825 79.2253 209.272 79.2253 208.522 79.1068C207.534 78.9488 205.836 78.5143 203.703 76.2628C201.412 73.8138 198.726 70.2983 195.487 66.1508C199.042 62.8723 200.266 59.9493 200.266 57.0263C200.266 54.3008 198.528 52.3653 197.541 51.6543C195.447 50.1533 192.801 49.9163 190.312 49.9163C189.088 49.9163 186.086 50.0348 185.651 50.0348C185.454 50.0348 182.965 49.9163 181.188 49.9163C180.753 49.9163 180.556 49.9953 180.556 50.2323C180.556 50.3903 180.714 50.4693 180.872 50.4693C181.227 50.4693 181.899 50.5088 182.215 50.5878C183.518 50.8643 183.834 51.4963 183.913 52.8393C183.992 54.1033 183.992 55.2093 183.992 61.3713V68.3233ZM187.152 51.8913C187.152 51.6543 187.271 51.4963 187.468 51.4173C187.863 51.2988 188.93 51.1803 190.115 51.1803C194.341 51.1803 196.948 54.1428 196.948 59.0803C196.948 62.0823 195.921 64.2153 194.539 65.1633C193.63 65.7953 192.524 65.9138 191.576 65.9138C189.838 65.9138 188.021 65.6373 187.429 65.2818C187.231 65.1633 187.152 65.0053 187.152 64.8078V51.8913Z" fill="#10516C"/>
<path d="M209.847 64.8078C209.847 71.9178 214.35 80.3313 225.173 80.3313C234.692 80.3313 240.933 73.0238 240.933 64.1758C240.933 54.9723 234.297 49.3633 225.41 49.3633C214.508 49.3633 209.847 58.4088 209.847 64.8078ZM213.599 63.7018C213.599 55.0513 218.537 50.7063 225.133 50.7063C231.374 50.7063 237.141 55.8018 237.141 65.2818C237.141 76.7763 229.794 78.8303 226.239 78.8303C219.129 78.8303 213.599 72.9053 213.599 63.7018Z" fill="#10516C"/>
<path d="M249.851 55.4858C251.115 56.9078 255.579 61.8848 260.161 66.8223C264.348 71.3253 270.036 77.1318 270.47 77.5268C272.564 79.6203 273.038 80.0548 273.354 80.0548C273.63 80.0548 273.709 79.8573 273.709 77.2503L273.788 54.1033C273.788 51.7333 273.946 50.8643 275.25 50.5878C275.724 50.4693 276 50.4693 276.198 50.4693C276.474 50.4693 276.632 50.3508 276.632 50.1928C276.632 49.9558 276.356 49.9163 275.921 49.9163C274.302 49.9163 272.998 50.0348 272.564 50.0348C272.129 50.0348 270.233 49.9163 268.456 49.9163C267.982 49.9163 267.666 49.9558 267.666 50.1928C267.666 50.3508 267.705 50.4693 267.982 50.4693C268.298 50.4693 269.206 50.5088 269.917 50.6668C271.142 50.9828 271.418 51.8518 271.458 54.4193L271.892 74.4853C270.628 73.1818 266.323 68.3628 262.412 64.1758C256.329 57.6583 250.444 51.2988 249.851 50.6273C249.456 50.2323 248.785 49.3633 248.469 49.3633C248.153 49.3633 248.034 49.7978 248.034 51.3383L247.995 73.9718C247.995 77.5663 247.797 78.7118 246.81 78.9883C246.217 79.1858 245.506 79.2253 245.19 79.2253C244.993 79.2253 244.874 79.3043 244.874 79.4623C244.874 79.7388 245.111 79.7783 245.506 79.7783C247.284 79.7783 248.943 79.6598 249.298 79.6598C249.654 79.6598 251.234 79.7783 253.485 79.7783C253.959 79.7783 254.196 79.6993 254.196 79.4623C254.196 79.3043 254.078 79.2253 253.88 79.2253C253.525 79.2253 252.656 79.1858 251.905 78.9883C250.839 78.6723 250.444 77.6453 250.365 74.4063L249.851 55.4858Z" fill="#10516C"/>
<path d="M295.129 51.6148L300.106 51.6938C303.898 51.7728 304.846 52.6813 304.964 53.8663L305.004 54.3008C305.043 54.8538 305.122 54.9723 305.32 54.9723C305.478 54.9723 305.596 54.8143 305.596 54.4588C305.596 54.0243 305.715 51.2988 305.715 50.1138C305.715 49.8768 305.715 49.6398 305.517 49.6398C305.359 49.6398 305.004 49.7583 304.411 49.8373C303.779 49.9558 302.871 50.0348 301.607 50.0348H286.794C286.32 50.0348 284.819 49.9558 283.674 49.8373C282.607 49.7583 282.212 49.3633 281.936 49.3633C281.778 49.3633 281.62 49.8768 281.541 50.1138C281.462 50.4298 280.672 53.8268 280.672 54.2218C280.672 54.4588 280.751 54.5773 280.869 54.5773C281.027 54.5773 281.146 54.4983 281.264 54.1823C281.383 53.9058 281.501 53.6293 281.936 52.9578C282.568 52.0098 283.516 51.7333 285.965 51.6938L291.811 51.6148V68.3233C291.811 72.1153 291.811 75.2358 291.613 76.8948C291.455 78.0403 291.258 78.9093 290.468 79.0673C290.112 79.1463 289.638 79.2253 289.283 79.2253C289.046 79.2253 288.967 79.3438 288.967 79.4623C288.967 79.6993 289.164 79.7783 289.599 79.7783C290.784 79.7783 293.272 79.6598 293.47 79.6598C293.667 79.6598 296.156 79.7783 298.328 79.7783C298.763 79.7783 298.96 79.6598 298.96 79.4623C298.96 79.3438 298.881 79.2253 298.644 79.2253C298.289 79.2253 297.42 79.1463 296.867 79.0673C295.682 78.9093 295.445 78.0403 295.326 76.8948C295.129 75.2358 295.129 72.1153 295.129 68.3233V51.6148Z" fill="#10516C"/>
<path d="M9.3185 105.885C9.3185 100.935 9.3185 100.035 9.356 99.0221C9.431 97.8971 9.6185 97.4471 10.5185 97.2596C10.8935 97.1846 11.1185 97.1846 11.3435 97.1846C11.456 97.1846 11.606 97.0346 11.606 96.9221C11.606 96.7346 11.456 96.6596 11.081 96.6596C10.0685 96.6596 7.931 96.7346 7.781 96.7346C7.5935 96.7346 5.531 96.6596 4.4435 96.6596C4.0685 96.6596 3.9185 96.7346 3.9185 96.9221C3.9185 97.0346 4.031 97.1846 4.181 97.1846C4.406 97.1846 4.8185 97.2221 5.1935 97.2971C5.906 97.4471 6.1685 97.9346 6.2435 99.0221C6.3185 100.035 6.3185 100.935 6.3185 105.885V111.51C6.3185 114.585 6.281 117.097 6.131 118.41C6.0185 119.347 5.906 119.947 5.2685 120.097C4.9685 120.172 4.556 120.247 4.256 120.247C4.0685 120.247 3.9935 120.397 3.9935 120.51C3.9935 120.697 4.181 120.772 4.5185 120.772C5.531 120.772 7.5935 120.66 7.781 120.66C7.931 120.66 10.0685 120.772 11.906 120.772C12.281 120.772 12.431 120.66 12.431 120.51C12.431 120.397 12.356 120.247 12.1685 120.247C11.8685 120.247 11.156 120.172 10.6685 120.097C9.6935 119.947 9.581 119.347 9.4685 118.41C9.3185 117.097 9.3185 114.585 9.3185 111.51V105.885Z" fill="#10516C"/>
<path d="M21.1738 101.385C22.1863 102.51 25.8988 106.41 29.7238 110.422C33.2113 114.06 37.9738 118.747 38.3113 119.047C40.1488 120.735 40.4863 120.997 40.8238 120.997C41.0488 120.997 41.0863 120.81 41.0863 118.71L41.1613 100.035C41.1613 98.1221 41.2363 97.4846 42.3238 97.2596C42.6988 97.1846 42.9613 97.1846 43.1113 97.1846C43.3363 97.1846 43.4863 96.9971 43.4863 96.8846C43.4863 96.6971 43.2238 96.6596 42.8863 96.6596C41.5363 96.6596 40.4488 96.7346 40.0738 96.7346C39.6988 96.7346 38.1238 96.6596 36.6238 96.6596C36.2488 96.6596 35.9863 96.6971 35.9863 96.8846C35.9863 96.9971 36.0238 97.1846 36.2488 97.1846C36.5113 97.1846 37.2613 97.2221 37.8613 97.3346C38.8738 97.5221 39.0613 98.2346 39.0988 100.297L39.4363 116.272C38.4238 115.222 34.8988 111.435 31.6363 108.06C26.5363 102.81 21.7363 97.7096 21.2113 97.1846C20.8738 96.8471 20.3113 96.2096 19.9363 96.2096C19.6738 96.2096 19.4863 96.5471 19.4863 97.8221V116.085C19.4863 118.972 19.3738 119.835 18.5488 120.06C18.0613 120.21 17.4613 120.247 17.1988 120.247C17.0488 120.247 16.9363 120.36 16.9363 120.51C16.9363 120.735 17.1238 120.772 17.4613 120.772C18.9613 120.772 20.3488 120.66 20.6488 120.66C20.9488 120.66 22.2613 120.772 24.1363 120.772C24.5113 120.772 24.7363 120.697 24.7363 120.51C24.7363 120.36 24.6238 120.247 24.4738 120.247C24.1738 120.247 23.4238 120.21 22.8238 120.06C21.9238 119.835 21.6238 119.047 21.5488 116.422L21.1738 101.385Z" fill="#10516C"/>
<path d="M58.5991 98.1221L62.7241 98.1971C65.8741 98.2721 66.5866 98.9846 66.6991 99.9596L66.7366 100.297C66.7741 100.747 66.8491 100.86 66.9991 100.86C67.1491 100.86 67.2991 100.71 67.2991 100.447C67.2991 100.072 67.4116 97.7846 67.4116 96.8096C67.4116 96.6221 67.4116 96.4346 67.2616 96.4346C67.1116 96.4346 66.8116 96.5096 66.3241 96.5846C65.7991 96.6596 65.0491 96.7346 63.9616 96.7346H51.5116C51.1366 96.7346 49.8616 96.6971 48.9241 96.5846C48.0241 96.4721 47.6866 96.2096 47.4616 96.2096C47.3491 96.2096 47.1991 96.6221 47.1241 96.8096C47.0866 97.0721 46.4116 99.9221 46.4116 100.26C46.4116 100.447 46.5616 100.522 46.6366 100.522C46.7866 100.522 46.8991 100.485 46.9741 100.222C47.0866 99.9971 47.1241 99.7721 47.4991 99.2096C47.9866 98.4596 48.7741 98.2346 50.8366 98.1971L55.5991 98.1221V111.51C55.5991 114.585 55.5991 117.097 55.4491 118.41C55.3366 119.347 55.1491 119.985 54.4741 120.135C54.1741 120.21 53.7991 120.285 53.4991 120.285C53.3116 120.285 53.2366 120.397 53.2366 120.51C53.2366 120.697 53.3866 120.772 53.7616 120.772C54.7366 120.772 57.0241 120.66 57.1741 120.66C57.3616 120.66 59.4616 120.772 61.2616 120.772C61.6366 120.772 61.7866 120.66 61.7866 120.51C61.7866 120.397 61.7491 120.247 61.5241 120.247C61.2241 120.247 60.4741 120.172 60.0241 120.097C59.0116 119.947 58.8616 119.347 58.7491 118.41C58.5991 117.097 58.5991 114.585 58.5991 111.51V98.1221Z" fill="#10516C"/>
<path d="M74.2873 111.51C74.2873 114.585 74.2873 117.097 74.0998 118.41C73.9498 119.347 73.8748 119.985 73.2373 120.097C72.9373 120.135 72.5248 120.247 72.2248 120.247C72.0373 120.247 71.9623 120.397 71.9623 120.51C71.9623 120.697 72.1498 120.772 72.4873 120.772C73.0123 120.772 73.7623 120.735 74.3998 120.697C75.1123 120.66 75.7498 120.66 75.8248 120.66C76.3123 120.66 77.1748 120.66 78.5623 120.735C79.9123 120.772 81.8248 120.847 84.2998 120.847C85.5748 120.847 85.9123 120.847 86.1373 120.022C86.3248 119.347 86.5873 117.172 86.5873 116.947C86.5873 116.722 86.5498 116.46 86.3623 116.46C86.1748 116.46 86.0998 116.572 86.0248 116.947C85.8373 118.222 85.3873 118.785 84.5248 119.16C83.6623 119.497 82.0873 119.497 81.2248 119.497C77.9623 119.497 77.3623 119.085 77.2873 116.947C77.2498 116.31 77.2873 112.597 77.2873 111.51V108.847C77.2873 108.735 77.3248 108.622 77.5123 108.622C78.0748 108.622 81.5998 108.66 82.4998 108.772C83.7748 108.922 84.0748 109.297 84.1873 109.747C84.3373 110.16 84.3373 110.497 84.3373 110.797C84.3373 110.985 84.4123 111.097 84.5623 111.097C84.7873 111.097 84.8623 110.76 84.8623 110.497C84.8623 110.272 84.9373 109.072 85.0123 108.435C85.0873 107.385 85.2748 106.86 85.2748 106.672C85.2748 106.485 85.1998 106.41 85.0873 106.41C84.9748 106.41 84.8248 106.597 84.5998 106.822C84.2623 107.16 83.7748 107.197 82.9873 107.272C82.2373 107.347 77.8873 107.347 77.4748 107.347C77.2873 107.347 77.2873 107.235 77.2873 107.01V98.3471C77.2873 98.1221 77.3248 98.0096 77.4748 98.0096C77.8498 98.0096 81.6748 98.0471 82.2373 98.1221C84.0373 98.3471 84.3748 98.5721 84.5998 99.0971C84.7498 99.4721 84.7873 99.9971 84.7873 100.222C84.7873 100.485 84.8623 100.635 85.0498 100.635C85.1998 100.635 85.3123 100.447 85.3498 100.297C85.4248 99.9221 85.4998 98.4971 85.5373 98.1971C85.6123 97.2971 85.7998 96.9221 85.7998 96.6971C85.7998 96.5471 85.7623 96.3971 85.6498 96.3971C85.4998 96.3971 85.3498 96.5096 85.1998 96.5471C84.9373 96.5846 84.3373 96.6971 83.6998 96.7346C82.9498 96.7721 76.0498 96.7346 75.8248 96.7346C75.6373 96.7346 73.4998 96.6596 71.9998 96.6596C71.6248 96.6596 71.4748 96.7346 71.4748 96.9221C71.4748 97.0346 71.6248 97.1846 71.7373 97.1846C72.0373 97.1846 72.5998 97.2221 72.8623 97.2596C73.9498 97.4096 74.1373 97.9346 74.2123 99.0221C74.2873 100.035 74.2873 100.935 74.2873 105.885V111.51Z" fill="#10516C"/>
<path d="M94.9416 111.51C94.9416 114.585 94.9416 117.097 94.7541 118.41C94.6041 119.347 94.529 119.947 93.8915 120.097C93.5915 120.172 93.1791 120.247 92.8791 120.247C92.6916 120.247 92.6166 120.397 92.6166 120.51C92.6166 120.697 92.804 120.772 93.1415 120.772C94.154 120.772 96.3666 120.66 96.4041 120.66C96.5541 120.66 98.654 120.772 100.454 120.772C100.829 120.772 100.979 120.66 100.979 120.51C100.979 120.397 100.942 120.247 100.717 120.247C100.417 120.247 99.7041 120.172 99.2541 120.097C98.2416 119.947 98.0541 119.347 97.9416 118.41C97.7916 117.097 97.7915 114.622 97.7915 111.547V110.797C97.7915 110.61 97.8665 110.535 98.0165 110.535L102.217 110.61C102.442 110.61 102.517 110.647 102.667 110.797C103.379 111.66 104.842 113.722 106.229 115.447C108.104 117.847 109.304 119.385 110.729 120.135C111.554 120.585 112.379 120.772 114.254 120.772H116.317C116.917 120.772 117.104 120.697 117.104 120.51C117.104 120.397 116.992 120.247 116.804 120.247C116.617 120.247 116.279 120.247 115.642 120.135C114.817 120.022 113.729 119.722 111.967 117.922C110.054 115.935 107.767 113.047 105.067 109.672C108.142 107.047 109.117 104.76 109.117 102.397C109.117 100.185 107.654 98.6471 106.829 98.0471C105.104 96.8471 102.779 96.6596 100.679 96.6596C99.6666 96.6596 96.8916 96.7346 96.5541 96.7346C96.3666 96.7346 94.1541 96.6596 92.6541 96.6596C92.2791 96.6596 92.1291 96.7346 92.1291 96.9221C92.1291 97.0346 92.279 97.1846 92.3915 97.1846C92.6915 97.1846 93.254 97.2221 93.5165 97.2596C94.604 97.4096 94.7916 97.9346 94.8666 99.0221C94.9416 100.035 94.9416 100.935 94.9416 105.885V111.51ZM97.7915 98.3471C97.7915 98.1596 97.9041 98.0471 98.0541 97.9721C98.3916 97.8971 99.4415 97.7846 100.417 97.7846C103.942 97.7846 106.117 100.072 106.117 104.047C106.117 106.485 105.254 108.172 104.129 108.922C103.342 109.447 102.442 109.485 101.654 109.485C100.192 109.485 98.504 109.26 98.0165 108.997C97.8665 108.885 97.7915 108.772 97.7915 108.585V98.3471Z" fill="#10516C"/>
<path d="M121.149 101.385C122.162 102.51 125.874 106.41 129.699 110.422C133.187 114.06 137.949 118.747 138.287 119.047C140.124 120.735 140.462 120.997 140.799 120.997C141.024 120.997 141.062 120.81 141.062 118.71L141.137 100.035C141.137 98.1221 141.212 97.4846 142.299 97.2596C142.674 97.1846 142.937 97.1846 143.087 97.1846C143.312 97.1846 143.462 96.9971 143.462 96.8846C143.462 96.6971 143.199 96.6596 142.862 96.6596C141.512 96.6596 140.424 96.7346 140.049 96.7346C139.674 96.7346 138.099 96.6596 136.599 96.6596C136.224 96.6596 135.962 96.6971 135.962 96.8846C135.962 96.9971 135.999 97.1846 136.224 97.1846C136.487 97.1846 137.237 97.2221 137.837 97.3346C138.849 97.5221 139.037 98.2346 139.074 100.297L139.412 116.272C138.399 115.222 134.874 111.435 131.612 108.06C126.512 102.81 121.712 97.7096 121.187 97.1846C120.849 96.8471 120.287 96.2096 119.912 96.2096C119.649 96.2096 119.462 96.5471 119.462 97.8221V116.085C119.462 118.972 119.349 119.835 118.524 120.06C118.037 120.21 117.437 120.247 117.174 120.247C117.024 120.247 116.912 120.36 116.912 120.51C116.912 120.735 117.099 120.772 117.437 120.772C118.937 120.772 120.324 120.66 120.624 120.66C120.924 120.66 122.237 120.772 124.112 120.772C124.487 120.772 124.712 120.697 124.712 120.51C124.712 120.36 124.599 120.247 124.449 120.247C124.149 120.247 123.399 120.21 122.799 120.06C121.899 119.835 121.599 119.047 121.524 116.422L121.149 101.385Z" fill="#10516C"/>
<path d="M148.637 117.247C148 118.86 147.362 119.985 145.862 120.172C145.6 120.21 145.112 120.247 144.887 120.247C144.737 120.247 144.587 120.36 144.587 120.51C144.587 120.697 144.812 120.772 145.225 120.772C146.575 120.772 148.225 120.66 148.562 120.66C148.937 120.66 150.737 120.772 151.525 120.772C151.825 120.772 152.012 120.697 152.012 120.51C152.012 120.36 151.937 120.247 151.675 120.247H151.375C150.812 120.247 150.25 120.022 150.25 119.385C150.25 118.822 150.437 118.035 150.737 117.247L152.612 112.147C152.687 111.96 152.8 111.885 152.95 111.885H160.562C160.75 111.885 160.787 111.922 160.862 112.072L163.825 119.385C164.05 119.91 163.712 120.172 163.525 120.247C163.375 120.322 163.3 120.322 163.3 120.472C163.3 120.66 163.825 120.66 164.462 120.697C166.75 120.772 169.187 120.772 169.675 120.772C170.05 120.772 170.425 120.697 170.425 120.51C170.425 120.322 170.2 120.247 170.012 120.247C169.675 120.247 169.187 120.21 168.7 120.06C167.987 119.835 167.087 119.422 165.887 116.572C163.862 111.735 158.575 98.5721 157.975 97.2221C157.637 96.5096 157.525 96.0596 157.187 96.0596C156.962 96.0596 156.812 96.2471 156.4 97.2971L148.637 117.247ZM153.4 110.572C153.287 110.572 153.25 110.497 153.287 110.347L156.362 101.61C156.55 101.122 156.737 101.122 156.925 101.61L160.187 110.347C160.225 110.497 160.225 110.572 160.075 110.572H153.4Z" fill="#10516C"/>
<path d="M179.559 98.1221L183.684 98.1971C186.834 98.2721 187.546 98.9846 187.659 99.9596L187.696 100.297C187.734 100.747 187.809 100.86 187.959 100.86C188.109 100.86 188.259 100.71 188.259 100.447C188.259 100.072 188.371 97.7846 188.371 96.8096C188.371 96.6221 188.371 96.4346 188.221 96.4346C188.071 96.4346 187.771 96.5096 187.284 96.5846C186.759 96.6596 186.009 96.7346 184.921 96.7346H172.471C172.096 96.7346 170.821 96.6971 169.884 96.5846C168.984 96.4721 168.646 96.2096 168.421 96.2096C168.309 96.2096 168.159 96.6221 168.084 96.8096C168.046 97.0721 167.371 99.9221 167.371 100.26C167.371 100.447 167.521 100.522 167.596 100.522C167.746 100.522 167.859 100.485 167.934 100.222C168.046 99.9971 168.084 99.7721 168.459 99.2096C168.946 98.4596 169.734 98.2346 171.796 98.1971L176.559 98.1221V111.51C176.559 114.585 176.559 117.097 176.409 118.41C176.296 119.347 176.109 119.985 175.434 120.135C175.134 120.21 174.759 120.285 174.459 120.285C174.271 120.285 174.196 120.397 174.196 120.51C174.196 120.697 174.346 120.772 174.721 120.772C175.696 120.772 177.984 120.66 178.134 120.66C178.321 120.66 180.421 120.772 182.221 120.772C182.596 120.772 182.746 120.66 182.746 120.51C182.746 120.397 182.709 120.247 182.484 120.247C182.184 120.247 181.434 120.172 180.984 120.097C179.971 119.947 179.821 119.347 179.709 118.41C179.559 117.097 179.559 114.585 179.559 111.51V98.1221Z" fill="#10516C"/>
<path d="M198.247 105.885C198.247 100.935 198.247 100.035 198.284 99.0221C198.359 97.8971 198.547 97.4471 199.447 97.2596C199.822 97.1846 200.047 97.1846 200.272 97.1846C200.384 97.1846 200.534 97.0346 200.534 96.9221C200.534 96.7346 200.384 96.6596 200.009 96.6596C198.997 96.6596 196.859 96.7346 196.709 96.7346C196.522 96.7346 194.459 96.6596 193.372 96.6596C192.997 96.6596 192.847 96.7346 192.847 96.9221C192.847 97.0346 192.959 97.1846 193.109 97.1846C193.334 97.1846 193.747 97.2221 194.122 97.2971C194.834 97.4471 195.097 97.9346 195.172 99.0221C195.247 100.035 195.247 100.935 195.247 105.885V111.51C195.247 114.585 195.209 117.097 195.059 118.41C194.947 119.347 194.834 119.947 194.197 120.097C193.897 120.172 193.484 120.247 193.184 120.247C192.997 120.247 192.922 120.397 192.922 120.51C192.922 120.697 193.109 120.772 193.447 120.772C194.459 120.772 196.522 120.66 196.709 120.66C196.859 120.66 198.997 120.772 200.834 120.772C201.209 120.772 201.359 120.66 201.359 120.51C201.359 120.397 201.284 120.247 201.097 120.247C200.797 120.247 200.084 120.172 199.597 120.097C198.622 119.947 198.509 119.347 198.397 118.41C198.247 117.097 198.247 114.585 198.247 111.51V105.885Z" fill="#10516C"/>
<path d="M205.559 108.66C205.559 114.397 209.422 121.185 218.459 121.185C226.409 121.185 231.697 115.297 231.697 108.172C231.697 100.747 226.072 96.2096 218.647 96.2096C209.534 96.2096 205.559 103.522 205.559 108.66ZM208.972 107.797C208.972 100.86 212.947 97.4096 218.459 97.4096C223.672 97.4096 228.322 101.422 228.322 109.072C228.322 118.297 222.359 119.872 219.397 119.872C213.434 119.872 208.972 115.222 208.972 107.797Z" fill="#10516C"/>
<path d="M239.582 101.385C240.594 102.51 244.307 106.41 248.132 110.422C251.619 114.06 256.382 118.747 256.719 119.047C258.557 120.735 258.894 120.997 259.232 120.997C259.457 120.997 259.494 120.81 259.494 118.71L259.569 100.035C259.569 98.1221 259.644 97.4846 260.732 97.2596C261.107 97.1846 261.369 97.1846 261.519 97.1846C261.744 97.1846 261.894 96.9971 261.894 96.8846C261.894 96.6971 261.632 96.6596 261.294 96.6596C259.944 96.6596 258.857 96.7346 258.482 96.7346C258.107 96.7346 256.532 96.6596 255.032 96.6596C254.657 96.6596 254.394 96.6971 254.394 96.8846C254.394 96.9971 254.432 97.1846 254.657 97.1846C254.919 97.1846 255.669 97.2221 256.269 97.3346C257.282 97.5221 257.469 98.2346 257.507 100.297L257.844 116.272C256.832 115.222 253.307 111.435 250.044 108.06C244.944 102.81 240.144 97.7096 239.619 97.1846C239.282 96.8471 238.719 96.2096 238.344 96.2096C238.082 96.2096 237.894 96.5471 237.894 97.8221V116.085C237.894 118.972 237.782 119.835 236.957 120.06C236.469 120.21 235.869 120.247 235.607 120.247C235.457 120.247 235.344 120.36 235.344 120.51C235.344 120.735 235.532 120.772 235.869 120.772C237.369 120.772 238.757 120.66 239.057 120.66C239.357 120.66 240.669 120.772 242.544 120.772C242.919 120.772 243.144 120.697 243.144 120.51C243.144 120.36 243.032 120.247 242.882 120.247C242.582 120.247 241.832 120.21 241.232 120.06C240.332 119.835 240.032 119.047 239.957 116.422L239.582 101.385Z" fill="#10516C"/>
<path d="M267.07 117.247C266.432 118.86 265.795 119.985 264.295 120.172C264.032 120.21 263.545 120.247 263.32 120.247C263.17 120.247 263.02 120.36 263.02 120.51C263.02 120.697 263.245 120.772 263.657 120.772C265.007 120.772 266.657 120.66 266.995 120.66C267.37 120.66 269.17 120.772 269.957 120.772C270.257 120.772 270.445 120.697 270.445 120.51C270.445 120.36 270.37 120.247 270.107 120.247H269.807C269.245 120.247 268.682 120.022 268.682 119.385C268.682 118.822 268.87 118.035 269.17 117.247L271.045 112.147C271.12 111.96 271.232 111.885 271.382 111.885H278.995C279.182 111.885 279.22 111.922 279.295 112.072L282.257 119.385C282.482 119.91 282.145 120.172 281.957 120.247C281.807 120.322 281.732 120.322 281.732 120.472C281.732 120.66 282.257 120.66 282.895 120.697C285.182 120.772 287.62 120.772 288.107 120.772C288.482 120.772 288.857 120.697 288.857 120.51C288.857 120.322 288.632 120.247 288.445 120.247C288.107 120.247 287.62 120.21 287.132 120.06C286.42 119.835 285.52 119.422 284.32 116.572C282.295 111.735 277.007 98.5721 276.407 97.2221C276.07 96.5096 275.957 96.0596 275.62 96.0596C275.395 96.0596 275.245 96.2471 274.832 97.2971L267.07 117.247ZM271.832 110.572C271.72 110.572 271.682 110.497 271.72 110.347L274.795 101.61C274.982 101.122 275.17 101.122 275.357 101.61L278.62 110.347C278.657 110.497 278.657 110.572 278.507 110.572H271.832Z" fill="#10516C"/>
<path d="M296.208 105.885C296.208 100.935 296.208 100.035 296.246 99.0221C296.321 97.8971 296.508 97.4096 297.483 97.2221C297.858 97.1846 298.346 97.1471 298.571 97.1471C298.683 97.1471 298.833 97.0346 298.833 96.9221C298.833 96.7346 298.646 96.6596 298.308 96.6596C297.296 96.6596 294.821 96.7346 294.671 96.7346C294.483 96.7346 292.421 96.6596 290.921 96.6596C290.546 96.6596 290.396 96.7346 290.396 96.9221C290.396 97.0346 290.546 97.1846 290.658 97.1846C290.958 97.1846 291.521 97.2221 291.783 97.2596C292.871 97.4096 293.058 97.9346 293.133 99.0221C293.208 100.035 293.208 100.935 293.208 105.885V111.51C293.208 114.585 293.208 117.097 293.021 118.41C292.871 119.347 292.796 119.947 292.158 120.097C291.858 120.172 291.446 120.247 291.146 120.247C290.958 120.247 290.883 120.397 290.883 120.51C290.883 120.697 291.071 120.772 291.408 120.772C291.933 120.772 292.646 120.735 293.321 120.697C293.958 120.66 294.521 120.66 294.671 120.66C295.646 120.66 296.771 120.697 298.271 120.735C299.808 120.81 301.646 120.847 304.008 120.847C305.771 120.847 305.883 120.735 306.108 119.985C306.371 119.047 306.596 117.135 306.596 116.797C306.596 116.46 306.521 116.31 306.371 116.31C306.183 116.31 306.071 116.497 306.033 116.722C305.921 117.36 305.658 118.035 305.246 118.522C304.458 119.46 302.996 119.497 301.271 119.497C298.683 119.497 297.408 119.272 296.883 118.747C296.283 118.185 296.208 116.272 296.208 111.585V105.885Z" fill="#10516C"/>
<path d="M28.06 46.5062C27.508 44.9422 27.232 44.3442 26.91 44.3442C26.634 44.3442 26.45 44.5742 25.76 46.4602L16.008 72.6802H15.916C15.226 70.2422 10.442 53.3602 9.752 50.4162C9.292 48.3922 8.878 46.7822 8.878 46.1842C8.878 45.5862 9.2 45.2182 9.476 45.0802C10.028 44.8042 10.902 44.8042 11.27 44.8042C11.5 44.8042 11.73 44.7582 11.73 44.4822C11.73 44.2982 11.546 44.1602 10.902 44.1602C8.602 44.1602 6.578 44.2982 6.164 44.2982C5.658 44.2982 3.128 44.1602 0.736 44.1602C0.276 44.1602 0 44.2522 0 44.4822C0 44.7582 0.184 44.8042 0.414 44.8042C0.736 44.8042 1.886 44.8502 2.484 45.0802C3.68 45.5402 4.278 46.2302 5.014 48.6682L13.202 75.9462C14.122 79.0742 14.352 79.5802 14.812 79.5802C15.364 79.5802 15.594 79.0742 16.33 77.1422C17.986 72.8642 24.288 56.0282 25.944 51.6122H26.036L35.052 77.1882C35.696 78.9822 35.972 79.5802 36.432 79.5802C36.938 79.5802 37.168 79.0282 38.364 75.6242C40.158 70.4722 44.804 55.8442 46.828 50.0022C47.702 47.4722 48.438 45.5402 49.818 45.0342C50.324 44.8502 51.198 44.8042 51.382 44.8042C51.658 44.8042 51.796 44.6662 51.796 44.4362C51.796 44.2522 51.566 44.1602 51.152 44.1602C49.726 44.1602 47.748 44.2982 47.426 44.2982C47.012 44.2982 45.08 44.1602 42.734 44.1602C42.182 44.1602 41.952 44.2522 41.952 44.4822C41.952 44.6662 42.136 44.8042 42.366 44.8042C44.482 44.8042 44.988 45.3562 44.988 46.1842C44.988 46.7822 44.942 47.4262 44.482 49.1282C42.872 55.0162 38.64 68.3562 37.398 72.5882H37.214L28.06 46.5062Z" fill="#10516C"/>
</svg>
