<?xml version="1.0" encoding="UTF-8"?>
<svg width="174px" height="36px" viewBox="0 0 174 36" version="1.1" xmlns="http://www.w3.org/2000/svg" xmlns:xlink="http://www.w3.org/1999/xlink">
    <!-- Generator: Sketch 52.6 (67491) - http://www.bohemiancoding.com/sketch -->
    <title>Xilinx</title>
    <desc>Created with Sketch.</desc>
    <g id="Website" stroke="none" stroke-width="1" fill="none" fill-rule="evenodd">
        <g id="Xilinx">
            <polygon id="Path" fill="#EE3A25" points="0 9.4 7.6 0.6 18.8 0.6 11.2 9.4"></polygon>
            <polygon id="Path" fill="#B31E3B" points="0 9.4 7.6 18.1 18.8 18.1 11.2 9.4"></polygon>
            <polygon id="Path" fill="#EE3A25" points="0 26.8 7.6 18.1 18.8 18.1 11.2 26.8"></polygon>
            <polygon id="Path" fill="#B31E3B" points="0 26.8 7.6 35.5 18.8 35.5 11.2 26.8"></polygon>
            <polygon id="Path" fill="#EE3A25" points="33.9 0.6 18.8 0.6 26.3 9.4"></polygon>
            <polygon id="Path" fill="#B31E3B" points="33.9 35.6 18.8 35.6 26.3 26.8"></polygon>
            <polygon id="Path" fill="#000000" points="69.6 35.5 61.4 21.4 53.2 35.5 48.4 35.5 59.1 17.7 49.1 0.6 53.9 0.6 61.4 13.9 68.9 0.6 73.8 0.6 63.7 17.7 74.5 35.5"></polygon>
            <rect id="Rectangle" fill="#000000" x="77.1" y="0.6" width="4.2" height="34.9"></rect>
            <polygon id="Path" fill="#000000" points="87 35.5 87 0.6 91.2 0.6 91.2 31.7 105.6 31.7 105.6 35.5"></polygon>
            <rect id="Rectangle" fill="#000000" x="109.1" y="0.6" width="4.2" height="34.9"></rect>
            <polygon id="Path" fill="#000000" points="141.1 35.5 123.3 8.6 123.3 35.5 119.1 35.5 119.1 0.6 122.9 0.6 140.8 27.5 140.8 0.6 145 0.6 145 35.5"></polygon>
            <polygon id="Path" fill="#000000" points="168.8 35.5 160.6 21.4 152.3 35.5 147.5 35.5 158.2 17.7 148.2 0.6 153.1 0.6 160.6 13.9 168 0.6 172.9 0.6 162.9 17.7 173.6 35.5"></polygon>
        </g>
    </g>
</svg>